<svg width="368" height="210" viewBox="0 0 368 210" fill="none" xmlns="http://www.w3.org/2000/svg">
<rect width="368" height="210" fill="#0063C3"/>
<rect width="210" height="210" transform="translate(84)" fill="#0063C3"/>
<path fill-rule="evenodd" clip-rule="evenodd" d="M160.514 119.372L173.371 106.515C174.208 105.678 174.208 104.322 173.371 103.485L160.514 90.6276C159.677 89.7908 158.32 89.7908 157.483 90.6276C156.646 91.4645 156.646 92.8212 157.483 93.6581L166.682 102.857H143.447C142.568 102.857 141.855 103.817 141.855 105C141.855 106.183 142.568 107.143 143.447 107.143H166.682L157.483 116.342C156.646 117.179 156.646 118.536 157.483 119.372C158.32 120.209 159.677 120.209 160.514 119.372Z" fill="#FAAC48"/>
<path d="M92.6087 100.448C92.8416 100.101 93.266 99.9352 93.6725 100.033C94.079 100.13 94.3818 100.47 94.432 100.885L94.432 100.886L94.4321 100.886L94.4333 100.896L94.4394 100.941C94.4453 100.983 94.4546 101.048 94.4681 101.132C94.495 101.3 94.5381 101.547 94.6019 101.852C94.7299 102.462 94.939 103.295 95.2623 104.183C95.9263 106.009 96.9933 107.856 98.6161 108.71C103.677 111.373 108.842 113.693 113.669 115.862C115.181 116.541 116.659 117.206 118.091 117.861C124.038 120.582 129.251 123.177 132.452 126.027C136.332 129.482 136.735 134.008 135.793 137.764C135.324 139.637 134.516 141.35 133.611 142.706C132.726 144.034 131.676 145.126 130.662 145.63C130.312 145.803 129.894 145.758 129.59 145.513C129.286 145.268 129.152 144.869 129.247 144.49C130.432 139.775 129.954 134.891 127.878 132.101C123.593 127.491 116.158 124.018 109.137 121.201C107.474 120.534 105.799 119.89 104.211 119.279C102.525 118.631 100.937 118.02 99.5619 117.458C98.1982 116.901 96.9726 116.363 95.9604 115.84C94.965 115.326 94.101 114.788 93.5178 114.208C91.506 112.209 90.3747 110.037 90.24 107.66C90.1062 105.301 90.9642 102.9 92.6087 100.448Z" fill="#528C2E" stroke="#003E6B" stroke-width="2" stroke-linejoin="round"/>
<path d="M91.8138 55.5456C92.0467 55.1984 92.471 55.0327 92.8776 55.1303C93.284 55.2278 93.5869 55.5678 93.637 55.9827L93.6371 55.9832L93.6371 55.9835L93.6383 55.9931L93.6445 56.0388C93.6503 56.0808 93.6597 56.1451 93.6731 56.2293C93.7 56.3977 93.7432 56.6447 93.807 56.9491C93.935 57.5599 94.1441 58.3921 94.4673 59.281C95.1314 61.1069 96.1983 62.9534 97.8212 63.8073C99.6958 64.7938 101.605 65.7896 103.518 66.7877C108.404 69.3364 113.319 71.8999 117.762 74.3601C123.926 77.7733 129.288 81.0428 132.452 83.8595C136.332 87.3139 136.735 91.8399 135.793 95.5967C135.324 97.4698 134.516 99.1824 133.611 100.539C132.726 101.866 131.676 102.958 130.662 103.462C130.312 103.636 129.894 103.59 129.59 103.345C129.286 103.1 129.152 102.701 129.247 102.323C130.432 97.6073 129.954 92.7236 127.878 89.9331C123.566 85.2916 115.898 81.1398 108.676 77.6379C106.925 76.7889 105.166 75.9617 103.503 75.1798C101.808 74.383 100.213 73.6331 98.8296 72.9552C97.4311 72.27 96.1817 71.627 95.1565 71.0318C94.1477 70.446 93.2897 69.8693 92.7229 69.3059C90.7111 67.3063 89.5798 65.1341 89.445 62.7577C89.3113 60.3982 90.1693 57.9973 91.8138 55.5456Z" fill="#528C2E" stroke="#003E6B" stroke-width="2" stroke-linejoin="round"/>
<rect x="93.5156" y="104.69" width="28.7116" height="5.68069" rx="2.84034" fill="#99DFF9" stroke="#003E6B" stroke-width="2" stroke-linejoin="round"/>
<rect x="93.5156" y="95.3197" width="38.1393" height="5.68068" rx="2.84034" fill="#99DFF9" stroke="#003E6B" stroke-width="2" stroke-linejoin="round"/>
<rect x="102.941" y="85.9491" width="30.2829" height="5.68069" rx="2.84034" fill="#99DFF9" stroke="#003E6B" stroke-width="2" stroke-linejoin="round"/>
<rect x="99.6523" y="68.7702" width="22.4266" height="5.68068" rx="2.84034" fill="#99DFF9" stroke="#003E6B" stroke-width="2" stroke-linejoin="round"/>
<rect x="92.4258" y="59.1311" width="36.0689" height="5.68068" rx="2.84034" fill="#99DFF9" stroke="#003E6B" stroke-width="2" stroke-linejoin="round"/>
<rect x="98.3516" y="123.175" width="30.1438" height="5.68068" rx="2.84034" fill="#99DFF9" stroke="#003E6B" stroke-width="2" stroke-linejoin="round"/>
<rect x="91.9453" y="132.802" width="41.2818" height="5.68068" rx="2.84034" fill="#99DFF9" stroke="#003E6B" stroke-width="2" stroke-linejoin="round"/>
<path d="M129.767 55.1572C129.543 54.8234 129.141 54.6561 128.747 54.7325C128.352 54.8089 128.041 55.114 127.958 55.5071L127.958 55.5073L127.958 55.5076L127.957 55.5132L127.951 55.5394C127.946 55.5635 127.937 55.6006 127.926 55.6491C127.903 55.7463 127.869 55.8894 127.822 56.0676C127.729 56.4247 127.588 56.9184 127.402 57.4628C127.017 58.5878 126.479 59.7915 125.834 60.5143C120.291 66.7204 113.228 74.3747 106.957 81.1419C105.586 82.6205 104.253 84.0573 102.982 85.4275C98.4419 90.321 94.6897 94.3654 92.8397 96.4339C89.436 100.24 89.0067 104.709 90.0687 108.406C91.1097 112.031 93.6451 115.094 96.4108 116.01C96.7572 116.125 97.1385 116.042 97.4058 115.793C97.6731 115.545 97.784 115.171 97.6951 114.817C97.0801 112.369 96.5137 109.915 96.3789 107.701C96.2447 105.499 96.5504 103.705 97.4952 102.426C106.424 92.7683 125.111 72.6414 128.858 68.9175C130.87 66.9179 132.001 64.7457 132.136 62.3693C132.27 60.0098 131.411 57.609 129.767 55.1572Z" fill="#84BE60" stroke="#003E6B" stroke-width="2" stroke-linejoin="round"/>
<path d="M134.629 86.392C134.421 86.0827 134.059 85.9143 133.689 85.9551L133.332 88.1006C133.621 87.4039 133.798 86.9491 133.798 86.9491L132.867 86.5861L132.867 86.5862L132.867 86.5862L132.866 86.5868L132.865 86.5896L132.861 86.6017L132.841 86.6506C132.824 86.694 132.799 86.7583 132.766 86.8412C132.699 87.007 132.603 87.2466 132.482 87.5399C132.239 88.1272 131.9 88.9272 131.514 89.7799C131.126 90.6344 130.695 91.5318 130.269 92.3176C129.833 93.1213 129.436 93.7429 129.124 94.0916C123.61 100.265 115.753 107.701 108.656 114.275C107.166 115.655 105.707 117 104.31 118.287C99.0914 123.097 94.7342 127.112 92.8397 129.23C89.436 133.036 89.0067 137.505 90.0687 141.203C91.1097 144.828 93.6451 147.891 96.4108 148.806C96.7572 148.921 97.1385 148.838 97.4058 148.59C97.6731 148.341 97.784 147.967 97.6951 147.613C97.0801 145.166 96.5137 142.711 96.3789 140.498C96.2447 138.295 96.5504 136.502 97.4951 135.223C101.921 130.442 109.605 123.228 116.686 116.714C119.338 114.274 121.909 111.93 124.187 109.853C127.979 106.394 130.959 103.677 132.149 102.495C136.142 98.526 138.121 91.5982 134.629 86.392Z" fill="#84BE60" stroke="#003E6B" stroke-width="2" stroke-linejoin="round"/>
<path d="M189.034 53.3053C189.267 52.9581 189.692 52.7924 190.098 52.89C190.505 52.9875 190.808 53.3275 190.858 53.7424L190.858 53.7429L190.858 53.7432L190.859 53.7528L190.865 53.7985C190.871 53.8404 190.88 53.9048 190.894 53.989C190.921 54.1574 190.964 54.4044 191.028 54.7088C191.156 55.3196 191.365 56.1518 191.688 57.0406C192.352 58.8666 193.419 60.7131 195.042 61.567C200.103 64.2299 205.268 66.5506 210.095 68.7194C211.607 69.3985 213.085 70.0627 214.517 70.7179C220.463 73.4392 225.677 76.0342 228.878 78.8843C232.757 82.3388 233.161 86.8647 232.219 90.6215C231.749 92.4946 230.942 94.2073 230.037 95.5633C229.152 96.891 228.101 97.9833 227.088 98.4868C226.738 98.6605 226.32 98.6149 226.016 98.3701C225.712 98.1253 225.578 97.7261 225.673 97.3475C226.858 92.6321 226.38 87.7485 224.303 84.958C220.019 80.3481 212.584 76.8756 205.563 74.0585C203.9 73.3909 202.225 72.7469 200.637 72.1362C198.951 71.488 197.363 70.8773 195.988 70.3152C194.624 69.7577 193.398 69.2206 192.386 68.6976C191.391 68.1832 190.527 67.6452 189.944 67.0656C187.932 65.0659 186.801 62.8938 186.666 60.5173C186.532 58.1579 187.39 55.757 189.034 53.3053Z" fill="#528C2E" stroke="#003E6B" stroke-width="2" stroke-linejoin="round"/>
<path d="M188.24 8.40277C188.472 8.05553 188.897 7.88985 189.303 7.98742C189.71 8.08495 190.013 8.42495 190.063 8.83986L190.063 8.84032L190.063 8.8407L190.064 8.85026L190.07 8.89596C190.076 8.9379 190.085 9.00227 190.099 9.08643C190.126 9.25488 190.169 9.50185 190.233 9.80628C190.361 10.417 190.57 11.2493 190.893 12.1381C191.557 13.9641 192.624 15.8105 194.247 16.6645C196.122 17.6509 198.031 18.6467 199.944 19.6448C204.83 22.1936 209.744 24.7571 214.188 27.2172C220.352 30.6305 225.714 33.9 228.878 36.7166C232.757 40.1711 233.161 44.6971 232.219 48.4538C231.749 50.3269 230.942 52.0396 230.037 53.3956C229.152 54.7233 228.101 55.8156 227.088 56.3191C226.738 56.4928 226.32 56.4472 226.016 56.2024C225.712 55.9576 225.578 55.5584 225.673 55.1799C226.858 50.4644 226.38 45.5807 224.303 42.7902C219.992 38.1487 212.323 33.997 205.102 30.4951C203.351 29.6461 201.592 28.8189 199.929 28.037C198.234 27.2401 196.639 26.4903 195.255 25.8123C193.857 25.1271 192.607 24.4842 191.582 23.8889C190.573 23.3032 189.715 22.7264 189.149 22.163C187.137 20.1634 186.006 17.9913 185.871 15.6148C185.737 13.2553 186.595 10.8545 188.24 8.40277Z" fill="#528C2E" stroke="#003E6B" stroke-width="2" stroke-linejoin="round"/>
<rect x="189.941" y="57.5475" width="28.7116" height="5.68069" rx="2.84034" fill="#99DFF9" stroke="#003E6B" stroke-width="2" stroke-linejoin="round"/>
<rect x="189.941" y="48.1768" width="38.1393" height="5.68068" rx="2.84034" fill="#99DFF9" stroke="#003E6B" stroke-width="2" stroke-linejoin="round"/>
<rect x="199.367" y="38.8062" width="30.2829" height="5.68068" rx="2.84034" fill="#99DFF9" stroke="#003E6B" stroke-width="2" stroke-linejoin="round"/>
<rect x="196.078" y="21.6274" width="22.4266" height="5.68068" rx="2.84034" fill="#99DFF9" stroke="#003E6B" stroke-width="2" stroke-linejoin="round"/>
<rect x="188.852" y="11.9883" width="36.0689" height="5.68068" rx="2.84034" fill="#99DFF9" stroke="#003E6B" stroke-width="2" stroke-linejoin="round"/>
<rect x="194.777" y="76.0321" width="30.1438" height="5.68068" rx="2.84034" fill="#99DFF9" stroke="#003E6B" stroke-width="2" stroke-linejoin="round"/>
<rect x="188.371" y="85.6589" width="41.2818" height="5.68069" rx="2.84034" fill="#99DFF9" stroke="#003E6B" stroke-width="2" stroke-linejoin="round"/>
<path d="M226.193 8.01441C225.969 7.6806 225.567 7.51328 225.172 7.58966C224.778 7.66602 224.467 7.97113 224.384 8.36424L224.384 8.3645L224.384 8.36479L224.383 8.37033L224.377 8.39661C224.372 8.42071 224.363 8.45773 224.352 8.5063C224.329 8.60349 224.294 8.74659 224.248 8.92475C224.154 9.2819 224.014 9.77552 223.828 10.3199C223.443 11.4449 222.905 12.6486 222.26 13.3714C216.717 19.5776 209.654 27.2319 203.382 33.999C202.012 35.4778 200.679 36.9147 199.407 38.2851C194.867 43.1784 191.115 47.2226 189.266 49.2911C185.862 53.0971 185.432 57.5658 186.494 61.2636C187.535 64.8882 190.071 67.9512 192.837 68.8671C193.183 68.9818 193.564 68.8988 193.832 68.6504C194.099 68.4021 194.21 68.0279 194.121 67.6741C193.506 65.2266 192.94 62.7718 192.805 60.5585C192.67 58.3558 192.976 56.5621 193.921 55.2834C202.85 45.6254 221.537 25.4985 225.284 21.7747C227.295 19.775 228.427 17.6029 228.562 15.2264C228.695 12.867 227.837 10.4661 226.193 8.01441Z" fill="#84BE60" stroke="#003E6B" stroke-width="2" stroke-linejoin="round"/>
<path d="M231.055 39.2492C230.847 38.9398 230.485 38.7714 230.115 38.8122L229.758 40.9577C230.047 40.2611 230.224 39.8062 230.224 39.8062L229.292 39.4433L229.292 39.4433L229.292 39.4434L229.292 39.444L229.291 39.4468L229.286 39.4588L229.267 39.5078C229.25 39.5511 229.225 39.6155 229.191 39.6984C229.125 39.8641 229.028 40.1037 228.907 40.3971C228.665 40.9844 228.326 41.7843 227.939 42.637C227.552 43.4915 227.121 44.389 226.695 45.1748C226.259 45.9785 225.862 46.6 225.55 46.9488C220.036 53.1225 212.178 60.5577 205.082 67.1321C203.592 68.5124 202.133 69.8569 200.735 71.1446C195.517 75.9537 191.16 79.9692 189.266 82.0876C185.862 85.8936 185.432 90.3623 186.494 94.0601C187.535 97.6847 190.071 100.748 192.837 101.664C193.183 101.778 193.564 101.695 193.832 101.447C194.099 101.199 194.21 100.824 194.121 100.471C193.506 98.0231 192.94 95.5683 192.805 93.355C192.67 91.1524 192.976 89.3588 193.921 88.08C198.346 83.2992 206.03 76.0856 213.112 69.5711C215.764 67.1314 218.335 64.7871 220.613 62.7101C224.405 59.2515 227.385 56.5341 228.574 55.3521C232.567 51.3831 234.547 44.4554 231.055 39.2492Z" fill="#84BE60" stroke="#003E6B" stroke-width="2" stroke-linejoin="round"/>
<path d="M242.609 53.3053C242.842 52.9581 243.266 52.7924 243.673 52.89C244.079 52.9875 244.382 53.3275 244.432 53.7424L244.432 53.7429L244.432 53.7432L244.433 53.7528L244.439 53.7985C244.445 53.8404 244.455 53.9048 244.468 53.989C244.495 54.1574 244.538 54.4044 244.602 54.7088C244.73 55.3196 244.939 56.1518 245.262 57.0406C245.926 58.8666 246.993 60.7131 248.616 61.567C253.677 64.2299 258.842 66.5506 263.669 68.7194C265.181 69.3985 266.659 70.0627 268.091 70.7179C274.038 73.4392 279.251 76.0342 282.452 78.8843C286.332 82.3388 286.735 86.8647 285.793 90.6215C285.324 92.4946 284.516 94.2073 283.611 95.5633C282.726 96.891 281.676 97.9833 280.662 98.4868C280.312 98.6605 279.894 98.6149 279.59 98.3701C279.286 98.1253 279.152 97.7261 279.247 97.3475C280.432 92.6321 279.954 87.7485 277.878 84.958C273.593 80.3481 266.158 76.8756 259.137 74.0585C257.474 73.3909 255.799 72.7469 254.211 72.1362C252.525 71.488 250.937 70.8773 249.562 70.3152C248.198 69.7577 246.973 69.2206 245.96 68.6976C244.965 68.1832 244.101 67.6452 243.518 67.0656C241.506 65.0659 240.375 62.8938 240.24 60.5173C240.106 58.1579 240.964 55.757 242.609 53.3053Z" fill="#528C2E" stroke="#003E6B" stroke-width="2" stroke-linejoin="round"/>
<path d="M241.814 8.40277C242.047 8.05553 242.471 7.88985 242.878 7.98742C243.284 8.08495 243.587 8.42495 243.637 8.83986L243.637 8.84032L243.637 8.8407L243.638 8.85026L243.645 8.89596C243.65 8.9379 243.66 9.00227 243.673 9.08643C243.7 9.25488 243.743 9.50185 243.807 9.80628C243.935 10.417 244.144 11.2493 244.467 12.1381C245.131 13.9641 246.198 15.8105 247.821 16.6645C249.696 17.6509 251.605 18.6467 253.518 19.6448C258.404 22.1936 263.319 24.7571 267.762 27.2172C273.926 30.6305 279.288 33.9 282.452 36.7166C286.332 40.1711 286.735 44.6971 285.793 48.4538C285.324 50.3269 284.516 52.0396 283.611 53.3956C282.726 54.7233 281.676 55.8156 280.662 56.3191C280.312 56.4928 279.894 56.4472 279.59 56.2024C279.286 55.9576 279.152 55.5584 279.247 55.1799C280.432 50.4644 279.954 45.5807 277.878 42.7902C273.566 38.1487 265.898 33.997 258.676 30.4951C256.925 29.6461 255.166 28.8189 253.503 28.037C251.808 27.2401 250.213 26.4903 248.83 25.8123C247.431 25.1271 246.182 24.4842 245.157 23.8889C244.148 23.3032 243.29 22.7264 242.723 22.163C240.711 20.1634 239.58 17.9913 239.445 15.6148C239.311 13.2553 240.169 10.8545 241.814 8.40277Z" fill="#528C2E" stroke="#003E6B" stroke-width="2" stroke-linejoin="round"/>
<rect x="243.516" y="57.5475" width="28.7116" height="5.68069" rx="2.84034" fill="#99DFF9" stroke="#003E6B" stroke-width="2" stroke-linejoin="round"/>
<rect x="243.516" y="48.1768" width="38.1393" height="5.68068" rx="2.84034" fill="#99DFF9" stroke="#003E6B" stroke-width="2" stroke-linejoin="round"/>
<rect x="252.941" y="38.8062" width="30.2829" height="5.68068" rx="2.84034" fill="#99DFF9" stroke="#003E6B" stroke-width="2" stroke-linejoin="round"/>
<rect x="249.652" y="21.6274" width="22.4266" height="5.68068" rx="2.84034" fill="#99DFF9" stroke="#003E6B" stroke-width="2" stroke-linejoin="round"/>
<rect x="242.426" y="11.9883" width="36.0689" height="5.68068" rx="2.84034" fill="#99DFF9" stroke="#003E6B" stroke-width="2" stroke-linejoin="round"/>
<rect x="248.352" y="76.0321" width="30.1438" height="5.68068" rx="2.84034" fill="#99DFF9" stroke="#003E6B" stroke-width="2" stroke-linejoin="round"/>
<rect x="241.945" y="85.6589" width="41.2818" height="5.68069" rx="2.84034" fill="#99DFF9" stroke="#003E6B" stroke-width="2" stroke-linejoin="round"/>
<path d="M279.767 8.01441C279.543 7.6806 279.141 7.51328 278.747 7.58966C278.352 7.66602 278.041 7.97113 277.958 8.36424L277.958 8.3645L277.958 8.36479L277.957 8.37033L277.951 8.39661C277.946 8.42071 277.937 8.45773 277.926 8.5063C277.903 8.60349 277.869 8.74659 277.822 8.92475C277.729 9.2819 277.588 9.77552 277.402 10.3199C277.017 11.4449 276.479 12.6486 275.834 13.3714C270.291 19.5776 263.228 27.2319 256.957 33.999C255.586 35.4778 254.253 36.9147 252.982 38.2851C248.442 43.1784 244.69 47.2226 242.84 49.2911C239.436 53.0971 239.007 57.5658 240.069 61.2636C241.11 64.8882 243.645 67.9512 246.411 68.8671C246.757 68.9818 247.139 68.8988 247.406 68.6504C247.673 68.4021 247.784 68.0279 247.695 67.6741C247.08 65.2266 246.514 62.7718 246.379 60.5585C246.245 58.3558 246.55 56.5621 247.495 55.2834C256.424 45.6254 275.111 25.4985 278.858 21.7747C280.87 19.775 282.001 17.6029 282.136 15.2264C282.27 12.867 281.411 10.4661 279.767 8.01441Z" fill="#84BE60" stroke="#003E6B" stroke-width="2" stroke-linejoin="round"/>
<path d="M284.629 39.2492C284.421 38.9398 284.059 38.7714 283.689 38.8122L283.332 40.9577C283.621 40.2611 283.798 39.8062 283.798 39.8062L282.867 39.4433L282.867 39.4433L282.867 39.4434L282.866 39.444L282.865 39.4468L282.861 39.4588L282.841 39.5078C282.824 39.5511 282.799 39.6155 282.766 39.6984C282.699 39.8641 282.603 40.1037 282.482 40.3971C282.239 40.9844 281.9 41.7843 281.514 42.637C281.126 43.4915 280.695 44.389 280.269 45.1748C279.833 45.9785 279.436 46.6 279.124 46.9488C273.61 53.1225 265.753 60.5577 258.656 67.1321C257.166 68.5124 255.707 69.8569 254.31 71.1446C249.091 75.9537 244.734 79.9692 242.84 82.0876C239.436 85.8936 239.007 90.3623 240.069 94.0601C241.11 97.6847 243.645 100.748 246.411 101.664C246.757 101.778 247.139 101.695 247.406 101.447C247.673 101.199 247.784 100.824 247.695 100.471C247.08 98.0231 246.514 95.5683 246.379 93.355C246.245 91.1524 246.55 89.3588 247.495 88.08C251.921 83.2992 259.605 76.0856 266.686 69.5711C269.338 67.1314 271.909 64.7871 274.187 62.7101C277.979 59.2515 280.959 56.5341 282.149 55.3521C286.142 51.3831 288.121 44.4554 284.629 39.2492Z" fill="#84BE60" stroke="#003E6B" stroke-width="2" stroke-linejoin="round"/>
<path d="M189.034 154.02C189.267 153.672 189.692 153.507 190.098 153.604C190.505 153.702 190.808 154.042 190.858 154.457L190.858 154.457L190.858 154.458L190.859 154.467L190.865 154.513C190.871 154.555 190.88 154.619 190.894 154.703C190.921 154.872 190.964 155.119 191.028 155.423C191.156 156.034 191.365 156.866 191.688 157.755C192.352 159.581 193.419 161.427 195.042 162.281C200.103 164.944 205.268 167.265 210.095 169.434C211.607 170.113 213.085 170.777 214.517 171.432C220.463 174.153 225.677 176.748 228.878 179.599C232.757 183.053 233.161 187.579 232.219 191.336C231.749 193.209 230.942 194.922 230.037 196.278C229.152 197.605 228.101 198.698 227.088 199.201C226.738 199.375 226.32 199.329 226.016 199.084C225.712 198.84 225.578 198.44 225.673 198.062C226.858 193.346 226.38 188.463 224.303 185.672C220.019 181.062 212.584 177.59 205.563 174.773C203.9 174.105 202.225 173.461 200.637 172.85C198.951 172.202 197.363 171.592 195.988 171.029C194.624 170.472 193.398 169.935 192.386 169.412C191.391 168.897 190.527 168.359 189.944 167.78C187.932 165.78 186.801 163.608 186.666 161.232C186.532 158.872 187.39 156.471 189.034 154.02Z" fill="#528C2E" stroke="#003E6B" stroke-width="2" stroke-linejoin="round"/>
<path d="M188.24 109.117C188.472 108.77 188.897 108.604 189.303 108.702C189.71 108.799 190.013 109.139 190.063 109.554L190.063 109.555L190.063 109.555L190.064 109.565L190.07 109.61C190.076 109.652 190.085 109.717 190.099 109.801C190.126 109.969 190.169 110.216 190.233 110.521C190.361 111.131 190.57 111.964 190.893 112.852C191.557 114.678 192.624 116.525 194.247 117.379C196.122 118.365 198.031 119.361 199.944 120.359C204.83 122.908 209.744 125.471 214.188 127.932C220.352 131.345 225.714 134.614 228.878 137.431C232.757 140.885 233.161 145.411 232.219 149.168C231.749 151.041 230.942 152.754 230.037 154.11C229.152 155.438 228.101 156.53 227.088 157.033C226.738 157.207 226.32 157.161 226.016 156.917C225.712 156.672 225.578 156.273 225.673 155.894C226.858 151.179 226.38 146.295 224.303 143.504C219.992 138.863 212.323 134.711 205.102 131.209C203.351 130.36 201.592 129.533 199.929 128.751C198.234 127.954 196.639 127.205 195.255 126.527C193.857 125.841 192.607 125.198 191.582 124.603C190.573 124.017 189.715 123.441 189.149 122.877C187.137 120.878 186.006 118.706 185.871 116.329C185.737 113.97 186.595 111.569 188.24 109.117Z" fill="#528C2E" stroke="#003E6B" stroke-width="2" stroke-linejoin="round"/>
<rect x="189.941" y="158.262" width="28.7116" height="5.68069" rx="2.84034" fill="#99DFF9" stroke="#003E6B" stroke-width="2" stroke-linejoin="round"/>
<rect x="189.941" y="148.891" width="38.1393" height="5.68068" rx="2.84034" fill="#99DFF9" stroke="#003E6B" stroke-width="2" stroke-linejoin="round"/>
<rect x="199.367" y="139.52" width="30.2829" height="5.68068" rx="2.84034" fill="#99DFF9" stroke="#003E6B" stroke-width="2" stroke-linejoin="round"/>
<rect x="196.078" y="122.342" width="22.4266" height="5.68068" rx="2.84034" fill="#99DFF9" stroke="#003E6B" stroke-width="2" stroke-linejoin="round"/>
<rect x="188.852" y="112.703" width="36.0689" height="5.68068" rx="2.84034" fill="#99DFF9" stroke="#003E6B" stroke-width="2" stroke-linejoin="round"/>
<rect x="194.777" y="176.746" width="30.1438" height="5.68068" rx="2.84034" fill="#99DFF9" stroke="#003E6B" stroke-width="2" stroke-linejoin="round"/>
<rect x="188.371" y="186.373" width="41.2818" height="5.68069" rx="2.84034" fill="#99DFF9" stroke="#003E6B" stroke-width="2" stroke-linejoin="round"/>
<path d="M226.193 108.729C225.969 108.395 225.567 108.228 225.172 108.304C224.778 108.38 224.467 108.685 224.384 109.079L224.384 109.079L224.384 109.079L224.383 109.085L224.377 109.111C224.372 109.135 224.363 109.172 224.352 109.221C224.329 109.318 224.294 109.461 224.248 109.639C224.154 109.996 224.014 110.49 223.828 111.034C223.443 112.159 222.905 113.363 222.26 114.086C216.717 120.292 209.654 127.946 203.382 134.713C202.012 136.192 200.679 137.629 199.407 138.999C194.867 143.893 191.115 147.937 189.266 150.005C185.862 153.811 185.432 158.28 186.494 161.978C187.535 165.602 190.071 168.665 192.837 169.581C193.183 169.696 193.564 169.613 193.832 169.365C194.099 169.116 194.21 168.742 194.121 168.388C193.506 165.941 192.94 163.486 192.805 161.273C192.67 159.07 192.976 157.276 193.921 155.998C202.85 146.34 221.537 126.213 225.284 122.489C227.295 120.489 228.427 118.317 228.562 115.941C228.695 113.581 227.837 111.18 226.193 108.729Z" fill="#84BE60" stroke="#003E6B" stroke-width="2" stroke-linejoin="round"/>
<path d="M231.055 139.963C230.847 139.654 230.485 139.486 230.115 139.526L229.758 141.672C230.047 140.975 230.224 140.52 230.224 140.52L229.292 140.158L229.292 140.158L229.292 140.158L229.292 140.158L229.291 140.161L229.286 140.173L229.267 140.222C229.25 140.265 229.225 140.33 229.191 140.413C229.125 140.578 229.028 140.818 228.907 141.111C228.665 141.699 228.326 142.499 227.939 143.351C227.552 144.206 227.121 145.103 226.695 145.889C226.259 146.693 225.862 147.314 225.55 147.663C220.036 153.837 212.178 161.272 205.082 167.846C203.592 169.227 202.133 170.571 200.735 171.859C195.517 176.668 191.16 180.683 189.266 182.802C185.862 186.608 185.432 191.077 186.494 194.774C187.535 198.399 190.071 201.462 192.837 202.378C193.183 202.493 193.564 202.41 193.832 202.161C194.099 201.913 194.21 201.539 194.121 201.185C193.506 198.737 192.94 196.283 192.805 194.069C192.67 191.867 192.976 190.073 193.921 188.794C198.346 184.013 206.03 176.8 213.112 170.285C215.764 167.846 218.335 165.501 220.613 163.424C224.405 159.966 227.385 157.248 228.574 156.066C232.567 152.097 234.547 145.17 231.055 139.963Z" fill="#84BE60" stroke="#003E6B" stroke-width="2" stroke-linejoin="round"/>
<path d="M242.609 154.02C242.842 153.672 243.266 153.507 243.673 153.604C244.079 153.702 244.382 154.042 244.432 154.457L244.432 154.457L244.432 154.458L244.433 154.467L244.439 154.513C244.445 154.555 244.455 154.619 244.468 154.703C244.495 154.872 244.538 155.119 244.602 155.423C244.73 156.034 244.939 156.866 245.262 157.755C245.926 159.581 246.993 161.427 248.616 162.281C253.677 164.944 258.842 167.265 263.669 169.434C265.181 170.113 266.659 170.777 268.091 171.432C274.038 174.153 279.251 176.748 282.452 179.599C286.332 183.053 286.735 187.579 285.793 191.336C285.324 193.209 284.516 194.922 283.611 196.278C282.726 197.605 281.676 198.698 280.662 199.201C280.312 199.375 279.894 199.329 279.59 199.084C279.286 198.84 279.152 198.44 279.247 198.062C280.432 193.346 279.954 188.463 277.878 185.672C273.593 181.062 266.158 177.59 259.137 174.773C257.474 174.105 255.799 173.461 254.211 172.85C252.525 172.202 250.937 171.592 249.562 171.029C248.198 170.472 246.973 169.935 245.96 169.412C244.965 168.897 244.101 168.359 243.518 167.78C241.506 165.78 240.375 163.608 240.24 161.232C240.106 158.872 240.964 156.471 242.609 154.02Z" fill="#528C2E" stroke="#003E6B" stroke-width="2" stroke-linejoin="round"/>
<path d="M241.814 109.117C242.047 108.77 242.471 108.604 242.878 108.702C243.284 108.799 243.587 109.139 243.637 109.554L243.637 109.555L243.637 109.555L243.638 109.565L243.645 109.61C243.65 109.652 243.66 109.717 243.673 109.801C243.7 109.969 243.743 110.216 243.807 110.521C243.935 111.131 244.144 111.964 244.467 112.852C245.131 114.678 246.198 116.525 247.821 117.379C249.696 118.365 251.605 119.361 253.518 120.359C258.404 122.908 263.319 125.471 267.762 127.932C273.926 131.345 279.288 134.614 282.452 137.431C286.332 140.885 286.735 145.411 285.793 149.168C285.324 151.041 284.516 152.754 283.611 154.11C282.726 155.438 281.676 156.53 280.662 157.033C280.312 157.207 279.894 157.161 279.59 156.917C279.286 156.672 279.152 156.273 279.247 155.894C280.432 151.179 279.954 146.295 277.878 143.504C273.566 138.863 265.898 134.711 258.676 131.209C256.925 130.36 255.166 129.533 253.503 128.751C251.808 127.954 250.213 127.205 248.83 126.527C247.431 125.841 246.182 125.198 245.157 124.603C244.148 124.017 243.29 123.441 242.723 122.877C240.711 120.878 239.58 118.706 239.445 116.329C239.311 113.97 240.169 111.569 241.814 109.117Z" fill="#528C2E" stroke="#003E6B" stroke-width="2" stroke-linejoin="round"/>
<rect x="243.516" y="158.262" width="28.7116" height="5.68069" rx="2.84034" fill="#99DFF9" stroke="#003E6B" stroke-width="2" stroke-linejoin="round"/>
<rect x="243.516" y="148.891" width="38.1393" height="5.68068" rx="2.84034" fill="#99DFF9" stroke="#003E6B" stroke-width="2" stroke-linejoin="round"/>
<rect x="252.941" y="139.52" width="30.2829" height="5.68068" rx="2.84034" fill="#99DFF9" stroke="#003E6B" stroke-width="2" stroke-linejoin="round"/>
<rect x="249.652" y="122.342" width="22.4266" height="5.68068" rx="2.84034" fill="#99DFF9" stroke="#003E6B" stroke-width="2" stroke-linejoin="round"/>
<rect x="242.426" y="112.703" width="36.0689" height="5.68068" rx="2.84034" fill="#99DFF9" stroke="#003E6B" stroke-width="2" stroke-linejoin="round"/>
<rect x="248.352" y="176.746" width="30.1438" height="5.68068" rx="2.84034" fill="#99DFF9" stroke="#003E6B" stroke-width="2" stroke-linejoin="round"/>
<rect x="241.945" y="186.373" width="41.2818" height="5.68069" rx="2.84034" fill="#99DFF9" stroke="#003E6B" stroke-width="2" stroke-linejoin="round"/>
<path d="M279.767 108.729C279.543 108.395 279.141 108.228 278.747 108.304C278.352 108.38 278.041 108.685 277.958 109.079L277.958 109.079L277.958 109.079L277.957 109.085L277.951 109.111C277.946 109.135 277.937 109.172 277.926 109.221C277.903 109.318 277.869 109.461 277.822 109.639C277.729 109.996 277.588 110.49 277.402 111.034C277.017 112.159 276.479 113.363 275.834 114.086C270.291 120.292 263.228 127.946 256.957 134.713C255.586 136.192 254.253 137.629 252.982 138.999C248.442 143.893 244.69 147.937 242.84 150.005C239.436 153.811 239.007 158.28 240.069 161.978C241.11 165.602 243.645 168.665 246.411 169.581C246.757 169.696 247.139 169.613 247.406 169.365C247.673 169.116 247.784 168.742 247.695 168.388C247.08 165.941 246.514 163.486 246.379 161.273C246.245 159.07 246.55 157.276 247.495 155.998C256.424 146.34 275.111 126.213 278.858 122.489C280.87 120.489 282.001 118.317 282.136 115.941C282.27 113.581 281.411 111.18 279.767 108.729Z" fill="#84BE60" stroke="#003E6B" stroke-width="2" stroke-linejoin="round"/>
<path d="M284.629 139.963C284.421 139.654 284.059 139.486 283.689 139.526L283.332 141.672C283.621 140.975 283.798 140.52 283.798 140.52L282.867 140.158L282.867 140.158L282.867 140.158L282.866 140.158L282.865 140.161L282.861 140.173L282.841 140.222C282.824 140.265 282.799 140.33 282.766 140.413C282.699 140.578 282.603 140.818 282.482 141.111C282.239 141.699 281.9 142.499 281.514 143.351C281.126 144.206 280.695 145.103 280.269 145.889C279.833 146.693 279.436 147.314 279.124 147.663C273.61 153.837 265.753 161.272 258.656 167.846C257.166 169.227 255.707 170.571 254.31 171.859C249.091 176.668 244.734 180.683 242.84 182.802C239.436 186.608 239.007 191.077 240.069 194.774C241.11 198.399 243.645 201.462 246.411 202.378C246.757 202.493 247.139 202.41 247.406 202.161C247.673 201.913 247.784 201.539 247.695 201.185C247.08 198.737 246.514 196.283 246.379 194.069C246.245 191.867 246.55 190.073 247.495 188.794C251.921 184.013 259.605 176.8 266.686 170.285C269.338 167.846 271.909 165.501 274.187 163.424C277.979 159.966 280.959 157.248 282.149 156.066C286.142 152.097 288.121 145.17 284.629 139.963Z" fill="#84BE60" stroke="#003E6B" stroke-width="2" stroke-linejoin="round"/>
</svg>
