<svg width="368" height="210" viewBox="0 0 368 210" fill="none" xmlns="http://www.w3.org/2000/svg">
<rect width="368" height="210" fill="#0063C3"/>
<rect width="210" height="210" transform="translate(84)" fill="#0063C3"/>
<path d="M247.718 198.262C247.5 198.589 247.11 198.758 246.723 198.694C246.335 198.63 246.021 198.345 245.919 197.965L245.919 197.962L245.915 197.949L245.899 197.89C245.884 197.836 245.861 197.756 245.83 197.651C245.768 197.441 245.673 197.133 245.546 196.75C245.29 195.981 244.904 194.913 244.383 193.716C243.33 191.301 241.766 188.457 239.681 186.48C232.605 179.768 217.922 165.468 202.983 150.918C184.007 132.436 164.616 113.551 159.87 109.299C154.642 104.616 154.089 98.4861 155.367 93.357C156.005 90.7972 157.103 88.4552 158.331 86.6031C159.54 84.7798 160.947 83.3242 162.262 82.667C162.611 82.4924 163.03 82.5371 163.334 82.7814C163.639 83.0257 163.773 83.425 163.679 83.8038C162.032 90.3981 162.663 97.3055 165.603 101.329C172.94 107.053 191.819 125.281 209.486 142.695C224.369 157.366 238.451 171.518 244.173 177.268C245.287 178.388 246.085 179.189 246.509 179.614C249.243 182.348 250.749 185.284 250.928 188.469C251.107 191.637 249.964 194.893 247.718 198.262Z" fill="#528C2E" stroke="#003E6B" stroke-width="2" stroke-linejoin="round"/>
<path d="M214.41 99.3291C214.177 99.6775 213.752 99.8443 213.345 99.747C212.938 99.6498 212.635 99.3093 212.585 98.8937C212.585 98.8937 212.585 98.8936 212.585 98.8936L212.585 98.8931L212.584 98.8909L212.582 98.8758C212.581 98.8615 212.578 98.839 212.573 98.8085C212.565 98.7476 212.552 98.6554 212.533 98.5355C212.495 98.2955 212.434 97.9455 212.344 97.5149C212.164 96.6519 211.87 95.4748 211.415 94.2159C210.487 91.649 208.968 88.9625 206.593 87.7051C199.582 83.9933 192.423 80.7571 185.744 77.7381C183.655 76.794 181.613 75.8711 179.638 74.9615C171.403 71.1701 164.247 67.5809 159.87 63.6599C154.642 58.9767 154.089 52.847 155.367 47.7178C156.005 45.158 157.103 42.816 158.331 40.9639C159.54 39.1406 160.947 37.685 162.262 37.0278C162.611 36.8532 163.03 36.8979 163.334 37.1422C163.639 37.3865 163.773 37.7857 163.679 38.1646C162.023 44.795 162.67 51.742 165.651 55.7558C171.642 62.2504 182.013 67.1136 191.724 71.0341C194.042 71.9701 196.357 72.8656 198.55 73.7138C200.873 74.6123 203.058 75.4578 204.966 76.2423C206.849 77.0165 208.532 77.7589 209.917 78.4791C211.285 79.1905 212.437 79.9174 213.201 80.6809C215.935 83.415 217.44 86.3511 217.62 89.536C217.798 92.7039 216.656 95.9599 214.41 99.3291Z" fill="#528C2E" stroke="#003E6B" stroke-width="2" stroke-linejoin="round"/>
<rect x="197.176" y="138.78" width="20.439" height="7.12196" rx="3.56098" transform="rotate(-180 197.176 138.78)" fill="#00AEEF" stroke="#003E6B" stroke-width="2" stroke-linejoin="round"/>
<rect x="208.445" y="152.098" width="47.0732" height="7.12197" rx="3.56099" transform="rotate(-180 208.445 152.098)" fill="#00AEEF" stroke="#003E6B" stroke-width="2" stroke-linejoin="round"/>
<rect x="176.691" y="165.415" width="26.5854" height="7.12198" rx="3.56099" transform="rotate(-180 176.691 165.415)" fill="#00AEEF" stroke="#003E6B" stroke-width="2" stroke-linejoin="round"/>
<rect x="221.762" y="165.415" width="26.5854" height="7.12195" rx="3.56097" transform="rotate(-180 221.762 165.415)" fill="#00AEEF" stroke="#003E6B" stroke-width="2" stroke-linejoin="round"/>
<rect x="170.543" y="178.732" width="30.2528" height="7.12196" rx="3.56098" transform="rotate(-180 170.543 178.732)" fill="#00AEEF" stroke="#003E6B" stroke-width="2" stroke-linejoin="round"/>
<rect x="235.078" y="178.732" width="30.2528" height="7.12195" rx="3.56097" transform="rotate(-180 235.078 178.732)" fill="#00AEEF" stroke="#003E6B" stroke-width="2" stroke-linejoin="round"/>
<rect x="159.273" y="192.049" width="30.2528" height="7.12196" rx="3.56098" transform="rotate(-180 159.273 192.049)" fill="#00AEEF" stroke="#003E6B" stroke-width="2" stroke-linejoin="round"/>
<rect x="247.371" y="192.049" width="30.2528" height="7.12196" rx="3.56098" transform="rotate(-180 247.371 192.049)" fill="#00AEEF" stroke="#003E6B" stroke-width="2" stroke-linejoin="round"/>
<rect x="206.398" y="113.171" width="40.9268" height="7.12196" rx="3.56098" transform="rotate(-180 206.398 113.171)" fill="#00AEEF" stroke="#003E6B" stroke-width="2" stroke-linejoin="round"/>
<rect x="215.258" y="99.7744" width="56.3322" height="7.12194" rx="3.56097" transform="rotate(-180 215.258 99.7744)" fill="#00AEEF" stroke="#003E6B" stroke-width="2" stroke-linejoin="round"/>
<rect x="206.562" y="86.7351" width="38.9459" height="7.12197" rx="3.56098" transform="rotate(-180 206.562 86.7351)" fill="#00AEEF" stroke="#003E6B" stroke-width="2" stroke-linejoin="round"/>
<rect x="193.527" y="67.1751" width="28.0795" height="7.12195" rx="3.56097" transform="rotate(-180 193.527 67.1751)" fill="#00AEEF" stroke="#003E6B" stroke-width="2" stroke-linejoin="round"/>
<rect x="204.391" y="54.1352" width="45.4658" height="7.12195" rx="3.56097" transform="rotate(-180 204.391 54.1352)" fill="#00AEEF" stroke="#003E6B" stroke-width="2" stroke-linejoin="round"/>
<rect x="215.258" y="41.0961" width="47.6391" height="7.12195" rx="3.56098" transform="rotate(-180 215.258 41.0961)" fill="#00AEEF" stroke="#003E6B" stroke-width="2" stroke-linejoin="round"/>
<path d="M157.863 106.288C157.492 106.329 157.129 106.16 156.922 105.849C152.23 98.8106 154.867 89.3783 160.304 83.9409C161.944 82.3016 166.053 78.5316 171.29 73.7263C174.442 70.8344 178.003 67.5675 181.68 64.1644C191.48 55.094 202.129 45.0365 208.26 38.3702C209.658 36.48 210.082 33.8646 209.893 30.7529C209.704 27.6315 208.912 24.1825 208.062 20.7783C207.973 20.4243 208.085 20.0502 208.352 19.8023C208.62 19.5543 209.002 19.4719 209.348 19.5873C213.018 20.8102 216.455 24.9452 217.871 29.9055C219.308 34.939 218.728 41.0113 214.122 46.1932C211.516 49.1256 205.511 54.6936 198.297 61.3828C196.361 63.1772 194.339 65.0523 192.272 66.9789C182.457 76.1266 171.576 86.485 163.935 95.0917C163.473 95.6128 162.906 96.5117 162.301 97.6345C161.705 98.7394 161.105 99.9976 160.567 101.191C160.029 102.383 159.559 103.501 159.222 104.321C159.054 104.73 158.92 105.065 158.828 105.297C158.782 105.413 158.746 105.503 158.722 105.564L158.696 105.633L158.689 105.65L158.687 105.654L158.687 105.655L158.687 105.655C158.687 105.655 158.687 105.655 158.687 105.655M157.863 106.288L157.107 104.215C157.054 104.346 157.008 104.461 156.969 104.559C156.922 104.678 156.885 104.771 156.86 104.834L156.832 104.907L156.824 104.926L156.822 104.931L156.822 104.933L156.822 104.933C156.822 104.933 156.822 104.933 157.754 105.294L158.687 105.655M157.863 106.288C158.235 106.248 158.552 106.003 158.687 105.655M157.863 106.288L158.687 105.655" fill="#84BE60" stroke="#003E6B" stroke-width="2" stroke-linejoin="round"/>
<path d="M130.416 197.275C130.045 197.316 129.682 197.146 129.474 196.836C124.782 189.797 127.419 180.365 132.857 174.928C138.065 169.719 195.886 110.509 208.26 97.0494C209.658 95.1591 210.082 92.5438 209.893 89.432C209.704 86.3106 208.912 82.8616 208.062 79.4575C207.973 79.1034 208.085 78.7293 208.352 78.4814C208.62 78.2335 209.002 78.1511 209.348 78.2664C213.018 79.4894 216.455 83.6243 217.871 88.5846C219.308 93.6181 218.728 99.6904 214.122 104.872C211.542 107.776 201.351 118.287 189.02 131.007C185.663 134.469 182.148 138.095 178.585 141.776C161.904 159.005 144.146 177.452 136.488 186.079C136.025 186.6 135.458 187.499 134.853 188.621C134.257 189.726 133.657 190.984 133.119 192.178C132.582 193.37 132.111 194.487 131.775 195.307C131.607 195.717 131.472 196.052 131.38 196.284C131.334 196.4 131.299 196.49 131.275 196.551L131.248 196.62L131.241 196.637L131.24 196.641L131.239 196.642L131.239 196.642C131.239 196.642 131.239 196.642 131.239 196.642M130.416 197.275L129.659 195.202C129.606 195.332 129.56 195.448 129.521 195.545C129.474 195.664 129.437 195.758 129.413 195.821L129.384 195.894L129.377 195.913L129.375 195.918L129.374 195.919L129.374 195.92C129.374 195.92 129.374 195.92 130.307 196.281L131.239 196.642M130.416 197.275C130.787 197.234 131.104 196.99 131.239 196.642M130.416 197.275L131.239 196.642" fill="#84BE60" stroke="#003E6B" stroke-width="2" stroke-linejoin="round"/>
<path d="M157.863 60.6491C157.492 60.6899 157.129 60.5205 156.922 60.2098C152.23 53.1714 154.867 43.7391 160.304 38.3017C165.57 33.0362 174.552 25.1559 187.678 17.4988C187.708 17.4817 187.738 17.4661 187.769 17.452L188.182 18.3626L187.769 17.452L187.769 17.4519L187.77 17.4513L187.775 17.4491L187.795 17.4399L187.876 17.4033C187.946 17.371 188.051 17.3231 188.187 17.2608C188.458 17.1363 188.851 16.9546 189.341 16.7263C190.32 16.2695 191.681 15.6267 193.212 14.8825C196.282 13.39 200.001 11.5045 202.677 9.89861C203.042 9.6798 203.505 9.71556 203.831 9.98775C204.158 10.2599 204.277 10.709 204.128 11.1072C201.178 18.974 194.942 23.4325 190.582 26.5499C189.935 27.0125 189.329 27.4457 188.782 27.856C186.783 29.3535 185.171 30.3846 183.655 31.3493L183.559 31.4105C182.08 32.3514 180.699 33.2307 179.097 34.444C175.827 36.9208 171.594 40.8247 163.935 49.4525C163.472 49.9736 162.906 50.8725 162.3 51.9953C161.705 53.1002 161.104 54.3584 160.566 55.552C160.029 56.7438 159.559 57.8614 159.222 58.6815C159.054 59.0912 158.92 59.426 158.828 59.6579C158.782 59.7738 158.746 59.864 158.722 59.9248L158.695 59.9937L158.689 60.0109L158.687 60.015L158.687 60.0159L158.687 60.016C158.687 60.0161 158.687 60.0161 158.687 60.0161M157.863 60.6491L157.106 58.5756C157.054 58.7065 157.008 58.8218 156.969 58.9195C156.922 59.0385 156.885 59.1315 156.86 59.1951L156.832 59.268L156.824 59.2871L156.822 59.2921L156.822 59.2935L156.822 59.2939C156.821 59.294 156.821 59.2941 157.754 59.6551L158.687 60.0161M157.863 60.6491C158.234 60.6084 158.552 60.3643 158.687 60.0161M157.863 60.6491L158.687 60.0161" fill="#84BE60" stroke="#003E6B" stroke-width="2" stroke-linejoin="round"/>
<path d="M260.195 189H288.878" stroke="white" stroke-width="4"/>
<path d="M89.1211 189H117.804" stroke="white" stroke-width="4"/>
<path d="M256.098 189L265.317 184.121L265.317 193.879L256.098 189Z" fill="white"/>
<path d="M121.902 189L112.683 193.879L112.683 184.121L121.902 189Z" fill="white"/>
</svg>
