<svg width="448" height="210" viewBox="0 0 448 210" fill="none" xmlns="http://www.w3.org/2000/svg">
<rect width="448" height="210" fill="#0063C3"/>
<rect width="210" height="210" transform="translate(119)" fill="#0063C3"/>
<path d="M289.538 46.1369C289.381 46.0412 289.201 45.9906 289.017 45.9906H159.024C158.835 45.9906 158.65 46.044 158.491 46.1447L154.466 48.6817C154.176 48.8649 154 49.1843 154 49.5277V56.4031C154 56.6402 154.084 56.8696 154.237 57.0504L157.677 61.1011C157.924 61.4546 158.133 61.8985 158.282 62.4133C158.434 62.9428 158.514 63.5223 158.512 64.1129C158.512 64.1841 158.519 64.2552 158.534 64.3248L166.935 103.616C167.014 105.505 167.393 107.243 167.992 108.55C168.296 109.213 168.676 109.809 169.143 110.252C169.614 110.7 170.224 111.036 170.945 111.036H268.263C268.983 111.036 269.593 110.7 270.065 110.252C270.531 109.808 270.912 109.212 271.214 108.549C271.8 107.267 272.171 105.569 272.252 103.722L289.695 64.5479C289.751 64.4217 289.781 64.2852 289.781 64.1471C289.785 63.5604 289.866 62.9857 290.016 62.4584C290.163 61.9454 290.368 61.4984 290.611 61.1363L293.951 57.0345C294.097 56.8561 294.176 56.6331 294.176 56.4031V49.5277C294.176 49.179 293.994 48.8555 293.697 48.674L289.538 46.1369Z" fill="#DD4242" stroke="#003E6B" stroke-width="2" stroke-linejoin="round"/>
<path d="M279.757 57.1389H158.178L155.454 61.9773V69.6865L158.93 74.8797C159.258 75.4571 159.521 76.159 159.702 76.9416C159.883 77.7243 159.979 78.5706 159.983 79.4278L156.34 114.909C156.474 119.457 157.777 123.102 159.348 123.102H278.638C280.208 123.102 281.512 119.457 281.629 114.909L279.055 79.4278C279.055 78.5754 279.145 77.7319 279.32 76.9495C279.496 76.1672 279.752 75.4627 280.075 74.8797L283.416 69.6865L290.635 61.9773L279.757 57.1389Z" fill="#7D0F0F"/>
<path d="M282.917 110.324H163.373V125.547H282.917V110.324Z" fill="#143C6D"/>
<path d="M169.349 59.507L153.222 74.9833L160.125 113.47L168.138 118.443L169.349 110.324V59.507Z" fill="#A42121"/>
<path d="M278.004 60.0759L289.762 73.8455L291.773 111.279L279.381 118.443L278.004 109.056V60.0759Z" fill="#A42121"/>
<path d="M284.41 70.3043C284.396 70.5436 284.467 70.7802 284.612 70.9711L284.613 70.9725L284.618 70.9792L284.64 71.0077C284.652 71.0239 284.668 71.0452 284.687 71.0713C284.699 71.0864 284.711 71.103 284.724 71.1211C284.798 71.2204 284.903 71.3649 285.03 71.5429C285.284 71.9 285.621 72.3877 285.955 72.9147C286.291 73.4454 286.611 73.9969 286.841 74.4849C286.956 74.7287 287.04 74.9403 287.093 75.114C287.12 75.1999 287.136 75.2688 287.145 75.3217C287.147 75.3344 287.149 75.3457 287.15 75.3556C287.151 75.3659 287.152 75.3748 287.153 75.3821C287.153 75.3893 287.154 75.3947 287.154 75.3984L287.154 75.4026L287.154 75.404C287.153 75.4161 287.153 75.4282 287.153 75.4402V96.8324C287.105 98.3124 286.724 99.5604 286.128 100.409C285.549 101.233 284.777 101.683 283.808 101.683H163.442C163.376 101.683 163.169 101.643 162.842 101.415C162.532 101.199 162.183 100.861 161.852 100.411C161.191 99.5095 160.661 98.2423 160.61 96.8148C160.61 96.814 160.61 96.8132 160.61 96.8125L159.945 75.4051C159.949 75.285 160.029 74.9707 160.267 74.4497C160.493 73.9575 160.802 73.4031 161.123 72.8715C161.442 72.3434 161.762 71.8548 162.004 71.4973C162.124 71.319 162.225 71.1743 162.294 71.0748C162.329 71.0251 162.356 70.9867 162.374 70.9611L162.395 70.9325L162.399 70.9258L162.4 70.9244L162.4 70.9243L162.401 70.9242C162.528 70.7465 162.594 70.5319 162.588 70.3132L162.453 65.4167C162.438 64.8753 161.995 64.4442 161.454 64.4442H134.75C134.198 64.4442 133.75 64.8919 133.75 65.4442V84.2946C133.75 84.5304 133.833 84.7586 133.985 84.939L138.791 90.6416C139.169 91.1767 139.484 91.8437 139.702 92.6082C139.924 93.3862 140.037 94.234 140.03 95.0943C140.03 95.1539 140.035 95.2133 140.045 95.2719L151.819 163.722C151.913 166.331 152.431 168.723 153.243 170.504C153.651 171.401 154.154 172.186 154.755 172.762C155.359 173.341 156.117 173.753 156.992 173.753H291.335C292.211 173.753 292.969 173.346 293.576 172.767C294.177 172.192 294.679 171.408 295.085 170.512C295.892 168.734 296.405 166.341 296.508 163.723L308.182 95.2705C308.191 95.2141 308.196 95.1568 308.196 95.0996C308.193 94.2401 308.307 93.3939 308.527 92.6148C308.743 91.85 309.052 91.1777 309.426 90.6312L314.147 84.9053C314.294 84.7262 314.375 84.5013 314.375 84.2692V65.4696C314.375 64.9173 313.927 64.4696 313.375 64.4696H285.712C285.183 64.4696 284.746 64.8805 284.714 65.4078L284.41 70.3043Z" fill="#DD4242" stroke="#003E6B" stroke-width="2" stroke-linejoin="round"/>
<path opacity="0.4" d="M167.782 59.5069H280.35C280.512 59.3191 280.164 59.1589 280.35 59.0293V57.2312H167.782V59.0012C167.985 59.0908 167.643 59.2663 167.782 59.5069Z" fill="#3A0000"/>
<path opacity="0.05" d="M134.868 84.5987L139.65 90.307C140.105 90.9604 140.465 91.7484 140.708 92.6216C140.952 93.4947 141.073 94.4342 141.064 95.3811L152.766 163.817C152.934 168.892 154.753 172.723 156.925 172.723H164.821L161.454 170.414C157.699 167.547 155.089 159.53 154.904 150.295L147.748 64.7019H134.868V84.5987Z" fill="black"/>
<path opacity="0.05" d="M295.545 163.919L307.196 95.3561C307.204 94.4271 307.336 93.51 307.585 92.6599C307.834 91.8098 308.194 91.0441 308.644 90.4088L313.392 84.7005V64.8037H300.596L293.423 150.397C293.221 159.631 290.611 167.471 286.857 170.338L283.489 172.723H291.335C293.558 172.723 295.359 168.993 295.545 163.919Z" fill="black"/>
<path d="M171.888 57.2763C172.192 56.9977 172.294 56.561 172.144 56.1766C171.995 55.7923 171.625 55.5392 171.212 55.5392H154.517C154.374 55.5392 154.233 55.5697 154.103 55.6288L134.454 64.5592C134.026 64.754 133.791 65.2213 133.891 65.6813C133.99 66.1413 134.397 66.4696 134.868 66.4696H161.471C161.721 66.4696 161.962 66.3758 162.146 66.2068L171.888 57.2763Z" fill="#C53131" stroke="#003E6B" stroke-width="2" stroke-linejoin="round"/>
<path d="M277.091 55.5392C276.69 55.5392 276.327 55.779 276.171 56.1484C276.014 56.5177 276.093 56.945 276.372 57.2337L284.992 66.1641C285.181 66.3594 285.44 66.4696 285.712 66.4696H313.409C313.879 66.4696 314.287 66.1413 314.386 65.6811C314.486 65.221 314.251 64.7538 313.822 64.5591L294.156 55.6287C294.027 55.5697 293.886 55.5392 293.743 55.5392H277.091Z" fill="#C53131" stroke="#003E6B" stroke-width="2" stroke-linejoin="round"/>
<path d="M170.074 56.5392L161.454 65.4696L161.571 70.3915L170.192 60.6746L170.074 56.5392Z" fill="#C73B3B"/>
<path d="M277.091 56.5392L285.712 65.4696L285.594 70.3915L276.973 60.6746L277.091 56.5392Z" fill="#C73B3B"/>
<rect x="176.712" y="111.71" width="93.5791" height="52.6166" rx="4" fill="#FB9907" stroke="white" stroke-width="2"/>
<path d="M218.458 133.588C219.867 132.468 221.658 131.795 223.605 131.795C225.555 131.795 227.347 132.468 228.757 133.592C229.468 132.916 230.095 132.154 230.62 131.329C228.701 129.797 226.26 128.878 223.605 128.878C220.973 128.878 218.551 129.782 216.64 131.291C217.145 132.128 217.758 132.902 218.458 133.588Z" fill="black"/>
<path d="M231.73 138.679C231.792 139.081 231.824 139.492 231.824 139.91C231.824 143.328 229.672 146.258 226.636 147.452C226.858 148.401 227.198 149.325 227.645 150.194C231.815 148.592 234.779 144.586 234.779 139.909C234.779 139.368 234.739 138.836 234.662 138.315C233.676 138.351 232.694 138.473 231.73 138.679Z" fill="black"/>
<path d="M215.386 139.91C215.386 139.493 215.419 139.084 215.48 138.684C214.547 138.354 213.547 138.21 212.557 138.261C212.474 138.799 212.432 139.349 212.432 139.91C212.432 144.567 215.37 148.56 219.513 150.175C220.034 149.344 220.407 148.422 220.611 147.466C217.555 146.281 215.386 143.341 215.386 139.91Z" fill="black"/>
<path d="M242.392 138.479C240.869 135.853 238.479 134.018 235.764 133.113C236.71 128.163 234.391 122.909 229.633 120.231C228.202 119.423 226.678 118.925 225.144 118.71C225.116 118.881 225.105 119.054 225.11 119.225C226.618 119.496 227.993 120.149 229.125 121.077C232.36 123.699 233.308 128.316 231.165 132.025C231.071 132.188 230.972 132.346 230.869 132.501C230.855 132.502 230.84 132.504 230.825 132.504C229.331 134.72 226.828 136.214 223.965 136.35L223.972 137.556C225.156 137.754 226.058 138.77 226.058 139.995C226.058 140.29 226.006 140.573 225.909 140.836L226.809 141.4C228.334 139.058 230.975 137.491 233.991 137.43V137.432C234.006 137.432 234.022 137.433 234.037 137.433C234.083 137.432 234.128 137.431 234.174 137.431C234.196 137.431 234.218 137.432 234.24 137.433C234.268 137.433 234.296 137.433 234.325 137.434C234.393 137.436 234.461 137.437 234.529 137.44C234.548 137.441 234.568 137.441 234.586 137.442C235.655 137.491 236.673 137.729 237.607 138.123C237.649 138.141 237.689 138.159 237.731 138.177C237.756 138.187 237.781 138.199 237.807 138.21C239.419 138.933 240.827 140.14 241.774 141.774C243.068 144.006 243.242 146.567 242.471 148.825C242.605 148.983 242.818 149.074 243.027 149.066C244.44 145.723 244.334 141.826 242.392 138.479Z" fill="black"/>
<path d="M204.419 149.093C204.493 149.07 204.56 149.027 204.615 148.972C204.272 148.047 204.084 147.048 204.084 146.006C204.084 141.235 208.001 137.368 212.834 137.368C215.947 137.368 218.68 138.974 220.231 141.392L221.197 140.847C221.099 140.582 221.045 140.295 221.045 139.997C221.045 138.775 221.942 137.761 223.122 137.559L223.115 136.352C218.478 136.135 214.787 132.355 214.787 127.724C214.787 123.492 217.871 119.971 221.94 119.23C221.952 119.045 221.944 118.859 221.92 118.675C218.197 119.112 214.749 121.197 212.773 124.618C211.263 127.231 210.87 130.178 211.445 132.933C206.663 134.598 203.227 139.168 203.227 144.545C203.227 146.146 203.532 147.674 204.085 149.076C204.19 149.12 204.31 149.128 204.419 149.093Z" fill="black"/>
<path d="M241.139 151.791C241.053 151.72 240.94 151.682 240.827 151.684C240.193 152.413 239.425 152.997 238.531 153.502C237.155 154.28 235.656 154.584 234.176 154.584C234.176 154.584 234.176 154.584 234.175 154.584C229.343 154.584 225.426 150.778 225.426 146.008C225.426 144.592 225.772 143.282 226.384 142.103L225.488 141.554C225.028 142.105 224.332 142.464 223.551 142.464C222.774 142.464 222.081 142.119 221.621 141.572L220.65 142.121C221.246 143.288 221.583 144.608 221.583 146.005C221.583 147.51 221.192 148.926 220.507 150.158C220.51 150.165 220.514 150.173 220.517 150.18C219.03 152.85 216.153 154.661 212.847 154.661C210.19 154.661 207.809 153.491 206.205 151.643C206.112 151.651 206.023 151.684 205.948 151.737C205.852 151.808 205.783 151.914 205.758 152.03C207.99 154.948 211.497 156.83 215.442 156.83C218.5 156.83 221.296 155.7 223.438 153.831C227.278 157.055 232.964 157.705 237.665 155.048C239.101 154.235 240.314 153.188 241.281 151.986C241.251 151.91 241.203 151.843 241.139 151.791Z" fill="black"/>
<path d="M288.816 46.9906H159.242C159.074 47.1271 155.231 49.2663 155.231 49.2663H292.911C292.911 49.2663 288.95 47.2637 288.816 46.9906Z" fill="#C53131"/>
<path d="M159.214 84.5396H134.75L140.439 92.5045H159.214V84.5396Z" fill="black" fill-opacity="0.09"/>
<path d="M288.359 84.5396H312.823L307.134 92.5045H288.359V84.5396Z" fill="black" fill-opacity="0.09"/>
<path d="M169.967 48.4854L169.592 48.7857V49.2663V56.7541L158.016 66.1257L157.645 66.4258V66.9029V85.1085V85.1236L157.645 85.1387L158.097 100.034C158.178 102.736 160.392 104.883 163.094 104.883H285.048C287.75 104.883 289.963 102.736 290.045 100.034L290.497 85.1387L290.497 85.1236V85.1085V66.9029V66.4258L290.126 66.1257L278.55 56.7541V49.2663V48.7857L278.174 48.4854L275.33 46.2097L275.056 45.9906H274.705H270.723H177.419H173.437H173.086L172.812 46.2097L169.967 48.4854Z" fill="#F7F7F7" stroke="#003E6B" stroke-width="2"/>
<path d="M277.55 49.2663H170.592L173.437 46.9906H274.705L277.55 49.2663Z" fill="#E2E2E2"/>
<path d="M289.497 66.9029H158.645L170.592 57.2312H277.55L289.497 66.9029Z" fill="#E2E2E2"/>
</svg>
