<svg width="368" height="210" viewBox="0 0 368 210" fill="none" xmlns="http://www.w3.org/2000/svg">
<rect width="368" height="210" fill="#0063C3"/>
<rect width="210" height="210" transform="translate(84)" fill="#0063C3"/>
<rect x="167" y="22" width="44" height="9" fill="#668BA6" stroke="#003E6B" stroke-width="2"/>
<mask id="path-3-outside-1" maskUnits="userSpaceOnUse" x="145" y="15" width="88" height="170" fill="black">
<rect fill="white" x="145" y="15" width="88" height="170"/>
<path fill-rule="evenodd" clip-rule="evenodd" d="M147 20C147 18.3431 148.343 17 150 17H222C226.971 17 231 21.0294 231 26C231 30.9706 226.971 35 222 35H214V109C214 118.635 207.351 146.171 202.789 165.065C202.142 167.742 201.538 170.246 201 172.5H200.907C200.169 178.419 195.119 183 189 183C182.881 183 177.831 178.419 177.093 172.5H177C172.667 155.833 164 119.8 164 109V35H159C157.343 35 156 33.6569 156 32C156 30.3431 157.343 29 159 29H164H214H222C223.657 29 225 27.6569 225 26C225 24.3431 223.657 23 222 23H150C148.343 23 147 21.6569 147 20Z"/>
</mask>
<path fill-rule="evenodd" clip-rule="evenodd" d="M147 20C147 18.3431 148.343 17 150 17H222C226.971 17 231 21.0294 231 26C231 30.9706 226.971 35 222 35H214V109C214 118.635 207.351 146.171 202.789 165.065C202.142 167.742 201.538 170.246 201 172.5H200.907C200.169 178.419 195.119 183 189 183C182.881 183 177.831 178.419 177.093 172.5H177C172.667 155.833 164 119.8 164 109V35H159C157.343 35 156 33.6569 156 32C156 30.3431 157.343 29 159 29H164H214H222C223.657 29 225 27.6569 225 26C225 24.3431 223.657 23 222 23H150C148.343 23 147 21.6569 147 20Z" fill="#CCD8E1"/>
<path d="M214 35V33H212V35H214ZM202.789 165.065L200.844 164.596L200.844 164.596L202.789 165.065ZM201 172.5V174.5H202.579L202.945 172.964L201 172.5ZM200.907 172.5V170.5H199.141L198.923 172.252L200.907 172.5ZM177.093 172.5L179.077 172.252L178.859 170.5H177.093V172.5ZM177 172.5L175.064 173.003L175.454 174.5H177V172.5ZM164 35H166V33H164V35ZM150 15C147.239 15 145 17.2386 145 20H149C149 19.4477 149.448 19 150 19V15ZM222 15H150V19H222V15ZM222 19C225.866 19 229 22.134 229 26H233C233 19.9249 228.075 15 222 15V19ZM229 26C229 29.866 225.866 33 222 33V37C228.075 37 233 32.0751 233 26H229ZM222 33H214V37H222V33ZM212 35V109H216V35H212ZM212 109C212 113.565 210.393 122.638 208.149 133.143C205.923 143.563 203.127 155.144 200.844 164.596L204.733 165.535C207.013 156.093 209.822 144.459 212.061 133.978C214.282 123.582 216 114.07 216 109H212ZM200.844 164.596C200.198 167.272 199.593 169.778 199.055 172.036L202.945 172.964C203.482 170.713 204.086 168.212 204.733 165.535L200.844 164.596ZM201 170.5H200.907V174.5H201V170.5ZM198.923 172.252C198.308 177.183 194.098 181 189 181V185C196.141 185 202.03 179.656 202.892 172.747L198.923 172.252ZM189 181C183.902 181 179.692 177.183 179.077 172.252L175.108 172.747C175.97 179.656 181.859 185 189 185V181ZM177.093 170.5H177V174.5H177.093V170.5ZM178.936 171.997C176.774 163.682 173.531 150.534 170.829 138.125C168.106 125.614 166 114.139 166 109H162C162 114.661 164.227 126.603 166.921 138.975C169.636 151.449 172.893 164.651 175.064 173.003L178.936 171.997ZM166 109V35H162V109H166ZM164 33H159V37H164V33ZM159 33C158.448 33 158 32.5523 158 32H154C154 34.7614 156.239 37 159 37V33ZM158 32C158 31.4477 158.448 31 159 31V27C156.239 27 154 29.2386 154 32H158ZM159 31H164V27H159V31ZM164 31H214V27H164V31ZM214 31H222V27H214V31ZM222 31C224.761 31 227 28.7614 227 26H223C223 26.5523 222.552 27 222 27V31ZM227 26C227 23.2386 224.761 21 222 21V25C222.552 25 223 25.4477 223 26H227ZM150 25H222V21H150V25ZM145 20C145 22.7614 147.239 25 150 25V21C149.448 21 149 20.5523 149 20H145Z" fill="#003E6B" mask="url(#path-3-outside-1)"/>
<mask id="path-5-outside-2" maskUnits="userSpaceOnUse" x="162" y="52" width="54" height="133" fill="black">
<rect fill="white" x="162" y="52" width="54" height="133"/>
<path fill-rule="evenodd" clip-rule="evenodd" d="M214 54V109C214 118.635 207.351 146.171 202.789 165.065L202.789 165.065C202.142 167.742 201.538 170.246 201 172.5H200.907C200.169 178.419 195.119 183 189 183C182.881 183 177.831 178.419 177.093 172.5H177C172.667 155.833 164 119.8 164 109V54H214Z"/>
</mask>
<path fill-rule="evenodd" clip-rule="evenodd" d="M214 54V109C214 118.635 207.351 146.171 202.789 165.065L202.789 165.065C202.142 167.742 201.538 170.246 201 172.5H200.907C200.169 178.419 195.119 183 189 183C182.881 183 177.831 178.419 177.093 172.5H177C172.667 155.833 164 119.8 164 109V54H214Z" fill="#00AEEF"/>
<path d="M214 54H216V52H214V54ZM202.789 165.065L200.844 164.596L200.828 164.666L200.816 164.737L202.789 165.065ZM202.789 165.065L204.733 165.535L204.75 165.465L204.761 165.394L202.789 165.065ZM201 172.5V174.5H202.579L202.945 172.964L201 172.5ZM200.907 172.5V170.5H199.141L198.923 172.252L200.907 172.5ZM177.093 172.5L179.077 172.252L178.859 170.5H177.093V172.5ZM177 172.5L175.064 173.003L175.454 174.5H177V172.5ZM164 54V52H162V54H164ZM212 54V109H216V54H212ZM212 109C212 113.565 210.393 122.638 208.149 133.143C205.923 143.562 203.127 155.144 200.844 164.596L204.733 165.535C207.013 156.093 209.822 144.459 212.061 133.978C214.282 123.582 216 114.07 216 109H212ZM200.816 164.737L200.816 164.737L204.761 165.394L204.761 165.394L200.816 164.737ZM200.844 164.596C200.198 167.272 199.593 169.778 199.055 172.036L202.945 172.964C203.482 170.713 204.086 168.212 204.733 165.535L200.844 164.596ZM201 170.5H200.907V174.5H201V170.5ZM198.923 172.252C198.308 177.183 194.098 181 189 181V185C196.141 185 202.03 179.656 202.892 172.747L198.923 172.252ZM189 181C183.902 181 179.692 177.183 179.077 172.252L175.108 172.747C175.97 179.656 181.859 185 189 185V181ZM177.093 170.5H177V174.5H177.093V170.5ZM178.936 171.997C176.774 163.682 173.531 150.534 170.829 138.125C168.106 125.614 166 114.139 166 109H162C162 114.661 164.227 126.603 166.921 138.975C169.636 151.449 172.893 164.651 175.064 173.003L178.936 171.997ZM166 109V54H162V109H166ZM164 56H214V52H164V56Z" fill="#003E6B" mask="url(#path-5-outside-2)"/>
<rect x="163" y="35" width="28" height="2" rx="1" fill="#003E6B"/>
<rect x="193" y="35" width="10" height="2" rx="1" fill="#003E6B"/>
<rect x="205" y="35" width="10" height="2" rx="1" fill="#003E6B"/>
<rect x="224" y="25" width="3" height="2" rx="1" fill="#003E6B"/>
<rect x="223.414" y="27" width="3" height="2" rx="1" transform="rotate(45 223.414 27)" fill="#003E6B"/>
<rect x="222" y="24.1213" width="3" height="2" rx="1" transform="rotate(-45 222 24.1213)" fill="#003E6B"/>
<rect x="208" y="54" width="6" height="56" fill="#008BBF"/>
<rect x="166" y="56" width="6" height="56" rx="3" fill="#66CEF5"/>
<rect x="208" y="37" width="6" height="15" fill="#99B2C4"/>
<rect x="164" y="37" width="48" height="4" fill="#99B2C4"/>
<rect x="150" y="21" width="73" height="2" rx="1" fill="#99B2C4"/>
<path d="M195.5 170C197.5 161 208 120.8 208 110C209.5 102.5 214 100.2 214 109.2C214 120.2 205.334 154.534 201 172.7L195.5 170Z" fill="#008BBF"/>
<path d="M198.5 170C197.5 176.5 194.194 180 189.5 180" stroke="#008BBF" stroke-width="6" stroke-linecap="round"/>
</svg>
