<svg width="368" height="210" viewBox="0 0 368 210" fill="none" xmlns="http://www.w3.org/2000/svg">
<rect width="368" height="210" fill="#0063C3"/>
<rect width="210" height="210" transform="translate(84)" fill="#0063C3"/>
<rect x="165" y="22" width="44" height="9" fill="#668BA6" stroke="#003E6B" stroke-width="2"/>
<mask id="path-3-outside-1" maskUnits="userSpaceOnUse" x="143" y="15" width="88" height="170" fill="black">
<rect fill="white" x="143" y="15" width="88" height="170"/>
<path fill-rule="evenodd" clip-rule="evenodd" d="M145 20C145 18.3431 146.343 17 148 17H220C224.971 17 229 21.0294 229 26C229 30.9706 224.971 35 220 35H212V109C212 118.635 205.351 146.171 200.789 165.065C200.142 167.742 199.538 170.246 199 172.5H198.907C198.169 178.419 193.119 183 187 183C180.881 183 175.831 178.419 175.093 172.5H175C170.667 155.833 162 119.8 162 109V35H157C155.343 35 154 33.6569 154 32C154 30.3431 155.343 29 157 29H162H212H220C221.657 29 223 27.6569 223 26C223 24.3431 221.657 23 220 23H148C146.343 23 145 21.6569 145 20Z"/>
</mask>
<path fill-rule="evenodd" clip-rule="evenodd" d="M145 20C145 18.3431 146.343 17 148 17H220C224.971 17 229 21.0294 229 26C229 30.9706 224.971 35 220 35H212V109C212 118.635 205.351 146.171 200.789 165.065C200.142 167.742 199.538 170.246 199 172.5H198.907C198.169 178.419 193.119 183 187 183C180.881 183 175.831 178.419 175.093 172.5H175C170.667 155.833 162 119.8 162 109V35H157C155.343 35 154 33.6569 154 32C154 30.3431 155.343 29 157 29H162H212H220C221.657 29 223 27.6569 223 26C223 24.3431 221.657 23 220 23H148C146.343 23 145 21.6569 145 20Z" fill="#CCD8E1"/>
<path d="M212 35V33H210V35H212ZM200.789 165.065L198.844 164.596L198.844 164.596L200.789 165.065ZM199 172.5V174.5H200.579L200.945 172.964L199 172.5ZM198.907 172.5V170.5H197.141L196.923 172.252L198.907 172.5ZM175.093 172.5L177.077 172.252L176.859 170.5H175.093V172.5ZM175 172.5L173.064 173.003L173.454 174.5H175V172.5ZM162 35H164V33H162V35ZM148 15C145.239 15 143 17.2386 143 20H147C147 19.4477 147.448 19 148 19V15ZM220 15H148V19H220V15ZM220 19C223.866 19 227 22.134 227 26H231C231 19.9249 226.075 15 220 15V19ZM227 26C227 29.866 223.866 33 220 33V37C226.075 37 231 32.0751 231 26H227ZM220 33H212V37H220V33ZM210 35V109H214V35H210ZM210 109C210 113.565 208.393 122.638 206.149 133.143C203.923 143.563 201.127 155.144 198.844 164.596L202.733 165.535C205.013 156.093 207.822 144.459 210.061 133.978C212.282 123.582 214 114.07 214 109H210ZM198.844 164.596C198.198 167.272 197.593 169.778 197.055 172.036L200.945 172.964C201.482 170.713 202.086 168.212 202.733 165.535L198.844 164.596ZM199 170.5H198.907V174.5H199V170.5ZM196.923 172.252C196.308 177.183 192.098 181 187 181V185C194.141 185 200.03 179.656 200.892 172.747L196.923 172.252ZM187 181C181.902 181 177.692 177.183 177.077 172.252L173.108 172.747C173.97 179.656 179.859 185 187 185V181ZM175.093 170.5H175V174.5H175.093V170.5ZM176.936 171.997C174.774 163.682 171.531 150.534 168.829 138.125C166.106 125.614 164 114.139 164 109H160C160 114.661 162.227 126.603 164.921 138.975C167.636 151.449 170.893 164.651 173.064 173.003L176.936 171.997ZM164 109V35H160V109H164ZM162 33H157V37H162V33ZM157 33C156.448 33 156 32.5523 156 32H152C152 34.7614 154.239 37 157 37V33ZM156 32C156 31.4477 156.448 31 157 31V27C154.239 27 152 29.2386 152 32H156ZM157 31H162V27H157V31ZM162 31H212V27H162V31ZM212 31H220V27H212V31ZM220 31C222.761 31 225 28.7614 225 26H221C221 26.5523 220.552 27 220 27V31ZM225 26C225 23.2386 222.761 21 220 21V25C220.552 25 221 25.4477 221 26H225ZM148 25H220V21H148V25ZM143 20C143 22.7614 145.239 25 148 25V21C147.448 21 147 20.5523 147 20H143Z" fill="#003E6B" mask="url(#path-3-outside-1)"/>
<mask id="path-5-outside-2" maskUnits="userSpaceOnUse" x="160" y="52" width="54" height="133" fill="black">
<rect fill="white" x="160" y="52" width="54" height="133"/>
<path fill-rule="evenodd" clip-rule="evenodd" d="M212 54V109C212 118.635 205.351 146.171 200.789 165.065L200.789 165.065C200.142 167.742 199.538 170.246 199 172.5H198.907C198.169 178.419 193.119 183 187 183C180.881 183 175.831 178.419 175.093 172.5H175C170.667 155.833 162 119.8 162 109V54H212Z"/>
</mask>
<path fill-rule="evenodd" clip-rule="evenodd" d="M212 54V109C212 118.635 205.351 146.171 200.789 165.065L200.789 165.065C200.142 167.742 199.538 170.246 199 172.5H198.907C198.169 178.419 193.119 183 187 183C180.881 183 175.831 178.419 175.093 172.5H175C170.667 155.833 162 119.8 162 109V54H212Z" fill="#00AEEF"/>
<path d="M212 54H214V52H212V54ZM200.789 165.065L198.844 164.596L198.828 164.666L198.816 164.737L200.789 165.065ZM200.789 165.065L202.733 165.535L202.75 165.465L202.761 165.394L200.789 165.065ZM199 172.5V174.5H200.579L200.945 172.964L199 172.5ZM198.907 172.5V170.5H197.141L196.923 172.252L198.907 172.5ZM175.093 172.5L177.077 172.252L176.859 170.5H175.093V172.5ZM175 172.5L173.064 173.003L173.454 174.5H175V172.5ZM162 54V52H160V54H162ZM210 54V109H214V54H210ZM210 109C210 113.565 208.393 122.638 206.149 133.143C203.923 143.562 201.127 155.144 198.844 164.596L202.733 165.535C205.013 156.093 207.822 144.459 210.061 133.978C212.282 123.582 214 114.07 214 109H210ZM198.816 164.737L198.816 164.737L202.761 165.394L202.761 165.394L198.816 164.737ZM198.844 164.596C198.198 167.272 197.593 169.778 197.055 172.036L200.945 172.964C201.482 170.713 202.086 168.212 202.733 165.535L198.844 164.596ZM199 170.5H198.907V174.5H199V170.5ZM196.923 172.252C196.308 177.183 192.098 181 187 181V185C194.141 185 200.03 179.656 200.892 172.747L196.923 172.252ZM187 181C181.902 181 177.692 177.183 177.077 172.252L173.108 172.747C173.97 179.656 179.859 185 187 185V181ZM175.093 170.5H175V174.5H175.093V170.5ZM176.936 171.997C174.774 163.682 171.531 150.534 168.829 138.125C166.106 125.614 164 114.139 164 109H160C160 114.661 162.227 126.603 164.921 138.975C167.636 151.449 170.893 164.651 173.064 173.003L176.936 171.997ZM164 109V54H160V109H164ZM162 56H212V52H162V56Z" fill="#003E6B" mask="url(#path-5-outside-2)"/>
<rect x="161" y="35" width="28" height="2" rx="1" fill="#003E6B"/>
<rect x="191" y="35" width="10" height="2" rx="1" fill="#003E6B"/>
<rect x="203" y="35" width="10" height="2" rx="1" fill="#003E6B"/>
<rect x="222" y="25" width="3" height="2" rx="1" fill="#003E6B"/>
<rect x="221.414" y="27" width="3" height="2" rx="1" transform="rotate(45 221.414 27)" fill="#003E6B"/>
<rect x="220" y="24.1213" width="3" height="2" rx="1" transform="rotate(-45 220 24.1213)" fill="#003E6B"/>
<rect x="206" y="54" width="6" height="56" fill="#008BBF"/>
<rect x="164" y="56" width="6" height="56" rx="3" fill="#66CEF5"/>
<rect x="206" y="37" width="6" height="15" fill="#99B2C4"/>
<rect x="162" y="37" width="48" height="4" fill="#99B2C4"/>
<rect x="148" y="21" width="73" height="2" rx="1" fill="#99B2C4"/>
<path d="M193.5 170C195.5 161 206 120.8 206 110C207.5 102.5 212 100.2 212 109.2C212 120.2 203.334 154.534 199 172.7L193.5 170Z" fill="#008BBF"/>
<path d="M196.5 170C195.5 176.5 192.194 180 187.5 180" stroke="#008BBF" stroke-width="6" stroke-linecap="round"/>
</svg>
