<svg width="368" height="210" viewBox="0 0 368 210" fill="none" xmlns="http://www.w3.org/2000/svg">
<rect width="368" height="210" fill="#0063C3"/>
<rect width="210" height="210" transform="translate(84)" fill="#0063C3"/>
<path d="M127.728 15.3234C127.946 14.9963 128.335 14.8273 128.723 14.8914C129.11 14.9555 129.425 15.2408 129.526 15.6206L129.527 15.6232L129.53 15.6367L129.547 15.6957C129.562 15.749 129.585 15.8294 129.616 15.9344C129.678 16.1443 129.772 16.4521 129.9 16.8358C130.155 17.604 130.541 18.6729 131.063 19.8696C132.115 22.2845 133.679 25.1284 135.764 27.1056C142.841 33.817 157.523 48.117 172.463 62.6674C191.438 81.149 210.829 100.034 215.575 104.286C220.803 108.969 221.357 115.099 220.078 120.228C219.44 122.788 218.342 125.13 217.114 126.982C215.906 128.806 214.499 130.261 213.184 130.918C212.834 131.093 212.416 131.048 212.111 130.804C211.806 130.56 211.672 130.16 211.766 129.782C213.413 123.187 212.783 116.28 209.842 112.256C202.506 106.532 183.627 88.3047 165.96 70.8905C151.075 56.2191 136.993 42.0665 131.272 36.3163C130.158 35.1968 129.361 34.3958 128.936 33.9715C126.202 31.2374 124.697 28.3013 124.517 25.1165C124.339 21.9485 125.481 18.6925 127.728 15.3234Z" fill="#528C2E" stroke="#003E6B" stroke-width="2" stroke-linejoin="round"/>
<path d="M161.036 114.256C161.268 113.908 161.693 113.741 162.1 113.838C162.507 113.936 162.811 114.276 162.861 114.692C162.861 114.692 162.861 114.692 162.861 114.692L162.861 114.692L162.861 114.695L162.863 114.71C162.865 114.724 162.868 114.746 162.872 114.777C162.88 114.838 162.894 114.93 162.913 115.05C162.951 115.29 163.012 115.64 163.101 116.07C163.281 116.934 163.575 118.111 164.03 119.37C164.958 121.936 166.477 124.623 168.852 125.88C175.863 129.592 183.023 132.828 189.701 135.847C191.79 136.791 193.832 137.714 195.807 138.624C204.042 142.415 211.198 146.005 215.575 149.925C220.803 154.609 221.357 160.738 220.078 165.868C219.44 168.427 218.342 170.769 217.114 172.621C215.906 174.445 214.499 175.9 213.184 176.558C212.834 176.732 212.416 176.687 212.111 176.443C211.806 176.199 211.672 175.8 211.766 175.421C213.422 168.79 212.776 161.843 209.794 157.83C203.803 151.335 193.432 146.472 183.721 142.551C181.403 141.615 179.088 140.72 176.895 139.872C174.573 138.973 172.387 138.128 170.479 137.343C168.597 136.569 166.914 135.826 165.529 135.106C164.16 134.395 163.008 133.668 162.245 132.904C159.51 130.17 158.005 127.234 157.825 124.049C157.647 120.882 158.79 117.625 161.036 114.256Z" fill="#528C2E" stroke="#003E6B" stroke-width="2" stroke-linejoin="round"/>
<rect x="178.27" y="74.8049" width="20.439" height="7.12195" rx="3.56097" fill="#00AEEF" stroke="#003E6B" stroke-width="2" stroke-linejoin="round"/>
<rect x="167" y="61.4878" width="47.0732" height="7.12195" rx="3.56098" fill="#00AEEF" stroke="#003E6B" stroke-width="2" stroke-linejoin="round"/>
<rect x="198.754" y="48.1708" width="26.5854" height="7.12195" rx="3.56097" fill="#00AEEF" stroke="#003E6B" stroke-width="2" stroke-linejoin="round"/>
<rect x="153.684" y="48.1708" width="26.5854" height="7.12195" rx="3.56097" fill="#00AEEF" stroke="#003E6B" stroke-width="2" stroke-linejoin="round"/>
<rect x="204.902" y="34.8536" width="30.2528" height="7.12195" rx="3.56097" fill="#00AEEF" stroke="#003E6B" stroke-width="2" stroke-linejoin="round"/>
<rect x="140.367" y="34.8536" width="30.2528" height="7.12195" rx="3.56097" fill="#00AEEF" stroke="#003E6B" stroke-width="2" stroke-linejoin="round"/>
<rect x="216.172" y="21.5366" width="30.2527" height="7.12195" rx="3.56098" fill="#00AEEF" stroke="#003E6B" stroke-width="2" stroke-linejoin="round"/>
<rect x="128.074" y="21.5366" width="30.2528" height="7.12195" rx="3.56098" fill="#00AEEF" stroke="#003E6B" stroke-width="2" stroke-linejoin="round"/>
<rect x="169.047" y="100.415" width="40.9268" height="7.12195" rx="3.56097" fill="#00AEEF" stroke="#003E6B" stroke-width="2" stroke-linejoin="round"/>
<rect x="160.188" y="113.811" width="56.3322" height="7.12195" rx="3.56097" fill="#00AEEF" stroke="#003E6B" stroke-width="2" stroke-linejoin="round"/>
<rect x="168.883" y="126.85" width="38.9459" height="7.12197" rx="3.56099" fill="#00AEEF" stroke="#003E6B" stroke-width="2" stroke-linejoin="round"/>
<rect x="181.918" y="146.41" width="28.0795" height="7.12196" rx="3.56098" fill="#00AEEF" stroke="#003E6B" stroke-width="2" stroke-linejoin="round"/>
<rect x="171.055" y="159.45" width="45.4658" height="7.12193" rx="3.56097" fill="#00AEEF" stroke="#003E6B" stroke-width="2" stroke-linejoin="round"/>
<rect x="160.188" y="172.489" width="47.6391" height="7.12196" rx="3.56098" fill="#00AEEF" stroke="#003E6B" stroke-width="2" stroke-linejoin="round"/>
<path d="M217.582 107.297C217.953 107.256 218.316 107.426 218.523 107.736C223.215 114.775 220.578 124.207 215.141 129.644C213.502 131.284 209.393 135.054 204.155 139.859C201.003 142.751 197.443 146.018 193.765 149.421C183.965 158.491 173.316 168.549 167.185 175.215C165.788 177.105 165.364 179.721 165.552 182.832C165.741 185.954 166.534 189.403 167.384 192.807C167.472 193.161 167.361 193.535 167.093 193.783C166.825 194.031 166.444 194.113 166.098 193.998C162.427 192.775 158.99 188.64 157.574 183.68C156.138 178.646 156.717 172.574 161.323 167.392C163.93 164.46 169.935 158.892 177.149 152.203C179.084 150.408 181.106 148.533 183.173 146.606C192.988 137.459 203.869 127.1 211.51 118.494C211.973 117.972 212.539 117.074 213.145 115.951C213.74 114.846 214.341 113.588 214.879 112.394C215.416 111.202 215.887 110.085 216.223 109.265C216.391 108.855 216.525 108.52 216.617 108.288C216.664 108.172 216.699 108.082 216.723 108.021L216.75 107.952L216.756 107.935L216.758 107.931L216.758 107.93L216.758 107.93C216.758 107.93 216.758 107.93 216.758 107.93M217.582 107.297L218.339 109.371C218.391 109.24 218.437 109.124 218.476 109.027C218.523 108.908 218.56 108.815 218.585 108.751L218.613 108.678L218.621 108.659L218.623 108.654L218.623 108.653L218.624 108.652C218.624 108.652 218.624 108.652 217.691 108.291L216.758 107.93M217.582 107.297C217.211 107.338 216.893 107.582 216.758 107.93M217.582 107.297L216.758 107.93" fill="#84BE60" stroke="#003E6B" stroke-width="2" stroke-linejoin="round"/>
<path d="M245.03 16.3103C245.401 16.2696 245.764 16.439 245.971 16.7496C250.663 23.788 248.026 33.2203 242.589 38.6577C237.38 43.8662 179.56 103.076 167.185 116.536C165.788 118.426 165.364 121.042 165.552 124.153C165.741 127.275 166.534 130.724 167.384 134.128C167.472 134.482 167.361 134.856 167.093 135.104C166.825 135.352 166.444 135.434 166.098 135.319C162.427 134.096 158.99 129.961 157.574 125.001C156.138 119.967 156.717 113.895 161.323 108.713C163.904 105.81 174.094 95.2985 186.425 82.5785C189.782 79.1162 193.297 75.4903 196.861 71.8095C213.542 54.58 231.299 36.1336 238.958 27.5069C239.42 26.9858 239.987 26.0869 240.592 24.9641C241.188 23.8593 241.789 22.6011 242.327 21.4074C242.864 20.2156 243.334 19.098 243.671 18.278C243.839 17.8682 243.973 17.5334 244.065 17.3015C244.111 17.1856 244.147 17.0954 244.171 17.0346L244.198 16.9657L244.204 16.9485L244.206 16.9444L244.206 16.9435L244.206 16.9434C244.206 16.9434 244.206 16.9434 244.206 16.9434M245.03 16.3103L245.786 18.3838C245.839 18.253 245.885 18.1377 245.924 18.0399C245.971 17.9209 246.008 17.8279 246.033 17.7643L246.061 17.6914L246.069 17.6723L246.071 17.6673L246.071 17.6659L246.071 17.6655C246.071 17.6654 246.071 17.6653 245.139 17.3043L244.206 16.9434M245.03 16.3103C244.659 16.351 244.341 16.5952 244.206 16.9434M245.03 16.3103L244.206 16.9434" fill="#84BE60" stroke="#003E6B" stroke-width="2" stroke-linejoin="round"/>
<path d="M217.582 152.936C217.953 152.896 218.316 153.065 218.523 153.376C223.216 160.414 220.579 169.846 215.141 175.284C209.876 180.549 200.893 188.429 187.767 196.087C187.738 196.104 187.707 196.119 187.676 196.133L187.263 195.223L187.676 196.133L187.676 196.134L187.675 196.134L187.67 196.136L187.65 196.145L187.57 196.182C187.499 196.214 187.394 196.262 187.259 196.325C186.988 196.449 186.594 196.631 186.105 196.859C185.126 197.316 183.764 197.959 182.233 198.703C179.163 200.195 175.445 202.081 172.768 203.687C172.404 203.906 171.941 203.87 171.614 203.598C171.287 203.325 171.168 202.876 171.318 202.478C174.268 194.611 180.503 190.153 184.863 187.036C185.51 186.573 186.116 186.14 186.663 185.729C188.662 184.232 190.275 183.201 191.79 182.236L191.887 182.175C193.365 181.234 194.747 180.355 196.349 179.141C199.619 176.665 203.851 172.761 211.51 164.133C211.973 163.612 212.539 162.713 213.145 161.59C213.741 160.485 214.341 159.227 214.879 158.033C215.416 156.842 215.887 155.724 216.223 154.904C216.391 154.494 216.526 154.159 216.618 153.927C216.664 153.812 216.699 153.721 216.723 153.661L216.75 153.592L216.757 153.575L216.758 153.57L216.759 153.569L216.759 153.569C216.759 153.569 216.759 153.569 216.759 153.569M217.582 152.936L218.339 155.01C218.392 154.879 218.438 154.764 218.476 154.666C218.524 154.547 218.56 154.454 218.585 154.39L218.614 154.317L218.621 154.298L218.623 154.293L218.624 154.292L218.624 154.291C218.624 154.291 218.624 154.291 217.691 153.93L216.759 153.569M217.582 152.936C217.211 152.977 216.894 153.221 216.759 153.569M217.582 152.936L216.759 153.569" fill="#84BE60" stroke="#003E6B" stroke-width="2" stroke-linejoin="round"/>
<path d="M175.172 24.5853H203.855" stroke="white" stroke-width="2"/>
<path d="M171.074 24.5854L177.221 21.0368L177.221 28.134L171.074 24.5854Z" fill="white"/>
<path d="M206.926 24.5854L200.779 28.1339L200.779 21.0368L206.926 24.5854Z" fill="white"/>
</svg>
