<svg width="368" height="210" viewBox="0 0 368 210" fill="none" xmlns="http://www.w3.org/2000/svg">
<rect width="368" height="210" fill="#0063C3"/>
<rect width="210" height="210" transform="translate(84)" fill="#0063C3"/>
<path d="M161.04 68.6173C161.272 68.2689 161.697 68.1021 162.104 68.1994C162.511 68.2966 162.815 68.6371 162.865 69.0527C162.865 69.0527 162.865 69.0528 162.865 69.0528L162.865 69.0533L162.865 69.0555L162.867 69.0706C162.869 69.0849 162.872 69.1074 162.876 69.1379C162.884 69.1988 162.898 69.291 162.917 69.4109C162.955 69.6509 163.016 70.0009 163.105 70.4315C163.285 71.2945 163.579 72.4716 164.034 73.7305C164.962 76.2974 166.481 78.9839 168.856 80.2413C175.867 83.9531 183.027 87.1893 189.705 90.2083C191.794 91.1524 193.836 92.0753 195.811 92.9848C204.046 96.7763 211.202 100.366 215.579 104.286C220.807 108.97 221.36 115.099 220.082 120.229C219.444 122.788 218.346 125.13 217.118 126.982C215.909 128.806 214.503 130.261 213.188 130.919C212.838 131.093 212.419 131.048 212.115 130.804C211.81 130.56 211.676 130.161 211.77 129.782C213.426 123.151 212.78 116.204 209.798 112.191C203.807 105.696 193.436 100.833 183.725 96.9123C181.407 95.9763 179.092 95.0808 176.899 94.2326C174.577 93.3341 172.391 92.4886 170.483 91.7041C168.601 90.9299 166.918 90.1875 165.533 89.4673C164.164 88.7559 163.012 88.029 162.248 87.2654C159.514 84.5314 158.009 81.5953 157.829 78.4104C157.651 75.2425 158.794 71.9865 161.04 68.6173Z" fill="#528C2E" stroke="#003E6B" stroke-width="2" stroke-linejoin="round"/>
<path d="M159.94 6.13216C160.172 5.78373 160.597 5.61693 161.005 5.71422C161.412 5.81147 161.715 6.15196 161.765 6.56749C161.765 6.56754 161.765 6.5676 161.765 6.56766L161.765 6.56809L161.765 6.57034L161.767 6.58543C161.769 6.59969 161.772 6.62228 161.776 6.65271C161.785 6.7136 161.798 6.80585 161.817 6.92576C161.855 7.16571 161.916 7.51571 162.006 7.9463C162.186 8.80938 162.479 9.98642 162.934 11.2454C163.862 13.8123 165.381 16.4988 167.756 17.7562C170.352 19.1304 172.994 20.5171 175.642 21.9065C182.398 25.4524 189.189 29.0163 195.33 32.4373C203.859 37.1885 211.24 41.7198 215.579 45.607C220.807 50.2903 221.36 56.42 220.082 61.5492C219.444 64.109 218.346 66.451 217.118 68.3031C215.91 70.1264 214.503 71.582 213.188 72.2392C212.838 72.4138 212.419 72.3691 212.115 72.1248C211.81 71.8805 211.676 71.4812 211.77 71.1024C213.426 64.472 212.78 57.525 209.798 53.5112C203.78 46.9848 193.099 41.1745 183.111 36.3014C180.674 35.1124 178.243 33.9626 175.948 32.8767C173.611 31.7715 171.415 30.7325 169.494 29.7857C167.562 28.8335 165.843 27.9434 164.437 27.1219C163.047 26.3098 161.896 25.5275 161.149 24.7803C158.415 22.0462 156.909 19.1101 156.73 15.9253C156.551 12.7573 157.694 9.50132 159.94 6.13216Z" fill="#528C2E" stroke="#003E6B" stroke-width="2" stroke-linejoin="round"/>
<path d="M161.04 114.256C161.272 113.908 161.697 113.741 162.104 113.838C162.511 113.936 162.815 114.276 162.865 114.692C162.865 114.692 162.865 114.692 162.865 114.692L162.865 114.692L162.865 114.694L162.867 114.71C162.869 114.724 162.872 114.746 162.876 114.777C162.884 114.838 162.898 114.93 162.917 115.05C162.955 115.29 163.016 115.64 163.105 116.07C163.285 116.933 163.579 118.111 164.034 119.369C164.962 121.936 166.481 124.623 168.856 125.88C175.867 129.592 183.027 132.828 189.705 135.847C191.794 136.791 193.836 137.714 195.811 138.624C204.046 142.415 211.202 146.004 215.579 149.925C220.807 154.609 221.36 160.738 220.082 165.868C219.444 168.427 218.346 170.769 217.118 172.621C215.909 174.445 214.503 175.9 213.188 176.558C212.838 176.732 212.419 176.687 212.115 176.443C211.81 176.199 211.676 175.8 211.77 175.421C213.426 168.79 212.78 161.843 209.798 157.83C203.807 151.335 193.436 146.472 183.725 142.551C181.407 141.615 179.092 140.72 176.899 139.872C174.577 138.973 172.391 138.128 170.483 137.343C168.601 136.569 166.918 135.826 165.533 135.106C164.164 134.395 163.012 133.668 162.248 132.904C159.514 130.17 158.009 127.234 157.829 124.049C157.651 120.881 158.794 117.625 161.04 114.256Z" fill="#528C2E" stroke="#003E6B" stroke-width="2" stroke-linejoin="round"/>
<rect x="162.359" y="74.692" width="38.9459" height="7.12195" rx="3.56097" fill="#00AEEF" stroke="#003E6B" stroke-width="2" stroke-linejoin="round"/>
<rect x="162.359" y="61.6518" width="51.9856" height="7.12194" rx="3.56097" fill="#00AEEF" stroke="#003E6B" stroke-width="2" stroke-linejoin="round"/>
<rect x="175.402" y="48.612" width="41.1192" height="7.12196" rx="3.56098" fill="#00AEEF" stroke="#003E6B" stroke-width="2" stroke-linejoin="round"/>
<rect x="170.852" y="24.7064" width="30.2527" height="7.12195" rx="3.56098" fill="#00AEEF" stroke="#003E6B" stroke-width="2" stroke-linejoin="round"/>
<rect x="160.855" y="11.2927" width="49.1219" height="7.12195" rx="3.56098" fill="#00AEEF" stroke="#003E6B" stroke-width="2" stroke-linejoin="round"/>
<rect x="169.051" y="100.415" width="40.9268" height="7.12196" rx="3.56098" fill="#00AEEF" stroke="#003E6B" stroke-width="2" stroke-linejoin="round"/>
<rect x="160.188" y="113.811" width="56.3322" height="7.12194" rx="3.56097" fill="#00AEEF" stroke="#003E6B" stroke-width="2" stroke-linejoin="round"/>
<rect x="168.883" y="126.85" width="38.9459" height="7.12196" rx="3.56098" fill="#00AEEF" stroke="#003E6B" stroke-width="2" stroke-linejoin="round"/>
<rect x="181.918" y="146.41" width="28.0795" height="7.12196" rx="3.56098" fill="#00AEEF" stroke="#003E6B" stroke-width="2" stroke-linejoin="round"/>
<rect x="171.059" y="159.45" width="45.4658" height="7.12195" rx="3.56097" fill="#00AEEF" stroke="#003E6B" stroke-width="2" stroke-linejoin="round"/>
<rect x="160.188" y="172.489" width="47.639" height="7.12193" rx="3.56097" fill="#00AEEF" stroke="#003E6B" stroke-width="2" stroke-linejoin="round"/>
<path d="M210.781 5.1644C211.176 5.0882 211.579 5.25659 211.802 5.59163C214.048 8.96079 215.191 12.2168 215.013 15.3847C214.833 18.5696 213.328 21.5057 210.593 24.2397C205.402 29.4313 179.529 57.468 167.189 70.897C165.792 72.7873 165.368 75.4027 165.556 78.5144C165.745 81.6359 166.538 85.0849 167.388 88.489C167.476 88.843 167.365 89.2171 167.097 89.4651C166.829 89.713 166.448 89.7954 166.101 89.68C162.431 88.4571 158.994 84.3221 157.578 79.3618C156.142 74.3284 156.721 68.256 161.327 63.0741C163.883 60.1985 169.069 54.5748 175.348 47.766C177.107 45.8586 178.951 43.8582 180.848 41.7992C189.522 32.3823 199.293 21.7283 206.962 13.089C207.91 12.0213 208.674 10.2823 209.21 8.70813C209.471 7.93915 209.668 7.24252 209.799 6.73851C209.864 6.48693 209.913 6.28442 209.945 6.14618C209.961 6.07709 209.973 6.02413 209.981 5.98921L209.989 5.95063L209.991 5.94195L209.992 5.94059C209.992 5.94051 209.992 5.94043 209.992 5.94035M210.781 5.1644L211.713 7.32637C211.72 7.29763 211.727 7.26943 211.735 7.24176C211.805 6.97174 211.858 6.75235 211.893 6.59909C211.911 6.52243 211.925 6.46224 211.934 6.42044L211.945 6.37176L211.948 6.3582L211.948 6.3542L211.949 6.3529L211.949 6.35243C211.949 6.35224 211.949 6.35207 210.97 6.14633C209.992 5.94059 209.992 5.94046 209.992 5.94035M210.781 5.1644C210.386 5.24059 210.075 5.54641 209.992 5.94035M210.781 5.1644L209.992 5.94035" fill="#84BE60" stroke="#003E6B" stroke-width="2" stroke-linejoin="round"/>
<path d="M217.586 107.297C217.957 107.256 218.32 107.426 218.527 107.736C223.219 114.775 220.582 124.207 215.145 129.644C213.506 131.284 209.397 135.054 204.159 139.859C201.007 142.751 197.446 146.018 193.769 149.421C183.969 158.491 173.32 168.549 167.189 175.215C165.792 177.105 165.368 179.721 165.556 182.832C165.745 185.954 166.538 189.403 167.388 192.807C167.476 193.161 167.365 193.535 167.097 193.783C166.829 194.031 166.448 194.113 166.101 193.998C162.431 192.775 158.994 188.64 157.578 183.68C156.142 178.646 156.721 172.574 161.327 167.392C163.934 164.46 169.938 158.892 177.153 152.203C179.088 150.408 181.11 148.533 183.177 146.606C192.992 137.459 203.873 127.1 211.514 118.494C211.976 117.972 212.543 117.074 213.149 115.951C213.744 114.846 214.345 113.588 214.883 112.394C215.42 111.202 215.89 110.085 216.227 109.265C216.395 108.855 216.529 108.52 216.621 108.288C216.667 108.172 216.703 108.082 216.727 108.021L216.754 107.952L216.76 107.935L216.762 107.931L216.762 107.93L216.762 107.93C216.762 107.93 216.762 107.93 216.762 107.93M217.586 107.297L218.343 109.371C218.395 109.24 218.441 109.124 218.48 109.027C218.527 108.908 218.564 108.815 218.589 108.751L218.617 108.678L218.625 108.659L218.627 108.654L218.627 108.653L218.627 108.652C218.627 108.652 218.628 108.652 217.695 108.291L216.762 107.93M217.586 107.297C217.215 107.338 216.897 107.582 216.762 107.93M217.586 107.297L216.762 107.93" fill="#84BE60" stroke="#003E6B" stroke-width="2" stroke-linejoin="round"/>
<path d="M217.586 48.6179C217.957 48.5772 218.32 48.7466 218.527 49.0573C223.219 56.0956 220.582 65.528 215.145 70.9653C213.506 72.6046 209.397 76.3746 204.159 81.18C201.007 84.0719 197.446 87.3388 193.769 90.7419C183.969 99.8123 173.32 109.87 167.189 116.536C165.792 118.426 165.368 121.042 165.556 124.153C165.745 127.275 166.538 130.724 167.388 134.128C167.476 134.482 167.365 134.856 167.097 135.104C166.829 135.352 166.448 135.434 166.101 135.319C162.431 134.096 158.994 129.961 157.578 125.001C156.142 119.967 156.721 113.895 161.327 108.713C163.934 105.781 169.938 100.213 177.153 93.5235C179.088 91.729 181.11 89.854 183.177 87.9274C192.992 78.7797 203.873 68.4213 211.514 59.8145C211.976 59.2934 212.543 58.3945 213.149 57.2717C213.744 56.1669 214.345 54.9087 214.883 53.7151C215.42 52.5232 215.89 51.4057 216.227 50.5856C216.395 50.1758 216.529 49.841 216.621 49.6092C216.667 49.4932 216.703 49.4031 216.727 49.3422L216.754 49.2733L216.76 49.2562L216.762 49.2521L216.762 49.2512L216.762 49.251C216.762 49.251 216.762 49.251 216.762 49.251M217.586 48.6179L218.343 50.6915C218.395 50.5606 218.441 50.4453 218.48 50.3475C218.527 50.2286 218.564 50.1355 218.589 50.0719L218.617 49.999L218.625 49.98L218.627 49.9749L218.627 49.9735L218.627 49.9731C218.627 49.973 218.628 49.9729 217.695 49.612L216.762 49.251M217.586 48.6179C217.215 48.6587 216.897 48.9028 216.762 49.251M217.586 48.6179L216.762 49.251" fill="#84BE60" stroke="#003E6B" stroke-width="2" stroke-linejoin="round"/>
<path d="M217.586 152.936C217.957 152.896 218.32 153.065 218.527 153.376C223.219 160.414 220.583 169.846 215.145 175.284C209.88 180.549 200.897 188.43 187.771 196.087C187.742 196.104 187.711 196.119 187.68 196.133L187.267 195.223L187.68 196.133L187.68 196.134L187.679 196.134L187.674 196.136L187.654 196.145L187.574 196.182C187.503 196.214 187.398 196.262 187.263 196.325C186.992 196.449 186.598 196.631 186.109 196.859C185.13 197.316 183.768 197.959 182.237 198.703C179.167 200.195 175.449 202.081 172.772 203.687C172.408 203.906 171.945 203.87 171.618 203.598C171.291 203.325 171.172 202.876 171.321 202.478C174.272 194.611 180.507 190.153 184.867 187.036C185.514 186.573 186.12 186.14 186.667 185.729C188.666 184.232 190.279 183.201 191.794 182.236L191.89 182.175C193.369 181.234 194.751 180.355 196.352 179.141C199.623 176.665 203.855 172.761 211.514 164.133C211.977 163.612 212.543 162.713 213.149 161.59C213.745 160.485 214.345 159.227 214.883 158.033C215.42 156.842 215.891 155.724 216.227 154.904C216.395 154.494 216.53 154.159 216.622 153.927C216.668 153.812 216.703 153.721 216.727 153.661L216.754 153.592L216.761 153.575L216.762 153.57L216.763 153.569L216.763 153.569C216.763 153.569 216.763 153.569 216.763 153.569M217.586 152.936L218.343 155.01C218.395 154.879 218.442 154.764 218.48 154.666C218.528 154.547 218.564 154.454 218.589 154.39L218.618 154.317L218.625 154.298L218.627 154.293L218.628 154.292L218.628 154.291C218.628 154.291 218.628 154.291 217.695 153.93L216.763 153.569M217.586 152.936C217.215 152.977 216.897 153.221 216.763 153.569M217.586 152.936L216.763 153.569" fill="#84BE60" stroke="#003E6B" stroke-width="2" stroke-linejoin="round"/>
</svg>
