<svg width="368" height="210" viewBox="0 0 368 210" fill="none" xmlns="http://www.w3.org/2000/svg">
<rect width="368" height="210" fill="#0063C3"/>
<rect width="210" height="210" transform="translate(84)" fill="#0063C3"/>
<rect x="238.109" y="68.1807" width="34.5783" height="6.74699" fill="#668BA6" stroke="#003E6B" stroke-width="2"/>
<mask id="path-3-outside-1" maskUnits="userSpaceOnUse" x="220" y="62" width="71" height="136" fill="black">
<rect fill="white" x="220" y="62" width="71" height="136"/>
<path fill-rule="evenodd" clip-rule="evenodd" d="M222 66.5C222 65.1193 223.119 64 224.5 64H281.5C281.671 64 281.838 64.0172 282 64.05V64C285.866 64 289 67.134 289 71C289 74.866 285.866 78 282 78H276V136.982V137C275.992 143.877 271.454 162.026 267.804 176.624L267.804 176.624L267.804 176.624C266.752 180.829 265.775 184.739 265 188H264.816C264.079 192.537 260.143 196 255.398 196C250.598 196 246.626 192.457 245.955 187.843C240.974 170.364 236.007 145.668 236 137V136.982V78H231C229.895 78 229 77.1046 229 76C229 74.8954 229.895 74 231 74H236H276H282C283.289 74 284.5 72.7887 284.5 71.5C284.5 70.2113 283.289 69 282 69V68.95C281.838 68.9828 281.671 69 281.5 69H224.5C223.119 69 222 67.8807 222 66.5Z"/>
</mask>
<path fill-rule="evenodd" clip-rule="evenodd" d="M222 66.5C222 65.1193 223.119 64 224.5 64H281.5C281.671 64 281.838 64.0172 282 64.05V64C285.866 64 289 67.134 289 71C289 74.866 285.866 78 282 78H276V136.982V137C275.992 143.877 271.454 162.026 267.804 176.624L267.804 176.624L267.804 176.624C266.752 180.829 265.775 184.739 265 188H264.816C264.079 192.537 260.143 196 255.398 196C250.598 196 246.626 192.457 245.955 187.843C240.974 170.364 236.007 145.668 236 137V136.982V78H231C229.895 78 229 77.1046 229 76C229 74.8954 229.895 74 231 74H236H276H282C283.289 74 284.5 72.7887 284.5 71.5C284.5 70.2113 283.289 69 282 69V68.95C281.838 68.9828 281.671 69 281.5 69H224.5C223.119 69 222 67.8807 222 66.5Z" fill="#CCD8E1"/>
<path d="M282 64.05L281.602 66.01L284 66.4968V64.05H282ZM282 64V62H280V64H282ZM276 78V76H274V78H276ZM276 137L278 137.002V137H276ZM267.804 176.624L265.863 176.139L265.863 176.139L267.804 176.624ZM267.804 176.624L269.744 177.11L269.744 177.11L267.804 176.624ZM265 188V190H266.581L266.946 188.462L265 188ZM264.816 188V186H263.115L262.842 187.679L264.816 188ZM245.955 187.843L247.934 187.555L247.915 187.423L247.879 187.295L245.955 187.843ZM236 137L234 137L234 137.002L236 137ZM236 78H238V76H236V78ZM282 69H280V71H282V69ZM282 68.95H284V66.5032L281.602 66.99L282 68.95ZM224.5 62C222.015 62 220 64.0147 220 66.5H224C224 66.2239 224.224 66 224.5 66V62ZM281.5 62H224.5V66H281.5V62ZM282.398 62.09C282.106 62.0308 281.806 62 281.5 62V66C281.537 66 281.571 66.0037 281.602 66.01L282.398 62.09ZM284 64.05V64H280V64.05H284ZM282 66C284.761 66 287 68.2386 287 71H291C291 66.0294 286.971 62 282 62V66ZM287 71C287 73.7614 284.761 76 282 76V80C286.971 80 291 75.9706 291 71H287ZM282 76H276V80H282V76ZM274 78V136.982H278V78H274ZM274 136.982V137H278V136.982H274ZM274 136.998C273.996 140.18 272.916 146.219 271.315 153.486C269.73 160.675 267.69 168.833 265.863 176.139L269.744 177.109C271.567 169.816 273.622 161.601 275.221 154.347C276.803 147.171 277.996 140.697 278 137.002L274 136.998ZM265.863 176.139L265.863 176.139L269.744 177.109L269.744 177.109L265.863 176.139ZM265.863 176.139L265.863 176.139L269.744 177.11L269.744 177.109L265.863 176.139ZM265.863 176.139C264.813 180.34 263.832 184.263 263.054 187.538L266.946 188.462C267.717 185.215 268.692 181.318 269.744 177.11L265.863 176.139ZM265 186H264.816V190H265V186ZM262.842 187.679C262.259 191.263 259.146 194 255.398 194V198C261.139 198 265.898 193.81 266.79 188.321L262.842 187.679ZM255.398 194C251.606 194 248.464 191.2 247.934 187.555L243.976 188.131C244.788 193.713 249.59 198 255.398 198V194ZM247.879 187.295C245.405 178.616 242.93 168.127 241.074 158.73C239.206 149.272 238.003 141.111 238 136.998L234 137.002C234.004 141.557 235.288 150.078 237.15 159.505C239.024 168.993 241.524 179.591 244.032 188.391L247.879 187.295ZM238 137V136.982H234V137H238ZM238 136.982V78H234V136.982H238ZM236 76H231V80H236V76ZM231 76H231H227C227 78.2091 228.791 80 231 80V76ZM231 76V72C228.791 72 227 73.7909 227 76H231ZM231 76H236V72H231V76ZM236 76H276V72H236V76ZM276 76H282V72H276V76ZM282 76C283.266 76 284.379 75.4162 285.147 74.6475C285.916 73.8787 286.5 72.7665 286.5 71.5H282.5C282.5 71.5222 282.478 71.6599 282.319 71.819C282.16 71.9781 282.022 72 282 72V76ZM286.5 71.5C286.5 70.2335 285.916 69.1213 285.147 68.3525C284.379 67.5838 283.266 67 282 67V71C282.022 71 282.16 71.0219 282.319 71.181C282.478 71.3401 282.5 71.4778 282.5 71.5H286.5ZM284 69V68.95H280V69H284ZM281.5 71C281.806 71 282.106 70.9692 282.398 70.91L281.602 66.99C281.571 66.9963 281.537 67 281.5 67V71ZM224.5 71H281.5V67H224.5V71ZM220 66.5C220 68.9853 222.015 71 224.5 71V67C224.224 67 224 66.7761 224 66.5H220Z" fill="#003E6B" mask="url(#path-3-outside-1)"/>
<mask id="path-5-outside-2" maskUnits="userSpaceOnUse" x="235.199" y="153" width="40" height="45" fill="black">
<rect fill="white" x="235.199" y="153" width="40" height="45"/>
<path fill-rule="evenodd" clip-rule="evenodd" d="M272.536 155L238.199 155C240.513 166.342 243.797 179.74 245.854 187.651H245.928C246.515 192.358 250.53 196 255.396 196C260.262 196 264.278 192.358 264.865 187.651H264.939C265.366 185.858 265.847 183.867 266.361 181.739C268.299 173.714 270.71 163.729 272.536 155Z"/>
</mask>
<path fill-rule="evenodd" clip-rule="evenodd" d="M272.536 155L238.199 155C240.513 166.342 243.797 179.74 245.854 187.651H245.928C246.515 192.358 250.53 196 255.396 196C260.262 196 264.278 192.358 264.865 187.651H264.939C265.366 185.858 265.847 183.867 266.361 181.739C268.299 173.714 270.71 163.729 272.536 155Z" fill="#00AEEF"/>
<path d="M238.199 155V153H235.75L236.24 155.4L238.199 155ZM272.536 155L274.493 155.409L274.997 153H272.536V155ZM245.854 187.651L243.919 188.154L244.308 189.651H245.854V187.651ZM245.928 187.651L247.913 187.403L247.694 185.651H245.928V187.651ZM264.865 187.651V185.651H263.099L262.88 187.403L264.865 187.651ZM264.939 187.651V189.651H266.518L266.884 188.115L264.939 187.651ZM266.361 181.739L268.305 182.208L268.305 182.208L266.361 181.739ZM238.199 157L272.536 157V153L238.199 153V157ZM236.24 155.4C238.563 166.789 241.857 180.224 243.919 188.154L247.79 187.147C245.738 179.255 242.463 165.895 240.159 154.6L236.24 155.4ZM245.854 189.651H245.928V185.651H245.854V189.651ZM243.943 187.898C244.654 193.594 249.509 198 255.396 198V194C251.552 194 248.376 191.122 247.913 187.403L243.943 187.898ZM255.396 198C261.284 198 266.139 193.594 266.849 187.898L262.88 187.403C262.416 191.122 259.241 194 255.396 194V198ZM264.865 189.651H264.939V185.651H264.865V189.651ZM266.884 188.115C267.311 186.325 267.791 184.337 268.305 182.208L264.417 181.269C263.903 183.397 263.422 185.391 262.993 187.187L266.884 188.115ZM268.305 182.208C270.241 174.19 272.66 164.175 274.493 155.409L270.578 154.591C268.759 163.284 266.356 173.238 264.417 181.269L268.305 182.208Z" fill="#003E6B" mask="url(#path-5-outside-2)"/>
<rect x="235" y="78" width="22" height="2" rx="1" fill="#003E6B"/>
<rect x="259" y="78" width="8" height="2" rx="1" fill="#003E6B"/>
<rect x="268" y="78" width="9" height="2" rx="1" fill="#003E6B"/>
<rect x="283.23" y="70.3615" width="2.38554" height="1.59036" rx="0.795181" fill="#003E6B"/>
<rect x="282.762" y="71.9518" width="2.38554" height="1.59036" rx="0.795181" transform="rotate(45 282.762 71.9518)" fill="#003E6B"/>
<rect x="281.641" y="69.6628" width="2.38554" height="1.59036" rx="0.795181" transform="rotate(-45 281.641 69.6628)" fill="#003E6B"/>
<rect x="237.109" y="95.0121" width="4.77108" height="44.5301" rx="2.38554" fill="#E5ECF0"/>
<rect x="271" y="80" width="5" height="57" fill="#99B2C4"/>
<path d="M271 137L268 153H273.5C273.5 153 276 143 276 137H271Z" fill="#99B2C4"/>
<rect x="236" y="80" width="38" height="3" fill="#99B2C4"/>
<rect x="223" y="67" width="59" height="2" rx="1" fill="#99B2C4"/>
<path d="M260.566 185.663C262.157 178.506 266.5 163.5 268 155H272.5C272.5 163.747 268.386 173.364 264.94 187.81L260.566 185.663Z" fill="#008BBF"/>
<path d="M262.954 185.663C262.158 190.831 259.53 193.614 255.797 193.614" stroke="#008BBF" stroke-width="5" stroke-linecap="round"/>
<circle cx="156.5" cy="72.5" r="60.5" fill="#003E6B" stroke="#FAAC48" stroke-width="2"/>
<path d="M147 132.5L249.5 180L214 53.5" stroke="#FAAC48" stroke-width="2" stroke-linecap="round" stroke-linejoin="round"/>
<path d="M124.442 76.7574C123.642 74.3574 124.108 65.4241 124.442 61.2574L144.442 46.2574L163.942 45.7574L184.442 56.7574C183.942 58.7574 182.942 63.2574 182.942 65.2574C182.942 67.7574 187.942 71.2574 189.442 76.7574C190.942 82.2574 137.942 97.7574 135.442 96.7574C132.942 95.7574 133.442 87.7574 132.942 85.2574C132.442 82.7574 125.442 79.7574 124.442 76.7574Z" fill="#008BBF"/>
<path d="M181.94 44.2574C178.34 39.0574 168.773 40.4241 164.44 41.7574C164.273 44.2574 164.24 49.7574 165.44 51.7574C166.94 54.2574 170.94 64.2574 179.44 61.7574C187.94 59.2574 186.44 50.7574 181.94 44.2574Z" fill="#66CEF5" stroke="#99DFF9"/>
<path d="M134.443 94.2574C132.943 97.7574 139.943 101.757 146.443 103.257C149.444 104.115 153.943 107.257 157.943 107.757C161.943 108.257 164.443 104.257 168.443 102.757C172.443 101.257 177.443 100.757 180.443 99.2574C183.443 97.7574 185.943 90.7574 186.943 87.2574C187.943 83.7574 191.943 76.7574 186.943 74.2574C181.943 71.7574 175.943 78.2574 161.943 83.7574C147.943 89.2574 138.086 85.7574 134.443 94.2574Z" fill="#66CEF5" stroke="#99DFF9"/>
<path d="M126.941 50.2574C128.941 47.0574 134.775 46.924 137.441 47.2574C138.941 49.7574 138.441 58.7574 138.441 60.2574C138.441 61.7574 130.441 65.7574 126.941 63.7574C123.441 61.7574 124.441 54.2574 126.941 50.2574Z" fill="#66CEF5" stroke="#99DFF9"/>
<path d="M164.942 41.2574C166.942 43.2574 166.442 48.4241 165.942 50.7574C166.942 52.7574 170.442 55.7574 167.942 60.2574C165.442 64.7574 160.942 59.7574 154.442 62.2574C147.942 64.7574 141.442 63.2574 138.442 60.7574C135.442 58.2574 137.442 51.2574 137.442 46.7574C137.442 42.2574 150.442 40.7574 154.942 40.7574C159.442 40.7574 162.442 38.7574 164.942 41.2574Z" fill="#66CEF5" stroke="#99DFF9"/>
</svg>
