<svg width="368" height="210" viewBox="0 0 368 210" fill="none" xmlns="http://www.w3.org/2000/svg">
<rect width="368" height="210" fill="#0063C3"/>
<rect width="210" height="210" transform="translate(84)" fill="#0063C3"/>
<path d="M89.9961 32.7617H97.584V34.8027H91.9199V38.0254C92.584 37.5046 93.3424 37.2441 94.1953 37.2441C94.7422 37.2572 95.2435 37.3548 95.6992 37.5371C96.1289 37.7389 96.4772 37.9863 96.7441 38.2793C97.1413 38.6699 97.4277 39.1224 97.6035 39.6367C97.6947 39.9167 97.7598 40.2585 97.7988 40.6621C97.8379 41.0723 97.8574 41.5768 97.8574 42.1758C97.8574 43.1003 97.7923 43.8099 97.6621 44.3047C97.5254 44.793 97.2975 45.2259 96.9785 45.6035C96.6986 45.9746 96.2917 46.3132 95.7578 46.6191C95.237 46.9382 94.6185 47.1042 93.9023 47.1172C92.9388 47.1172 92.0566 46.8307 91.2559 46.2578C90.4421 45.6719 89.9375 44.7246 89.7422 43.416H91.7832C92.0046 44.5098 92.6849 45.0632 93.8242 45.0762C94.3125 45.0762 94.7031 44.9785 94.9961 44.7832C95.276 44.5944 95.4714 44.347 95.582 44.041C95.6992 43.735 95.7708 43.403 95.7969 43.0449C95.8099 42.6934 95.8164 42.3516 95.8164 42.0195C95.8294 41.2057 95.7025 40.5449 95.4355 40.0371C95.2923 39.7962 95.0807 39.6042 94.8008 39.4609C94.5208 39.3438 94.1725 39.2852 93.7559 39.2852C93.3848 39.2852 93.0462 39.3698 92.7402 39.5391C92.4342 39.7148 92.1608 40.0208 91.9199 40.457H89.9961V32.7617ZM99.9863 32.7617H102.027V34.8027L99.9863 36.2773V32.7617Z" fill="white"/>
<path d="M92.5156 109.758H93.2188C93.9154 109.758 94.4557 109.566 94.8398 109.182C95.224 108.811 95.416 108.329 95.416 107.736C95.403 107.137 95.2044 106.646 94.8203 106.262C94.4362 105.891 93.9414 105.699 93.3359 105.686C92.8997 105.686 92.5026 105.826 92.1445 106.105C91.7669 106.385 91.513 106.818 91.3828 107.404H89.3418C89.446 106.35 89.8724 105.461 90.6211 104.738C91.3568 104.022 92.2357 103.658 93.2578 103.645C94.5534 103.658 95.582 104.071 96.3438 104.885C97.0729 105.679 97.444 106.617 97.457 107.697C97.457 108.244 97.3594 108.771 97.1641 109.279C96.9362 109.787 96.5293 110.24 95.9434 110.637C96.5423 111.027 96.9753 111.496 97.2422 112.043C97.4961 112.59 97.623 113.163 97.623 113.762C97.61 115.096 97.1966 116.148 96.3828 116.916C95.582 117.704 94.5534 118.104 93.2969 118.117C92.3268 118.117 91.4674 117.805 90.7188 117.18C89.9701 116.555 89.485 115.65 89.2637 114.465H91.3047C91.487 114.94 91.7441 115.324 92.0762 115.617C92.4147 115.923 92.8639 116.076 93.4238 116.076C94.0228 116.076 94.5273 115.871 94.9375 115.461C95.3542 115.077 95.569 114.53 95.582 113.82C95.569 113.098 95.3542 112.538 94.9375 112.141C94.5273 111.757 94.0065 111.564 93.375 111.564H92.5156V109.758ZM99.9863 103.762H102.027V105.803L99.9863 107.277V103.762Z" fill="white"/>
<path d="M277.516 38.7578H278.219C278.915 38.7578 279.456 38.5658 279.84 38.1816C280.224 37.8105 280.416 37.3288 280.416 36.7363C280.403 36.1374 280.204 35.6458 279.82 35.2617C279.436 34.8906 278.941 34.6986 278.336 34.6855C277.9 34.6855 277.503 34.8255 277.145 35.1055C276.767 35.3854 276.513 35.8184 276.383 36.4043H274.342C274.446 35.3496 274.872 34.4609 275.621 33.7383C276.357 33.0221 277.236 32.6576 278.258 32.6445C279.553 32.6576 280.582 33.071 281.344 33.8848C282.073 34.679 282.444 35.6165 282.457 36.6973C282.457 37.2441 282.359 37.7715 282.164 38.2793C281.936 38.7871 281.529 39.2396 280.943 39.6367C281.542 40.0273 281.975 40.4961 282.242 41.043C282.496 41.5898 282.623 42.1628 282.623 42.7617C282.61 44.0964 282.197 45.1478 281.383 45.916C280.582 46.7038 279.553 47.1042 278.297 47.1172C277.327 47.1172 276.467 46.8047 275.719 46.1797C274.97 45.5547 274.485 44.6497 274.264 43.4648H276.305C276.487 43.9401 276.744 44.3242 277.076 44.6172C277.415 44.9232 277.864 45.0762 278.424 45.0762C279.023 45.0762 279.527 44.8711 279.938 44.4609C280.354 44.0768 280.569 43.5299 280.582 42.8203C280.569 42.0977 280.354 41.5378 279.938 41.1406C279.527 40.7565 279.007 40.5645 278.375 40.5645H277.516V38.7578ZM284.986 32.7617H287.027V34.8027L284.986 36.2773V32.7617Z" fill="white"/>
<path d="M274.996 103.762H282.584V105.803H276.92V109.025C277.584 108.505 278.342 108.244 279.195 108.244C279.742 108.257 280.243 108.355 280.699 108.537C281.129 108.739 281.477 108.986 281.744 109.279C282.141 109.67 282.428 110.122 282.604 110.637C282.695 110.917 282.76 111.258 282.799 111.662C282.838 112.072 282.857 112.577 282.857 113.176C282.857 114.1 282.792 114.81 282.662 115.305C282.525 115.793 282.298 116.226 281.979 116.604C281.699 116.975 281.292 117.313 280.758 117.619C280.237 117.938 279.618 118.104 278.902 118.117C277.939 118.117 277.057 117.831 276.256 117.258C275.442 116.672 274.938 115.725 274.742 114.416H276.783C277.005 115.51 277.685 116.063 278.824 116.076C279.312 116.076 279.703 115.979 279.996 115.783C280.276 115.594 280.471 115.347 280.582 115.041C280.699 114.735 280.771 114.403 280.797 114.045C280.81 113.693 280.816 113.352 280.816 113.02C280.829 112.206 280.702 111.545 280.436 111.037C280.292 110.796 280.081 110.604 279.801 110.461C279.521 110.344 279.173 110.285 278.756 110.285C278.385 110.285 278.046 110.37 277.74 110.539C277.434 110.715 277.161 111.021 276.92 111.457H274.996V103.762ZM284.986 103.762H287.027V105.803L284.986 107.277V103.762Z" fill="white"/>
<rect x="105" y="34" width="164" height="10" rx="5" fill="#00AEEF" stroke="#003E6B" stroke-width="2" stroke-linecap="round" stroke-linejoin="round"/>
<rect x="143" y="35" width="88" height="8" rx="4" fill="#99DFF9"/>
<rect x="105" y="105" width="164" height="10" rx="5" fill="#B6405D" stroke="#003E6B" stroke-width="2" stroke-linecap="round" stroke-linejoin="round"/>
<rect x="143" y="106" width="87" height="8" rx="4" fill="#DB9FAE"/>
<rect x="182" y="47" width="49" height="10" rx="5" fill="#B6405D" stroke="#003E6B" stroke-width="2" stroke-linecap="round" stroke-linejoin="round"/>
<rect x="142" y="92" width="49" height="10" rx="5" fill="#66CEF5" stroke="#003E6B" stroke-width="2" stroke-linecap="round" stroke-linejoin="round"/>
<mask id="path-12-outside-1" maskUnits="userSpaceOnUse" x="229" y="127" width="16" height="20" fill="black">
<rect fill="white" x="229" y="127" width="16" height="20"/>
<path fill-rule="evenodd" clip-rule="evenodd" d="M237 131L235 129V141H232C231.448 141 231 141.448 231 142V144C231 144.552 231.448 145 232 145H242C242.552 145 243 144.552 243 144V142C243 141.448 242.552 141 242 141H239V129L237 131Z"/>
</mask>
<path fill-rule="evenodd" clip-rule="evenodd" d="M237 131L235 129V141H232C231.448 141 231 141.448 231 142V144C231 144.552 231.448 145 232 145H242C242.552 145 243 144.552 243 144V142C243 141.448 242.552 141 242 141H239V129L237 131Z" fill="#E78B56"/>
<path d="M235 129L236.414 127.586C235.842 127.014 234.982 126.843 234.235 127.152C233.487 127.462 233 128.191 233 129H235ZM237 131L235.586 132.414C236.367 133.195 237.633 133.195 238.414 132.414L237 131ZM235 141V143C236.105 143 237 142.105 237 141H235ZM239 141H237C237 142.105 237.895 143 239 143V141ZM239 129H241C241 128.191 240.513 127.462 239.765 127.152C239.018 126.843 238.158 127.014 237.586 127.586L239 129ZM233.586 130.414L235.586 132.414L238.414 129.586L236.414 127.586L233.586 130.414ZM237 141V129H233V141H237ZM232 143H235V139H232V143ZM233 142C233 142.552 232.552 143 232 143V139C230.343 139 229 140.343 229 142H233ZM233 144V142H229V144H233ZM232 143C232.552 143 233 143.448 233 144H229C229 145.657 230.343 147 232 147V143ZM242 143H232V147H242V143ZM241 144C241 143.448 241.448 143 242 143V147C243.657 147 245 145.657 245 144H241ZM241 142V144H245V142H241ZM242 143C241.448 143 241 142.552 241 142H245C245 140.343 243.657 139 242 139V143ZM239 143H242V139H239V143ZM237 129V141H241V129H237ZM238.414 132.414L240.414 130.414L237.586 127.586L235.586 129.586L238.414 132.414Z" fill="#003E6B" mask="url(#path-12-outside-1)"/>
<mask id="path-14-outside-2" maskUnits="userSpaceOnUse" x="159" y="57" width="16" height="20" fill="black">
<rect fill="white" x="159" y="57" width="16" height="20"/>
<path fill-rule="evenodd" clip-rule="evenodd" d="M167 61L165 59V71H162C161.448 71 161 71.4477 161 72V74C161 74.5523 161.448 75 162 75H172C172.552 75 173 74.5523 173 74V72C173 71.4477 172.552 71 172 71H169V59L167 61Z"/>
</mask>
<path fill-rule="evenodd" clip-rule="evenodd" d="M167 61L165 59V71H162C161.448 71 161 71.4477 161 72V74C161 74.5523 161.448 75 162 75H172C172.552 75 173 74.5523 173 74V72C173 71.4477 172.552 71 172 71H169V59L167 61Z" fill="#E78B56"/>
<path d="M165 59L166.414 57.5858C165.842 57.0138 164.982 56.8427 164.235 57.1522C163.487 57.4618 163 58.1911 163 59H165ZM167 61L165.586 62.4142C166.367 63.1953 167.633 63.1953 168.414 62.4142L167 61ZM165 71V73C166.105 73 167 72.1046 167 71H165ZM169 71H167C167 72.1046 167.895 73 169 73V71ZM169 59H171C171 58.1911 170.513 57.4618 169.765 57.1522C169.018 56.8427 168.158 57.0138 167.586 57.5858L169 59ZM163.586 60.4142L165.586 62.4142L168.414 59.5858L166.414 57.5858L163.586 60.4142ZM167 71V59H163V71H167ZM162 73H165V69H162V73ZM163 72C163 72.5523 162.552 73 162 73V69C160.343 69 159 70.3431 159 72H163ZM163 74V72H159V74H163ZM162 73C162.552 73 163 73.4477 163 74H159C159 75.6569 160.343 77 162 77V73ZM172 73H162V77H172V73ZM171 74C171 73.4477 171.448 73 172 73V77C173.657 77 175 75.6569 175 74H171ZM171 72V74H175V72H171ZM172 73C171.448 73 171 72.5523 171 72H175C175 70.3431 173.657 69 172 69V73ZM169 73H172V69H169V73ZM167 59V71H171V59H167ZM168.414 62.4142L170.414 60.4142L167.586 57.5858L165.586 59.5858L168.414 62.4142Z" fill="#003E6B" mask="url(#path-14-outside-2)"/>
<mask id="path-16-outside-3" maskUnits="userSpaceOnUse" x="141" y="44" width="16" height="22" fill="black">
<rect fill="white" x="141" y="44" width="16" height="22"/>
<path fill-rule="evenodd" clip-rule="evenodd" d="M149 46L147 48V60H144C143.448 60 143 60.4477 143 61V63C143 63.5523 143.448 64 144 64H154C154.552 64 155 63.5523 155 63V61C155 60.4477 154.552 60 154 60H151V48L149 46Z"/>
</mask>
<path fill-rule="evenodd" clip-rule="evenodd" d="M149 46L147 48V60H144C143.448 60 143 60.4477 143 61V63C143 63.5523 143.448 64 144 64H154C154.552 64 155 63.5523 155 63V61C155 60.4477 154.552 60 154 60H151V48L149 46Z" fill="#00AEEF"/>
<path d="M147 48L145.586 46.5858C145.211 46.9609 145 47.4696 145 48H147ZM149 46L150.414 44.5858C149.633 43.8047 148.367 43.8047 147.586 44.5858L149 46ZM147 60V62C148.105 62 149 61.1046 149 60H147ZM151 60H149C149 61.1046 149.895 62 151 62V60ZM151 48H153C153 47.4696 152.789 46.9609 152.414 46.5858L151 48ZM148.414 49.4142L150.414 47.4142L147.586 44.5858L145.586 46.5858L148.414 49.4142ZM149 60V48H145V60H149ZM144 62H147V58H144V62ZM145 61C145 61.5523 144.552 62 144 62V58C142.343 58 141 59.3431 141 61H145ZM145 63V61H141V63H145ZM144 62C144.552 62 145 62.4477 145 63H141C141 64.6569 142.343 66 144 66V62ZM154 62H144V66H154V62ZM153 63C153 62.4477 153.448 62 154 62V66C155.657 66 157 64.6569 157 63H153ZM153 61V63H157V61H153ZM154 62C153.448 62 153 61.5523 153 61H157C157 59.3431 155.657 58 154 58V62ZM151 62H154V58H151V62ZM149 48V60H153V48H149ZM147.586 47.4142L149.586 49.4142L152.414 46.5858L150.414 44.5858L147.586 47.4142Z" fill="#003E6B" mask="url(#path-16-outside-3)"/>
<mask id="path-18-outside-4" maskUnits="userSpaceOnUse" x="210" y="112" width="16" height="22" fill="black">
<rect fill="white" x="210" y="112" width="16" height="22"/>
<path fill-rule="evenodd" clip-rule="evenodd" d="M218 114L216 116V128H213C212.448 128 212 128.448 212 129V131C212 131.552 212.448 132 213 132H223C223.552 132 224 131.552 224 131V129C224 128.448 223.552 128 223 128H220V116L218 114Z"/>
</mask>
<path fill-rule="evenodd" clip-rule="evenodd" d="M218 114L216 116V128H213C212.448 128 212 128.448 212 129V131C212 131.552 212.448 132 213 132H223C223.552 132 224 131.552 224 131V129C224 128.448 223.552 128 223 128H220V116L218 114Z" fill="#00AEEF"/>
<path d="M216 116L214.586 114.586C214.211 114.961 214 115.47 214 116H216ZM218 114L219.414 112.586C218.633 111.805 217.367 111.805 216.586 112.586L218 114ZM216 128V130C217.105 130 218 129.105 218 128H216ZM220 128H218C218 129.105 218.895 130 220 130V128ZM220 116H222C222 115.47 221.789 114.961 221.414 114.586L220 116ZM217.414 117.414L219.414 115.414L216.586 112.586L214.586 114.586L217.414 117.414ZM218 128V116H214V128H218ZM213 130H216V126H213V130ZM214 129C214 129.552 213.552 130 213 130V126C211.343 126 210 127.343 210 129H214ZM214 131V129H210V131H214ZM213 130C213.552 130 214 130.448 214 131H210C210 132.657 211.343 134 213 134V130ZM223 130H213V134H223V130ZM222 131C222 130.448 222.448 130 223 130V134C224.657 134 226 132.657 226 131H222ZM222 129V131H226V129H222ZM223 130C222.448 130 222 129.552 222 129H226C226 127.343 224.657 126 223 126V130ZM220 130H223V126H220V130ZM218 116V128H222V116H218ZM216.586 115.414L218.586 117.414L221.414 114.586L219.414 112.586L216.586 115.414Z" fill="#003E6B" mask="url(#path-18-outside-4)"/>
<circle cx="182" cy="45" r="14" fill="#84BE60" stroke="#003E6B" stroke-width="2"/>
<circle cx="190" cy="103" r="14" fill="#84BE60" stroke="#003E6B" stroke-width="2"/>
<mask id="path-22-outside-5" maskUnits="userSpaceOnUse" x="244" y="116" width="16" height="20" fill="black">
<rect fill="white" x="244" y="116" width="16" height="20"/>
<path fill-rule="evenodd" clip-rule="evenodd" d="M252 120L250 118V130H247C246.448 130 246 130.448 246 131V133C246 133.552 246.448 134 247 134H257C257.552 134 258 133.552 258 133V131C258 130.448 257.552 130 257 130H254V118L252 120Z"/>
</mask>
<path fill-rule="evenodd" clip-rule="evenodd" d="M252 120L250 118V130H247C246.448 130 246 130.448 246 131V133C246 133.552 246.448 134 247 134H257C257.552 134 258 133.552 258 133V131C258 130.448 257.552 130 257 130H254V118L252 120Z" fill="#84BE60"/>
<path d="M250 118L251.414 116.586C250.842 116.014 249.982 115.843 249.235 116.152C248.487 116.462 248 117.191 248 118H250ZM252 120L250.586 121.414C251.367 122.195 252.633 122.195 253.414 121.414L252 120ZM250 130V132C251.105 132 252 131.105 252 130H250ZM254 130H252C252 131.105 252.895 132 254 132V130ZM254 118H256C256 117.191 255.513 116.462 254.765 116.152C254.018 115.843 253.158 116.014 252.586 116.586L254 118ZM248.586 119.414L250.586 121.414L253.414 118.586L251.414 116.586L248.586 119.414ZM252 130V118H248V130H252ZM247 132H250V128H247V132ZM248 131C248 131.552 247.552 132 247 132V128C245.343 128 244 129.343 244 131H248ZM248 133V131H244V133H248ZM247 132C247.552 132 248 132.448 248 133H244C244 134.657 245.343 136 247 136V132ZM257 132H247V136H257V132ZM256 133C256 132.448 256.448 132 257 132V136C258.657 136 260 134.657 260 133H256ZM256 131V133H260V131H256ZM257 132C256.448 132 256 131.552 256 131H260C260 129.343 258.657 128 257 128V132ZM254 132H257V128H254V132ZM252 118V130H256V118H252ZM253.414 121.414L255.414 119.414L252.586 116.586L250.586 118.586L253.414 121.414Z" fill="#003E6B" mask="url(#path-22-outside-5)"/>
<path d="M208 138V152H263V138" stroke="white" stroke-width="2"/>
<path d="M216.952 187.192C218.152 187.192 219.032 186.728 219.736 185.688L219.784 187H220.984V175.32H219.576V179.832C218.904 178.952 218.056 178.552 216.952 178.552C215.032 178.552 213.912 179.736 213.912 181.992V183.752C213.912 186.008 215.032 187.192 216.952 187.192ZM217.128 185.96C215.992 185.96 215.32 185.176 215.32 183.704V182.04C215.32 180.568 215.992 179.784 217.128 179.784C218.184 179.784 219.032 180.472 219.576 181.656V184.088C219.032 185.272 218.184 185.96 217.128 185.96ZM223.785 187H225.177V178.232L230.489 187H231.897V176.12H230.505V184.392L225.497 176.12H223.785V187ZM236.703 187H238.143V177.448H241.359V176.12H233.487V177.448H236.703V187ZM242.941 187H244.381V182.792H247.037C249.581 182.792 250.669 181.8 250.669 179.464C250.669 177.128 249.581 176.12 247.037 176.12H242.941V187ZM244.381 181.48V177.432H246.941C248.621 177.432 249.229 178.008 249.229 179.464C249.229 180.92 248.621 181.48 246.941 181.48H244.381ZM255.453 187.192C257.629 187.192 258.749 186.328 258.749 184.664C258.749 183.096 257.917 182.392 255.709 182.152C254.189 181.992 253.629 181.688 253.629 180.936C253.629 180.184 254.269 179.752 255.421 179.752C256.605 179.752 257.197 180.216 257.197 181.096H258.573C258.573 179.432 257.485 178.552 255.437 178.552C253.389 178.552 252.253 179.448 252.253 181.048C252.253 182.52 253.053 183.16 255.213 183.416C256.813 183.608 257.373 183.96 257.373 184.776C257.373 185.56 256.733 185.992 255.453 185.992C254.077 185.992 253.405 185.512 253.405 184.568H252.061C252.061 186.312 253.181 187.192 255.453 187.192Z" fill="white"/>
<rect x="235" y="153" width="2" height="18" fill="white"/>
</svg>
