<svg width="368" height="210" viewBox="0 0 368 210" fill="none" xmlns="http://www.w3.org/2000/svg">
<rect width="368" height="210" fill="#0063C3"/>
<g clip-path="url(#clip0)">
<rect width="210" height="210" transform="translate(84)" fill="#0063C3"/>
<path fill-rule="evenodd" clip-rule="evenodd" d="M99 158L96 161.5V169.071C92.6077 169.556 90 172.474 90 176C90 179.866 93.134 183 97 183H274C277.866 183 281 179.866 281 176C281 172.134 277.866 169 274 169H272V161.5L269 158L266 161.5V169H262V161.5L259 158L256 161.5V169H252V161.5L249 158L246 161.5V169H242V161.5L239 158L236 161.5V169H232V161.5L229 158L226 161.5V169H222V161.5L219 158L216 161.5V169H212V161.5L209 158L206 161.5V169H202V161.5L199 158L196 161.5V169H192V161.5L189 158L186 161.5V169H182V161.5L179 158L176 161.5V169H172V161.5L169 158L166 161.5V169H162V161.5L159 158L156 161.5V169H152V161.5L149 158L146 161.5V169H142V161.5L139 158L136 161.5V169H132V161.5L129 158L126 161.5V169H122V161.5L119 158L116 161.5V169H112V161.5L109 158L106 161.5V169H102V161.5L99 158Z" fill="#B6405D"/>
<path d="M96 161.5L95.2407 160.849L95 161.13V161.5H96ZM99 158L99.7593 157.349L99 156.463L98.2407 157.349L99 158ZM96 169.071L96.1416 170.061L97 169.938V169.071H96ZM272 169H271V170H272V169ZM272 161.5H273V161.13L272.759 160.849L272 161.5ZM269 158L269.759 157.349L269 156.463L268.241 157.349L269 158ZM266 161.5L265.241 160.849L265 161.13V161.5H266ZM266 169V170H267V169H266ZM262 169H261V170H262V169ZM262 161.5H263V161.13L262.759 160.849L262 161.5ZM259 158L259.759 157.349L259 156.463L258.241 157.349L259 158ZM256 161.5L255.241 160.849L255 161.13V161.5H256ZM256 169V170H257V169H256ZM252 169H251V170H252V169ZM252 161.5H253V161.13L252.759 160.849L252 161.5ZM249 158L249.759 157.349L249 156.463L248.241 157.349L249 158ZM246 161.5L245.241 160.849L245 161.13V161.5H246ZM246 169V170H247V169H246ZM242 169H241V170H242V169ZM242 161.5H243V161.13L242.759 160.849L242 161.5ZM239 158L239.759 157.349L239 156.463L238.241 157.349L239 158ZM236 161.5L235.241 160.849L235 161.13V161.5H236ZM236 169V170H237V169H236ZM232 169H231V170H232V169ZM232 161.5H233V161.13L232.759 160.849L232 161.5ZM229 158L229.759 157.349L229 156.463L228.241 157.349L229 158ZM226 161.5L225.241 160.849L225 161.13V161.5H226ZM226 169V170H227V169H226ZM222 169H221V170H222V169ZM222 161.5H223V161.13L222.759 160.849L222 161.5ZM219 158L219.759 157.349L219 156.463L218.241 157.349L219 158ZM216 161.5L215.241 160.849L215 161.13V161.5H216ZM216 169V170H217V169H216ZM212 169H211V170H212V169ZM212 161.5H213V161.13L212.759 160.849L212 161.5ZM209 158L209.759 157.349L209 156.463L208.241 157.349L209 158ZM206 161.5L205.241 160.849L205 161.13V161.5H206ZM206 169V170H207V169H206ZM202 169H201V170H202V169ZM202 161.5H203V161.13L202.759 160.849L202 161.5ZM199 158L199.759 157.349L199 156.463L198.241 157.349L199 158ZM196 161.5L195.241 160.849L195 161.13V161.5H196ZM196 169V170H197V169H196ZM192 169H191V170H192V169ZM192 161.5H193V161.13L192.759 160.849L192 161.5ZM189 158L189.759 157.349L189 156.463L188.241 157.349L189 158ZM186 161.5L185.241 160.849L185 161.13V161.5H186ZM186 169V170H187V169H186ZM182 169H181V170H182V169ZM182 161.5H183V161.13L182.759 160.849L182 161.5ZM179 158L179.759 157.349L179 156.463L178.241 157.349L179 158ZM176 161.5L175.241 160.849L175 161.13V161.5H176ZM176 169V170H177V169H176ZM172 169H171V170H172V169ZM172 161.5H173V161.13L172.759 160.849L172 161.5ZM169 158L169.759 157.349L169 156.463L168.241 157.349L169 158ZM166 161.5L165.241 160.849L165 161.13V161.5H166ZM166 169V170H167V169H166ZM162 169H161V170H162V169ZM162 161.5H163V161.13L162.759 160.849L162 161.5ZM159 158L159.759 157.349L159 156.463L158.241 157.349L159 158ZM156 161.5L155.241 160.849L155 161.13V161.5H156ZM156 169V170H157V169H156ZM152 169H151V170H152V169ZM152 161.5H153V161.13L152.759 160.849L152 161.5ZM149 158L149.759 157.349L149 156.463L148.241 157.349L149 158ZM146 161.5L145.241 160.849L145 161.13V161.5H146ZM146 169V170H147V169H146ZM142 169H141V170H142V169ZM142 161.5H143V161.13L142.759 160.849L142 161.5ZM139 158L139.759 157.349L139 156.463L138.241 157.349L139 158ZM136 161.5L135.241 160.849L135 161.13V161.5H136ZM136 169V170H137V169H136ZM132 169H131V170H132V169ZM132 161.5H133V161.13L132.759 160.849L132 161.5ZM129 158L129.759 157.349L129 156.463L128.241 157.349L129 158ZM126 161.5L125.241 160.849L125 161.13V161.5H126ZM126 169V170H127V169H126ZM122 169H121V170H122V169ZM122 161.5H123V161.13L122.759 160.849L122 161.5ZM119 158L119.759 157.349L119 156.463L118.241 157.349L119 158ZM116 161.5L115.241 160.849L115 161.13V161.5H116ZM116 169V170H117V169H116ZM112 169H111V170H112V169ZM112 161.5H113V161.13L112.759 160.849L112 161.5ZM109 158L109.759 157.349L109 156.463L108.241 157.349L109 158ZM106 161.5L105.241 160.849L105 161.13V161.5H106ZM106 169V170H107V169H106ZM102 169H101V170H102V169ZM102 161.5H103V161.13L102.759 160.849L102 161.5ZM96.7593 162.151L99.7593 158.651L98.2407 157.349L95.2407 160.849L96.7593 162.151ZM97 169.071V161.5H95V169.071H97ZM91 176C91 172.978 93.2349 170.477 96.1416 170.061L95.8584 168.081C91.9806 168.636 89 171.969 89 176H91ZM97 182C93.6863 182 91 179.314 91 176H89C89 180.418 92.5817 184 97 184V182ZM274 182H97V184H274V182ZM280 176C280 179.314 277.314 182 274 182V184C278.418 184 282 180.418 282 176H280ZM274 170C277.314 170 280 172.686 280 176H282C282 171.582 278.418 168 274 168V170ZM272 170H274V168H272V170ZM271 161.5V169H273V161.5H271ZM268.241 158.651L271.241 162.151L272.759 160.849L269.759 157.349L268.241 158.651ZM266.759 162.151L269.759 158.651L268.241 157.349L265.241 160.849L266.759 162.151ZM267 169V161.5H265V169H267ZM262 170H266V168H262V170ZM261 161.5V169H263V161.5H261ZM258.241 158.651L261.241 162.151L262.759 160.849L259.759 157.349L258.241 158.651ZM256.759 162.151L259.759 158.651L258.241 157.349L255.241 160.849L256.759 162.151ZM257 169V161.5H255V169H257ZM252 170H256V168H252V170ZM251 161.5V169H253V161.5H251ZM248.241 158.651L251.241 162.151L252.759 160.849L249.759 157.349L248.241 158.651ZM246.759 162.151L249.759 158.651L248.241 157.349L245.241 160.849L246.759 162.151ZM247 169V161.5H245V169H247ZM242 170H246V168H242V170ZM241 161.5V169H243V161.5H241ZM238.241 158.651L241.241 162.151L242.759 160.849L239.759 157.349L238.241 158.651ZM236.759 162.151L239.759 158.651L238.241 157.349L235.241 160.849L236.759 162.151ZM237 169V161.5H235V169H237ZM232 170H236V168H232V170ZM231 161.5V169H233V161.5H231ZM228.241 158.651L231.241 162.151L232.759 160.849L229.759 157.349L228.241 158.651ZM226.759 162.151L229.759 158.651L228.241 157.349L225.241 160.849L226.759 162.151ZM227 169V161.5H225V169H227ZM222 170H226V168H222V170ZM221 161.5V169H223V161.5H221ZM218.241 158.651L221.241 162.151L222.759 160.849L219.759 157.349L218.241 158.651ZM216.759 162.151L219.759 158.651L218.241 157.349L215.241 160.849L216.759 162.151ZM217 169V161.5H215V169H217ZM212 170H216V168H212V170ZM211 161.5V169H213V161.5H211ZM208.241 158.651L211.241 162.151L212.759 160.849L209.759 157.349L208.241 158.651ZM206.759 162.151L209.759 158.651L208.241 157.349L205.241 160.849L206.759 162.151ZM207 169V161.5H205V169H207ZM202 170H206V168H202V170ZM201 161.5V169H203V161.5H201ZM198.241 158.651L201.241 162.151L202.759 160.849L199.759 157.349L198.241 158.651ZM196.759 162.151L199.759 158.651L198.241 157.349L195.241 160.849L196.759 162.151ZM197 169V161.5H195V169H197ZM192 170H196V168H192V170ZM191 161.5V169H193V161.5H191ZM188.241 158.651L191.241 162.151L192.759 160.849L189.759 157.349L188.241 158.651ZM186.759 162.151L189.759 158.651L188.241 157.349L185.241 160.849L186.759 162.151ZM187 169V161.5H185V169H187ZM182 170H186V168H182V170ZM181 161.5V169H183V161.5H181ZM178.241 158.651L181.241 162.151L182.759 160.849L179.759 157.349L178.241 158.651ZM176.759 162.151L179.759 158.651L178.241 157.349L175.241 160.849L176.759 162.151ZM177 169V161.5H175V169H177ZM172 170H176V168H172V170ZM171 161.5V169H173V161.5H171ZM168.241 158.651L171.241 162.151L172.759 160.849L169.759 157.349L168.241 158.651ZM166.759 162.151L169.759 158.651L168.241 157.349L165.241 160.849L166.759 162.151ZM167 169V161.5H165V169H167ZM162 170H166V168H162V170ZM161 161.5V169H163V161.5H161ZM158.241 158.651L161.241 162.151L162.759 160.849L159.759 157.349L158.241 158.651ZM156.759 162.151L159.759 158.651L158.241 157.349L155.241 160.849L156.759 162.151ZM157 169V161.5H155V169H157ZM152 170H156V168H152V170ZM151 161.5V169H153V161.5H151ZM148.241 158.651L151.241 162.151L152.759 160.849L149.759 157.349L148.241 158.651ZM146.759 162.151L149.759 158.651L148.241 157.349L145.241 160.849L146.759 162.151ZM147 169V161.5H145V169H147ZM142 170H146V168H142V170ZM141 161.5V169H143V161.5H141ZM138.241 158.651L141.241 162.151L142.759 160.849L139.759 157.349L138.241 158.651ZM136.759 162.151L139.759 158.651L138.241 157.349L135.241 160.849L136.759 162.151ZM137 169V161.5H135V169H137ZM132 170H136V168H132V170ZM131 161.5V169H133V161.5H131ZM128.241 158.651L131.241 162.151L132.759 160.849L129.759 157.349L128.241 158.651ZM126.759 162.151L129.759 158.651L128.241 157.349L125.241 160.849L126.759 162.151ZM127 169V161.5H125V169H127ZM122 170H126V168H122V170ZM121 161.5V169H123V161.5H121ZM118.241 158.651L121.241 162.151L122.759 160.849L119.759 157.349L118.241 158.651ZM116.759 162.151L119.759 158.651L118.241 157.349L115.241 160.849L116.759 162.151ZM117 169V161.5H115V169H117ZM112 170H116V168H112V170ZM111 161.5V169H113V161.5H111ZM108.241 158.651L111.241 162.151L112.759 160.849L109.759 157.349L108.241 158.651ZM106.759 162.151L109.759 158.651L108.241 157.349L105.241 160.849L106.759 162.151ZM107 169V161.5H105V169H107ZM102 170H106V168H102V170ZM101 161.5V169H103V161.5H101ZM98.2407 158.651L101.241 162.151L102.759 160.849L99.7593 157.349L98.2407 158.651Z" fill="#003E6B"/>
<path fill-rule="evenodd" clip-rule="evenodd" d="M270 54L273 50.5L273 42.9291C276.392 42.4439 279 39.5265 279 36C279 32.134 275.866 29 272 29L101 29C97.134 29 94 32.134 94 36C94 38.3788 95.1865 40.4804 97 41.7453L97 50.5L100 54L103 50.5L103 43L107 43L107 50.5L110 54L113 50.5L113 43L117 43L117 50.5L120 54L123 50.5L123 43L127 43L127 50.5L130 54L133 50.5L133 43L137 43L137 50.5L140 54L143 50.5L143 43L147 43L147 50.5L150 54L153 50.5L153 43L157 43L157 50.5L160 54L163 50.5L163 43L167 43L167 50.5L170 54L173 50.5L173 43L177 43L177 50.5L180 54L183 50.5L183 43L187 43L187 50.5L190 54L193 50.5L193 43L197 43L197 50.5L200 54L203 50.5L203 43L207 43L207 50.5L210 54L213 50.5L213 43L217 43L217 50.5L220 54L223 50.5L223 43L227 43L227 50.5L230 54L233 50.5L233 43L237 43L237 50.5L240 54L243 50.5L243 43L247 43L247 50.5L250 54L253 50.5L253 43L257 43L257 50.5L260 54L263 50.5L263 43L267 43L267 50.5L270 54ZM70 54L73 50.5L73 41C73 39.3432 71.6569 38 70 38C68.3431 38 67 39.3432 67 41L67 50.5L70 54ZM80 54L83 50.5L83 41C83 39.3431 81.6569 38 80 38C78.3431 38 77 39.3432 77 41L77 50.5L80 54Z" fill="#00AEEF"/>
<path d="M273 50.5L273.759 51.1508L274 50.8699L274 50.5L273 50.5ZM270 54L269.241 54.6508L270 55.5366L270.759 54.6508L270 54ZM273 42.9291L272.858 41.9392L272 42.062L272 42.9291L273 42.9291ZM97 41.7453L98 41.7453L98 41.2236L97.5721 40.9251L97 41.7453ZM97 50.5L96 50.5L96 50.8699L96.2407 51.1508L97 50.5ZM100 54L99.2407 54.6508L100 55.5366L100.759 54.6508L100 54ZM103 50.5L103.759 51.1508L104 50.8699L104 50.5L103 50.5ZM103 43L103 42L102 42L102 43L103 43ZM107 43L108 43L108 42L107 42L107 43ZM107 50.5L106 50.5L106 50.8699L106.241 51.1508L107 50.5ZM110 54L109.241 54.6508L110 55.5366L110.759 54.6508L110 54ZM113 50.5L113.759 51.1508L114 50.8699L114 50.5L113 50.5ZM113 43L113 42L112 42L112 43L113 43ZM117 43L118 43L118 42L117 42L117 43ZM117 50.5L116 50.5L116 50.8699L116.241 51.1508L117 50.5ZM120 54L119.241 54.6508L120 55.5366L120.759 54.6508L120 54ZM123 50.5L123.759 51.1508L124 50.8699L124 50.5L123 50.5ZM123 43L123 42L122 42L122 43L123 43ZM127 43L128 43L128 42L127 42L127 43ZM127 50.5L126 50.5L126 50.8699L126.241 51.1508L127 50.5ZM130 54L129.241 54.6508L130 55.5366L130.759 54.6508L130 54ZM133 50.5L133.759 51.1508L134 50.8699L134 50.5L133 50.5ZM133 43L133 42L132 42L132 43L133 43ZM137 43L138 43L138 42L137 42L137 43ZM137 50.5L136 50.5L136 50.8699L136.241 51.1508L137 50.5ZM140 54L139.241 54.6508L140 55.5366L140.759 54.6508L140 54ZM143 50.5L143.759 51.1508L144 50.8699L144 50.5L143 50.5ZM143 43L143 42L142 42L142 43L143 43ZM147 43L148 43L148 42L147 42L147 43ZM147 50.5L146 50.5L146 50.8699L146.241 51.1508L147 50.5ZM150 54L149.241 54.6508L150 55.5366L150.759 54.6508L150 54ZM153 50.5L153.759 51.1508L154 50.8699L154 50.5L153 50.5ZM153 43L153 42L152 42L152 43L153 43ZM157 43L158 43L158 42L157 42L157 43ZM157 50.5L156 50.5L156 50.8699L156.241 51.1508L157 50.5ZM160 54L159.241 54.6508L160 55.5366L160.759 54.6508L160 54ZM163 50.5L163.759 51.1508L164 50.8699L164 50.5L163 50.5ZM163 43L163 42L162 42L162 43L163 43ZM167 43L168 43L168 42L167 42L167 43ZM167 50.5L166 50.5L166 50.8699L166.241 51.1508L167 50.5ZM170 54L169.241 54.6508L170 55.5366L170.759 54.6508L170 54ZM173 50.5L173.759 51.1508L174 50.8699L174 50.5L173 50.5ZM173 43L173 42L172 42L172 43L173 43ZM177 43L178 43L178 42L177 42L177 43ZM177 50.5L176 50.5L176 50.8699L176.241 51.1508L177 50.5ZM180 54L179.241 54.6508L180 55.5366L180.759 54.6508L180 54ZM183 50.5L183.759 51.1508L184 50.8699L184 50.5L183 50.5ZM183 43L183 42L182 42L182 43L183 43ZM187 43L188 43L188 42L187 42L187 43ZM187 50.5L186 50.5L186 50.8699L186.241 51.1508L187 50.5ZM190 54L189.241 54.6508L190 55.5366L190.759 54.6508L190 54ZM193 50.5L193.759 51.1508L194 50.8699L194 50.5L193 50.5ZM193 43L193 42L192 42L192 43L193 43ZM197 43L198 43L198 42L197 42L197 43ZM197 50.5L196 50.5L196 50.8699L196.241 51.1508L197 50.5ZM200 54L199.241 54.6508L200 55.5366L200.759 54.6508L200 54ZM203 50.5L203.759 51.1508L204 50.8699L204 50.5L203 50.5ZM203 43L203 42L202 42L202 43L203 43ZM207 43L208 43L208 42L207 42L207 43ZM207 50.5L206 50.5L206 50.8699L206.241 51.1508L207 50.5ZM210 54L209.241 54.6508L210 55.5366L210.759 54.6508L210 54ZM213 50.5L213.759 51.1508L214 50.8699L214 50.5L213 50.5ZM213 43L213 42L212 42L212 43L213 43ZM217 43L218 43L218 42L217 42L217 43ZM217 50.5L216 50.5L216 50.8699L216.241 51.1508L217 50.5ZM220 54L219.241 54.6508L220 55.5366L220.759 54.6508L220 54ZM223 50.5L223.759 51.1508L224 50.8699L224 50.5L223 50.5ZM223 43L223 42L222 42L222 43L223 43ZM227 43L228 43L228 42L227 42L227 43ZM227 50.5L226 50.5L226 50.8699L226.241 51.1508L227 50.5ZM230 54L229.241 54.6508L230 55.5366L230.759 54.6508L230 54ZM233 50.5L233.759 51.1508L234 50.8699L234 50.5L233 50.5ZM233 43L233 42L232 42L232 43L233 43ZM237 43L238 43L238 42L237 42L237 43ZM237 50.5L236 50.5L236 50.8699L236.241 51.1508L237 50.5ZM240 54L239.241 54.6508L240 55.5366L240.759 54.6508L240 54ZM243 50.5L243.759 51.1508L244 50.8699L244 50.5L243 50.5ZM243 43L243 42L242 42L242 43L243 43ZM247 43L248 43L248 42L247 42L247 43ZM247 50.5L246 50.5L246 50.8699L246.241 51.1508L247 50.5ZM250 54L249.241 54.6508L250 55.5366L250.759 54.6508L250 54ZM253 50.5L253.759 51.1508L254 50.8699L254 50.5L253 50.5ZM253 43L253 42L252 42L252 43L253 43ZM257 43L258 43L258 42L257 42L257 43ZM257 50.5L256 50.5L256 50.8699L256.241 51.1508L257 50.5ZM260 54L259.241 54.6508L260 55.5366L260.759 54.6508L260 54ZM263 50.5L263.759 51.1508L264 50.8699L264 50.5L263 50.5ZM263 43L263 42L262 42L262 43L263 43ZM267 43L268 43L268 42L267 42L267 43ZM267 50.5L266 50.5L266 50.8699L266.241 51.1508L267 50.5ZM73 50.5L73.7593 51.1508L74 50.8699L74 50.5L73 50.5ZM70 54L69.2407 54.6508L70 55.5366L70.7593 54.6508L70 54ZM67 41L68 41L67 41ZM67 50.5L66 50.5L66 50.8699L66.2407 51.1508L67 50.5ZM83 50.5L83.7593 51.1508L84 50.8699L84 50.5L83 50.5ZM80 54L79.2407 54.6508L80 55.5366L80.7593 54.6508L80 54ZM77 50.5L76 50.5L76 50.8699L76.2407 51.1508L77 50.5ZM272.241 49.8492L269.241 53.3492L270.759 54.6508L273.759 51.1508L272.241 49.8492ZM272 42.9291L272 50.5L274 50.5L274 42.9291L272 42.9291ZM278 36C278 39.0218 275.765 41.5234 272.858 41.9392L273.142 43.919C277.019 43.3643 280 40.0311 280 36L278 36ZM272 30C275.314 30 278 32.6863 278 36L280 36C280 31.5817 276.418 28 272 28L272 30ZM101 30L272 30L272 28L101 28L101 30ZM95 36C95 32.6863 97.6863 30 101 30L101 28C96.5817 28 93 31.5817 93 36L95 36ZM97.5721 40.9251C96.0152 39.8392 95 38.0381 95 36L93 36C93 38.7194 94.3578 41.1216 96.4279 42.5655L97.5721 40.9251ZM98 50.5L98 41.7453L96 41.7453L96 50.5L98 50.5ZM100.759 53.3492L97.7593 49.8492L96.2407 51.1508L99.2407 54.6508L100.759 53.3492ZM102.241 49.8492L99.2407 53.3492L100.759 54.6508L103.759 51.1508L102.241 49.8492ZM102 43L102 50.5L104 50.5L104 43L102 43ZM107 42L103 42L103 44L107 44L107 42ZM108 50.5L108 43L106 43L106 50.5L108 50.5ZM110.759 53.3492L107.759 49.8492L106.241 51.1508L109.241 54.6508L110.759 53.3492ZM112.241 49.8492L109.241 53.3492L110.759 54.6508L113.759 51.1508L112.241 49.8492ZM112 43L112 50.5L114 50.5L114 43L112 43ZM117 42L113 42L113 44L117 44L117 42ZM118 50.5L118 43L116 43L116 50.5L118 50.5ZM120.759 53.3492L117.759 49.8492L116.241 51.1508L119.241 54.6508L120.759 53.3492ZM122.241 49.8492L119.241 53.3492L120.759 54.6508L123.759 51.1508L122.241 49.8492ZM122 43L122 50.5L124 50.5L124 43L122 43ZM127 42L123 42L123 44L127 44L127 42ZM128 50.5L128 43L126 43L126 50.5L128 50.5ZM130.759 53.3492L127.759 49.8492L126.241 51.1508L129.241 54.6508L130.759 53.3492ZM132.241 49.8492L129.241 53.3492L130.759 54.6508L133.759 51.1508L132.241 49.8492ZM132 43L132 50.5L134 50.5L134 43L132 43ZM137 42L133 42L133 44L137 44L137 42ZM138 50.5L138 43L136 43L136 50.5L138 50.5ZM140.759 53.3492L137.759 49.8492L136.241 51.1508L139.241 54.6508L140.759 53.3492ZM142.241 49.8492L139.241 53.3492L140.759 54.6508L143.759 51.1508L142.241 49.8492ZM142 43L142 50.5L144 50.5L144 43L142 43ZM147 42L143 42L143 44L147 44L147 42ZM148 50.5L148 43L146 43L146 50.5L148 50.5ZM150.759 53.3492L147.759 49.8492L146.241 51.1508L149.241 54.6508L150.759 53.3492ZM152.241 49.8492L149.241 53.3492L150.759 54.6508L153.759 51.1508L152.241 49.8492ZM152 43L152 50.5L154 50.5L154 43L152 43ZM157 42L153 42L153 44L157 44L157 42ZM158 50.5L158 43L156 43L156 50.5L158 50.5ZM160.759 53.3492L157.759 49.8492L156.241 51.1508L159.241 54.6508L160.759 53.3492ZM162.241 49.8492L159.241 53.3492L160.759 54.6508L163.759 51.1508L162.241 49.8492ZM162 43L162 50.5L164 50.5L164 43L162 43ZM167 42L163 42L163 44L167 44L167 42ZM168 50.5L168 43L166 43L166 50.5L168 50.5ZM170.759 53.3492L167.759 49.8492L166.241 51.1508L169.241 54.6508L170.759 53.3492ZM172.241 49.8492L169.241 53.3492L170.759 54.6508L173.759 51.1508L172.241 49.8492ZM172 43L172 50.5L174 50.5L174 43L172 43ZM177 42L173 42L173 44L177 44L177 42ZM178 50.5L178 43L176 43L176 50.5L178 50.5ZM180.759 53.3492L177.759 49.8492L176.241 51.1508L179.241 54.6508L180.759 53.3492ZM182.241 49.8492L179.241 53.3492L180.759 54.6508L183.759 51.1508L182.241 49.8492ZM182 43L182 50.5L184 50.5L184 43L182 43ZM187 42L183 42L183 44L187 44L187 42ZM188 50.5L188 43L186 43L186 50.5L188 50.5ZM190.759 53.3492L187.759 49.8492L186.241 51.1508L189.241 54.6508L190.759 53.3492ZM192.241 49.8492L189.241 53.3492L190.759 54.6508L193.759 51.1508L192.241 49.8492ZM192 43L192 50.5L194 50.5L194 43L192 43ZM197 42L193 42L193 44L197 44L197 42ZM198 50.5L198 43L196 43L196 50.5L198 50.5ZM200.759 53.3492L197.759 49.8492L196.241 51.1508L199.241 54.6508L200.759 53.3492ZM202.241 49.8492L199.241 53.3492L200.759 54.6508L203.759 51.1508L202.241 49.8492ZM202 43L202 50.5L204 50.5L204 43L202 43ZM207 42L203 42L203 44L207 44L207 42ZM208 50.5L208 43L206 43L206 50.5L208 50.5ZM210.759 53.3492L207.759 49.8492L206.241 51.1508L209.241 54.6508L210.759 53.3492ZM212.241 49.8492L209.241 53.3492L210.759 54.6508L213.759 51.1508L212.241 49.8492ZM212 43L212 50.5L214 50.5L214 43L212 43ZM217 42L213 42L213 44L217 44L217 42ZM218 50.5L218 43L216 43L216 50.5L218 50.5ZM220.759 53.3492L217.759 49.8492L216.241 51.1508L219.241 54.6508L220.759 53.3492ZM222.241 49.8492L219.241 53.3492L220.759 54.6508L223.759 51.1508L222.241 49.8492ZM222 43L222 50.5L224 50.5L224 43L222 43ZM227 42L223 42L223 44L227 44L227 42ZM228 50.5L228 43L226 43L226 50.5L228 50.5ZM230.759 53.3492L227.759 49.8492L226.241 51.1508L229.241 54.6508L230.759 53.3492ZM232.241 49.8492L229.241 53.3492L230.759 54.6508L233.759 51.1508L232.241 49.8492ZM232 43L232 50.5L234 50.5L234 43L232 43ZM237 42L233 42L233 44L237 44L237 42ZM238 50.5L238 43L236 43L236 50.5L238 50.5ZM240.759 53.3492L237.759 49.8492L236.241 51.1508L239.241 54.6508L240.759 53.3492ZM242.241 49.8492L239.241 53.3492L240.759 54.6508L243.759 51.1508L242.241 49.8492ZM242 43L242 50.5L244 50.5L244 43L242 43ZM247 42L243 42L243 44L247 44L247 42ZM248 50.5L248 43L246 43L246 50.5L248 50.5ZM250.759 53.3492L247.759 49.8492L246.241 51.1508L249.241 54.6508L250.759 53.3492ZM252.241 49.8492L249.241 53.3492L250.759 54.6508L253.759 51.1508L252.241 49.8492ZM252 43L252 50.5L254 50.5L254 43L252 43ZM257 42L253 42L253 44L257 44L257 42ZM258 50.5L258 43L256 43L256 50.5L258 50.5ZM260.759 53.3492L257.759 49.8492L256.241 51.1508L259.241 54.6508L260.759 53.3492ZM262.241 49.8492L259.241 53.3492L260.759 54.6508L263.759 51.1508L262.241 49.8492ZM262 43L262 50.5L264 50.5L264 43L262 43ZM267 42L263 42L263 44L267 44L267 42ZM268 50.5L268 43L266 43L266 50.5L268 50.5ZM270.759 53.3492L267.759 49.8492L266.241 51.1508L269.241 54.6508L270.759 53.3492ZM72.2407 49.8492L69.2407 53.3492L70.7593 54.6508L73.7593 51.1508L72.2407 49.8492ZM72 41L72 50.5L74 50.5L74 41L72 41ZM70 39C71.1046 39 72 39.8954 72 41L74 41C74 38.7909 72.2091 37 70 37L70 39ZM68 41C68 39.8954 68.8954 39 70 39L70 37C67.7909 37 66 38.7909 66 41L68 41ZM68 50.5L68 41L66 41L66 50.5L68 50.5ZM70.7593 53.3492L67.7593 49.8492L66.2407 51.1508L69.2407 54.6508L70.7593 53.3492ZM82.2407 49.8492L79.2407 53.3492L80.7593 54.6508L83.7593 51.1508L82.2407 49.8492ZM82 41L82 50.5L84 50.5L84 41L82 41ZM80 39C81.1046 39 82 39.8954 82 41L84 41C84 38.7909 82.2091 37 80 37L80 39ZM78 41C78 39.8954 78.8954 39 80 39L80 37C77.7909 37 76 38.7909 76 41L78 41ZM78 50.5L78 41L76 41L76 50.5L78 50.5ZM80.7593 53.3492L77.7593 49.8492L76.2407 51.1508L79.2407 54.6508L80.7593 53.3492Z" fill="#003E6B"/>
<path fill-rule="evenodd" clip-rule="evenodd" d="M115 132C111.134 132 108 135.134 108 139C108 142.866 111.134 146 115 146L116 146L116 155.5L119 153L122 155.5L122 146L126 146V155.5L129 153L132 155.5V146L136 146V155.5L139 152.5L142 155.5V146H155C158.866 146 162 142.866 162 139C162 135.134 158.866 132 155 132H115Z" fill="#66CEF5"/>
<path d="M115 146L115 147L115 147L115 146ZM116 146L117 146L117 145L116 145L116 146ZM116 155.5L115 155.5L115 157.635L116.64 156.268L116 155.5ZM119 153L119.64 152.232L119 151.698L118.36 152.232L119 153ZM122 155.5L121.36 156.268L123 157.635L123 155.5L122 155.5ZM122 146L122 145L121 145L121 146L122 146ZM126 146H127V145L126 145L126 146ZM126 155.5H125V157.635L126.64 156.268L126 155.5ZM129 153L129.64 152.232L129 151.698L128.36 152.232L129 153ZM132 155.5L131.36 156.268L133 157.635V155.5H132ZM132 146L132 145L131 145V146H132ZM136 146H137V145L136 145L136 146ZM136 155.5H135V157.914L136.707 156.207L136 155.5ZM139 152.5L139.707 151.793L139 151.086L138.293 151.793L139 152.5ZM142 155.5L141.293 156.207L143 157.914V155.5H142ZM142 146V145H141V146H142ZM109 139C109 135.686 111.686 133 115 133V131C110.582 131 107 134.582 107 139H109ZM115 145C111.686 145 109 142.314 109 139H107C107 143.418 110.582 147 115 147V145ZM116 145L115 145L115 147L116 147L116 145ZM117 155.5L117 146L115 146L115 155.5L117 155.5ZM118.36 152.232L115.36 154.732L116.64 156.268L119.64 153.768L118.36 152.232ZM122.64 154.732L119.64 152.232L118.36 153.768L121.36 156.268L122.64 154.732ZM121 146L121 155.5L123 155.5L123 146L121 146ZM126 145L122 145L122 147L126 147L126 145ZM127 155.5V146H125V155.5H127ZM128.36 152.232L125.36 154.732L126.64 156.268L129.64 153.768L128.36 152.232ZM132.64 154.732L129.64 152.232L128.36 153.768L131.36 156.268L132.64 154.732ZM131 146V155.5H133V146H131ZM136 145L132 145L132 147L136 147L136 145ZM137 155.5V146H135V155.5H137ZM138.293 151.793L135.293 154.793L136.707 156.207L139.707 153.207L138.293 151.793ZM142.707 154.793L139.707 151.793L138.293 153.207L141.293 156.207L142.707 154.793ZM141 146V155.5H143V146H141ZM155 145H142V147H155V145ZM161 139C161 142.314 158.314 145 155 145V147C159.418 147 163 143.418 163 139H161ZM155 133C158.314 133 161 135.686 161 139H163C163 134.582 159.418 131 155 131V133ZM115 133H155V131H115V133Z" fill="#003E6B"/>
<path fill-rule="evenodd" clip-rule="evenodd" d="M254 80C257.866 80 261 76.866 261 73C261 69.134 257.866 66 254 66L253 66L253 56.5L250 59L247 56.5L247 66L243 66L243 56.5L240 59L237 56.5L237 66L233 66L233 56.5L230 59.5L227 56.5L227 66L214 66C210.134 66 207 69.134 207 73C207 76.866 210.134 80 214 80L254 80Z" fill="#A41034"/>
<path d="M254 66L254 65L254 65L254 66ZM253 66L252 66L252 67L253 67L253 66ZM253 56.5L254 56.5L254 54.365L252.36 55.7318L253 56.5ZM250 59L249.36 59.7682L250 60.3017L250.64 59.7682L250 59ZM247 56.5L247.64 55.7318L246 54.365L246 56.5L247 56.5ZM247 66L247 67L248 67L248 66L247 66ZM243 66L242 66L242 67L243 67L243 66ZM243 56.5L244 56.5L244 54.365L242.36 55.7318L243 56.5ZM240 59L239.36 59.7682L240 60.3017L240.64 59.7682L240 59ZM237 56.5L237.64 55.7318L236 54.365L236 56.5L237 56.5ZM237 66L237 67L238 67L238 66L237 66ZM233 66L232 66L232 67L233 67L233 66ZM233 56.5L234 56.5L234 54.0858L232.293 55.7929L233 56.5ZM230 59.5L229.293 60.2071L230 60.9142L230.707 60.2071L230 59.5ZM227 56.5L227.707 55.7929L226 54.0858L226 56.5L227 56.5ZM227 66L227 67L228 67L228 66L227 66ZM260 73C260 76.3137 257.314 79 254 79L254 81C258.418 81 262 77.4183 262 73L260 73ZM254 67C257.314 67 260 69.6863 260 73L262 73C262 68.5817 258.418 65 254 65L254 67ZM253 67L254 67L254 65L253 65L253 67ZM252 56.5L252 66L254 66L254 56.5L252 56.5ZM250.64 59.7682L253.64 57.2682L252.36 55.7318L249.36 58.2318L250.64 59.7682ZM246.36 57.2682L249.36 59.7682L250.64 58.2318L247.64 55.7318L246.36 57.2682ZM248 66L248 56.5L246 56.5L246 66L248 66ZM243 67L247 67L247 65L243 65L243 67ZM242 56.5L242 66L244 66L244 56.5L242 56.5ZM240.64 59.7682L243.64 57.2682L242.36 55.7318L239.36 58.2318L240.64 59.7682ZM236.36 57.2682L239.36 59.7682L240.64 58.2318L237.64 55.7318L236.36 57.2682ZM238 66L238 56.5L236 56.5L236 66L238 66ZM233 67L237 67L237 65L233 65L233 67ZM232 56.5L232 66L234 66L234 56.5L232 56.5ZM230.707 60.2071L233.707 57.2071L232.293 55.7929L229.293 58.7929L230.707 60.2071ZM226.293 57.2071L229.293 60.2071L230.707 58.7929L227.707 55.7929L226.293 57.2071ZM228 66L228 56.5L226 56.5L226 66L228 66ZM214 67L227 67L227 65L214 65L214 67ZM208 73C208 69.6863 210.686 67 214 67L214 65C209.582 65 206 68.5817 206 73L208 73ZM214 79C210.686 79 208 76.3137 208 73L206 73C206 77.4183 209.582 81 214 81L214 79ZM254 79L214 79L214 81L254 81L254 79Z" fill="#003E6B"/>
<path fill-rule="evenodd" clip-rule="evenodd" d="M273 139.497L255.342 155.474C254.056 156.637 252 155.725 252 153.991V146L232 146V155.5L229 152.5L226 155.5V146H222V155.5L219 153L216 155.5V146H212V155.5L209 153L206 155.5V146H202V155.5L199 152.5L196 155.5V146H192V155.5L189 153L186 155.5V146H182V155.5L179 153L176 155.5V146H172V155.5L169 152.5L166 155.5V146H162V155.5L159 153L156 155.5V146H152L152 155.5L149 153L146 155.5L146 146C146 145.976 146 145.953 146.001 145.929C142.608 145.444 140 142.527 140 139C140 135.134 143.134 132 147 132H252V125.004C252 123.27 254.056 122.357 255.342 123.521L273 139.497Z" fill="#00AEEF"/>
<path d="M255.342 155.474L254.671 154.732L254.671 154.732L255.342 155.474ZM273 139.497L273.671 140.239L274.491 139.497L273.671 138.756L273 139.497ZM252 146H253V145L252 145L252 146ZM232 146L232 145L231 145V146H232ZM232 155.5L231.293 156.207L233 157.914V155.5H232ZM229 152.5L229.707 151.793L229 151.086L228.293 151.793L229 152.5ZM226 155.5H225V157.914L226.707 156.207L226 155.5ZM226 146H227V145H226V146ZM222 146V145H221V146H222ZM222 155.5L221.36 156.268L223 157.635V155.5H222ZM219 153L219.64 152.232L219 151.698L218.36 152.232L219 153ZM216 155.5H215V157.635L216.64 156.268L216 155.5ZM216 146H217V145H216V146ZM212 146V145H211V146H212ZM212 155.5L211.36 156.268L213 157.635V155.5H212ZM209 153L209.64 152.232L209 151.698L208.36 152.232L209 153ZM206 155.5H205V157.635L206.64 156.268L206 155.5ZM206 146H207V145H206V146ZM202 146V145H201V146H202ZM202 155.5L201.293 156.207L203 157.914V155.5H202ZM199 152.5L199.707 151.793L199 151.086L198.293 151.793L199 152.5ZM196 155.5H195V157.914L196.707 156.207L196 155.5ZM196 146H197V145H196V146ZM192 146V145H191V146H192ZM192 155.5L191.36 156.268L193 157.635V155.5H192ZM189 153L189.64 152.232L189 151.698L188.36 152.232L189 153ZM186 155.5H185V157.635L186.64 156.268L186 155.5ZM186 146H187V145H186V146ZM182 146V145H181V146H182ZM182 155.5L181.36 156.268L183 157.635V155.5H182ZM179 153L179.64 152.232L179 151.698L178.36 152.232L179 153ZM176 155.5H175V157.635L176.64 156.268L176 155.5ZM176 146H177V145H176V146ZM172 146V145H171V146H172ZM172 155.5L171.293 156.207L173 157.914V155.5H172ZM169 152.5L169.707 151.793L169 151.086L168.293 151.793L169 152.5ZM166 155.5H165V157.914L166.707 156.207L166 155.5ZM166 146H167V145H166V146ZM162 146V145H161V146H162ZM162 155.5L161.36 156.268L163 157.635V155.5H162ZM159 153L159.64 152.232L159 151.698L158.36 152.232L159 153ZM156 155.5H155V157.635L156.64 156.268L156 155.5ZM156 146H157V145H156V146ZM152 146V145H151L151 146L152 146ZM152 155.5L151.36 156.268L153 157.635L153 155.5L152 155.5ZM149 153L149.64 152.232L149 151.698L148.36 152.232L149 153ZM146 155.5L145 155.5L145 157.635L146.64 156.268L146 155.5ZM146 146L147 146V146H146ZM146.001 145.929L147.001 145.952L147.021 145.065L146.142 144.939L146.001 145.929ZM252 132V133H253V132H252ZM255.342 123.521L254.671 124.262L254.671 124.262L255.342 123.521ZM256.013 156.215L273.671 140.239L272.329 138.756L254.671 154.732L256.013 156.215ZM251 153.991C251 156.592 254.084 157.96 256.013 156.215L254.671 154.732C254.028 155.314 253 154.858 253 153.991H251ZM251 146V153.991H253V146H251ZM232 147L252 147L252 145L232 145L232 147ZM233 155.5V146H231V155.5H233ZM228.293 153.207L231.293 156.207L232.707 154.793L229.707 151.793L228.293 153.207ZM226.707 156.207L229.707 153.207L228.293 151.793L225.293 154.793L226.707 156.207ZM225 146V155.5H227V146H225ZM222 147H226V145H222V147ZM223 155.5V146H221V155.5H223ZM218.36 153.768L221.36 156.268L222.64 154.732L219.64 152.232L218.36 153.768ZM216.64 156.268L219.64 153.768L218.36 152.232L215.36 154.732L216.64 156.268ZM215 146V155.5H217V146H215ZM212 147H216V145H212V147ZM211 146V155.5H213V146H211ZM212.64 154.732L209.64 152.232L208.36 153.768L211.36 156.268L212.64 154.732ZM208.36 152.232L205.36 154.732L206.64 156.268L209.64 153.768L208.36 152.232ZM207 155.5V146H205V155.5H207ZM202 147H206V145H202V147ZM203 155.5V146H201V155.5H203ZM198.293 153.207L201.293 156.207L202.707 154.793L199.707 151.793L198.293 153.207ZM196.707 156.207L199.707 153.207L198.293 151.793L195.293 154.793L196.707 156.207ZM195 146V155.5H197V146H195ZM192 147H196V145H192V147ZM193 155.5V146H191V155.5H193ZM188.36 153.768L191.36 156.268L192.64 154.732L189.64 152.232L188.36 153.768ZM186.64 156.268L189.64 153.768L188.36 152.232L185.36 154.732L186.64 156.268ZM185 146V155.5H187V146H185ZM182 147H186V145H182V147ZM183 155.5V146H181V155.5H183ZM178.36 153.768L181.36 156.268L182.64 154.732L179.64 152.232L178.36 153.768ZM176.64 156.268L179.64 153.768L178.36 152.232L175.36 154.732L176.64 156.268ZM175 146V155.5H177V146H175ZM172 147H176V145H172V147ZM173 155.5V146H171V155.5H173ZM168.293 153.207L171.293 156.207L172.707 154.793L169.707 151.793L168.293 153.207ZM166.707 156.207L169.707 153.207L168.293 151.793L165.293 154.793L166.707 156.207ZM165 146V155.5H167V146H165ZM162 147H166V145H162V147ZM163 155.5V146H161V155.5H163ZM158.36 153.768L161.36 156.268L162.64 154.732L159.64 152.232L158.36 153.768ZM156.64 156.268L159.64 153.768L158.36 152.232L155.36 154.732L156.64 156.268ZM155 146V155.5H157V146H155ZM152 147H156V145H152V147ZM153 155.5L153 146L151 146L151 155.5L153 155.5ZM148.36 153.768L151.36 156.268L152.64 154.732L149.64 152.232L148.36 153.768ZM146.64 156.268L149.64 153.768L148.36 152.232L145.36 154.732L146.64 156.268ZM145 146L145 155.5L147 155.5L147 146L145 146ZM145.001 145.906C145 145.937 145 145.969 145 146H147C147 145.984 147 145.968 147.001 145.952L145.001 145.906ZM139 139C139 143.031 141.981 146.365 145.859 146.919L146.142 144.939C143.235 144.524 141 142.022 141 139H139ZM147 131C142.582 131 139 134.582 139 139H141C141 135.686 143.686 133 147 133V131ZM252 131H147V133H252V131ZM251 125.004V132H253V125.004H251ZM256.013 122.779C254.084 121.034 251 122.403 251 125.004H253C253 124.137 254.028 123.681 254.671 124.262L256.013 122.779ZM273.671 138.756L256.013 122.779L254.671 124.262L272.329 140.239L273.671 138.756Z" fill="#003E6B"/>
<path fill-rule="evenodd" clip-rule="evenodd" d="M96 72.5027L113.658 56.5263C114.944 55.3629 117 56.2753 117 58.0093L117 66L137 66L137 56.5L140 59.5L143 56.5L143 66L147 66L147 56.5L150 59L153 56.5L153 66L157 66L157 56.5L160 59L163 56.5L163 66L167 66L167 56.5L170 59.5L173 56.5L173 66L177 66L177 56.5L180 59L183 56.5L183 66L187 66L187 56.5L190 59L193 56.5L193 66L197 66L197 56.5L200 59.5L203 56.5L203 66L207 66L207 56.5L210 59L213 56.5L213 66L217 66L217 56.5L220 59L223 56.5L223 66C223 66.0237 223 66.0472 222.999 66.0708C226.392 66.5556 229 69.4732 229 73C229 76.866 225.866 80 222 80L117 80L117 86.9961C117 88.7301 114.944 89.6425 113.658 88.4792L96 72.5027Z" fill="#C87085"/>
<path d="M113.658 56.5263L114.329 57.2678L114.329 57.2678L113.658 56.5263ZM96 72.5027L95.3291 71.7612L94.5095 72.5027L95.3291 73.2442L96 72.5027ZM117 58.0093L118 58.0093L117 58.0093ZM117 66L116 66L116 67L117 67L117 66ZM137 66L137 67L138 67L138 66L137 66ZM137 56.5L137.707 55.7929L136 54.0858L136 56.5L137 56.5ZM140 59.5L139.293 60.2071L140 60.9142L140.707 60.2071L140 59.5ZM143 56.5L144 56.5L144 54.0858L142.293 55.7929L143 56.5ZM143 66L142 66L142 67L143 67L143 66ZM147 66L147 67L148 67L148 66L147 66ZM147 56.5L147.64 55.7318L146 54.365L146 56.5L147 56.5ZM150 59L149.36 59.7682L150 60.3017L150.64 59.7682L150 59ZM153 56.5L154 56.5L154 54.365L152.36 55.7318L153 56.5ZM153 66L152 66L152 67L153 67L153 66ZM157 66L157 67L158 67L158 66L157 66ZM157 56.5L157.64 55.7318L156 54.365L156 56.5L157 56.5ZM160 59L159.36 59.7682L160 60.3017L160.64 59.7682L160 59ZM163 56.5L164 56.5L164 54.365L162.36 55.7318L163 56.5ZM163 66L162 66L162 67L163 67L163 66ZM167 66L167 67L168 67L168 66L167 66ZM167 56.5L167.707 55.7929L166 54.0858L166 56.5L167 56.5ZM170 59.5L169.293 60.2071L170 60.9142L170.707 60.2071L170 59.5ZM173 56.5L174 56.5L174 54.0858L172.293 55.7929L173 56.5ZM173 66L172 66L172 67L173 67L173 66ZM177 66L177 67L178 67L178 66L177 66ZM177 56.5L177.64 55.7318L176 54.365L176 56.5L177 56.5ZM180 59L179.36 59.7682L180 60.3017L180.64 59.7682L180 59ZM183 56.5L184 56.5L184 54.365L182.36 55.7318L183 56.5ZM183 66L182 66L182 67L183 67L183 66ZM187 66L187 67L188 67L188 66L187 66ZM187 56.5L187.64 55.7318L186 54.365L186 56.5L187 56.5ZM190 59L189.36 59.7682L190 60.3017L190.64 59.7682L190 59ZM193 56.5L194 56.5L194 54.365L192.36 55.7318L193 56.5ZM193 66L192 66L192 67L193 67L193 66ZM197 66L197 67L198 67L198 66L197 66ZM197 56.5L197.707 55.7929L196 54.0858L196 56.5L197 56.5ZM200 59.5L199.293 60.2071L200 60.9142L200.707 60.2071L200 59.5ZM203 56.5L204 56.5L204 54.0858L202.293 55.7929L203 56.5ZM203 66L202 66L202 67L203 67L203 66ZM207 66L207 67L208 67L208 66L207 66ZM207 56.5L207.64 55.7318L206 54.365L206 56.5L207 56.5ZM210 59L209.36 59.7682L210 60.3017L210.64 59.7682L210 59ZM213 56.5L214 56.5L214 54.365L212.36 55.7318L213 56.5ZM213 66L212 66L212 67L213 67L213 66ZM217 66L217 67L218 67L218 66L217 66ZM217 56.5L217.64 55.7318L216 54.365L216 56.5L217 56.5ZM220 59L219.36 59.7682L220 60.3017L220.64 59.7682L220 59ZM223 56.5L224 56.5L224 54.365L222.36 55.7318L223 56.5ZM223 66L222 66V66L223 66ZM222.999 66.0708L221.999 66.0476L221.979 66.9351L222.858 67.0607L222.999 66.0708ZM117 80L117 79L116 79L116 80L117 80ZM113.658 88.4792L114.329 87.7376L114.329 87.7376L113.658 88.4792ZM112.987 55.7847L95.3291 71.7612L96.6709 73.2442L114.329 57.2678L112.987 55.7847ZM118 58.0093C118 55.4083 114.916 54.0397 112.987 55.7847L114.329 57.2678C114.972 56.6861 116 57.1423 116 58.0093L118 58.0093ZM118 66L118 58.0093L116 58.0093L116 66L118 66ZM137 65L117 65L117 67L137 67L137 65ZM136 56.5L136 66L138 66L138 56.5L136 56.5ZM140.707 58.7929L137.707 55.7929L136.293 57.2071L139.293 60.2071L140.707 58.7929ZM142.293 55.7929L139.293 58.7929L140.707 60.2071L143.707 57.2071L142.293 55.7929ZM144 66L144 56.5L142 56.5L142 66L144 66ZM147 65L143 65L143 67L147 67L147 65ZM146 56.5L146 66L148 66L148 56.5L146 56.5ZM150.64 58.2318L147.64 55.7318L146.36 57.2682L149.36 59.7682L150.64 58.2318ZM152.36 55.7318L149.36 58.2318L150.64 59.7682L153.64 57.2682L152.36 55.7318ZM154 66L154 56.5L152 56.5L152 66L154 66ZM157 65L153 65L153 67L157 67L157 65ZM158 66L158 56.5L156 56.5L156 66L158 66ZM156.36 57.2682L159.36 59.7682L160.64 58.2318L157.64 55.7318L156.36 57.2682ZM160.64 59.7682L163.64 57.2682L162.36 55.7318L159.36 58.2318L160.64 59.7682ZM162 56.5L162 66L164 66L164 56.5L162 56.5ZM167 65L163 65L163 67L167 67L167 65ZM166 56.5L166 66L168 66L168 56.5L166 56.5ZM170.707 58.7929L167.707 55.7929L166.293 57.2071L169.293 60.2071L170.707 58.7929ZM172.293 55.7929L169.293 58.7929L170.707 60.2071L173.707 57.2071L172.293 55.7929ZM174 66L174 56.5L172 56.5L172 66L174 66ZM177 65L173 65L173 67L177 67L177 65ZM176 56.5L176 66L178 66L178 56.5L176 56.5ZM180.64 58.2318L177.64 55.7318L176.36 57.2682L179.36 59.7682L180.64 58.2318ZM182.36 55.7318L179.36 58.2318L180.64 59.7682L183.64 57.2682L182.36 55.7318ZM184 66L184 56.5L182 56.5L182 66L184 66ZM187 65L183 65L183 67L187 67L187 65ZM186 56.5L186 66L188 66L188 56.5L186 56.5ZM190.64 58.2318L187.64 55.7318L186.36 57.2682L189.36 59.7682L190.64 58.2318ZM192.36 55.7318L189.36 58.2318L190.64 59.7682L193.64 57.2682L192.36 55.7318ZM194 66L194 56.5L192 56.5L192 66L194 66ZM197 65L193 65L193 67L197 67L197 65ZM196 56.5L196 66L198 66L198 56.5L196 56.5ZM200.707 58.7929L197.707 55.7929L196.293 57.2071L199.293 60.2071L200.707 58.7929ZM202.293 55.7929L199.293 58.7929L200.707 60.2071L203.707 57.2071L202.293 55.7929ZM204 66L204 56.5L202 56.5L202 66L204 66ZM207 65L203 65L203 67L207 67L207 65ZM206 56.5L206 66L208 66L208 56.5L206 56.5ZM210.64 58.2318L207.64 55.7318L206.36 57.2682L209.36 59.7682L210.64 58.2318ZM212.36 55.7318L209.36 58.2318L210.64 59.7682L213.64 57.2682L212.36 55.7318ZM214 66L214 56.5L212 56.5L212 66L214 66ZM217 65L213 65L213 67L217 67L217 65ZM216 56.5L216 66L218 66L218 56.5L216 56.5ZM220.64 58.2318L217.64 55.7318L216.36 57.2682L219.36 59.7682L220.64 58.2318ZM222.36 55.7318L219.36 58.2318L220.64 59.7682L223.64 57.2682L222.36 55.7318ZM224 66L224 56.5L222 56.5L222 66L224 66ZM223.999 66.0939C224 66.0628 224 66.0315 224 66L222 66C222 66.0158 222 66.0317 221.999 66.0476L223.999 66.0939ZM230 73C230 68.9686 227.019 65.6351 223.141 65.0808L222.858 67.0607C225.765 67.4762 228 69.9779 228 73L230 73ZM222 81C226.418 81 230 77.4183 230 73L228 73C228 76.3137 225.314 79 222 79L222 81ZM117 81L222 81L222 79L117 79L117 81ZM118 86.9961L118 80L116 80L116 86.9961L118 86.9961ZM112.987 89.2207C114.916 90.9658 118 89.5971 118 86.9961L116 86.9961C116 87.8631 114.972 88.3193 114.329 87.7376L112.987 89.2207ZM95.3291 73.2442L112.987 89.2207L114.329 87.7376L96.6709 71.7612L95.3291 73.2442Z" fill="#003E6B"/>
<path d="M93.9961 11.7617H101.584V13.8027H95.9199V17.0254C96.584 16.5046 97.3424 16.2441 98.1953 16.2441C98.7422 16.2572 99.2435 16.3548 99.6992 16.5371C100.129 16.7389 100.477 16.9863 100.744 17.2793C101.141 17.6699 101.428 18.1224 101.604 18.6367C101.695 18.9167 101.76 19.2585 101.799 19.6621C101.838 20.0723 101.857 20.5768 101.857 21.1758C101.857 22.1003 101.792 22.8099 101.662 23.3047C101.525 23.793 101.298 24.2259 100.979 24.6035C100.699 24.9746 100.292 25.3132 99.7578 25.6191C99.237 25.9382 98.6185 26.1042 97.9023 26.1172C96.9388 26.1172 96.0566 25.8307 95.2559 25.2578C94.4421 24.6719 93.9375 23.7246 93.7422 22.416H95.7832C96.0046 23.5098 96.6849 24.0632 97.8242 24.0762C98.3125 24.0762 98.7031 23.9785 98.9961 23.7832C99.276 23.5944 99.4714 23.347 99.582 23.041C99.6992 22.735 99.7708 22.403 99.7969 22.0449C99.8099 21.6934 99.8164 21.3516 99.8164 21.0195C99.8294 20.2057 99.7025 19.5449 99.4355 19.0371C99.2923 18.7962 99.0807 18.6042 98.8008 18.4609C98.5208 18.3438 98.1725 18.2852 97.7559 18.2852C97.3848 18.2852 97.0462 18.3698 96.7402 18.5391C96.4342 18.7148 96.1608 19.0208 95.9199 19.457H93.9961V11.7617ZM103.986 11.7617H106.027V13.8027L103.986 15.2773V11.7617Z" fill="white"/>
<path d="M119.996 114.762H127.584V116.803H121.92V120.025C122.584 119.505 123.342 119.244 124.195 119.244C124.742 119.257 125.243 119.355 125.699 119.537C126.129 119.739 126.477 119.986 126.744 120.279C127.141 120.67 127.428 121.122 127.604 121.637C127.695 121.917 127.76 122.258 127.799 122.662C127.838 123.072 127.857 123.577 127.857 124.176C127.857 125.1 127.792 125.81 127.662 126.305C127.525 126.793 127.298 127.226 126.979 127.604C126.699 127.975 126.292 128.313 125.758 128.619C125.237 128.938 124.618 129.104 123.902 129.117C122.939 129.117 122.057 128.831 121.256 128.258C120.442 127.672 119.938 126.725 119.742 125.416H121.783C122.005 126.51 122.685 127.063 123.824 127.076C124.312 127.076 124.703 126.979 124.996 126.783C125.276 126.594 125.471 126.347 125.582 126.041C125.699 125.735 125.771 125.403 125.797 125.045C125.81 124.693 125.816 124.352 125.816 124.02C125.829 123.206 125.702 122.545 125.436 122.037C125.292 121.796 125.081 121.604 124.801 121.461C124.521 121.344 124.173 121.285 123.756 121.285C123.385 121.285 123.046 121.37 122.74 121.539C122.434 121.715 122.161 122.021 121.92 122.457H119.996V114.762ZM129.986 114.762H132.027V116.803L129.986 118.277V114.762Z" fill="white"/>
<path d="M243.996 84.7617H251.584V86.8027H245.92V90.0254C246.584 89.5046 247.342 89.2441 248.195 89.2441C248.742 89.2572 249.243 89.3548 249.699 89.5371C250.129 89.7389 250.477 89.9863 250.744 90.2793C251.141 90.6699 251.428 91.1224 251.604 91.6367C251.695 91.9167 251.76 92.2585 251.799 92.6621C251.838 93.0723 251.857 93.5768 251.857 94.1758C251.857 95.1003 251.792 95.8099 251.662 96.3047C251.525 96.793 251.298 97.2259 250.979 97.6035C250.699 97.9746 250.292 98.3132 249.758 98.6191C249.237 98.9382 248.618 99.1042 247.902 99.1172C246.939 99.1172 246.057 98.8307 245.256 98.2578C244.442 97.6719 243.938 96.7246 243.742 95.416H245.783C246.005 96.5098 246.685 97.0632 247.824 97.0762C248.312 97.0762 248.703 96.9785 248.996 96.7832C249.276 96.5944 249.471 96.347 249.582 96.041C249.699 95.735 249.771 95.403 249.797 95.0449C249.81 94.6934 249.816 94.3516 249.816 94.0195C249.829 93.2057 249.702 92.5449 249.436 92.0371C249.292 91.7962 249.081 91.6042 248.801 91.4609C248.521 91.3438 248.173 91.2852 247.756 91.2852C247.385 91.2852 247.046 91.3698 246.74 91.5391C246.434 91.7148 246.161 92.0208 245.92 92.457H243.996V84.7617ZM253.986 84.7617H256.027V86.8027L253.986 88.2773V84.7617Z" fill="white"/>
<path d="M264.996 185.762H272.584V187.803H266.92V191.025C267.584 190.505 268.342 190.244 269.195 190.244C269.742 190.257 270.243 190.355 270.699 190.537C271.129 190.739 271.477 190.986 271.744 191.279C272.141 191.67 272.428 192.122 272.604 192.637C272.695 192.917 272.76 193.258 272.799 193.662C272.838 194.072 272.857 194.577 272.857 195.176C272.857 196.1 272.792 196.81 272.662 197.305C272.525 197.793 272.298 198.226 271.979 198.604C271.699 198.975 271.292 199.313 270.758 199.619C270.237 199.938 269.618 200.104 268.902 200.117C267.939 200.117 267.057 199.831 266.256 199.258C265.442 198.672 264.938 197.725 264.742 196.416H266.783C267.005 197.51 267.685 198.063 268.824 198.076C269.312 198.076 269.703 197.979 269.996 197.783C270.276 197.594 270.471 197.347 270.582 197.041C270.699 196.735 270.771 196.403 270.797 196.045C270.81 195.693 270.816 195.352 270.816 195.02C270.829 194.206 270.702 193.545 270.436 193.037C270.292 192.796 270.081 192.604 269.801 192.461C269.521 192.344 269.173 192.285 268.756 192.285C268.385 192.285 268.046 192.37 267.74 192.539C267.434 192.715 267.161 193.021 266.92 193.457H264.996V185.762ZM274.986 185.762H277.027V187.803L274.986 189.277V185.762Z" fill="white"/>
<path d="M267.516 17.7578H268.219C268.915 17.7578 269.456 17.5658 269.84 17.1816C270.224 16.8105 270.416 16.3288 270.416 15.7363C270.403 15.1374 270.204 14.6458 269.82 14.2617C269.436 13.8906 268.941 13.6986 268.336 13.6855C267.9 13.6855 267.503 13.8255 267.145 14.1055C266.767 14.3854 266.513 14.8184 266.383 15.4043H264.342C264.446 14.3496 264.872 13.4609 265.621 12.7383C266.357 12.0221 267.236 11.6576 268.258 11.6445C269.553 11.6576 270.582 12.071 271.344 12.8848C272.073 13.679 272.444 14.6165 272.457 15.6973C272.457 16.2441 272.359 16.7715 272.164 17.2793C271.936 17.7871 271.529 18.2396 270.943 18.6367C271.542 19.0273 271.975 19.4961 272.242 20.043C272.496 20.5898 272.623 21.1628 272.623 21.7617C272.61 23.0964 272.197 24.1478 271.383 24.916C270.582 25.7038 269.553 26.1042 268.297 26.1172C267.327 26.1172 266.467 25.8047 265.719 25.1797C264.97 24.5547 264.485 23.6497 264.264 22.4648H266.305C266.487 22.9401 266.744 23.3242 267.076 23.6172C267.415 23.9232 267.864 24.0762 268.424 24.0762C269.023 24.0762 269.527 23.8711 269.938 23.4609C270.354 23.0768 270.569 22.5299 270.582 21.8203C270.569 21.0977 270.354 20.5378 269.938 20.1406C269.527 19.7565 269.007 19.5645 268.375 19.5645H267.516V17.7578ZM274.986 11.7617H277.027V13.8027L274.986 15.2773V11.7617Z" fill="white"/>
<path d="M202.516 120.758H203.219C203.915 120.758 204.456 120.566 204.84 120.182C205.224 119.811 205.416 119.329 205.416 118.736C205.403 118.137 205.204 117.646 204.82 117.262C204.436 116.891 203.941 116.699 203.336 116.686C202.9 116.686 202.503 116.826 202.145 117.105C201.767 117.385 201.513 117.818 201.383 118.404H199.342C199.446 117.35 199.872 116.461 200.621 115.738C201.357 115.022 202.236 114.658 203.258 114.645C204.553 114.658 205.582 115.071 206.344 115.885C207.073 116.679 207.444 117.617 207.457 118.697C207.457 119.244 207.359 119.771 207.164 120.279C206.936 120.787 206.529 121.24 205.943 121.637C206.542 122.027 206.975 122.496 207.242 123.043C207.496 123.59 207.623 124.163 207.623 124.762C207.61 126.096 207.197 127.148 206.383 127.916C205.582 128.704 204.553 129.104 203.297 129.117C202.327 129.117 201.467 128.805 200.719 128.18C199.97 127.555 199.485 126.65 199.264 125.465H201.305C201.487 125.94 201.744 126.324 202.076 126.617C202.415 126.923 202.864 127.076 203.424 127.076C204.023 127.076 204.527 126.871 204.938 126.461C205.354 126.077 205.569 125.53 205.582 124.82C205.569 124.098 205.354 123.538 204.938 123.141C204.527 122.757 204.007 122.564 203.375 122.564H202.516V120.758ZM209.986 114.762H212.027V116.803L209.986 118.277V114.762Z" fill="white"/>
<path d="M172.516 90.7578H173.219C173.915 90.7578 174.456 90.5658 174.84 90.1816C175.224 89.8105 175.416 89.3288 175.416 88.7363C175.403 88.1374 175.204 87.6458 174.82 87.2617C174.436 86.8906 173.941 86.6986 173.336 86.6855C172.9 86.6855 172.503 86.8255 172.145 87.1055C171.767 87.3854 171.513 87.8184 171.383 88.4043H169.342C169.446 87.3496 169.872 86.4609 170.621 85.7383C171.357 85.0221 172.236 84.6576 173.258 84.6445C174.553 84.6576 175.582 85.071 176.344 85.8848C177.073 86.679 177.444 87.6165 177.457 88.6973C177.457 89.2441 177.359 89.7715 177.164 90.2793C176.936 90.7871 176.529 91.2396 175.943 91.6367C176.542 92.0273 176.975 92.4961 177.242 93.043C177.496 93.5898 177.623 94.1628 177.623 94.7617C177.61 96.0964 177.197 97.1478 176.383 97.916C175.582 98.7038 174.553 99.1042 173.297 99.1172C172.327 99.1172 171.467 98.8047 170.719 98.1797C169.97 97.5547 169.485 96.6497 169.264 95.4648H171.305C171.487 95.9401 171.744 96.3242 172.076 96.6172C172.415 96.9232 172.864 97.0762 173.424 97.0762C174.023 97.0762 174.527 96.8711 174.938 96.4609C175.354 96.0768 175.569 95.5299 175.582 94.8203C175.569 94.0977 175.354 93.5378 174.938 93.1406C174.527 92.7565 174.007 92.5645 173.375 92.5645H172.516V90.7578ZM179.986 84.7617H182.027V86.8027L179.986 88.2773V84.7617Z" fill="white"/>
<path d="M103.516 191.758H104.219C104.915 191.758 105.456 191.566 105.84 191.182C106.224 190.811 106.416 190.329 106.416 189.736C106.403 189.137 106.204 188.646 105.82 188.262C105.436 187.891 104.941 187.699 104.336 187.686C103.9 187.686 103.503 187.826 103.145 188.105C102.767 188.385 102.513 188.818 102.383 189.404H100.342C100.446 188.35 100.872 187.461 101.621 186.738C102.357 186.022 103.236 185.658 104.258 185.645C105.553 185.658 106.582 186.071 107.344 186.885C108.073 187.679 108.444 188.617 108.457 189.697C108.457 190.244 108.359 190.771 108.164 191.279C107.936 191.787 107.529 192.24 106.943 192.637C107.542 193.027 107.975 193.496 108.242 194.043C108.496 194.59 108.623 195.163 108.623 195.762C108.61 197.096 108.197 198.148 107.383 198.916C106.582 199.704 105.553 200.104 104.297 200.117C103.327 200.117 102.467 199.805 101.719 199.18C100.97 198.555 100.485 197.65 100.264 196.465H102.305C102.487 196.94 102.744 197.324 103.076 197.617C103.415 197.923 103.864 198.076 104.424 198.076C105.023 198.076 105.527 197.871 105.938 197.461C106.354 197.077 106.569 196.53 106.582 195.82C106.569 195.098 106.354 194.538 105.938 194.141C105.527 193.757 105.007 193.564 104.375 193.564H103.516V191.758ZM110.986 185.762H113.027V187.803L110.986 189.277V185.762Z" fill="white"/>
</g>
<defs>
<clipPath id="clip0">
<rect width="210" height="210" fill="white" transform="translate(84)"/>
</clipPath>
</defs>
</svg>
