<svg width="368" height="210" viewBox="0 0 368 210" fill="none" xmlns="http://www.w3.org/2000/svg">
<rect width="368" height="210" fill="#0063C3"/>
<rect width="210" height="210" transform="translate(84)" fill="#0063C3"/>
<path d="M182.961 187.919C187.285 194.024 198.985 204.555 211.193 197.839C226.454 189.445 192.117 174.945 207.378 164.261C222.639 153.577 238.662 165.788 233.321 180.287C227.98 194.787 213.482 181.813 221.876 171.13C230.269 160.446 233.321 159.682 245.53 164.261C257.738 168.84 259.264 183.34 250.108 187.919C240.952 192.497 247.462 200.892 231.032 197.839C214.603 194.787 207.378 183.34 196.696 183.34C186.013 183.34 167.7 188.682 169.989 174.945C172.279 161.209 189.065 184.103 190.591 167.314C192.117 150.525 166.174 169.603 163.122 156.63C160.07 143.657 163.885 132.973 166.937 129.92C169.989 126.868 184.487 130.482 178.383 145.946C172.279 161.41 189.065 179.524 194.407 173.419C199.748 167.314 195.17 142.893 207.378 145.946C219.587 148.999 216.534 177.998 237.136 171.13C257.738 164.261 255.449 185.629 269.184 174.945C282.918 164.261 285.971 160.446 282.918 151.288C279.866 142.13 276.051 165.788 266.132 161.209C256.212 156.63 245.53 157.393 247.056 148.999C248.582 140.604 270.71 141.367 269.184 129.92C267.658 118.473 246.293 112.368 244.004 122.289C241.715 132.21 272.236 135.262 263.843 145.946C255.449 156.63 244.767 161.972 233.321 156.63C221.876 151.288 218.824 144.42 220.35 140.604C221.876 136.788 230.269 123.052 237.136 129.92C244.004 136.788 240.952 142.893 237.136 145.946C233.321 148.999 207.378 145.183 207.378 131.446C207.378 117.71 202.8 107.789 196.696 107.789C190.591 107.789 176.094 128.221 189.065 137.551C202.037 146.882 218.824 129.157 220.35 119.236C221.876 109.315 209.613 121.526 198.222 119.236C186.831 116.947 182.961 108.552 186.013 102.447C189.065 96.342 203.563 88.7107 207.378 92.5263C211.193 96.342 212.719 107.026 221.876 104.737C231.032 102.447 253.923 96.342 245.53 89.4738C237.136 82.6055 236.373 86.4212 231.032 84.1318C225.691 81.8424 217.298 110.078 228.743 114.657C240.189 119.236 247.936 128.394 253.923 123.815C259.91 119.236 269.184 112.368 263.843 104.737C258.501 97.1052 240.952 93.2895 237.136 94.8157C233.321 96.342 233.321 110.842 248.582 107.789C260.79 105.347 263.843 96.5964 263.843 92.5263" stroke="#003E6B" stroke-width="3" stroke-linecap="round"/>
<path d="M220.352 140.604C221.878 136.788 230.271 123.052 237.138 129.92" stroke="#ED3431" stroke-width="3" stroke-linecap="round"/>
<path d="M214 72C214 106.234 186.025 134 151.5 134C116.975 134 89 106.234 89 72C89 37.7658 116.975 10 151.5 10C186.025 10 214 37.7658 214 72Z" fill="#3382CF" stroke="#FAAC48" stroke-width="2"/>
<path d="M161 132.8L225.575 130.175L213.5 74" stroke="#FAAC48" stroke-width="2" stroke-linecap="round"/>
<path d="M135.338 51.7121C134.929 51.6154 134.503 51.7845 134.272 52.1354C133.087 53.9354 132.451 55.7247 132.55 57.5027C132.65 59.2973 133.49 60.9246 134.951 62.4044C135.396 62.8551 136.041 63.2601 136.753 63.6351C137.481 64.0188 138.359 64.4104 139.328 64.8139C140.297 65.2177 141.432 65.6621 142.632 66.1326C143.76 66.5747 144.948 67.0399 146.112 67.5161C151.083 69.5484 156.283 72.0302 159.27 75.2973C160.667 77.2215 161.015 80.6454 160.187 84.0037C160.093 84.3832 160.229 84.7824 160.535 85.0257C160.841 85.2691 161.26 85.3119 161.609 85.1354C162.394 84.738 163.172 83.9008 163.809 82.927C164.466 81.9236 165.051 80.6595 165.391 79.2768C166.074 76.5039 165.788 73.1237 162.941 70.5412C160.636 68.4499 156.901 66.5599 152.697 64.5993C151.679 64.1247 150.629 63.6442 149.557 63.1534C146.139 61.589 142.493 59.9197 138.917 58.0028C137.867 57.4395 137.141 56.1932 136.675 54.8894C136.451 54.2627 136.306 53.6748 136.218 53.2426C136.173 53.0275 136.143 52.8535 136.125 52.7355C136.116 52.6767 136.109 52.6319 136.105 52.6033L136.101 52.5728L136.101 52.5679C136.101 52.5678 136.101 52.5676 136.101 52.5674M135.338 51.7121L134.34 54.0185C134.309 53.8854 134.282 53.7606 134.259 53.6456C134.207 53.3961 134.172 53.1907 134.149 53.0453C134.138 52.9725 134.129 52.9146 134.124 52.8736L134.117 52.8247L134.116 52.8102L134.115 52.8055L134.115 52.8038L134.115 52.8031C134.115 52.8028 134.115 52.8025 135.108 52.6852C136.101 52.5679 136.101 52.5677 136.101 52.5674M135.338 51.7121C135.747 51.8087 136.051 52.1504 136.101 52.5673L136.101 52.5674M135.338 51.7121L136.101 52.5674" fill="#528C2E" stroke="#003E6B" stroke-width="2" stroke-linejoin="round"/>
<path d="M134.775 19.3072C134.366 19.2104 133.94 19.3796 133.709 19.7304C132.524 21.5305 131.888 23.3198 131.987 25.0977C132.087 26.8924 132.927 28.5197 134.388 29.9995C134.817 30.4337 135.451 30.8654 136.171 31.2908C136.906 31.7257 137.798 32.1934 138.791 32.689C139.766 33.1756 140.902 33.7203 142.109 34.2983C143.29 34.8643 144.538 35.4623 145.766 36.0689C150.88 38.5958 156.256 41.5668 159.27 44.866C160.667 46.7902 161.015 50.2141 160.187 53.5725C160.093 53.952 160.229 54.3512 160.535 54.5945C160.841 54.8378 161.26 54.8807 161.609 54.7042C162.394 54.3068 163.172 53.4696 163.809 52.4957C164.466 51.4924 165.051 50.2282 165.391 48.8455C166.074 46.0727 165.788 42.6925 162.941 40.11C160.674 38.0527 156.849 35.6789 152.484 33.2166C149.333 31.4392 145.847 29.5864 142.385 27.7464C141.03 27.0265 139.68 26.3086 138.354 25.5979C137.304 25.0346 136.577 23.7883 136.112 22.4845C135.888 21.8578 135.743 21.2699 135.654 20.8377C135.61 20.6226 135.58 20.4485 135.562 20.3306C135.553 20.2717 135.546 20.227 135.542 20.1984L135.538 20.1679L135.538 20.163C135.538 20.1628 135.538 20.1627 135.538 20.1625M134.775 19.3072L133.777 21.6136C133.746 21.4805 133.719 21.3556 133.695 21.2407C133.644 20.9912 133.609 20.7858 133.586 20.6404C133.575 20.5676 133.566 20.5097 133.561 20.4687L133.554 20.4198L133.552 20.4053L133.552 20.4006L133.552 20.3989L133.552 20.3982C133.552 20.3979 133.552 20.3976 134.545 20.2803C135.538 20.163 135.538 20.1628 135.538 20.1625M134.775 19.3072C135.183 19.4038 135.488 19.7455 135.538 20.1624L135.538 20.1625M134.775 19.3072L135.538 20.1625" fill="#528C2E" stroke="#003E6B" stroke-width="2" stroke-linejoin="round"/>
<path d="M135.338 75.3805C134.929 75.2838 134.503 75.4529 134.272 75.8037C133.087 77.6038 132.451 79.3931 132.55 81.171C132.65 82.9657 133.49 84.593 134.951 86.0728C135.396 86.5235 136.041 86.9285 136.753 87.3035C137.481 87.6872 138.359 88.0788 139.328 88.4823C140.297 88.8861 141.432 89.3305 142.632 89.801C143.76 90.2431 144.948 90.7083 146.112 91.1845C151.083 93.2168 156.283 95.6986 159.27 98.9657C160.667 100.89 161.015 104.314 160.187 107.672C160.093 108.052 160.229 108.451 160.535 108.694C160.841 108.937 161.26 108.98 161.609 108.804C162.394 108.406 163.172 107.569 163.809 106.595C164.466 105.592 165.051 104.328 165.391 102.945C166.074 100.172 165.788 96.7921 162.941 94.2096C160.636 92.1183 156.901 90.2283 152.697 88.2677C151.679 87.7931 150.629 87.3126 149.557 86.8218C146.139 85.2574 142.493 83.5881 138.917 81.6712C137.867 81.1079 137.141 79.8616 136.675 78.5578C136.451 77.9311 136.306 77.3432 136.218 76.911C136.173 76.6959 136.143 76.5219 136.125 76.4039C136.116 76.345 136.109 76.3003 136.105 76.2717L136.101 76.2412L136.101 76.2363C136.101 76.2361 136.101 76.236 136.101 76.2358M135.338 75.3805L134.34 77.6869C134.309 77.5538 134.282 77.429 134.259 77.314C134.207 77.0645 134.172 76.8591 134.149 76.7137C134.138 76.6409 134.129 76.583 134.124 76.542L134.117 76.4931L134.116 76.4786L134.115 76.4739L134.115 76.4722L134.115 76.4715C134.115 76.4712 134.115 76.4709 135.108 76.3536C136.101 76.2363 136.101 76.2361 136.101 76.2358M135.338 75.3805C135.747 75.4771 136.051 75.8188 136.101 76.2357L136.101 76.2358M135.338 75.3805L136.101 76.2358" fill="#528C2E" stroke="#003E6B" stroke-width="2" stroke-linejoin="round"/>
<rect x="134.871" y="55.0664" width="20.92" height="4.65625" rx="2.32812" fill="#00AEEF" stroke="#003E6B" stroke-width="2" stroke-linejoin="round"/>
<rect x="134.871" y="48.3038" width="27.5976" height="4.65624" rx="2.32812" fill="#00AEEF" stroke="#003E6B" stroke-width="2" stroke-linejoin="round"/>
<rect x="141.547" y="41.5413" width="22.0329" height="4.65625" rx="2.32812" fill="#00AEEF" stroke="#003E6B" stroke-width="2" stroke-linejoin="round"/>
<rect x="139.219" y="29.1439" width="16.4682" height="4.65625" rx="2.32812" fill="#00AEEF" stroke="#003E6B" stroke-width="2" stroke-linejoin="round"/>
<rect x="134.098" y="22.1875" width="26.1311" height="4.65625" rx="2.32812" fill="#00AEEF" stroke="#003E6B" stroke-width="2" stroke-linejoin="round"/>
<rect x="138.297" y="68.4062" width="21.9344" height="4.65625" rx="2.32812" fill="#00AEEF" stroke="#003E6B" stroke-width="2" stroke-linejoin="round"/>
<rect x="133.758" y="75.3536" width="29.8235" height="4.65625" rx="2.32812" fill="#00AEEF" stroke="#003E6B" stroke-width="2" stroke-linejoin="round"/>
<rect x="138.211" y="82.1158" width="20.92" height="4.65626" rx="2.32813" fill="#00AEEF" stroke="#003E6B" stroke-width="2" stroke-linejoin="round"/>
<rect x="144.887" y="92.2596" width="15.3553" height="4.65626" rx="2.32813" fill="#00AEEF" stroke="#003E6B" stroke-width="2" stroke-linejoin="round"/>
<rect x="139.324" y="99.0222" width="24.2588" height="4.65624" rx="2.32812" fill="#00AEEF" stroke="#003E6B" stroke-width="2" stroke-linejoin="round"/>
<rect x="133.758" y="105.784" width="25.3718" height="4.65624" rx="2.32812" fill="#00AEEF" stroke="#003E6B" stroke-width="2" stroke-linejoin="round"/>
<path d="M160.061 19.0178C160.458 18.9419 160.862 19.1125 161.084 19.4501C162.269 21.2502 162.905 23.0395 162.806 24.8174C162.706 26.6121 161.866 28.2394 160.405 29.7192C157.758 32.3996 144.541 46.9033 138.21 53.8811C137.602 54.7276 137.386 55.9424 137.479 57.5018C137.573 59.072 137.968 60.8219 138.404 62.5892C138.491 62.9437 138.379 63.3176 138.11 63.5647C137.841 63.8118 137.459 63.8929 137.113 63.7762C135.032 63.0738 133.188 60.766 132.437 58.0986C131.664 55.358 131.975 52.0355 134.457 49.2077C135.77 47.7127 138.43 44.7911 141.646 41.2592C142.546 40.2706 143.49 39.2343 144.46 38.1681C148.902 33.2843 153.903 27.7622 157.827 23.2856C158.246 22.8081 158.613 21.984 158.884 21.1771C159.013 20.7918 159.111 20.442 159.176 20.1889C159.208 20.0628 159.232 19.9618 159.248 19.8936C159.256 19.8596 159.261 19.8338 159.265 19.8173L159.269 19.7997L159.269 19.7967C159.269 19.7966 159.269 19.7966 159.269 19.7965M160.061 19.0178L160.964 21.2283C161.024 21.0232 161.074 20.8392 161.113 20.6863C161.15 20.5419 161.178 20.4241 161.197 20.3411C161.207 20.2996 161.214 20.2667 161.219 20.2434L161.225 20.2157L161.227 20.2076L161.227 20.2049L161.228 20.204L161.228 20.2036C161.228 20.2034 161.228 20.2033 160.249 20C159.269 19.7967 159.269 19.7966 159.269 19.7965M160.061 19.0178C159.664 19.0936 159.352 19.4008 159.269 19.7965M160.061 19.0178L159.269 19.7965" fill="#84BE60" stroke="#003E6B" stroke-width="2" stroke-linejoin="round"/>
<path d="M164.528 72.4225C164.321 72.1092 163.957 71.9376 163.584 71.9783C163.211 72.0189 162.892 72.2649 162.758 72.6153L162.758 72.6153L162.758 72.6154L162.758 72.6157L162.757 72.6176L162.754 72.626L162.741 72.6608C162.729 72.6917 162.711 72.7378 162.688 72.7972C162.641 72.916 162.573 73.088 162.487 73.2987C162.317 73.7206 162.078 74.2949 161.805 74.9067C161.532 75.5203 161.23 76.1616 160.932 76.7209C160.625 77.2982 160.356 77.7226 160.158 77.9485C156.262 82.3924 150.706 87.7496 145.679 92.495C144.628 93.4868 143.597 94.4541 142.61 95.3815C138.911 98.8543 135.809 101.767 134.457 103.307C131.975 106.135 131.664 109.457 132.437 112.198C133.188 114.865 135.032 117.173 137.113 117.876C137.459 117.992 137.841 117.911 138.11 117.664C138.379 117.417 138.491 117.043 138.404 116.689C137.968 114.921 137.573 113.172 137.479 111.601C137.386 110.042 137.602 108.827 138.209 107.981C141.337 104.54 146.764 99.3488 151.776 94.6514C153.648 92.8968 155.465 91.2084 157.077 89.7107C159.77 87.209 161.889 85.2394 162.736 84.3822C165.627 81.4543 167.091 76.3171 164.528 72.4225Z" fill="#84BE60" stroke="#003E6B" stroke-width="2" stroke-linejoin="round"/>
<path d="M164.528 41.9915C164.321 41.6781 163.957 41.5066 163.584 41.5472C163.211 41.5879 162.892 41.8338 162.758 42.1842L162.758 42.1843L162.758 42.1843L162.758 42.1846L162.757 42.1865L162.754 42.195L162.741 42.2298C162.729 42.2607 162.711 42.3067 162.688 42.3661C162.641 42.485 162.573 42.6569 162.487 42.8676C162.317 43.2895 162.078 43.8639 161.805 44.4757C161.532 45.0893 161.23 45.7306 160.932 46.2898C160.625 46.8671 160.356 47.2916 160.158 47.5175C156.262 51.9614 150.706 57.3185 145.679 62.0639C144.628 63.0557 143.598 64.023 142.61 64.9504C138.911 68.4232 135.809 71.3359 134.457 72.8761C131.975 75.7039 131.664 79.0263 132.437 81.767C133.188 84.4344 135.032 86.7422 137.113 87.4446C137.459 87.5613 137.841 87.4802 138.11 87.2331C138.379 86.986 138.491 86.6121 138.404 86.2576C137.968 84.4903 137.573 82.7404 137.479 81.1702C137.386 79.6109 137.602 78.3962 138.209 77.5497C141.337 74.1094 146.764 68.9177 151.776 64.2204C153.648 62.4657 155.465 60.7773 157.077 59.2796C159.77 56.778 161.889 54.8084 162.736 53.9511C165.627 51.0233 167.091 45.8861 164.528 41.9915Z" fill="#84BE60" stroke="#003E6B" stroke-width="2" stroke-linejoin="round"/>
<path d="M164.53 96.0911C164.323 95.7777 163.959 95.6062 163.586 95.6468C163.213 95.6875 162.894 95.9334 162.76 96.2839L162.76 96.2839L162.76 96.2839L162.76 96.2842L162.759 96.2862L162.756 96.2946L162.743 96.3294C162.731 96.3603 162.713 96.4064 162.689 96.4657C162.643 96.5846 162.575 96.7566 162.489 96.9672C162.318 97.3891 162.08 97.9635 161.807 98.5753C161.534 99.1889 161.232 99.8302 160.934 100.389C160.627 100.967 160.358 101.391 160.16 101.617C156.246 106.082 154.103 108.079 152.465 109.335C151.661 109.952 150.968 110.399 150.208 110.888L150.164 110.917C149.386 111.419 148.547 111.962 147.508 112.75C147.237 112.956 146.933 113.175 146.606 113.412C144.377 115.022 141.054 117.425 139.488 121.653C139.34 122.052 139.461 122.501 139.789 122.771C140.118 123.042 140.581 123.076 140.945 122.855C142.296 122.034 144.184 121.064 145.754 120.291C146.535 119.906 147.23 119.574 147.729 119.338C147.979 119.22 148.18 119.126 148.318 119.062L148.476 118.989L148.517 118.97L148.527 118.965L148.529 118.964L148.53 118.964L148.53 118.964C148.561 118.95 148.591 118.934 148.621 118.916C155.385 114.92 160.018 110.806 162.738 108.051C165.629 105.123 167.093 99.9857 164.53 96.0911Z" fill="#84BE60" stroke="#003E6B" stroke-width="2" stroke-linejoin="round"/>
</svg>
