<svg width="448" height="210" viewBox="0 0 448 210" fill="none" xmlns="http://www.w3.org/2000/svg">
<rect width="448" height="210" fill="#0063C3"/>
<rect width="210" height="210" transform="translate(119)" fill="#0063C3"/>
<g clip-path="url(#clip0)">
<path d="M145.971 81.5488L144.054 76.02L141.864 82.1938L145.971 81.5488Z" fill="#90B2BA"/>
<path d="M145.971 81.5488L147.614 78.3237L144.054 76.02L145.971 81.5488Z" fill="#B5E1F4"/>
<path d="M147.614 78.3235L145.515 75.0062L144.054 76.0198L147.614 78.3235Z" fill="#97AFB7"/>
<path d="M155.553 82.6545L156.101 75.6514L147.614 78.3236L155.553 82.6545Z" fill="#BEDEE5"/>
<path d="M160.299 76.1121L156.01 75.6514L155.553 82.6545L160.299 76.1121Z" fill="#B5E1F4"/>
<path d="M162.033 79.245L160.299 76.1121L155.553 82.6545L162.033 79.245Z" fill="#B5E1F4"/>
<path d="M160.299 76.112L157.744 75.0984L156.01 75.6513L160.299 76.112Z" fill="#7792A0"/>
<path d="M172.893 83.2073L173.441 81.0879L170.064 79.1528L172.893 83.2073Z" fill="#BEDEE5"/>
<path d="M173.441 81.0881L178.46 75.2828L170.155 79.153L173.441 81.0881Z" fill="#CBEAF4"/>
<path d="M180.742 79.245L178.46 75.3749L173.441 81.1801L180.742 79.245Z" fill="#AFD2DB"/>
<path d="M180.742 79.245L173.441 81.1801L172.893 83.2073L180.742 79.245Z" fill="#91ACB7"/>
<path d="M201.367 82.8388L203.101 79.8901L194.522 80.9959L201.367 82.8388Z" fill="#97AFB7"/>
<path d="M201.367 83.0231V82.7466L194.522 80.9037L201.367 83.0231Z" fill="#9BBFCC"/>
<path d="M194.522 80.9959L203.101 79.8901L194.522 80.9959Z" fill="#97AFB7"/>
<path d="M207.299 82.1016L203.101 79.798L201.367 82.7467L207.299 82.1016Z" fill="#BEDEE5"/>
<path d="M207.299 82.1017L209.945 75.1907L203.01 79.798L207.299 82.1017Z" fill="#CBEAF4"/>
<path d="M211.68 76.5729L209.946 75.1907L207.299 82.1017L211.68 76.5729Z" fill="#9BBFCC"/>
<path d="M211.497 83.3916L211.68 76.6649L207.299 82.1937L211.497 83.3916Z" fill="#BEDEE5"/>
<path d="M216.973 78.3235L211.68 76.5728L211.497 83.2995L216.973 78.3235Z" fill="#97AFB7"/>
<path d="M210.037 75.1907L211.771 76.5729L210.037 75.1907Z" fill="#97AFB7"/>
<path d="M216.973 78.3235L218.798 77.2178L211.679 76.5728L216.973 78.3235Z" fill="#7792A0"/>
<path d="M224.821 80.6272L218.798 77.2178L216.973 78.3235L224.821 80.6272Z" fill="#C5DCED"/>
<path d="M232.396 79.7057L232.214 78.3235L224.821 80.535L232.396 79.7057Z" fill="#B5E1F4"/>
<path d="M232.396 79.7057L232.852 79.245L232.214 78.3235L232.396 79.7057Z" fill="#BEDEE5"/>
<path d="M232.852 79.2451L238.967 76.9414L232.214 78.4158L232.852 79.2451Z" fill="#AFD2DB"/>
<path d="M253.113 80.6272V80.2586L248.823 79.245L253.113 80.6272Z" fill="#7792A0"/>
<path d="M253.113 80.6273L259.045 80.9958L253.113 80.2587V80.6273Z" fill="#9BBFCC"/>
<path d="M259.136 80.9959L260.322 79.0608L253.204 80.2587L259.136 80.9959Z" fill="#7792A0"/>
<path d="M262.786 80.8115L260.231 79.1528L259.045 81.0879L262.786 80.8115Z" fill="#7792A0"/>
<path d="M262.786 80.8116L262.147 76.2042L260.231 79.1529L262.786 80.8116Z" fill="#9BBFCC"/>
<path d="M262.786 80.8115L265.25 75.467L262.147 76.1121L262.786 80.8115Z" fill="#9BBFCC"/>
<path d="M270.087 79.6136L265.159 75.467L262.695 80.8115L270.087 79.6136Z" fill="#AFD2DB"/>
<path d="M270.179 79.9821V79.6135L262.878 80.7193L270.179 79.9821Z" fill="#CBEAF4"/>
<path d="M269.448 83.3916L270.087 80.0743L262.695 80.8115L269.448 83.3916Z" fill="#CBEAF4"/>
<path d="M273.008 79.798L270.179 79.9823L269.54 83.2995L273.008 79.798Z" fill="#97AFB7"/>
<path d="M270.178 79.9821L273.008 79.7978L270.178 79.6135V79.9821Z" fill="#BEDEE5"/>
<path d="M284.142 83.3916L281.495 77.0334L280.491 78.6921L284.142 83.3916Z" fill="#D2F2F7"/>
<path d="M284.142 83.3917L283.503 75.6514L281.495 77.0336L284.142 83.3917Z" fill="#7894A0"/>
<path d="M284.142 83.3917L287.518 83.2074L283.503 75.6514L284.142 83.3917Z" fill="#BEDEE5"/>
<path d="M144.054 76.02L145.515 75.0064L144.054 70.9519V76.02Z" fill="#97AFB7"/>
<path d="M149.53 69.2931L144.967 67.5424L143.963 70.9518L149.53 69.2931Z" fill="#B5E1F4"/>
<path d="M145.515 75.0063L149.53 69.2932L143.963 70.9519L145.515 75.0063Z" fill="#BEDEE5"/>
<path d="M149.53 69.2932L146.427 64.6859L144.967 67.5425L149.53 69.2932Z" fill="#7792A0"/>
<path d="M147.613 78.3236L149.53 69.2932L145.514 75.0063L147.613 78.3236Z" fill="#B2D1ED"/>
<path d="M156.01 75.6513L149.53 69.2932L147.614 78.3236L156.01 75.6513Z" fill="#B5E1F4"/>
<path d="M149.53 69.2932L147.522 63.2115L146.427 64.6859L149.53 69.2932Z" fill="#7792A0"/>
<path d="M149.53 69.2932L156.283 66.9896L147.522 63.2115L149.53 69.2932Z" fill="#B5E1F4"/>
<path d="M156.01 75.6513L156.283 66.9895L149.53 69.2932L156.01 75.6513Z" fill="#7792A0"/>
<path d="M157.744 75.0984L156.284 66.9895L156.01 75.6513L157.744 75.0984Z" fill="#9BBFCC"/>
<path d="M157.744 75.0984L161.212 74.1769L156.375 66.9895L157.744 75.0984Z" fill="#90B2BA"/>
<path d="M161.212 74.1769L162.398 65.5151L156.283 66.8973L161.212 74.1769Z" fill="#90B2BA"/>
<path d="M163.219 66.068L162.398 65.5151L161.212 74.1769L163.219 66.068Z" fill="#90B2BA"/>
<path d="M162.398 65.5152L160.573 64.2251L156.375 66.8973L162.398 65.5152Z" fill="#7792A0"/>
<path d="M160.299 76.112L161.212 74.1769L157.744 75.0983L160.299 76.112Z" fill="#8CA8BA"/>
<path d="M164.68 73.4398L163.219 66.0681L161.212 74.177L164.68 73.4398Z" fill="#B5E1F4"/>
<path d="M164.68 73.4397L161.212 74.1769L160.299 76.1119L164.68 73.4397Z" fill="#AFD2DB"/>
<path d="M162.033 79.245L164.68 73.5319L160.299 76.112L162.033 79.245Z" fill="#97AFB7"/>
<path d="M163.219 66.068L169.608 63.3958L162.398 65.6073L163.219 66.068Z" fill="#9BBFCC"/>
<path d="M169.334 78.5999L164.68 73.4397L162.033 79.1528L169.334 78.5999Z" fill="#7792A0"/>
<path d="M164.68 73.4397L172.072 68.0952L163.219 65.9758L164.68 73.4397Z" fill="#BEDEE5"/>
<path d="M171.615 72.0575L171.98 68.1874L164.679 73.4397L171.615 72.0575Z" fill="#BEDEE5"/>
<path d="M172.072 68.1874L169.608 63.3958L163.219 66.068L172.072 68.1874Z" fill="#7792A0"/>
<path d="M169.334 78.6L171.615 72.0576L164.679 73.4398L169.334 78.6Z" fill="#7792A0"/>
<path d="M172.163 71.7811L172.072 68.1874L171.615 72.0575L172.163 71.7811Z" fill="#97AFB7"/>
<path d="M170.064 79.1529L171.616 72.0576L169.334 78.6L170.064 79.1529Z" fill="#9BBFCC"/>
<path d="M172.163 71.7811L172.893 71.1361L172.072 68.1874L172.163 71.7811Z" fill="#AFD2DB"/>
<path d="M178.46 75.2827L171.615 72.0576L170.064 79.1529L178.46 75.2827Z" fill="#AFD2DB"/>
<path d="M172.072 68.1874V61L169.608 63.3958L172.072 68.1874Z" fill="#BEDEE5"/>
<path d="M177.182 63.1194L172.072 61L171.98 68.1874L177.182 63.1194Z" fill="#7AC2CE"/>
<path d="M178.46 75.2827L172.163 71.7811L171.615 72.0576L178.46 75.2827Z" fill="#CBEAF4"/>
<path d="M178.46 75.2827L172.893 71.1361L172.163 71.7811L178.46 75.2827Z" fill="#CBEAF4"/>
<path d="M178.46 75.2827L178.734 74.5455L172.893 71.1361L178.46 75.2827Z" fill="#C5DCED"/>
<path d="M172.893 71.1361L180.742 65.0544L172.072 68.1874L172.893 71.1361Z" fill="#90B2BA"/>
<path d="M180.742 65.0545L177.274 63.1194L172.163 68.0953L180.742 65.0545Z" fill="#B5E1F4"/>
<path d="M178.734 74.5455L180.742 65.0544L172.893 71.1361L178.734 74.5455Z" fill="#B5E1F4"/>
<path d="M184.392 68.9246L180.742 65.0544L178.734 74.5455L184.392 68.9246Z" fill="#9FB6BC"/>
<path d="M180.742 79.2451L182.202 79.4294L178.734 74.5457L180.742 79.2451Z" fill="#C5DCED"/>
<path d="M185.305 70.0303L184.392 68.9246L178.734 74.4534L185.305 70.0303Z" fill="#D2F2F7"/>
<path d="M180.742 79.2451L178.734 74.5457L178.46 75.2828L180.742 79.2451Z" fill="#C5DCED"/>
<path d="M182.111 79.4294L185.213 70.1226L178.643 74.5456L182.111 79.4294Z" fill="#B5E1F4"/>
<path d="M183.845 79.9822L185.305 70.0304L182.111 79.4293L183.845 79.9822Z" fill="#7792A0"/>
<path d="M184.392 68.9246L189.594 62.4744L180.742 65.0545L184.392 68.9246Z" fill="#BEDEE5"/>
<path d="M185.852 81.088L185.305 70.0304L183.845 79.9822L185.852 81.088Z" fill="#9BBFCC"/>
<path d="M185.852 81.088L194.431 74.177L185.305 70.0304L185.852 81.088Z" fill="#AFD2DB"/>
<path d="M190.963 67.5424L189.503 62.4744L184.301 68.9246L190.963 67.5424Z" fill="#B5E1F4"/>
<path d="M194.431 74.177L193.975 71.9655L185.214 70.0304L194.431 74.177Z" fill="#BEDEE5"/>
<path d="M185.305 70.0303L190.963 67.5424L184.392 68.9246L185.305 70.0303Z" fill="#B5E1F4"/>
<path d="M194.522 80.9036V74.1769L185.944 81.0879L194.522 80.9036Z" fill="#C5DCED"/>
<path d="M194.066 71.9654L190.963 67.5424L185.305 70.0303L194.066 71.9654Z" fill="#B5E1F4"/>
<path d="M190.963 67.5424L206.478 66.9895L189.503 62.4744L190.963 67.5424Z" fill="#97AFB7"/>
<path d="M206.478 66.9895L207.755 62.9351L189.503 62.4744L206.478 66.9895Z" fill="#AFD2DB"/>
<path d="M194.066 71.9654L205.2 69.9382L190.963 67.5424L194.066 71.9654Z" fill="#7792A0"/>
<path d="M205.2 69.9382L206.478 66.9895L190.963 67.5424L205.2 69.9382Z" fill="#AFD2DB"/>
<path d="M194.522 80.9036L203.101 79.89L194.431 74.1769L194.522 80.9036Z" fill="#97AFB7"/>
<path d="M194.431 74.177L205.2 70.0304L194.066 72.0576L194.431 74.177Z" fill="#97AFB7"/>
<path d="M203.101 79.7978L205.2 69.9381L194.431 74.0847L203.101 79.7978Z" fill="#9BBFCC"/>
<path d="M208.394 73.532L205.2 70.0304L203.101 79.8901L208.394 73.532Z" fill="#97AFB7"/>
<path d="M209.033 73.9926L208.394 73.4397L203.101 79.7978L209.033 73.9926Z" fill="#CBEAF4"/>
<path d="M210.037 75.1906L209.124 73.9927L203.101 79.7979L210.037 75.1906Z" fill="#97AFB7"/>
<path d="M210.037 75.1906L209.124 73.9927L210.037 75.1906Z" fill="#97AFB7"/>
<path d="M208.394 65.423L207.755 62.9351L206.478 66.9895L208.394 65.423Z" fill="#B5E1F4"/>
<path d="M208.394 73.5319L206.386 67.0817L205.109 70.0304L208.394 73.5319Z" fill="#BEDEE5"/>
<path d="M208.394 73.5319L214.417 67.3581L208.394 65.5151V73.5319Z" fill="#B2D1ED"/>
<path d="M208.394 73.5319V65.5151L206.478 67.0816L208.394 73.5319Z" fill="#90B2BA"/>
<path d="M209.033 73.9927L214.417 67.3582L208.394 73.532L209.033 73.9927Z" fill="#90B2BA"/>
<path d="M214.6 67.5424L214.417 67.3582L209.033 73.9927L214.6 67.5424Z" fill="#B5E1F4"/>
<path d="M208.394 65.423L214.965 63.1194L207.846 62.9351L208.394 65.423Z" fill="#B5E1F4"/>
<path d="M214.417 67.3581L214.874 63.1194L208.303 65.423L214.417 67.3581Z" fill="#BEDEE5"/>
<path d="M209.946 75.1905L214.6 67.5424L209.033 74.0848L209.946 75.1905Z" fill="#B5E1F4"/>
<path d="M211.68 76.5727L214.6 67.4502L209.946 75.0984L211.68 76.5727Z" fill="#7792A0"/>
<path d="M217.977 68.8324L214.6 67.5424L211.679 76.6649L217.977 68.8324Z" fill="#90B2BA"/>
<path d="M218.798 77.2179L217.977 68.8325L211.679 76.5728L218.798 77.2179Z" fill="#90B2BA"/>
<path d="M214.6 67.5424L214.874 63.1194L214.417 67.3581L214.6 67.5424Z" fill="#BEDEE5"/>
<path d="M217.977 68.8325L214.965 63.1194L214.691 67.5424L217.977 68.8325Z" fill="#9BBFCC"/>
<path d="M217.977 68.8325L221.262 64.5937L214.874 63.1194L217.977 68.8325Z" fill="#BEDEE5"/>
<path d="M221.262 64.5936L218.798 61.6449L214.874 63.0271L221.262 64.5936Z" fill="#B5E1F4"/>
<path d="M218.798 77.2179L222.722 71.7812L217.977 68.8325L218.798 77.2179Z" fill="#B5E1F4"/>
<path d="M223.909 65.8838L221.262 64.5938L217.977 68.8325L223.909 65.8838Z" fill="#B5E1F4"/>
<path d="M222.722 71.7812L223.909 65.8838L217.977 68.8325L222.722 71.7812Z" fill="#9BBFCC"/>
<path d="M224.821 80.6272L222.722 71.7811L218.798 77.2178L224.821 80.6272Z" fill="#BEDEE5"/>
<path d="M224.821 80.6273L227.194 71.5969L222.722 71.7812L224.821 80.6273Z" fill="#49738C"/>
<path d="M228.107 68.1875L223.909 65.8838L222.722 71.7812L228.107 68.1875Z" fill="#BEDEE5"/>
<path d="M227.194 71.5968L228.016 68.1874L222.631 71.7811L227.194 71.5968Z" fill="#BEDEE5"/>
<path d="M232.214 78.3236L227.194 71.5048L224.821 80.5351L232.214 78.3236Z" fill="#B5E1F4"/>
<path d="M228.107 68.1874L226.464 65.423L223.909 65.8837L228.107 68.1874Z" fill="#7792A0"/>
<path d="M232.214 78.3236L233.217 71.9655L227.285 71.5048L232.214 78.3236Z" fill="#BEDEE5"/>
<path d="M228.107 68.1874L240.153 66.1601L226.464 65.423L228.107 68.1874Z" fill="#AFC5DD"/>
<path d="M239.88 67.0816L240.245 66.1602L228.198 68.1874L239.88 67.0816Z" fill="#97AFB7"/>
<path d="M233.217 72.0575L228.107 68.1874L227.285 71.5968L233.217 72.0575Z" fill="#C5DCED"/>
<path d="M233.217 72.0576L239.88 67.0817L228.107 68.1874L233.217 72.0576Z" fill="#CBEAF4"/>
<path d="M238.967 76.9414L233.218 72.0576L232.214 78.4157L238.967 76.9414Z" fill="#9BBFCC"/>
<path d="M238.967 76.9413L239.788 67.0817L233.126 72.0576L238.967 76.9413Z" fill="#94B9D3"/>
<path d="M246.815 70.5832L239.879 67.0817L239.058 76.9413L246.815 70.5832Z" fill="#BEDEE5"/>
<path d="M246.816 70.5832L241.979 66.2523L239.88 67.0816L246.816 70.5832Z" fill="#9BBFCC"/>
<path d="M246.451 79.3372L246.816 70.5833L238.967 76.9414L246.451 79.3372Z" fill="#B5E1F4"/>
<path d="M241.979 66.2523L240.245 66.1602L239.88 67.0816L241.979 66.2523Z" fill="#B5E1F4"/>
<path d="M246.724 79.3371L246.815 70.6753L246.45 79.4292L246.724 79.3371Z" fill="#90B2BA"/>
<path d="M246.815 70.5833L251.47 62.4744L241.979 66.2524L246.815 70.5833Z" fill="#7792A0"/>
<path d="M248.823 71.2283L246.815 70.5833L246.724 79.245L248.823 71.2283Z" fill="#BEDEE5"/>
<path d="M248.823 79.2449L248.732 71.2281L246.633 79.2449H248.823Z" fill="#BEDEE5"/>
<path d="M248.823 71.2283L251.47 62.4744L246.815 70.5833L248.823 71.2283Z" fill="#9BBFCC"/>
<path d="M253.386 71.044L251.47 62.4744L248.823 71.2283L253.386 71.044Z" fill="#9BBFCC"/>
<path d="M248.823 79.245L253.386 71.0439L248.823 71.2282V79.245Z" fill="#BEDEE5"/>
<path d="M255.668 72.4261L253.386 71.0439L253.113 80.2586L255.668 72.4261Z" fill="#AFD2DB"/>
<path d="M253.113 80.2586L253.386 71.0439L248.823 79.245L253.113 80.2586Z" fill="#BEDEE5"/>
<path d="M253.386 71.044L262.147 64.4094L251.47 62.4744L253.386 71.044Z" fill="#7792A0"/>
<path d="M255.668 72.4262L262.147 64.4094L253.386 71.044L255.668 72.4262Z" fill="#9BBFCC"/>
<path d="M260.231 79.0608L255.668 72.4263L253.113 80.2587L260.231 79.0608Z" fill="#BEDEE5"/>
<path d="M260.231 79.0608L262.148 76.1121L255.668 72.4263L260.231 79.0608Z" fill="#B5E1F4"/>
<path d="M264.885 70.4911L262.148 64.4094L255.668 72.4262L264.885 70.4911Z" fill="#B5E1F4"/>
<path d="M262.148 76.1119L264.885 70.491L255.668 72.426L262.148 76.1119Z" fill="#B5E1F4"/>
<path d="M265.25 75.4669L264.885 70.491L262.147 76.1119L265.25 75.4669Z" fill="#7792A0"/>
<path d="M264.885 70.4912L266.984 64.686L262.147 64.5017L264.885 70.4912Z" fill="#AFD2DB"/>
<path d="M268.444 67.1739L266.984 64.6859L264.885 70.4911L268.444 67.1739Z" fill="#97AFB7"/>
<path d="M265.25 75.4669L274.65 72.3339L264.977 70.491L265.25 75.4669Z" fill="#97AFB7"/>
<path d="M274.559 72.334L268.444 67.1738L264.885 70.4911L274.559 72.334Z" fill="#9BBFCC"/>
<path d="M268.445 67.1739L268.171 65.4231L266.984 64.6859L268.445 67.1739Z" fill="#B5E1F4"/>
<path d="M270.087 79.6136L274.559 72.334L265.159 75.467L270.087 79.6136Z" fill="#AFD2DB"/>
<path d="M273.008 79.7979L274.559 72.334L270.087 79.6136L273.008 79.7979Z" fill="#C5DCED"/>
<path d="M275.381 73.1633L274.559 72.334L273.008 79.7979L275.381 73.1633Z" fill="#7792A0"/>
<path d="M274.559 72.334L275.746 70.9518L268.445 67.1738L274.559 72.334Z" fill="#AFD2DB"/>
<path d="M268.445 67.1738L275.746 70.9518L268.171 65.423L268.445 67.1738Z" fill="#97AFB7"/>
<path d="M275.746 70.9517L280.948 62.5664L268.171 65.3308L275.746 70.9517Z" fill="#C5DCED"/>
<path d="M280.491 78.6922L275.381 73.1635L272.917 79.798L280.491 78.6922Z" fill="#9BBFCC"/>
<path d="M280.491 78.6923L281.495 77.0336L275.381 73.1635L280.491 78.6923Z" fill="#B5E1F4"/>
<path d="M275.38 73.1632L276.749 71.9653L274.559 72.3339L275.38 73.1632Z" fill="#B5E1F4"/>
<path d="M276.749 71.9655L275.745 70.9519L274.559 72.3341L276.749 71.9655Z" fill="#9BBFCC"/>
<path d="M276.749 71.9654L280.948 62.5664L275.746 70.9517L276.749 71.9654Z" fill="#CBEAF4"/>
<path d="M281.495 77.0334L276.75 71.9653L275.381 73.1632L281.495 77.0334Z" fill="#B5E1F4"/>
<path d="M285.419 66.8052L280.948 62.6586L276.75 72.0575L285.419 66.8052Z" fill="#AFD2DB"/>
<path d="M283.777 74.2692L285.419 66.8053L276.75 71.9655L283.777 74.2692Z" fill="#97AFB7"/>
<path d="M281.495 77.0334L283.777 74.269L276.75 71.9653L281.495 77.0334Z" fill="#9BBFCC"/>
<path d="M283.503 75.5591L283.777 74.269L281.495 77.0334L283.503 75.5591Z" fill="#9BBFCC"/>
<path d="M286.241 74.5456L285.419 66.8053L283.777 74.2692L286.241 74.5456Z" fill="#AFD2DB"/>
<path d="M287.518 83.2074L286.241 74.5457L283.503 75.6514L287.518 83.2074Z" fill="#D2F2F7"/>
<path d="M287.518 83.2074L290.165 75.9279L286.149 74.5457L287.518 83.2074Z" fill="#BEDEE5"/>
<path d="M286.241 74.5455L283.777 74.3612L283.503 75.6513L286.241 74.5455Z" fill="#BEDEE5"/>
<path d="M295.549 66.068L294.546 62.7507L285.328 66.8052L295.549 66.068Z" fill="#B5E1F4"/>
<path d="M295.184 67.8189L295.55 66.0681L285.419 66.8053L295.184 67.8189Z" fill="#7792A0"/>
<path d="M286.241 74.5456L290.256 75.9278L285.511 66.8053L286.241 74.5456Z" fill="#7792A0"/>
<path d="M290.256 75.9278L295.184 67.8189L285.419 66.8053L290.256 75.9278Z" fill="#9BBFCC"/>
<path d="M291.899 75.8356L295.184 67.8188L290.256 75.9277L291.899 75.8356Z" fill="#B5E1F4"/>
<path d="M299.565 73.6241L295.184 67.8188L291.899 75.8356L299.565 73.6241Z" fill="#B5E1F4"/>
<path d="M300.843 76.9414L299.565 73.6241L291.808 75.8357L300.843 76.9414Z" fill="#9BBFCC"/>
<path d="M300.569 73.6241L295.549 66.0681L295.184 67.8189L300.569 73.6241Z" fill="#90B2BA"/>
<path d="M299.565 73.6241H300.569L295.093 67.8188L299.565 73.6241Z" fill="#90B2BA"/>
<path d="M300.569 73.6242L305.223 64.5017L295.55 66.0682L300.569 73.6242Z" fill="#90B2BA"/>
<path d="M305.223 64.5016L302.485 61.3687L295.55 66.0681L305.223 64.5016Z" fill="#B5E1F4"/>
<path d="M309.239 69.5698L305.223 64.5017L300.569 73.6242L309.239 69.5698Z" fill="#D2F2F7"/>
<path d="M301.755 74.7299L300.569 73.6241H299.565L301.755 74.7299Z" fill="#B5E1F4"/>
<path d="M300.843 76.9414L301.755 74.7299L299.565 73.6241L300.843 76.9414Z" fill="#7792A0"/>
<path d="M301.755 74.7298L309.147 69.5696L300.569 73.624L301.755 74.7298Z" fill="#90B2BA"/>
<path d="M309.239 73.0713V69.4775L301.846 74.6377L309.239 73.0713Z" fill="#B5E1F4"/>
<path d="M306.136 85.9717L310.425 74.4534L300.751 76.9413L306.136 85.9717Z" fill="#D2F2F7"/>
<path d="M310.517 74.4534L301.755 74.7298L300.843 76.9413L310.517 74.4534Z" fill="#D2F2F7"/>
<path d="M310.517 74.4534L309.239 73.0712L301.755 74.6377L310.517 74.4534Z" fill="#C6EBF4"/>
<path d="M309.512 86.2481L310.516 74.4534L306.136 85.9717L309.512 86.2481Z" fill="#7894A0"/>
<path d="M311.52 85.6952L310.517 74.4534L309.513 86.2481L311.52 85.6952Z" fill="#D2F2F7"/>
<path d="M309.239 69.5698L309.33 69.4776L305.223 64.5017L309.239 69.5698Z" fill="#D2F2F7"/>
<path d="M317.909 88.1831C317.909 88.736 317.544 89.1967 317.087 89.381L305.406 92.8826C305.406 92.8826 305.315 93.2512 305.223 93.7119C304.95 94.7255 304.584 96.3842 304.219 97.6742C304.128 98.0428 304.037 98.5035 303.946 98.6878C303.489 100.807 302.212 102.097 301.117 102.189C299.383 102.282 297.375 102.189 297.375 102.189C297.375 102.189 292.812 126.148 291.899 142.826C291.717 146.604 287.518 149 281.86 149C251.105 149 196.895 149 166.14 149C160.482 149 156.283 146.604 156.101 142.826C155.188 126.148 150.625 102.189 150.625 102.189C150.625 102.189 148.617 102.282 146.883 102.189C145.788 102.097 144.419 100.715 144.054 98.6878C143.963 98.4114 143.963 98.0428 143.781 97.6742C143.507 96.4763 143.05 94.7255 142.777 93.7119C142.685 93.159 142.594 92.8826 142.594 92.8826L130.913 89.381C130.365 89.1967 130 88.6439 130 88.091C130.091 86.1559 130.274 81.7329 130.274 78.2313C130.274 73.5318 135.111 73.2554 135.111 73.2554H312.889C312.889 73.2554 317.726 73.5318 317.726 78.2313C317.635 81.7329 317.817 86.248 317.909 88.1831Z" fill="#54BCE3"/>
<path opacity="0.2" d="M142.503 92.7905H153.546L160.117 141.905C160.117 141.905 159.386 150.014 175.357 148.908H166.14C166.14 148.908 156.466 149.092 156.101 142.734C155.645 135.639 154.732 125.503 150.625 102.189C150.625 102.189 148.8 102.282 146.884 102.189C145.515 102.097 144.419 100.531 143.963 98.6879C143.142 95.3706 142.503 92.7905 142.503 92.7905Z" fill="#190A0B"/>
<path opacity="0.2" d="M135.019 73.1633L133.377 81.1801C132.555 85.2345 134.289 89.5654 138.031 91.4084C138.396 91.5926 138.67 91.6848 139.035 91.7769L130.821 89.3811C130.821 89.3811 129.817 89.1968 129.909 88.0911C130 86.9853 130.182 77.4942 130.182 77.4942C130.182 77.4942 130.274 73.8084 135.019 73.1633Z" fill="#190A0B"/>
<path opacity="0.2" d="M305.132 92.7905H290.165L283.685 141.905C283.685 141.905 283.047 147.894 272.369 148.908H281.586C281.586 148.908 291.26 149.092 291.625 142.734C292.082 135.639 292.994 125.503 297.101 102.189C297.101 102.189 298.926 102.282 300.843 102.189C302.212 102.097 303.307 100.531 303.763 98.6879C304.493 95.3706 305.132 92.7905 305.132 92.7905Z" fill="#190A0B"/>
<path d="M142.777 92.3298H305.223L305.085 93.2513H142.984L142.777 92.3298Z" fill="#3185A6"/>
<path opacity="0.2" d="M312.616 73.1633V86.5246C312.616 86.5246 311.977 90.7633 308.509 91.7769L316.722 89.3811C316.722 89.3811 317.726 89.1968 317.635 88.0911C317.544 86.9853 317.361 77.4942 317.361 77.4942C317.361 77.4942 317.361 73.8084 312.616 73.1633Z" fill="#190A0B"/>
<path d="M304.949 93.0833C304.858 94.189 303.854 95.7555 303.672 97.0456H143.689C143.415 95.8476 142.959 94.0969 142.685 93.0833H304.949Z" fill="#4898B8"/>
<path opacity="0.2" d="M166.819 149H182.932L177.714 96.7499H153.728L159.77 142.704C160.228 146.275 163.249 149 166.819 149Z" fill="#328EB0"/>
<path opacity="0.2" d="M152.085 92.7906H177.913L176.817 73.1633H150.99L152.085 92.7906Z" fill="#328EB0"/>
</g>
<defs>
<clipPath id="clip0">
<rect width="188" height="88" fill="white" transform="translate(130 61)"/>
</clipPath>
</defs>
</svg>
