<svg width="368" height="210" viewBox="0 0 368 210" fill="none" xmlns="http://www.w3.org/2000/svg">
<rect width="368" height="210" fill="#0063C3"/>
<g clip-path="url(#clip0)">
<rect width="210" height="210" transform="translate(84)" fill="#0063C3"/>
<path d="M150.318 151.126C155.953 159.046 171.201 172.708 187.113 163.996C207.001 153.106 162.251 134.296 182.14 120.436C202.029 106.577 222.913 122.416 215.951 141.226C208.99 160.036 190.096 143.206 201.035 129.346C211.974 115.486 215.951 114.496 231.863 120.436C247.774 126.376 249.763 145.186 237.829 151.126C225.896 157.066 234.38 167.956 212.968 163.996C191.556 160.036 182.14 145.186 168.218 145.186C154.296 145.186 130.429 152.116 133.412 134.296C136.396 116.476 158.274 146.176 160.262 124.396C162.251 102.617 128.44 127.366 124.462 110.537C120.485 93.7067 125.457 79.8469 129.435 75.887C133.412 71.927 152.307 76.6156 144.351 96.6767C136.396 116.738 158.274 140.236 165.235 132.316C172.196 124.396 166.229 92.7167 182.14 96.6767C198.051 100.637 194.074 138.256 220.924 129.346C247.774 120.436 244.79 148.156 262.69 134.296C280.59 120.436 284.568 115.486 280.59 103.607C276.613 91.7268 271.64 122.416 258.713 116.476C245.785 110.537 231.863 111.527 233.851 100.637C235.84 89.7468 264.679 90.7368 262.69 75.887C260.702 61.0371 232.857 53.1172 229.874 65.9871C226.89 78.8569 266.668 82.8169 255.729 96.6767C244.79 110.537 230.868 117.466 215.951 110.537C201.035 103.607 197.057 94.6967 199.046 89.7467C201.035 84.7968 211.974 66.9771 220.924 75.887C229.874 84.7968 225.896 92.7167 220.924 96.6767C215.951 100.637 182.14 95.6867 182.14 77.8669C182.14 60.0471 176.174 47.1773 168.218 47.1773C160.262 47.1773 141.368 73.6828 158.274 85.7868C175.179 97.8908 197.057 74.8969 199.046 62.0271C201.035 49.1572 185.052 64.997 170.207 62.0271C155.361 59.0571 150.318 48.1673 154.296 40.2474C158.274 32.3275 177.168 22.4276 182.14 27.3775C187.113 32.3275 189.101 46.1872 201.035 43.2173C212.968 40.2474 242.802 32.3274 231.863 23.4175C220.924 14.5076 219.929 19.4576 212.968 16.4876C206.007 13.5177 195.068 50.1471 209.985 56.0871C224.901 62.0271 234.999 73.9069 242.802 67.967C250.604 62.0271 262.69 53.1171 255.729 43.2173C248.768 33.3174 225.896 28.3675 220.924 30.3475C215.951 32.3275 215.951 51.1373 235.84 47.1773C251.752 44.0093 255.729 32.6574 255.729 27.3775" stroke="#003E6B" stroke-width="3" stroke-linecap="round"/>
<path d="M199.66 61.7453C198.874 66.7724 195.083 73.31 189.723 78.781" stroke="#ED3431" stroke-width="3" stroke-linecap="round"/>
<path d="M279.162 75.9417C278.488 80.9688 275.239 87.5064 270.645 92.9774" stroke="#ED3431" stroke-width="3" stroke-linecap="round"/>
<path d="M232.313 135.567C231.526 140.594 227.735 147.131 222.375 152.602" stroke="#ED3431" stroke-width="3" stroke-linecap="round"/>
<path d="M256.445 151.183C255.659 156.21 251.868 162.748 246.508 168.219" stroke="#ED3431" stroke-width="3" stroke-linecap="round"/>
<path d="M215.882 171.446C211.222 173.247 203.83 173.27 196.591 171.457" stroke="#ED3431" stroke-width="3" stroke-linecap="round"/>
<path d="M134.66 103.53C132.849 98.874 132.809 91.4818 134.606 84.2389" stroke="#ED3431" stroke-width="3" stroke-linecap="round"/>
<path d="M137.335 61.0915C135.524 56.4352 135.484 49.043 137.282 41.8001" stroke="#ED3431" stroke-width="3" stroke-linecap="round"/>
<path d="M268.601 65.0693C266.79 60.413 266.75 53.0208 268.547 45.7779" stroke="#ED3431" stroke-width="3" stroke-linecap="round"/>
<path d="M193.023 25.2915C191.212 20.6352 191.172 13.243 192.969 6.00003" stroke="#ED3431" stroke-width="3" stroke-linecap="round"/>
<path d="M161.199 106.836C159.388 102.18 159.348 94.7875 161.145 87.5445" stroke="#ED3431" stroke-width="3" stroke-linecap="round"/>
<path d="M103.853 178H105.473V165.76H103.853V178ZM111.637 178.216C114.085 178.216 115.345 177.244 115.345 175.372C115.345 173.608 114.409 172.816 111.925 172.546C110.215 172.366 109.585 172.024 109.585 171.178C109.585 170.332 110.305 169.846 111.601 169.846C112.933 169.846 113.599 170.368 113.599 171.358H115.147C115.147 169.486 113.923 168.496 111.619 168.496C109.315 168.496 108.037 169.504 108.037 171.304C108.037 172.96 108.937 173.68 111.367 173.968C113.167 174.184 113.797 174.58 113.797 175.498C113.797 176.38 113.077 176.866 111.637 176.866C110.089 176.866 109.333 176.326 109.333 175.264H107.821C107.821 177.226 109.081 178.216 111.637 178.216ZM121.159 178.216C123.787 178.216 125.173 176.812 125.173 174.112V172.6C125.173 169.9 123.787 168.496 121.159 168.496C118.531 168.496 117.145 169.9 117.145 172.6V174.112C117.145 176.812 118.531 178.216 121.159 178.216ZM121.159 176.83C119.521 176.83 118.729 175.93 118.729 174.058V172.636C118.729 170.764 119.521 169.882 121.159 169.882C122.797 169.882 123.589 170.764 123.589 172.636V174.058C123.589 175.93 122.797 176.83 121.159 176.83ZM127.686 178H129.27V164.86H127.686V178ZM134.65 178.216C136 178.216 137.044 177.694 137.8 176.74L137.854 178H139.204V171.934C139.204 169.63 138.016 168.496 135.568 168.496C133.246 168.496 131.986 169.522 131.824 171.538H133.372C133.426 170.404 134.2 169.864 135.514 169.864C136.954 169.864 137.62 170.53 137.62 171.97V172.474H135.388C132.778 172.474 131.554 173.518 131.554 175.372C131.554 177.19 132.742 178.216 134.65 178.216ZM134.884 176.848C133.714 176.848 133.138 176.308 133.138 175.336C133.138 174.292 133.822 173.788 135.442 173.788H137.62V175.102C137.062 176.236 136.126 176.848 134.884 176.848ZM144.751 178H146.191V176.632H145.129C144.067 176.632 143.797 176.326 143.797 175.12V170.008H146.083V168.712H143.797V166.264H142.375L142.249 168.712H140.611V170.008H142.213V175.102C142.213 177.136 142.969 178 144.751 178ZM151.605 178.216C153.837 178.216 155.223 177.208 155.349 175.228H153.819C153.711 176.236 152.973 176.848 151.569 176.848C149.913 176.848 149.157 176.02 149.157 174.202V173.788H155.421V172.438C155.421 169.882 154.035 168.496 151.497 168.496C148.959 168.496 147.573 169.882 147.573 172.438V174.274C147.573 176.83 148.995 178.216 151.605 178.216ZM149.157 172.474C149.157 170.692 149.895 169.864 151.533 169.864C153.153 169.864 153.891 170.692 153.891 172.474H149.157ZM160.872 178.216C162.222 178.216 163.212 177.694 164.004 176.524L164.058 178H165.408V164.86H163.824V169.936C163.068 168.946 162.114 168.496 160.872 168.496C158.712 168.496 157.452 169.828 157.452 172.366V174.346C157.452 176.884 158.712 178.216 160.872 178.216ZM161.07 176.83C159.792 176.83 159.036 175.948 159.036 174.292V172.42C159.036 170.764 159.792 169.882 161.07 169.882C162.258 169.882 163.212 170.656 163.824 171.988V174.724C163.212 176.056 162.258 176.83 161.07 176.83ZM119.33 199.492C121.976 199.492 123.29 198.268 123.29 195.802V186.712H121.94L121.868 188.152C121.094 187.018 120.104 186.496 118.772 186.496C116.612 186.496 115.352 187.828 115.352 190.366V191.824C115.352 194.362 116.612 195.694 118.772 195.694C120.014 195.694 120.95 195.244 121.706 194.272V195.802C121.706 197.422 120.95 198.124 119.294 198.124C117.998 198.124 117.116 197.692 117.026 196.612H115.55C115.676 198.52 116.972 199.492 119.33 199.492ZM118.97 194.308C117.692 194.308 116.936 193.426 116.936 191.77V190.42C116.936 188.764 117.692 187.882 118.97 187.882C120.14 187.882 121.094 188.638 121.706 189.952V192.238C121.094 193.552 120.14 194.308 118.97 194.308ZM129.843 196.216C132.075 196.216 133.461 195.208 133.587 193.228H132.057C131.949 194.236 131.211 194.848 129.807 194.848C128.151 194.848 127.395 194.02 127.395 192.202V191.788H133.659V190.438C133.659 187.882 132.273 186.496 129.735 186.496C127.197 186.496 125.811 187.882 125.811 190.438V192.274C125.811 194.83 127.233 196.216 129.843 196.216ZM127.395 190.474C127.395 188.692 128.133 187.864 129.771 187.864C131.391 187.864 132.129 188.692 132.129 190.474H127.395ZM136.141 196H137.725V189.97C138.391 188.602 139.237 187.954 140.335 187.954C141.433 187.954 141.973 188.584 141.973 190.042V196H143.557V189.898C143.557 187.666 142.585 186.496 140.641 186.496C139.345 186.496 138.355 187.018 137.545 188.17L137.491 186.712H136.141V196ZM149.97 196.216C152.202 196.216 153.588 195.208 153.714 193.228H152.184C152.076 194.236 151.338 194.848 149.934 194.848C148.278 194.848 147.522 194.02 147.522 192.202V191.788H153.786V190.438C153.786 187.882 152.4 186.496 149.862 186.496C147.324 186.496 145.938 187.882 145.938 190.438V192.274C145.938 194.83 147.36 196.216 149.97 196.216ZM147.522 190.474C147.522 188.692 148.26 187.864 149.898 187.864C151.518 187.864 152.256 188.692 152.256 190.474H147.522Z" fill="white"/>
<path d="M135.707 108.293C135.317 107.902 134.683 107.902 134.293 108.293L127.929 114.657C127.538 115.047 127.538 115.681 127.929 116.071C128.319 116.462 128.953 116.462 129.343 116.071L135 110.414L140.657 116.071C141.047 116.462 141.681 116.462 142.071 116.071C142.462 115.681 142.462 115.047 142.071 114.657L135.707 108.293ZM136 160V109H134V160H136Z" fill="white"/>
</g>
<defs>
<clipPath id="clip0">
<rect width="210" height="210" fill="white" transform="translate(84)"/>
</clipPath>
</defs>
</svg>
