<svg width="448" height="210" viewBox="0 0 448 210" fill="none" xmlns="http://www.w3.org/2000/svg">
<rect width="448" height="210" fill="#0063C3"/>
<rect width="210" height="210" transform="translate(119)" fill="#0063C3"/>
<rect x="202" y="22" width="44" height="9" fill="#668BA6" stroke="#003E6B" stroke-width="2"/>
<mask id="path-3-outside-1" maskUnits="userSpaceOnUse" x="180" y="15" width="88" height="170" fill="black">
<rect fill="white" x="180" y="15" width="88" height="170"/>
<path fill-rule="evenodd" clip-rule="evenodd" d="M182 20C182 18.3431 183.343 17 185 17H257C261.971 17 266 21.0294 266 26C266 30.9706 261.971 35 257 35H249V109C249 118.635 242.351 146.171 237.789 165.065C237.142 167.742 236.538 170.246 236 172.5H235.907C235.169 178.419 230.119 183 224 183C217.881 183 212.831 178.419 212.093 172.5H212C207.667 155.833 199 119.8 199 109V35H194C192.343 35 191 33.6569 191 32C191 30.3431 192.343 29 194 29H199H249H257C258.657 29 260 27.6569 260 26C260 24.3431 258.657 23 257 23H185C183.343 23 182 21.6569 182 20Z"/>
</mask>
<path fill-rule="evenodd" clip-rule="evenodd" d="M182 20C182 18.3431 183.343 17 185 17H257C261.971 17 266 21.0294 266 26C266 30.9706 261.971 35 257 35H249V109C249 118.635 242.351 146.171 237.789 165.065C237.142 167.742 236.538 170.246 236 172.5H235.907C235.169 178.419 230.119 183 224 183C217.881 183 212.831 178.419 212.093 172.5H212C207.667 155.833 199 119.8 199 109V35H194C192.343 35 191 33.6569 191 32C191 30.3431 192.343 29 194 29H199H249H257C258.657 29 260 27.6569 260 26C260 24.3431 258.657 23 257 23H185C183.343 23 182 21.6569 182 20Z" fill="#CCD8E1"/>
<path d="M249 35V33H247V35H249ZM237.789 165.065L235.844 164.596L235.844 164.596L237.789 165.065ZM236 172.5V174.5H237.579L237.945 172.964L236 172.5ZM235.907 172.5V170.5H234.141L233.923 172.252L235.907 172.5ZM212.093 172.5L214.077 172.252L213.859 170.5H212.093V172.5ZM212 172.5L210.064 173.003L210.454 174.5H212V172.5ZM199 35H201V33H199V35ZM185 15C182.239 15 180 17.2386 180 20H184C184 19.4477 184.448 19 185 19V15ZM257 15H185V19H257V15ZM257 19C260.866 19 264 22.134 264 26H268C268 19.9249 263.075 15 257 15V19ZM264 26C264 29.866 260.866 33 257 33V37C263.075 37 268 32.0751 268 26H264ZM257 33H249V37H257V33ZM247 35V109H251V35H247ZM247 109C247 113.565 245.393 122.638 243.149 133.143C240.923 143.563 238.127 155.144 235.844 164.596L239.733 165.535C242.013 156.093 244.822 144.459 247.061 133.978C249.282 123.582 251 114.07 251 109H247ZM235.844 164.596C235.198 167.272 234.593 169.778 234.055 172.036L237.945 172.964C238.482 170.713 239.086 168.212 239.733 165.535L235.844 164.596ZM236 170.5H235.907V174.5H236V170.5ZM233.923 172.252C233.308 177.183 229.098 181 224 181V185C231.141 185 237.03 179.656 237.892 172.747L233.923 172.252ZM224 181C218.902 181 214.692 177.183 214.077 172.252L210.108 172.747C210.97 179.656 216.859 185 224 185V181ZM212.093 170.5H212V174.5H212.093V170.5ZM213.936 171.997C211.774 163.682 208.531 150.534 205.829 138.125C203.106 125.614 201 114.139 201 109H197C197 114.661 199.227 126.603 201.921 138.975C204.636 151.449 207.893 164.651 210.064 173.003L213.936 171.997ZM201 109V35H197V109H201ZM199 33H194V37H199V33ZM194 33C193.448 33 193 32.5523 193 32H189C189 34.7614 191.239 37 194 37V33ZM193 32C193 31.4477 193.448 31 194 31V27C191.239 27 189 29.2386 189 32H193ZM194 31H199V27H194V31ZM199 31H249V27H199V31ZM249 31H257V27H249V31ZM257 31C259.761 31 262 28.7614 262 26H258C258 26.5523 257.552 27 257 27V31ZM262 26C262 23.2386 259.761 21 257 21V25C257.552 25 258 25.4477 258 26H262ZM185 25H257V21H185V25ZM180 20C180 22.7614 182.239 25 185 25V21C184.448 21 184 20.5523 184 20H180Z" fill="#003E6B" mask="url(#path-3-outside-1)"/>
<mask id="path-5-outside-2" maskUnits="userSpaceOnUse" x="197" y="52" width="54" height="133" fill="black">
<rect fill="white" x="197" y="52" width="54" height="133"/>
<path fill-rule="evenodd" clip-rule="evenodd" d="M249 54V109C249 118.635 242.351 146.171 237.789 165.065L237.789 165.065C237.142 167.742 236.538 170.246 236 172.5H235.907C235.169 178.419 230.119 183 224 183C217.881 183 212.831 178.419 212.093 172.5H212C207.667 155.833 199 119.8 199 109V54H249Z"/>
</mask>
<path fill-rule="evenodd" clip-rule="evenodd" d="M249 54V109C249 118.635 242.351 146.171 237.789 165.065L237.789 165.065C237.142 167.742 236.538 170.246 236 172.5H235.907C235.169 178.419 230.119 183 224 183C217.881 183 212.831 178.419 212.093 172.5H212C207.667 155.833 199 119.8 199 109V54H249Z" fill="#00AEEF"/>
<path d="M249 54H251V52H249V54ZM237.789 165.065L235.844 164.596L235.828 164.666L235.816 164.737L237.789 165.065ZM237.789 165.065L239.733 165.535L239.75 165.465L239.761 165.394L237.789 165.065ZM236 172.5V174.5H237.579L237.945 172.964L236 172.5ZM235.907 172.5V170.5H234.141L233.923 172.252L235.907 172.5ZM212.093 172.5L214.077 172.252L213.859 170.5H212.093V172.5ZM212 172.5L210.064 173.003L210.454 174.5H212V172.5ZM199 54V52H197V54H199ZM247 54V109H251V54H247ZM247 109C247 113.565 245.393 122.638 243.149 133.143C240.923 143.562 238.127 155.144 235.844 164.596L239.733 165.535C242.013 156.093 244.822 144.459 247.061 133.978C249.282 123.582 251 114.07 251 109H247ZM235.816 164.737L235.816 164.737L239.761 165.394L239.761 165.394L235.816 164.737ZM235.844 164.596C235.198 167.272 234.593 169.778 234.055 172.036L237.945 172.964C238.482 170.713 239.086 168.212 239.733 165.535L235.844 164.596ZM236 170.5H235.907V174.5H236V170.5ZM233.923 172.252C233.308 177.183 229.098 181 224 181V185C231.141 185 237.03 179.656 237.892 172.747L233.923 172.252ZM224 181C218.902 181 214.692 177.183 214.077 172.252L210.108 172.747C210.97 179.656 216.859 185 224 185V181ZM212.093 170.5H212V174.5H212.093V170.5ZM213.936 171.997C211.774 163.682 208.531 150.534 205.829 138.125C203.106 125.614 201 114.139 201 109H197C197 114.661 199.227 126.603 201.921 138.975C204.636 151.449 207.893 164.651 210.064 173.003L213.936 171.997ZM201 109V54H197V109H201ZM199 56H249V52H199V56Z" fill="#003E6B" mask="url(#path-5-outside-2)"/>
<rect x="198" y="35" width="28" height="2" rx="1" fill="#003E6B"/>
<rect x="228" y="35" width="10" height="2" rx="1" fill="#003E6B"/>
<rect x="240" y="35" width="10" height="2" rx="1" fill="#003E6B"/>
<rect x="259" y="25" width="3" height="2" rx="1" fill="#003E6B"/>
<rect x="258.414" y="27" width="3" height="2" rx="1" transform="rotate(45 258.414 27)" fill="#003E6B"/>
<rect x="257" y="24.1213" width="3" height="2" rx="1" transform="rotate(-45 257 24.1213)" fill="#003E6B"/>
<rect x="243" y="54" width="6" height="56" fill="#008BBF"/>
<rect x="201" y="56" width="6" height="56" rx="3" fill="#66CEF5"/>
<rect x="243" y="37" width="6" height="15" fill="#99B2C4"/>
<rect x="199" y="37" width="48" height="4" fill="#99B2C4"/>
<rect x="185" y="21" width="73" height="2" rx="1" fill="#99B2C4"/>
<path d="M230.5 170C232.5 161 243 120.8 243 110C244.5 102.5 249 100.2 249 109.2C249 120.2 240.334 154.534 236 172.7L230.5 170Z" fill="#008BBF"/>
<path d="M233.5 170C232.5 176.5 229.194 180 224.5 180" stroke="#008BBF" stroke-width="6" stroke-linecap="round"/>
<circle cx="250.5" cy="150.5" r="22.5" fill="white"/>
<path d="M240 153C238.895 153 238 152.105 238 151L238 149C238 147.895 238.895 147 240 147L262 147C263.105 147 264 147.895 264 149L264 151C264 152.105 263.105 153 262 153L240 153Z" fill="#003E6B"/>
</svg>
