<svg width="448" height="242" viewBox="0 0 448 242" fill="none" xmlns="http://www.w3.org/2000/svg">
<rect y="32" width="448" height="210" fill="#0063C3"/>
<rect width="210" height="210" transform="translate(119 32)" fill="#0063C3"/>
<g clip-path="url(#clip0)">
<g opacity="0.5">
<g clip-path="url(#clip1)">
<g clip-path="url(#clip2)">
<path opacity="0.8" d="M188.976 108.12L201.158 108.188L201.145 110.655L188.963 110.587L188.976 108.12Z" fill="#C6EDFC"/>
<mask id="mask0" mask-type="alpha" maskUnits="userSpaceOnUse" x="189" y="108" width="12" height="80">
<path opacity="0.8" fill-rule="evenodd" clip-rule="evenodd" d="M189.585 108.123L200.549 108.184L199.827 129.155L199.158 129.152L198.549 140.253L197.893 140.249L195.859 187.129L193.423 187.111L191.895 140.216L191.239 140.212L190.751 129.105L190.081 129.101L189.585 108.123Z" fill="#C6EDFC"/>
</mask>
<g mask="url(#mask0)">
<path opacity="0.7" d="M188.976 108.153L201.159 108.153L200.482 129.128L189.654 129.128L188.976 108.153Z" fill="#C6EDFC"/>
<path opacity="0.7" d="M188.977 127.894L201.159 127.894L200.83 140.232L189.306 140.232L188.977 127.894Z" fill="#C6EDFC"/>
<path opacity="0.7" d="M191.413 138.998L198.723 138.998L196.287 187.117L193.851 187.117L191.413 138.998Z" fill="#C6EDFC"/>
<path opacity="0.7" d="M194.032 187.115L192.022 109.387L189.585 109.387L188.55 187.094L194.032 187.115Z" fill="#C6EDFC"/>
<path opacity="0.7" d="M195.25 187.115L198.113 109.387L200.549 109.387L200.732 187.146L195.25 187.115Z" fill="#C6EDFC"/>
<path opacity="0.2" fill-rule="evenodd" clip-rule="evenodd" d="M201.145 110.655L188.963 110.588L188.97 111.854L201.138 111.888L201.145 110.655ZM189.162 129.129L199.941 129.128L199.904 130.361L188.977 130.362L189.162 129.129ZM191.535 140.233L198.601 140.232L198.577 141.466L191.413 141.466L191.535 140.233Z" fill="#333333"/>
</g>
</g>
</g>
<g clip-path="url(#clip3)">
<g clip-path="url(#clip4)">
<path opacity="0.8" d="M239.631 108.121L251.813 108.189L251.8 110.656L239.618 110.588L239.631 108.121Z" fill="#C6EDFC"/>
<mask id="mask1" mask-type="alpha" maskUnits="userSpaceOnUse" x="240" y="108" width="12" height="80">
<path opacity="0.8" fill-rule="evenodd" clip-rule="evenodd" d="M240.24 108.124L251.205 108.185L250.482 129.156L249.813 129.153L249.204 140.254L248.548 140.25L246.514 187.13L244.078 187.112L242.551 140.217L241.895 140.213L241.406 129.106L240.736 129.102L240.24 108.124Z" fill="#C6EDFC"/>
</mask>
<g mask="url(#mask1)">
<path opacity="0.7" d="M239.632 108.154L251.814 108.154L251.138 129.129L240.309 129.129L239.632 108.154Z" fill="#C6EDFC"/>
<path opacity="0.7" d="M239.632 127.895L251.814 127.895L251.485 140.233L239.961 140.233L239.632 127.895Z" fill="#C6EDFC"/>
<path opacity="0.7" d="M242.069 138.999L249.378 138.999L246.942 187.118L244.506 187.118L242.069 138.999Z" fill="#C6EDFC"/>
<path opacity="0.7" d="M244.687 187.116L242.677 109.388L240.241 109.388L239.205 187.095L244.687 187.116Z" fill="#C6EDFC"/>
<path opacity="0.7" d="M245.905 187.116L248.768 109.388L251.205 109.388L251.387 187.146L245.905 187.116Z" fill="#C6EDFC"/>
<path opacity="0.2" fill-rule="evenodd" clip-rule="evenodd" d="M251.801 110.656L239.618 110.589L239.625 111.855L251.794 111.889L251.801 110.656ZM239.818 129.13L250.596 129.129L250.559 130.362L239.632 130.363L239.818 129.13ZM242.19 140.234L249.256 140.233L249.232 141.467L242.069 141.467L242.19 140.234Z" fill="#333333"/>
</g>
</g>
</g>
<g clip-path="url(#clip5)">
<g clip-path="url(#clip6)">
<path opacity="0.8" d="M215.532 108.12L227.714 108.188L227.701 110.656L215.519 110.588L215.532 108.12Z" fill="#C6EDFC"/>
<mask id="mask2" mask-type="alpha" maskUnits="userSpaceOnUse" x="216" y="108" width="12" height="80">
<path opacity="0.8" fill-rule="evenodd" clip-rule="evenodd" d="M216.142 108.124L227.106 108.185L226.383 129.156L225.714 129.152L225.105 140.253L224.449 140.25L222.416 187.129L219.979 187.112L218.452 140.216L217.796 140.213L217.308 129.106L216.637 129.102L216.142 108.124Z" fill="#C6EDFC"/>
</mask>
<g mask="url(#mask2)">
<path opacity="0.7" d="M215.533 108.154L227.715 108.154L227.039 129.129L216.21 129.128L215.533 108.154Z" fill="#C6EDFC"/>
<path opacity="0.7" d="M215.533 127.895L227.715 127.895L227.386 140.233L215.862 140.233L215.533 127.895Z" fill="#C6EDFC"/>
<path opacity="0.7" d="M217.97 138.999L225.279 138.999L222.844 187.118L220.407 187.118L217.97 138.999Z" fill="#C6EDFC"/>
<path opacity="0.7" d="M220.588 187.116L218.578 109.388L216.142 109.387L215.106 187.095L220.588 187.116Z" fill="#C6EDFC"/>
<path opacity="0.7" d="M221.806 187.116L224.669 109.388L227.106 109.388L227.288 187.146L221.806 187.116Z" fill="#C6EDFC"/>
<path opacity="0.2" fill-rule="evenodd" clip-rule="evenodd" d="M227.702 110.656L215.519 110.589L215.526 111.855L227.695 111.889L227.702 110.656ZM215.719 129.129L226.497 129.129L226.46 130.362L215.533 130.362L215.719 129.129ZM218.092 140.234L225.157 140.233L225.133 141.466L217.97 141.467L218.092 140.234Z" fill="#333333"/>
</g>
</g>
</g>
</g>
<g opacity="0.7">
<g clip-path="url(#clip7)">
<g clip-path="url(#clip8)">
<path opacity="0.8" d="M194.647 105.249L207.937 105.323L207.922 108.015L194.633 107.941L194.647 105.249Z" fill="#C6EDFC"/>
<mask id="mask3" mask-type="alpha" maskUnits="userSpaceOnUse" x="195" y="105" width="13" height="87">
<path opacity="0.8" fill-rule="evenodd" clip-rule="evenodd" d="M195.312 105.253L207.273 105.32L206.485 128.197L205.755 128.193L205.09 140.303L204.375 140.299L202.156 191.441L199.498 191.421L197.832 140.263L197.116 140.259L196.584 128.142L195.853 128.138L195.312 105.253Z" fill="#C6EDFC"/>
</mask>
<g mask="url(#mask3)">
<path opacity="0.7" d="M194.648 105.286L207.938 105.286L207.2 128.168L195.386 128.167L194.648 105.286Z" fill="#C6EDFC"/>
<path opacity="0.7" d="M194.648 126.821L207.938 126.822L207.579 140.281L195.007 140.281L194.648 126.821Z" fill="#C6EDFC"/>
<path opacity="0.7" d="M197.306 138.935L205.28 138.935L202.623 191.429L199.965 191.429L197.306 138.935Z" fill="#C6EDFC"/>
<path opacity="0.7" d="M200.163 191.426L197.97 106.632L195.312 106.632L194.183 191.404L200.163 191.426Z" fill="#C6EDFC"/>
<path opacity="0.7" d="M201.492 191.426L204.615 106.632L207.273 106.632L207.472 191.459L201.492 191.426Z" fill="#C6EDFC"/>
<path opacity="0.2" fill-rule="evenodd" clip-rule="evenodd" d="M207.923 108.015L194.633 107.942L194.641 109.324L207.915 109.361L207.923 108.015ZM194.851 128.168L206.609 128.168L206.568 129.513L194.648 129.513L194.851 128.168ZM197.439 140.282L205.147 140.281L205.121 141.627L197.306 141.627L197.439 140.282Z" fill="#333333"/>
</g>
</g>
</g>
<g clip-path="url(#clip9)">
<g clip-path="url(#clip10)">
<path opacity="0.8" d="M221.204 105.25L234.493 105.324L234.479 108.016L221.189 107.942L221.204 105.25Z" fill="#C6EDFC"/>
<mask id="mask4" mask-type="alpha" maskUnits="userSpaceOnUse" x="221" y="105" width="13" height="87">
<path opacity="0.8" fill-rule="evenodd" clip-rule="evenodd" d="M221.869 105.253L233.829 105.32L233.041 128.198L232.312 128.194L231.647 140.304L230.931 140.3L228.713 191.441L226.055 191.422L224.389 140.263L223.673 140.259L223.141 128.143L222.41 128.139L221.869 105.253Z" fill="#C6EDFC"/>
</mask>
<g mask="url(#mask4)">
<path opacity="0.7" d="M221.204 105.286L234.494 105.286L233.756 128.168L221.943 128.168L221.204 105.286Z" fill="#C6EDFC"/>
<path opacity="0.7" d="M221.205 126.822L234.494 126.822L234.136 140.282L221.564 140.282L221.205 126.822Z" fill="#C6EDFC"/>
<path opacity="0.7" d="M223.863 138.936L231.837 138.936L229.18 191.429L226.522 191.429L223.863 138.936Z" fill="#C6EDFC"/>
<path opacity="0.7" d="M226.719 191.426L224.527 106.632L221.869 106.632L220.739 191.404L226.719 191.426Z" fill="#C6EDFC"/>
<path opacity="0.7" d="M228.048 191.426L231.172 106.632L233.83 106.632L234.029 191.46L228.048 191.426Z" fill="#C6EDFC"/>
<path opacity="0.2" fill-rule="evenodd" clip-rule="evenodd" d="M234.48 108.016L221.19 107.943L221.197 109.324L234.472 109.361L234.48 108.016ZM221.407 128.169L233.166 128.168L233.125 129.513L221.205 129.514L221.407 128.169ZM223.996 140.282L231.704 140.282L231.677 141.627L223.863 141.628L223.996 140.282Z" fill="#333333"/>
</g>
</g>
</g>
<g clip-path="url(#clip11)">
<g clip-path="url(#clip12)">
<path opacity="0.8" d="M246.343 105.25L259.632 105.324L259.618 108.016L246.328 107.942L246.343 105.25Z" fill="#C6EDFC"/>
<mask id="mask5" mask-type="alpha" maskUnits="userSpaceOnUse" x="247" y="105" width="12" height="87">
<path opacity="0.8" fill-rule="evenodd" clip-rule="evenodd" d="M247.007 105.254L258.968 105.321L258.18 128.198L257.45 128.194L256.786 140.304L256.07 140.3L253.852 191.442L251.194 191.422L249.528 140.264L248.812 140.26L248.279 128.143L247.548 128.139L247.007 105.254Z" fill="#C6EDFC"/>
</mask>
<g mask="url(#mask5)">
<path opacity="0.7" d="M246.343 105.287L259.633 105.287L258.895 128.169L247.082 128.168L246.343 105.287Z" fill="#C6EDFC"/>
<path opacity="0.7" d="M246.343 126.822L259.633 126.823L259.274 140.282L246.703 140.282L246.343 126.822Z" fill="#C6EDFC"/>
<path opacity="0.7" d="M249.001 138.936L256.975 138.936L254.318 191.43L251.66 191.43L249.001 138.936Z" fill="#C6EDFC"/>
<path opacity="0.7" d="M251.858 191.427L249.665 106.633L247.007 106.633L245.878 191.405L251.858 191.427Z" fill="#C6EDFC"/>
<path opacity="0.7" d="M253.187 191.427L256.31 106.633L258.968 106.633L259.167 191.46L253.187 191.427Z" fill="#C6EDFC"/>
<path opacity="0.2" fill-rule="evenodd" clip-rule="evenodd" d="M259.618 108.016L246.328 107.943L246.336 109.325L259.611 109.361L259.618 108.016ZM246.546 128.169L258.304 128.169L258.264 129.514L246.343 129.514L246.546 128.169ZM249.134 140.283L256.843 140.282L256.816 141.628L249.002 141.628L249.134 140.283Z" fill="#333333"/>
</g>
</g>
</g>
</g>
<g clip-path="url(#clip13)">
<g clip-path="url(#clip14)">
<path opacity="0.8" d="M176.01 100.941L190.186 101.02L190.17 103.937L175.995 103.858L176.01 100.941Z" fill="#C6EDFC"/>
<mask id="mask6" mask-type="alpha" maskUnits="userSpaceOnUse" x="176" y="100" width="14" height="95">
<path opacity="0.8" fill-rule="evenodd" clip-rule="evenodd" d="M176.719 100.945L189.478 101.016L188.635 125.801L187.857 125.796L187.146 138.916L186.383 138.912L184.012 194.315L181.177 194.294L179.405 138.873L178.641 138.868L178.074 125.742L177.294 125.737L176.719 100.945Z" fill="#C6EDFC"/>
</mask>
<g mask="url(#mask6)">
<path opacity="0.7" d="M176.011 100.981L190.187 100.98L189.398 125.768L176.797 125.769L176.011 100.981Z" fill="#C6EDFC"/>
<path opacity="0.7" d="M176.01 124.311L190.185 124.31L189.801 138.892L176.392 138.892L176.01 124.311Z" fill="#C6EDFC"/>
<path opacity="0.7" d="M178.844 137.434L187.349 137.434L184.51 194.302L181.675 194.302L178.844 137.434Z" fill="#C6EDFC"/>
<path opacity="0.7" d="M181.886 194.299L179.555 102.439L176.72 102.439L175.507 194.275L181.886 194.299Z" fill="#C6EDFC"/>
<path opacity="0.7" d="M183.304 194.299L186.643 102.438L189.478 102.438L189.683 194.334L183.304 194.299Z" fill="#C6EDFC"/>
<path opacity="0.2" fill-rule="evenodd" clip-rule="evenodd" d="M190.171 103.937L175.995 103.86L176.003 105.355L190.163 105.393L190.171 103.937ZM176.226 125.771L188.768 125.768L188.724 127.225L176.009 127.227L176.226 125.771ZM178.986 138.894L187.208 138.892L187.179 140.349L178.843 140.35L178.986 138.894Z" fill="#333333"/>
</g>
</g>
</g>
<g clip-path="url(#clip15)">
<g clip-path="url(#clip16)">
<path opacity="0.8" d="M202.945 100.942L217.12 101.021L217.104 103.937L202.929 103.858L202.945 100.942Z" fill="#C6EDFC"/>
<mask id="mask7" mask-type="alpha" maskUnits="userSpaceOnUse" x="203" y="100" width="14" height="95">
<path opacity="0.8" fill-rule="evenodd" clip-rule="evenodd" d="M203.654 100.946L216.412 101.017L215.569 125.801L214.791 125.797L214.081 138.916L213.317 138.912L210.946 194.315L208.111 194.295L206.339 138.873L205.575 138.869L205.008 125.742L204.229 125.738L203.654 100.946Z" fill="#C6EDFC"/>
</mask>
<g mask="url(#mask7)">
<path opacity="0.7" d="M202.945 100.981L217.121 100.98L216.332 125.769L203.731 125.77L202.945 100.981Z" fill="#C6EDFC"/>
<path opacity="0.7" d="M202.944 124.312L217.119 124.311L216.735 138.892L203.326 138.893L202.944 124.312Z" fill="#C6EDFC"/>
<path opacity="0.7" d="M205.778 137.435L214.283 137.434L211.445 194.302L208.609 194.302L205.778 137.435Z" fill="#C6EDFC"/>
<path opacity="0.7" d="M208.82 194.299L206.489 102.439L203.654 102.439L202.441 194.276L208.82 194.299Z" fill="#C6EDFC"/>
<path opacity="0.7" d="M210.238 194.299L213.577 102.439L216.412 102.438L216.617 194.335L210.238 194.299Z" fill="#C6EDFC"/>
<path opacity="0.2" fill-rule="evenodd" clip-rule="evenodd" d="M217.105 103.937L202.929 103.86L202.937 105.356L217.097 105.393L217.105 103.937ZM203.16 125.772L215.702 125.769L215.658 127.225L202.943 127.228L203.16 125.772ZM205.92 138.894L214.142 138.892L214.113 140.349L205.778 140.351L205.92 138.894Z" fill="#333333"/>
</g>
</g>
</g>
<g clip-path="url(#clip17)">
<g clip-path="url(#clip18)">
<path opacity="0.8" d="M228.461 100.942L242.637 101.021L242.621 103.938L228.445 103.859L228.461 100.942Z" fill="#C6EDFC"/>
<mask id="mask8" mask-type="alpha" maskUnits="userSpaceOnUse" x="229" y="100" width="13" height="95">
<path opacity="0.8" fill-rule="evenodd" clip-rule="evenodd" d="M229.17 100.946L241.928 101.017L241.086 125.802L240.307 125.797L239.597 138.917L238.834 138.913L236.463 194.316L233.628 194.295L231.855 138.874L231.092 138.869L230.525 125.743L229.745 125.738L229.17 100.946Z" fill="#C6EDFC"/>
</mask>
<g mask="url(#mask8)">
<path opacity="0.7" d="M228.462 100.982L242.638 100.981L241.848 125.769L229.248 125.77L228.462 100.982Z" fill="#C6EDFC"/>
<path opacity="0.7" d="M228.46 124.312L242.636 124.311L242.252 138.893L228.842 138.893L228.46 124.312Z" fill="#C6EDFC"/>
<path opacity="0.7" d="M231.294 137.435L239.8 137.435L236.961 194.303L234.126 194.303L231.294 137.435Z" fill="#C6EDFC"/>
<path opacity="0.7" d="M234.337 194.3L232.005 102.44L229.17 102.44L227.958 194.276L234.337 194.3Z" fill="#C6EDFC"/>
<path opacity="0.7" d="M235.754 194.3L239.093 102.439L241.929 102.439L242.133 194.335L235.754 194.3Z" fill="#C6EDFC"/>
<path opacity="0.2" fill-rule="evenodd" clip-rule="evenodd" d="M242.622 103.938L228.446 103.861L228.454 105.356L242.613 105.394L242.622 103.938ZM228.676 125.772L241.219 125.769L241.175 127.226L228.46 127.228L228.676 125.772ZM231.436 138.895L239.658 138.893L239.63 140.35L231.294 140.351L231.436 138.895Z" fill="#333333"/>
</g>
</g>
</g>
<g clip-path="url(#clip19)">
<g clip-path="url(#clip20)">
<path opacity="0.8" d="M255.395 100.943L269.571 101.022L269.555 103.938L255.38 103.859L255.395 100.943Z" fill="#C6EDFC"/>
<mask id="mask9" mask-type="alpha" maskUnits="userSpaceOnUse" x="256" y="100" width="13" height="95">
<path opacity="0.8" fill-rule="evenodd" clip-rule="evenodd" d="M256.104 100.947L268.862 101.018L268.02 125.802L267.241 125.798L266.531 138.917L265.768 138.913L263.397 194.316L260.562 194.296L258.789 138.874L258.026 138.87L257.459 125.743L256.679 125.739L256.104 100.947Z" fill="#C6EDFC"/>
</mask>
<g mask="url(#mask9)">
<path opacity="0.7" d="M255.396 100.982L269.572 100.981L268.782 125.77L256.182 125.771L255.396 100.982Z" fill="#C6EDFC"/>
<path opacity="0.7" d="M255.394 124.312L269.57 124.312L269.186 138.893L255.776 138.894L255.394 124.312Z" fill="#C6EDFC"/>
<path opacity="0.7" d="M258.229 137.436L266.734 137.435L263.895 194.303L261.06 194.303L258.229 137.436Z" fill="#C6EDFC"/>
<path opacity="0.7" d="M261.271 194.3L258.94 102.44L256.104 102.44L254.892 194.277L261.271 194.3Z" fill="#C6EDFC"/>
<path opacity="0.7" d="M262.688 194.3L266.027 102.44L268.863 102.439L269.067 194.336L262.688 194.3Z" fill="#C6EDFC"/>
<path opacity="0.2" fill-rule="evenodd" clip-rule="evenodd" d="M269.556 103.938L255.38 103.861L255.388 105.357L269.547 105.394L269.556 103.938ZM255.61 125.773L268.153 125.77L268.109 127.226L255.394 127.229L255.61 125.773ZM258.37 138.895L266.592 138.893L266.564 140.35L258.228 140.352L258.37 138.895Z" fill="#333333"/>
</g>
</g>
</g>
<path fill-rule="evenodd" clip-rule="evenodd" d="M170.925 124.36C169.821 124.36 168.925 125.255 168.925 126.36L168.926 137.374L162.42 137.374C161.316 137.374 160.42 138.269 160.42 139.374L160.42 143.158L168.926 143.158L168.926 144.05C168.926 145.155 169.821 146.05 170.926 146.05L274.662 146.052C275.767 146.053 276.662 145.157 276.662 144.053L276.662 143.16L286.585 143.161L286.585 139.376C286.585 138.272 285.69 137.376 284.585 137.376L276.662 137.376L276.662 126.362C276.662 125.257 275.766 124.362 274.662 124.362L170.925 124.36Z" fill="#54BCE3"/>
<path fill-rule="evenodd" clip-rule="evenodd" d="M272.409 137.376L173.178 137.374L170.926 137.374L168.926 137.374L168.926 135.374L168.926 131.59L168.925 126.36C168.925 125.255 169.821 124.36 170.925 124.36L173.178 124.36L173.178 131.59L272.409 131.592L272.409 124.362L274.662 124.362C275.766 124.362 276.662 125.257 276.662 126.362L276.662 131.592L276.662 135.376L276.662 137.376L274.662 137.376L272.409 137.376ZM160.42 139.374C160.42 138.269 161.316 137.374 162.42 137.374L164.673 137.374L164.673 143.158L160.42 143.158L160.42 139.374ZM284.585 137.376L282.332 137.376L282.332 143.161L286.585 143.161L286.585 139.376C286.585 138.272 285.69 137.376 284.585 137.376Z" fill="#3295BA"/>
<path d="M165.36 146.551L282.318 146.553C282.311 146.573 282.303 146.595 282.296 146.616C282.118 147.118 281.866 147.875 281.565 148.906C280.962 150.968 280.16 154.126 279.36 158.526C277.773 167.251 276.19 180.862 276.164 200.502L259.75 200.502L256.297 199.093L256.206 199.056L256.108 199.056L189.482 199.055L189.384 199.055L189.293 199.092L185.84 200.501L170.844 200.5C170.82 181.22 169.412 167.615 168.002 158.805C167.291 154.363 166.579 151.14 166.044 149.023C165.776 147.965 165.553 147.184 165.395 146.665C165.383 146.625 165.372 146.587 165.36 146.551Z" fill="#F5F7F9" fill-opacity="0.6" stroke="#E5ECF0"/>
<path d="M164.673 144.604C164.673 144.604 170.344 160.511 170.345 199.554L185.938 199.555L189.482 198.109L256.108 198.11L259.652 199.556L276.663 199.556C276.662 159.79 282.332 144.607 282.332 144.607" stroke="#E5ECF0" stroke-width="2"/>
<path d="M160.42 143.158L286.585 143.161V143.161C286.585 144.758 285.29 146.053 283.693 146.053L163.313 146.05C161.715 146.05 160.42 144.755 160.42 143.158V143.158Z" fill="#E5ECF0"/>
<path d="M256.817 198.11L256.817 173.667C256.816 166.297 247.277 154.728 223.112 154.728C198.947 154.727 188.772 166.295 188.773 173.666L188.773 198.108" stroke="#E5ECF0" stroke-width="2" stroke-linecap="round"/>
<rect opacity="0.6" width="28.3516" height="8.67627" rx="1" transform="matrix(1 1.95557e-05 1.96258e-05 1 208.618 150.389)" fill="#F5F7F9"/>
<path d="M189.29 79.9731L189.565 80.533L190.188 80.533L254.688 80.5343L255.194 80.5343L255.494 80.1267L257.321 77.6422L279.959 77.6427L282.702 136.377L162.886 136.374L165.626 77.6405L188.147 77.6409L189.29 79.9731Z" fill="#F5F7F9" fill-opacity="0.6" stroke="#E5ECF0" stroke-width="2"/>
<path d="M188.771 79.533L191.606 91.1014" stroke="#E5ECF0" stroke-width="2" stroke-linecap="round"/>
<path d="M256.815 79.5344L253.98 91.1027" stroke="#E5ECF0" stroke-width="2" stroke-linecap="round"/>
<path d="M200.112 80.9792L245.474 80.9801L245.474 91.9945C245.474 93.0991 244.579 93.9945 243.474 93.9945L202.112 93.9937C201.007 93.9936 200.112 93.0982 200.112 91.9936L200.112 80.9792Z" stroke="#E5ECF0" stroke-width="2"/>
<rect x="1.00002" y="1.00002" width="29.1868" height="26.9209" rx="2" transform="matrix(1 1.95557e-05 1.96258e-05 1 207.2 134.483)" fill="#F5F7F9" fill-opacity="0.6" stroke="#E5ECF0" stroke-width="2"/>
</g>
<defs>
<clipPath id="clip0">
<rect width="129" height="201" fill="white" transform="matrix(1 1.95557e-05 1.96258e-05 1 159 0)"/>
</clipPath>
<clipPath id="clip1">
<rect width="12.1824" height="78.9642" fill="white" transform="matrix(0.999985 0.00557644 -0.00539779 0.999985 188.976 108.12)"/>
</clipPath>
<clipPath id="clip2">
<rect width="12.1824" height="78.9642" fill="white" transform="matrix(0.999985 0.00557644 -0.00539779 0.999985 188.976 108.12)"/>
</clipPath>
<clipPath id="clip3">
<rect width="12.1824" height="78.9642" fill="white" transform="matrix(0.999985 0.00557643 -0.00539779 0.999985 239.631 108.121)"/>
</clipPath>
<clipPath id="clip4">
<rect width="12.1824" height="78.9642" fill="white" transform="matrix(0.999985 0.00557643 -0.00539779 0.999985 239.631 108.121)"/>
</clipPath>
<clipPath id="clip5">
<rect width="12.1824" height="78.9642" fill="white" transform="matrix(0.999985 0.00557643 -0.00539779 0.999985 215.532 108.12)"/>
</clipPath>
<clipPath id="clip6">
<rect width="12.1824" height="78.9642" fill="white" transform="matrix(0.999985 0.00557643 -0.00539779 0.999985 215.532 108.12)"/>
</clipPath>
<clipPath id="clip7">
<rect width="13.2898" height="86.1428" fill="white" transform="matrix(0.999985 0.00557644 -0.00539779 0.999985 194.647 105.249)"/>
</clipPath>
<clipPath id="clip8">
<rect width="13.2898" height="86.1428" fill="white" transform="matrix(0.999985 0.00557644 -0.00539779 0.999985 194.647 105.249)"/>
</clipPath>
<clipPath id="clip9">
<rect width="13.2898" height="86.1428" fill="white" transform="matrix(0.999985 0.00557644 -0.00539779 0.999985 221.204 105.25)"/>
</clipPath>
<clipPath id="clip10">
<rect width="13.2898" height="86.1428" fill="white" transform="matrix(0.999985 0.00557644 -0.00539779 0.999985 221.204 105.25)"/>
</clipPath>
<clipPath id="clip11">
<rect width="13.2898" height="86.1428" fill="white" transform="matrix(0.999985 0.00557643 -0.00539779 0.999985 246.343 105.25)"/>
</clipPath>
<clipPath id="clip12">
<rect width="13.2898" height="86.1428" fill="white" transform="matrix(0.999985 0.00557643 -0.00539779 0.999985 246.343 105.25)"/>
</clipPath>
<clipPath id="clip13">
<rect width="14.1758" height="93.3214" fill="white" transform="matrix(0.999985 0.00557644 -0.00539779 0.999985 176.01 100.941)"/>
</clipPath>
<clipPath id="clip14">
<rect width="14.1758" height="93.3214" fill="white" transform="matrix(0.999985 0.00557644 -0.00539779 0.999985 176.01 100.941)"/>
</clipPath>
<clipPath id="clip15">
<rect width="14.1758" height="93.3214" fill="white" transform="matrix(0.999985 0.00557644 -0.00539779 0.999985 202.945 100.942)"/>
</clipPath>
<clipPath id="clip16">
<rect width="14.1758" height="93.3214" fill="white" transform="matrix(0.999985 0.00557644 -0.00539779 0.999985 202.945 100.942)"/>
</clipPath>
<clipPath id="clip17">
<rect width="14.1758" height="93.3214" fill="white" transform="matrix(0.999985 0.00557643 -0.00539779 0.999985 228.461 100.942)"/>
</clipPath>
<clipPath id="clip18">
<rect width="14.1758" height="93.3214" fill="white" transform="matrix(0.999985 0.00557643 -0.00539779 0.999985 228.461 100.942)"/>
</clipPath>
<clipPath id="clip19">
<rect width="14.1758" height="93.3214" fill="white" transform="matrix(0.999985 0.00557643 -0.00539779 0.999985 255.395 100.943)"/>
</clipPath>
<clipPath id="clip20">
<rect width="14.1758" height="93.3214" fill="white" transform="matrix(0.999985 0.00557643 -0.00539779 0.999985 255.395 100.943)"/>
</clipPath>
</defs>
</svg>
