<svg width="448" height="262" viewBox="0 0 448 262" fill="none" xmlns="http://www.w3.org/2000/svg">
<rect width="448" height="210" fill="#0063C3"/>
<rect width="210" height="210" transform="translate(119)" fill="#0063C3"/>
<g clip-path="url(#clip0)">
<g clip-path="url(#clip1)">
<path d="M231.064 13.0877L230.96 32.0874L222.96 32.0435L223.064 13.0438L231.064 13.0877Z" fill="#3295BA"/>
<path d="M231.064 13.0877L231.053 15.0877L223.053 15.0438L223.064 13.0438L231.064 13.0877Z" fill="#156988"/>
<path d="M236.984 13.1202L217.224 13.0118C217.144 13.0113 217.064 13.0109 217.065 12.8889L217.086 9.01097C217.086 9.01097 217.092 8.01099 218.092 8.01647L236.092 8.11523C236.901 8.11968 237.057 8.89654 237.081 9.08068C237.085 9.10721 237.086 9.13395 237.086 9.1607L237.065 12.9986C237.064 13.1206 237.064 13.1206 236.984 13.1202Z" fill="#54BCE3"/>
<path d="M218.078 10.5165C218.079 10.3839 218.132 10.257 218.226 10.1637C218.321 10.0705 218.448 10.0185 218.581 10.0192C218.713 10.02 218.84 10.0733 218.934 10.1676C219.027 10.2619 219.079 10.3894 219.078 10.522L219.064 13.0219L218.064 13.0164L218.078 10.5165ZM222.078 10.5384C222.079 10.4058 222.132 10.2789 222.226 10.1857C222.321 10.0924 222.448 10.0404 222.581 10.0412C222.713 10.0419 222.84 10.0953 222.933 10.1896C223.027 10.2838 223.079 10.4113 223.078 10.5439L223.064 13.0439L222.064 13.0384L222.078 10.5384ZM226.078 10.5604C226.079 10.4278 226.132 10.3009 226.226 10.2076C226.321 10.1144 226.448 10.0624 226.581 10.0631C226.713 10.0638 226.84 10.1172 226.933 10.2115C227.027 10.3058 227.079 10.4332 227.078 10.5659L227.064 13.0658L226.064 13.0603L226.078 10.5604ZM230.078 10.5823C230.079 10.4497 230.132 10.3228 230.226 10.2296C230.321 10.1363 230.448 10.0843 230.581 10.0851C230.713 10.0858 230.84 10.1392 230.933 10.2334C231.027 10.3277 231.079 10.4552 231.078 10.5878L231.064 13.0878L230.064 13.0823L230.078 10.5823ZM234.078 10.6043C234.079 10.4717 234.132 10.3448 234.226 10.2515C234.32 10.1583 234.448 10.1063 234.581 10.107C234.713 10.1077 234.84 10.1611 234.933 10.2554C235.027 10.3497 235.079 10.4771 235.078 10.6097L235.064 13.1097L234.064 13.1042L234.078 10.6043ZM220.078 10.5274C220.079 10.3948 220.132 10.268 220.226 10.1747C220.321 10.0814 220.448 10.0295 220.581 10.0302C220.713 10.0309 220.84 10.0843 220.934 10.1786C221.027 10.2729 221.079 10.4003 221.078 10.5329L221.064 13.0329L220.064 13.0274L220.078 10.5274ZM224.078 10.5494C224.079 10.4168 224.132 10.2899 224.226 10.1966C224.321 10.1034 224.448 10.0514 224.581 10.0521C224.713 10.0529 224.84 10.1062 224.933 10.2005C225.027 10.2948 225.079 10.4223 225.078 10.5549L225.064 13.0548L224.064 13.0494L224.078 10.5494ZM228.078 10.5713C228.079 10.4387 228.132 10.3118 228.226 10.2186C228.321 10.1253 228.448 10.0734 228.581 10.0741C228.713 10.0748 228.84 10.1282 228.933 10.2225C229.027 10.3168 229.079 10.4442 229.078 10.5768L229.064 13.0768L228.064 13.0713L228.078 10.5713ZM232.078 10.5933C232.079 10.4607 232.132 10.3338 232.226 10.2405C232.321 10.1473 232.448 10.0953 232.581 10.096C232.713 10.0968 232.84 10.1501 232.933 10.2444C233.027 10.3387 233.079 10.4662 233.078 10.5988L233.064 13.0987L232.064 13.0932L232.078 10.5933ZM236.078 10.6152C236.079 10.4826 236.132 10.3557 236.226 10.2625C236.32 10.1692 236.448 10.1173 236.581 10.118C236.713 10.1187 236.84 10.1721 236.933 10.2664C237.027 10.3606 237.079 10.4881 237.078 10.6207L237.064 13.1207L236.064 13.1152L236.078 10.6152Z" fill="#227B9D"/>
</g>
<path d="M228.606 200.75L223.517 200.722C223.249 200.721 223.036 200.465 223.038 200.148L223.078 192.719L229.078 192.752L229.038 200.181C229.036 200.498 228.82 200.751 228.606 200.75Z" fill="#99B2C4"/>
<path d="M218.419 130.693L226.419 130.737L226.172 175.736L222.172 175.714C222.172 175.714 221.758 146.911 218.419 130.693Z" fill="#E5ECF0"/>
<path d="M234.418 130.781L226.419 130.737L226.172 175.736L230.172 175.758C230.172 175.758 230.901 146.962 234.418 130.781Z" fill="#E5ECF0"/>
<path d="M222.391 135.715C222.403 133.506 224.204 131.725 226.413 131.737V131.737C228.622 131.749 230.403 133.55 230.391 135.759L230.067 194.758C230.061 195.862 229.161 196.753 228.056 196.747L224.056 196.725C222.952 196.719 222.061 195.818 222.067 194.714L222.391 135.715Z" fill="#E5ECF0"/>
<path fill-rule="evenodd" clip-rule="evenodd" d="M236.506 114.792L216.507 114.682L216.419 130.682C216.413 131.787 220.885 132.707 226.408 132.737C231.93 132.767 236.412 131.896 236.419 130.792L236.506 114.792Z" fill="#CCD8E1"/>
<path fill-rule="evenodd" clip-rule="evenodd" d="M238.487 117.756L238.937 35.804C238.944 34.3966 238.194 33.7067 236.963 33.0968L232.587 30.9281L227.048 28.2839L220.861 31.1989L217.012 32.9873C215.706 33.5833 214.945 34.7855 214.937 36.1929L214.49 117.671C214.484 118.776 219.852 119.701 226.479 119.737C233.106 119.773 238.484 118.907 238.49 117.803C238.49 117.787 238.489 117.772 238.487 117.756Z" fill="#F5F7F9"/>
<mask id="mask0" mask-type="alpha" maskUnits="userSpaceOnUse" x="214" y="28" width="25" height="92">
<path fill-rule="evenodd" clip-rule="evenodd" d="M238.487 117.756L238.937 35.804C238.944 34.3966 238.194 33.7067 236.963 33.0968L232.587 30.9281L227.048 28.2839L220.861 31.1989L217.012 32.9873C215.706 33.5833 214.945 34.7855 214.937 36.1929L214.49 117.671C214.484 118.776 219.852 119.701 226.479 119.737C233.106 119.773 238.484 118.907 238.49 117.803C238.49 117.787 238.489 117.772 238.487 117.756Z" fill="#F5F7F9"/>
</mask>
<g mask="url(#mask0)">
<rect x="214.957" y="32.6724" width="6" height="87" transform="rotate(0.314367 214.957 32.6724)" fill="#E5ECF0"/>
<rect x="232.956" y="32.7711" width="6" height="87" transform="rotate(0.314367 232.956 32.7711)" fill="#E5ECF0"/>
</g>
<path d="M227.045 28.6866C229.62 28.7007 231.712 27.902 231.717 26.9027C231.723 25.9033 229.64 25.0817 227.065 25.0676C224.49 25.0534 222.398 25.8521 222.393 26.8515C222.387 27.8509 224.47 28.6725 227.045 28.6866Z" fill="white"/>
<path d="M235.814 29.8064C234.455 27.6543 232.338 26.0342 229.942 25.3508C229.461 25.6833 228.362 25.8783 226.991 25.8708C225.689 25.8636 224.661 25.6569 224.114 25.3859C221.711 26.1099 219.508 27.5723 218.125 29.7764C217.641 30.578 217.43 31.5822 217.424 32.5204L217.374 41.7021C217.37 42.4393 218.053 42.9792 218.807 42.9163C221.072 42.5266 223.747 42.2732 226.695 42.2894C229.849 42.3067 232.59 42.5898 234.988 43.0051C235.741 43.1433 236.43 42.6109 236.434 41.8066L236.485 32.491C236.49 31.5527 236.29 30.6133 235.814 29.8064Z" fill="#54BCE3"/>
<path d="M218.396 31.2525C219.363 29.9844 220.739 29.0536 222.183 28.3243C222.939 27.9934 223.694 27.7294 224.518 27.5329C225.342 27.3363 226.165 27.2738 226.988 27.2783C228.633 27.2874 230.346 27.6319 231.781 28.377C233.286 29.0555 234.583 30.0679 235.536 31.3465C234.17 30.4678 232.802 29.79 231.365 29.313C230.612 29.1078 229.927 28.903 229.174 28.7648C228.42 28.6266 227.667 28.5555 226.912 28.5513C225.404 28.5431 223.894 28.8029 222.452 29.1971C221.147 29.7261 219.703 30.3884 218.396 31.2525Z" fill="#3295BA"/>
<path d="M230.786 63.7597L222.786 63.7158L222.633 91.6269L230.633 91.6708L230.786 63.7597Z" fill="#54BCE3"/>
<path d="M229.083 69.3837L224.525 69.3586L224.436 85.5841L228.994 85.6091L229.083 69.3837Z" fill="#FBF9DE"/>
<path d="M229.083 69.3837L224.525 69.3586L224.523 69.6949L229.081 69.7199L229.083 69.3837Z" fill="#A49448"/>
<path d="M228.995 85.3568L224.437 85.3318L224.435 85.6681L228.994 85.6931L228.995 85.3568Z" fill="#A49448"/>
<path d="M229.025 80.0602L224.466 80.0352L224.464 80.3714L229.023 80.3964L229.025 80.0602Z" fill="#A49448"/>
<path d="M229.054 74.6798L224.496 74.6548L224.494 74.991L229.052 75.016L229.054 74.6798Z" fill="#A49448"/>
<path d="M226.865 70.9768C227.167 70.9784 227.406 71.0634 227.583 71.2317C227.762 71.3986 227.85 71.6207 227.849 71.8981C227.847 72.1095 227.779 72.3381 227.644 72.5839C227.511 72.8298 227.276 73.1551 226.939 73.5598L228.031 73.5658L228.028 74.0986L225.966 74.0873L225.966 74.0235C226.208 73.7386 226.415 73.4828 226.588 73.2563C226.762 73.0282 226.897 72.8396 226.992 72.6904C227.087 72.5398 227.154 72.4117 227.195 72.3062C227.235 72.2008 227.255 72.0915 227.256 71.9785C227.256 71.8376 227.21 71.7192 227.116 71.6233C227.024 71.5259 226.911 71.4768 226.778 71.4761C226.537 71.4748 226.288 71.6055 226.028 71.8683L226.031 71.265C226.304 71.0713 226.582 70.9752 226.865 70.9768Z" fill="#DB0300"/>
<path d="M227 76.246C227.322 76.2478 227.576 76.3894 227.763 76.6708C227.952 76.9522 228.044 77.3358 228.042 77.8216C228.039 78.3119 227.943 78.6981 227.755 78.9804C227.567 79.2626 227.311 79.4029 226.987 79.4011C226.659 79.3993 226.4 79.2577 226.21 78.9763C226.022 78.6934 225.929 78.3076 225.932 77.8188C225.934 77.3315 226.031 76.9475 226.223 76.6667C226.414 76.3845 226.673 76.2443 227 76.246ZM226.524 77.8397C226.52 78.5428 226.674 78.8952 226.985 78.8969C227.289 78.8985 227.443 78.5295 227.447 77.7897C227.451 77.0984 227.299 76.7519 226.993 76.7502C226.684 76.7485 226.528 77.1117 226.524 77.8397Z" fill="#101620"/>
<path d="M226.977 81.4851C227.299 81.4868 227.553 81.6284 227.74 81.9098C227.929 82.1912 228.021 82.5748 228.019 83.0606C228.016 83.5509 227.921 83.9371 227.732 84.2194C227.544 84.5016 227.288 84.6419 226.964 84.6401C226.636 84.6383 226.377 84.4967 226.187 84.2153C225.999 83.9324 225.906 83.5466 225.909 83.0579C225.911 82.5706 226.008 82.1865 226.2 81.9057C226.391 81.6235 226.65 81.4833 226.977 81.4851ZM226.501 83.0787C226.497 83.7818 226.651 84.1342 226.962 84.1359C227.266 84.1376 227.42 83.7685 227.424 83.0287C227.428 82.3374 227.276 81.9909 226.97 81.9892C226.661 81.9875 226.505 82.3507 226.501 83.0787Z" fill="black"/>
<path d="M236.417 32.8256L236.367 41.8062C236.363 42.5434 235.743 43.0762 234.921 42.9376C234.168 42.7994 233.346 42.7279 232.455 42.589L232.518 31.1957C233.612 31.6038 234.228 31.9423 235.185 32.3497C235.938 32.5549 235.938 32.5549 236.417 32.8256Z" fill="#3295BA"/>
<path d="M217.493 32.7238L217.444 41.7044C217.44 42.4416 218.054 42.9812 218.877 42.8516C219.632 42.7217 220.455 42.6592 221.347 42.5301L221.41 31.1368C220.311 31.5329 219.692 31.8646 218.73 32.2615C217.975 32.4584 217.975 32.4584 217.493 32.7238Z" fill="#3295BA"/>
</g>
<defs>
<clipPath id="clip0">
<rect width="24" height="253" fill="white" transform="translate(215.092 8) rotate(0.314367)"/>
</clipPath>
<clipPath id="clip1">
<rect width="20" height="24" fill="white" transform="translate(217.092 8.01099) rotate(0.314367)"/>
</clipPath>
</defs>
</svg>
