<svg width="448" height="262" viewBox="0 0 448 262" fill="none" xmlns="http://www.w3.org/2000/svg">
<rect width="448" height="210" fill="#0063C3"/>
<rect width="210" height="210" transform="translate(113)" fill="#0063C3"/>
<g clip-path="url(#clip0)">
<g clip-path="url(#clip1)">
<path d="M224.972 13.0877L224.868 32.0874L216.868 32.0435L216.972 13.0438L224.972 13.0877Z" fill="#8BB975"/>
<path d="M224.972 13.0877L224.961 15.0877L216.961 15.0438L216.972 13.0438L224.972 13.0877Z" fill="#72A45B"/>
<path d="M230.892 13.1202L211.133 13.0118C211.053 13.0113 210.973 13.0109 210.973 12.8889L210.995 9.01097C210.995 9.01097 211 8.01099 212 8.01647L230 8.11523C230.81 8.11968 230.965 8.89654 230.989 9.08068C230.993 9.10721 230.994 9.13395 230.994 9.1607L230.973 12.9986C230.972 13.1206 230.972 13.1206 230.892 13.1202Z" fill="#B0E298"/>
<path d="M211.986 10.5165C211.987 10.3839 212.04 10.257 212.135 10.1637C212.229 10.0705 212.356 10.0185 212.489 10.0192C212.622 10.02 212.748 10.0733 212.842 10.1676C212.935 10.2619 212.987 10.3894 212.986 10.522L212.973 13.0219L211.973 13.0164L211.986 10.5165ZM215.986 10.5384C215.987 10.4058 216.04 10.2789 216.135 10.1857C216.229 10.0924 216.356 10.0404 216.489 10.0412C216.622 10.0419 216.748 10.0953 216.842 10.1896C216.935 10.2838 216.987 10.4113 216.986 10.5439L216.972 13.0439L215.972 13.0384L215.986 10.5384ZM219.986 10.5604C219.987 10.4278 220.04 10.3009 220.135 10.2076C220.229 10.1144 220.356 10.0624 220.489 10.0631C220.621 10.0638 220.748 10.1172 220.842 10.2115C220.935 10.3058 220.987 10.4332 220.986 10.5659L220.972 13.0658L219.972 13.0603L219.986 10.5604ZM223.986 10.5823C223.987 10.4497 224.04 10.3228 224.134 10.2296C224.229 10.1363 224.356 10.0843 224.489 10.0851C224.621 10.0858 224.748 10.1392 224.842 10.2334C224.935 10.3277 224.987 10.4552 224.986 10.5878L224.972 13.0878L223.972 13.0823L223.986 10.5823ZM227.986 10.6043C227.987 10.4717 228.04 10.3448 228.134 10.2515C228.229 10.1583 228.356 10.1063 228.489 10.107C228.621 10.1077 228.748 10.1611 228.842 10.2554C228.935 10.3497 228.987 10.4771 228.986 10.6097L228.972 13.1097L227.972 13.1042L227.986 10.6043ZM213.986 10.5274C213.987 10.3948 214.04 10.268 214.135 10.1747C214.229 10.0814 214.356 10.0295 214.489 10.0302C214.622 10.0309 214.748 10.0843 214.842 10.1786C214.935 10.2729 214.987 10.4003 214.986 10.5329L214.973 13.0329L213.973 13.0274L213.986 10.5274ZM217.986 10.5494C217.987 10.4168 218.04 10.2899 218.135 10.1966C218.229 10.1034 218.356 10.0514 218.489 10.0521C218.622 10.0529 218.748 10.1062 218.842 10.2005C218.935 10.2948 218.987 10.4223 218.986 10.5549L218.972 13.0548L217.972 13.0494L217.986 10.5494ZM221.986 10.5713C221.987 10.4387 222.04 10.3118 222.135 10.2186C222.229 10.1253 222.356 10.0734 222.489 10.0741C222.621 10.0748 222.748 10.1282 222.842 10.2225C222.935 10.3168 222.987 10.4442 222.986 10.5768L222.972 13.0768L221.972 13.0713L221.986 10.5713ZM225.986 10.5933C225.987 10.4607 226.04 10.3338 226.134 10.2405C226.229 10.1473 226.356 10.0953 226.489 10.096C226.621 10.0968 226.748 10.1501 226.842 10.2444C226.935 10.3387 226.987 10.4662 226.986 10.5988L226.972 13.0987L225.972 13.0932L225.986 10.5933ZM229.986 10.6152C229.987 10.4826 230.04 10.3557 230.134 10.2625C230.229 10.1692 230.356 10.1173 230.489 10.118C230.621 10.1187 230.748 10.1721 230.841 10.2664C230.935 10.3606 230.987 10.4881 230.986 10.6207L230.972 13.1207L229.972 13.1152L229.986 10.6152Z" fill="#6C9F54"/>
</g>
<path d="M222.514 200.75L217.425 200.722C217.157 200.721 216.944 200.465 216.946 200.148L216.987 192.719L222.986 192.752L222.946 200.181C222.944 200.498 222.728 200.751 222.514 200.75Z" fill="#99B2C4"/>
<path d="M212.327 130.693L220.327 130.737L220.08 175.736L216.08 175.714C216.08 175.714 215.667 146.912 212.327 130.693Z" fill="#E5ECF0"/>
<path d="M228.327 130.781L220.327 130.737L220.08 175.736L224.08 175.758C224.08 175.758 224.809 146.962 228.327 130.781Z" fill="#E5ECF0"/>
<path d="M216.299 135.715C216.311 133.506 218.112 131.725 220.321 131.737V131.737C222.53 131.749 224.311 133.55 224.299 135.759L223.976 194.758C223.969 195.862 223.069 196.753 221.965 196.747L217.965 196.725C216.86 196.719 215.97 195.819 215.976 194.714L216.299 135.715Z" fill="#E5ECF0"/>
<path fill-rule="evenodd" clip-rule="evenodd" d="M230.414 114.792L210.415 114.682L210.327 130.682C210.321 131.787 214.793 132.707 220.316 132.737C225.839 132.767 230.321 131.896 230.327 130.792L230.414 114.792Z" fill="#CCD8E1"/>
<path fill-rule="evenodd" clip-rule="evenodd" d="M232.395 117.756L232.845 35.804C232.852 34.3966 232.102 33.7067 230.871 33.0968L226.495 30.9281L220.956 28.2839L214.769 31.1989L210.92 32.9873C209.614 33.5833 208.853 34.7855 208.845 36.1929L208.398 117.671C208.392 118.776 213.76 119.701 220.387 119.737C227.015 119.773 232.392 118.907 232.398 117.803C232.398 117.787 232.397 117.772 232.395 117.756Z" fill="#F5F7F9"/>
<mask id="mask0" mask-type="alpha" maskUnits="userSpaceOnUse" x="208" y="28" width="25" height="92">
<path fill-rule="evenodd" clip-rule="evenodd" d="M232.395 117.756L232.845 35.804C232.852 34.3966 232.102 33.7067 230.871 33.0968L226.495 30.9281L220.956 28.2839L214.769 31.1989L210.92 32.9873C209.614 33.5833 208.853 34.7855 208.845 36.1929L208.398 117.671C208.392 118.776 213.76 119.701 220.387 119.737C227.015 119.773 232.392 118.907 232.398 117.803C232.398 117.787 232.397 117.772 232.395 117.756Z" fill="#F5F7F9"/>
</mask>
<g mask="url(#mask0)">
<rect x="208.865" y="32.6724" width="6" height="87" transform="rotate(0.314367 208.865 32.6724)" fill="#E5ECF0"/>
<rect x="226.865" y="32.7711" width="6" height="87" transform="rotate(0.314367 226.865 32.7711)" fill="#E5ECF0"/>
</g>
<path d="M220.953 28.6866C223.528 28.7007 225.62 27.902 225.625 26.9027C225.631 25.9033 223.548 25.0817 220.973 25.0676C218.398 25.0534 216.307 25.8521 216.301 26.8515C216.296 27.8509 218.379 28.6725 220.953 28.6866Z" fill="#F5F7F9"/>
<path d="M229.722 29.8064C228.363 27.6543 226.246 26.0342 223.85 25.3508C223.369 25.6833 222.271 25.8783 220.899 25.8708C219.597 25.8636 218.569 25.6569 218.022 25.3859C215.619 26.1099 213.417 27.5723 212.033 29.7764C211.549 30.578 211.338 31.5822 211.333 32.5204L211.282 41.7021C211.278 42.4393 211.961 42.9792 212.715 42.9163C214.98 42.5266 217.655 42.2732 220.604 42.2894C223.757 42.3067 226.498 42.5898 228.896 43.0051C229.649 43.1433 230.338 42.6109 230.342 41.8066L230.393 32.491C230.399 31.5527 230.198 30.6133 229.722 29.8064Z" fill="#B0E298"/>
<path d="M212.304 31.2525C213.271 29.9844 214.647 29.0536 216.091 28.3243C216.847 27.9934 217.603 27.7294 218.426 27.5329C219.25 27.3363 220.073 27.2738 220.896 27.2783C222.542 27.2874 224.254 27.6319 225.69 28.377C227.194 29.0555 228.491 30.0679 229.444 31.3465C228.078 30.4678 226.71 29.79 225.273 29.313C224.52 29.1078 223.835 28.903 223.082 28.7648C222.329 28.6266 221.575 28.5555 220.821 28.5513C219.312 28.5431 217.802 28.8029 216.36 29.1971C215.055 29.7261 213.611 30.3884 212.304 31.2525Z" fill="#8BB975"/>
<path d="M224.694 63.7597L216.695 63.7158L216.541 91.6269L224.541 91.6708L224.694 63.7597Z" fill="#B0E298"/>
<path d="M222.991 69.3835L218.433 69.3585L218.344 85.584L222.902 85.609L222.991 69.3835Z" fill="#FBF9DE"/>
<path d="M222.991 69.3835L218.433 69.3585L218.431 69.6948L222.989 69.7198L222.991 69.3835Z" fill="#A49448"/>
<path d="M222.904 85.3567L218.345 85.3317L218.344 85.668L222.902 85.693L222.904 85.3567Z" fill="#A49448"/>
<path d="M222.933 80.06L218.375 80.035L218.373 80.3713L222.931 80.3963L222.933 80.06Z" fill="#A49448"/>
<path d="M222.962 74.6797L218.404 74.6547L218.402 74.9909L222.96 75.0159L222.962 74.6797Z" fill="#A49448"/>
<path d="M220.773 70.9766C221.075 70.9783 221.315 71.0633 221.491 71.2316C221.67 71.3984 221.758 71.6206 221.757 71.898C221.756 72.1093 221.687 72.3379 221.552 72.5838C221.419 72.8297 221.184 73.155 220.847 73.5597L221.939 73.5657L221.936 74.0985L219.874 74.0872L219.874 74.0233C220.116 73.7384 220.323 73.4827 220.496 73.2561C220.67 73.0281 220.805 72.8395 220.9 72.6903C220.995 72.5396 221.063 72.4116 221.103 72.3061C221.143 72.2006 221.163 72.0914 221.164 71.9784C221.165 71.8375 221.118 71.7191 221.024 71.6231C220.932 71.5258 220.819 71.4767 220.686 71.476C220.446 71.4746 220.196 71.6054 219.936 71.8682L219.939 71.2649C220.212 71.0712 220.49 70.9751 220.773 70.9766Z" fill="#101620"/>
<path d="M220.908 76.246C221.23 76.2478 221.485 76.3894 221.671 76.6708C221.86 76.9522 221.953 77.3358 221.95 77.8216C221.947 78.3119 221.852 78.6981 221.663 78.9804C221.475 79.2626 221.219 79.4029 220.895 79.4011C220.567 79.3993 220.308 79.2577 220.118 78.9763C219.93 78.6934 219.837 78.3076 219.84 77.8188C219.842 77.3315 219.939 76.9475 220.131 76.6667C220.322 76.3845 220.581 76.2443 220.908 76.246ZM220.432 77.8397C220.428 78.5428 220.582 78.8952 220.893 78.8969C221.197 78.8985 221.351 78.5295 221.355 77.7897C221.359 77.0984 221.208 76.7519 220.901 76.7502C220.592 76.7485 220.436 77.1117 220.432 77.8397Z" fill="#101620"/>
<path d="M220.885 81.4849C221.207 81.4867 221.462 81.6283 221.648 81.9097C221.837 82.1911 221.93 82.5747 221.927 83.0605C221.924 83.5507 221.829 83.937 221.64 84.2193C221.452 84.5015 221.196 84.6418 220.872 84.64C220.544 84.6382 220.285 84.4966 220.095 84.2152C219.907 83.9323 219.814 83.5465 219.817 83.0577C219.819 82.5704 219.917 82.1864 220.108 81.9056C220.299 81.6234 220.558 81.4831 220.885 81.4849ZM220.409 83.0786C220.405 83.7817 220.559 84.1341 220.871 84.1358C221.174 84.1374 221.328 83.7684 221.332 83.0286C221.336 82.3373 221.185 81.9908 220.878 81.9891C220.569 81.9874 220.413 82.3506 220.409 83.0786Z" fill="black"/>
<path d="M230.325 32.8256L230.276 41.8062C230.272 42.5434 229.652 43.0762 228.83 42.9376C228.076 42.7994 227.254 42.7279 226.363 42.589L226.426 31.1957C227.521 31.6038 228.136 31.9423 229.093 32.3497C229.846 32.5549 229.846 32.5549 230.325 32.8256Z" fill="#8BB975"/>
<path d="M211.401 32.7238L211.352 41.7044C211.348 42.4416 211.962 42.9812 212.786 42.8516C213.541 42.7217 214.364 42.6592 215.256 42.5301L215.318 31.1368C214.219 31.5329 213.6 31.8646 212.638 32.2615C211.883 32.4584 211.883 32.4584 211.401 32.7238Z" fill="#8BB975"/>
</g>
<defs>
<clipPath id="clip0">
<rect width="24" height="253" fill="white" transform="translate(209 8) rotate(0.314367)"/>
</clipPath>
<clipPath id="clip1">
<rect width="20" height="24" fill="white" transform="translate(211 8.01099) rotate(0.314367)"/>
</clipPath>
</defs>
</svg>
