<svg width="448" height="242" viewBox="0 0 448 242" fill="none" xmlns="http://www.w3.org/2000/svg">
<rect y="32" width="448" height="210" fill="#0063C3"/>
<rect width="210" height="210" transform="translate(120 32)" fill="#0063C3"/>
<g clip-path="url(#clip0)">
<g opacity="0.5">
<g clip-path="url(#clip1)">
<path opacity="0.8" d="M189.965 108.119L202.147 108.187L202.133 110.654L189.951 110.587L189.965 108.119Z" fill="#F7EFC7"/>
<mask id="mask0" mask-type="alpha" maskUnits="userSpaceOnUse" x="190" y="108" width="12" height="80">
<path opacity="0.8" fill-rule="evenodd" clip-rule="evenodd" d="M190.574 108.122L201.538 108.183L200.814 129.155L200.145 129.151L199.534 140.252L198.878 140.248L196.84 187.128L194.404 187.11L192.881 140.215L192.225 140.211L191.738 129.104L191.068 129.1L190.574 108.122Z" fill="#F7EFC7"/>
</mask>
<g mask="url(#mask0)">
<path opacity="0.8" d="M189.965 108.152L202.148 108.152L201.469 129.127L190.64 129.127L189.965 108.152Z" fill="#F7EFC7"/>
<path opacity="0.8" d="M189.964 127.893L202.146 127.893L201.816 140.232L190.292 140.232L189.964 127.893Z" fill="#F7EFC7"/>
<path opacity="0.8" d="M192.399 138.998L199.709 138.998L197.268 187.117L194.832 187.117L192.399 138.998Z" fill="#F7EFC7"/>
<path d="M195.013 187.114L193.011 109.386L190.574 109.386L189.531 187.094L195.013 187.114Z" fill="#F7EFC7"/>
<path d="M196.231 187.114L199.102 109.386L201.538 109.386L201.713 187.145L196.231 187.114Z" fill="#F7EFC7"/>
<path opacity="0.2" fill-rule="evenodd" clip-rule="evenodd" d="M202.134 110.654L189.952 110.587L189.959 111.854L202.127 111.887L202.134 110.654ZM190.149 129.128L200.928 129.127L200.89 130.36L189.963 130.361L190.149 129.128ZM192.521 140.232L199.587 140.232L199.562 141.465L192.399 141.465L192.521 140.232Z" fill="#333333"/>
</g>
</g>
<g clip-path="url(#clip2)">
<path opacity="0.8" d="M240.62 108.119L252.802 108.187L252.789 110.654L240.607 110.587L240.62 108.119Z" fill="#F7EFC7"/>
<mask id="mask1" mask-type="alpha" maskUnits="userSpaceOnUse" x="241" y="108" width="12" height="80">
<path opacity="0.8" fill-rule="evenodd" clip-rule="evenodd" d="M241.229 108.122L252.194 108.183L251.469 129.155L250.8 129.151L250.19 140.252L249.534 140.248L247.495 187.128L245.059 187.11L243.536 140.215L242.88 140.211L242.393 129.104L241.723 129.1L241.229 108.122Z" fill="#F7EFC7"/>
</mask>
<g mask="url(#mask1)">
<path opacity="0.8" d="M240.621 108.152L252.803 108.152L252.124 129.127L241.296 129.127L240.621 108.152Z" fill="#F7EFC7"/>
<path opacity="0.8" d="M240.619 127.893L252.801 127.893L252.471 140.232L240.947 140.232L240.619 127.893Z" fill="#F7EFC7"/>
<path opacity="0.8" d="M243.054 138.998L250.364 138.998L247.923 187.117L245.487 187.117L243.054 138.998Z" fill="#F7EFC7"/>
<path d="M245.668 187.114L243.666 109.386L241.23 109.386L240.186 187.094L245.668 187.114Z" fill="#F7EFC7"/>
<path d="M246.886 187.114L249.757 109.386L252.194 109.386L252.368 187.145L246.886 187.114Z" fill="#F7EFC7"/>
<path opacity="0.2" fill-rule="evenodd" clip-rule="evenodd" d="M252.789 110.654L240.607 110.587L240.614 111.854L252.782 111.887L252.789 110.654ZM240.805 129.128L251.583 129.127L251.546 130.36L240.619 130.361L240.805 129.128ZM243.176 140.232L250.242 140.232L250.217 141.465L243.054 141.465L243.176 140.232Z" fill="#333333"/>
</g>
</g>
<g clip-path="url(#clip3)">
<path opacity="0.8" d="M216.521 108.119L228.703 108.187L228.69 110.654L216.508 110.587L216.521 108.119Z" fill="#F7EFC7"/>
<mask id="mask2" mask-type="alpha" maskUnits="userSpaceOnUse" x="217" y="108" width="12" height="80">
<path opacity="0.8" fill-rule="evenodd" clip-rule="evenodd" d="M217.131 108.122L228.095 108.183L227.37 129.155L226.701 129.151L226.091 140.252L225.435 140.248L223.397 187.128L220.96 187.11L219.438 140.215L218.781 140.211L218.294 129.104L217.624 129.1L217.131 108.122Z" fill="#F7EFC7"/>
</mask>
<g mask="url(#mask2)">
<path opacity="0.8" d="M216.522 108.152L228.704 108.152L228.026 129.127L217.197 129.127L216.522 108.152Z" fill="#F7EFC7"/>
<path opacity="0.8" d="M216.52 127.893L228.702 127.893L228.372 140.232L216.848 140.232L216.52 127.893Z" fill="#F7EFC7"/>
<path opacity="0.8" d="M218.956 138.998L226.265 138.998L223.825 187.117L221.388 187.117L218.956 138.998Z" fill="#F7EFC7"/>
<path d="M221.569 187.114L219.567 109.386L217.131 109.386L216.087 187.094L221.569 187.114Z" fill="#F7EFC7"/>
<path d="M222.788 187.114L225.658 109.386L228.095 109.386L228.269 187.145L222.788 187.114Z" fill="#F7EFC7"/>
<path opacity="0.2" fill-rule="evenodd" clip-rule="evenodd" d="M228.69 110.654L216.508 110.587L216.515 111.854L228.683 111.887L228.69 110.654ZM216.706 129.128L227.484 129.127L227.447 130.36L216.52 130.361L216.706 129.128ZM219.077 140.232L226.143 140.232L226.119 141.465L218.955 141.465L219.077 140.232Z" fill="#333333"/>
</g>
</g>
</g>
<g opacity="0.7">
<g clip-path="url(#clip4)">
<path opacity="0.8" d="M195.637 105.249L208.926 105.323L208.912 108.014L195.622 107.941L195.637 105.249Z" fill="#F7EFC7"/>
<mask id="mask3" mask-type="alpha" maskUnits="userSpaceOnUse" x="196" y="105" width="13" height="87">
<path opacity="0.8" fill-rule="evenodd" clip-rule="evenodd" d="M196.302 105.252L208.262 105.319L207.472 128.196L206.742 128.192L206.076 140.303L205.361 140.299L203.137 191.44L200.479 191.421L198.818 140.262L198.102 140.258L197.571 128.141L196.84 128.137L196.302 105.252Z" fill="#F7EFC7"/>
</mask>
<g mask="url(#mask3)">
<path opacity="0.8" d="M195.637 105.285L208.927 105.285L208.187 128.167L196.374 128.167L195.637 105.285Z" fill="#F7EFC7"/>
<path opacity="0.8" d="M195.635 126.821L208.925 126.821L208.565 140.28L195.993 140.28L195.635 126.821Z" fill="#F7EFC7"/>
<path opacity="0.8" d="M198.292 138.934L206.266 138.934L203.604 191.428L200.946 191.428L198.292 138.934Z" fill="#F7EFC7"/>
<path d="M201.144 191.425L198.96 106.631L196.302 106.631L195.163 191.403L201.144 191.425Z" fill="#F7EFC7"/>
<path d="M202.473 191.425L205.605 106.631L208.262 106.631L208.453 191.458L202.473 191.425Z" fill="#F7EFC7"/>
<path opacity="0.2" fill-rule="evenodd" clip-rule="evenodd" d="M208.912 108.014L195.622 107.941L195.63 109.323L208.904 109.359L208.912 108.014ZM195.838 128.167L207.596 128.166L207.555 129.512L195.635 129.512L195.838 128.167ZM198.425 140.281L206.133 140.28L206.107 141.626L198.292 141.626L198.425 140.281Z" fill="#333333"/>
</g>
</g>
<g clip-path="url(#clip5)">
<path opacity="0.8" d="M222.193 105.249L235.483 105.323L235.468 108.014L222.179 107.941L222.193 105.249Z" fill="#F7EFC7"/>
<mask id="mask4" mask-type="alpha" maskUnits="userSpaceOnUse" x="222" y="105" width="13" height="87">
<path opacity="0.8" fill-rule="evenodd" clip-rule="evenodd" d="M222.858 105.252L234.819 105.319L234.029 128.196L233.299 128.192L232.633 140.303L231.917 140.299L229.694 191.44L227.036 191.421L225.375 140.262L224.659 140.258L224.128 128.141L223.397 128.137L222.858 105.252Z" fill="#F7EFC7"/>
</mask>
<g mask="url(#mask4)">
<path opacity="0.8" d="M222.194 105.285L235.484 105.285L234.743 128.167L222.93 128.167L222.194 105.285Z" fill="#F7EFC7"/>
<path opacity="0.8" d="M222.192 126.821L235.482 126.821L235.122 140.28L222.55 140.28L222.192 126.821Z" fill="#F7EFC7"/>
<path opacity="0.8" d="M224.849 138.934L232.823 138.934L230.161 191.428L227.503 191.428L224.849 138.934Z" fill="#F7EFC7"/>
<path d="M227.7 191.425L225.516 106.631L222.858 106.631L221.72 191.403L227.7 191.425Z" fill="#F7EFC7"/>
<path d="M229.029 191.425L232.161 106.631L234.819 106.631L235.01 191.458L229.029 191.425Z" fill="#F7EFC7"/>
<path opacity="0.2" fill-rule="evenodd" clip-rule="evenodd" d="M235.469 108.014L222.179 107.941L222.187 109.323L235.461 109.359L235.469 108.014ZM222.395 128.167L234.153 128.166L234.112 129.512L222.192 129.512L222.395 128.167ZM224.982 140.281L232.69 140.28L232.663 141.626L224.849 141.626L224.982 140.281Z" fill="#333333"/>
</g>
</g>
<g clip-path="url(#clip6)">
<path opacity="0.8" d="M247.332 105.249L260.622 105.323L260.607 108.014L247.317 107.941L247.332 105.249Z" fill="#F7EFC7"/>
<mask id="mask5" mask-type="alpha" maskUnits="userSpaceOnUse" x="247" y="105" width="13" height="87">
<path opacity="0.8" fill-rule="evenodd" clip-rule="evenodd" d="M247.997 105.252L259.958 105.319L259.167 128.196L258.437 128.192L257.771 140.303L257.056 140.299L254.832 191.44L252.174 191.421L250.514 140.262L249.798 140.258L249.266 128.141L248.535 128.137L247.997 105.252Z" fill="#F7EFC7"/>
</mask>
<g mask="url(#mask5)">
<path opacity="0.8" d="M247.333 105.285L260.622 105.285L259.882 128.167L248.069 128.167L247.333 105.285Z" fill="#F7EFC7"/>
<path opacity="0.8" d="M247.331 126.821L260.62 126.821L260.26 140.28L247.689 140.28L247.331 126.821Z" fill="#F7EFC7"/>
<path opacity="0.8" d="M249.988 138.934L257.961 138.934L255.299 191.428L252.641 191.428L249.988 138.934Z" fill="#F7EFC7"/>
<path d="M252.839 191.425L250.655 106.631L247.997 106.631L246.859 191.403L252.839 191.425Z" fill="#F7EFC7"/>
<path d="M254.168 191.425L257.3 106.631L259.958 106.631L260.148 191.458L254.168 191.425Z" fill="#F7EFC7"/>
<path opacity="0.2" fill-rule="evenodd" clip-rule="evenodd" d="M260.607 108.014L247.318 107.941L247.325 109.323L260.6 109.359L260.607 108.014ZM247.533 128.167L259.292 128.166L259.251 129.512L247.33 129.512L247.533 128.167ZM250.12 140.281L257.829 140.28L257.802 141.626L249.987 141.626L250.12 140.281Z" fill="#333333"/>
</g>
</g>
</g>
<g clip-path="url(#clip7)">
<path opacity="0.8" d="M177 100.941L191.176 101.02L191.16 103.936L176.984 103.857L177 100.941Z" fill="#F7EFC7"/>
<mask id="mask6" mask-type="alpha" maskUnits="userSpaceOnUse" x="177" y="100" width="14" height="95">
<path opacity="0.8" fill-rule="evenodd" clip-rule="evenodd" d="M177.709 100.945L190.467 101.016L189.622 125.8L188.844 125.796L188.132 138.915L187.369 138.911L184.993 194.314L182.157 194.294L180.391 138.872L179.627 138.868L179.061 125.741L178.282 125.737L177.709 100.945Z" fill="#F7EFC7"/>
</mask>
<g mask="url(#mask6)">
<path opacity="0.8" d="M177.001 100.98L191.177 100.979L190.385 125.768L177.784 125.769L177.001 100.98Z" fill="#F7EFC7"/>
<path opacity="0.8" d="M176.997 124.311L191.173 124.309L190.787 138.891L177.378 138.892L176.997 124.311Z" fill="#F7EFC7"/>
<path opacity="0.8" d="M179.83 137.434L188.335 137.433L185.491 194.301L182.656 194.301L179.83 137.434Z" fill="#F7EFC7"/>
<path d="M182.866 194.298L180.544 102.438L177.709 102.438L176.487 194.275L182.866 194.298Z" fill="#F7EFC7"/>
<path d="M184.284 194.298L187.632 102.438L190.468 102.437L190.663 194.334L184.284 194.298Z" fill="#F7EFC7"/>
<path opacity="0.2" fill-rule="evenodd" clip-rule="evenodd" d="M191.16 103.936L176.985 103.859L176.992 105.355L191.152 105.392L191.16 103.936ZM177.213 125.771L189.755 125.768L189.711 127.224L176.996 127.227L177.213 125.771ZM179.971 138.893L188.193 138.891L188.165 140.348L179.829 140.35L179.971 138.893Z" fill="#333333"/>
</g>
</g>
<g clip-path="url(#clip8)">
<path opacity="0.8" d="M203.934 100.941L218.11 101.02L218.094 103.936L203.918 103.857L203.934 100.941Z" fill="#F7EFC7"/>
<mask id="mask7" mask-type="alpha" maskUnits="userSpaceOnUse" x="204" y="100" width="14" height="95">
<path opacity="0.8" fill-rule="evenodd" clip-rule="evenodd" d="M204.643 100.945L217.401 101.016L216.556 125.8L215.778 125.796L215.066 138.915L214.303 138.911L211.927 194.314L209.092 194.294L207.325 138.872L206.561 138.868L205.995 125.741L205.216 125.737L204.643 100.945Z" fill="#F7EFC7"/>
</mask>
<g mask="url(#mask7)">
<path opacity="0.8" d="M203.935 100.98L218.111 100.979L217.319 125.768L204.718 125.769L203.935 100.98Z" fill="#F7EFC7"/>
<path opacity="0.8" d="M203.931 124.311L218.107 124.309L217.721 138.891L204.312 138.892L203.931 124.311Z" fill="#F7EFC7"/>
<path opacity="0.8" d="M206.764 137.434L215.269 137.433L212.425 194.301L209.59 194.301L206.764 137.434Z" fill="#F7EFC7"/>
<path d="M209.8 194.298L207.479 102.438L204.643 102.438L203.422 194.275L209.8 194.298Z" fill="#F7EFC7"/>
<path d="M211.218 194.298L214.566 102.438L217.402 102.437L217.597 194.334L211.218 194.298Z" fill="#F7EFC7"/>
<path opacity="0.2" fill-rule="evenodd" clip-rule="evenodd" d="M218.094 103.936L203.919 103.859L203.927 105.355L218.086 105.392L218.094 103.936ZM204.147 125.771L216.689 125.768L216.645 127.224L203.93 127.227L204.147 125.771ZM206.905 138.893L215.127 138.891L215.099 140.348L206.763 140.35L206.905 138.893Z" fill="#333333"/>
</g>
</g>
<g clip-path="url(#clip9)">
<path opacity="0.8" d="M229.451 100.941L243.627 101.02L243.61 103.936L229.435 103.857L229.451 100.941Z" fill="#F7EFC7"/>
<mask id="mask8" mask-type="alpha" maskUnits="userSpaceOnUse" x="230" y="100" width="13" height="95">
<path opacity="0.8" fill-rule="evenodd" clip-rule="evenodd" d="M230.16 100.945L242.918 101.016L242.073 125.8L241.294 125.796L240.583 138.915L239.82 138.911L237.443 194.314L234.608 194.294L232.841 138.872L232.078 138.868L231.512 125.741L230.732 125.737L230.16 100.945Z" fill="#F7EFC7"/>
</mask>
<g mask="url(#mask8)">
<path opacity="0.8" d="M229.451 100.98L243.627 100.979L242.836 125.768L230.235 125.769L229.451 100.98Z" fill="#F7EFC7"/>
<path opacity="0.8" d="M229.448 124.311L243.623 124.31L243.238 138.891L229.828 138.892L229.448 124.311Z" fill="#F7EFC7"/>
<path opacity="0.8" d="M232.281 137.434L240.786 137.433L237.941 194.301L235.106 194.301L232.281 137.434Z" fill="#F7EFC7"/>
<path d="M235.317 194.298L232.995 102.438L230.16 102.438L228.938 194.275L235.317 194.298Z" fill="#F7EFC7"/>
<path d="M236.735 194.298L240.083 102.438L242.918 102.437L243.114 194.334L236.735 194.298Z" fill="#F7EFC7"/>
<path opacity="0.2" fill-rule="evenodd" clip-rule="evenodd" d="M243.611 103.936L229.435 103.859L229.443 105.355L243.602 105.392L243.611 103.936ZM229.663 125.771L242.206 125.768L242.162 127.224L229.447 127.227L229.663 125.771ZM232.422 138.893L240.644 138.891L240.615 140.348L232.28 140.35L232.422 138.893Z" fill="#333333"/>
</g>
</g>
<g clip-path="url(#clip10)">
<path opacity="0.8" d="M256.385 100.941L270.56 101.02L270.544 103.936L256.369 103.857L256.385 100.941Z" fill="#F7EFC7"/>
<mask id="mask9" mask-type="alpha" maskUnits="userSpaceOnUse" x="257" y="100" width="13" height="95">
<path opacity="0.8" fill-rule="evenodd" clip-rule="evenodd" d="M257.094 100.945L269.852 101.016L269.007 125.8L268.228 125.796L267.517 138.915L266.754 138.911L264.377 194.314L261.542 194.294L259.775 138.872L259.011 138.868L258.446 125.741L257.666 125.737L257.094 100.945Z" fill="#F7EFC7"/>
</mask>
<g mask="url(#mask9)">
<path opacity="0.8" d="M256.385 100.98L270.561 100.979L269.769 125.768L257.169 125.769L256.385 100.98Z" fill="#F7EFC7"/>
<path opacity="0.8" d="M256.381 124.311L270.557 124.31L270.172 138.891L256.762 138.892L256.381 124.311Z" fill="#F7EFC7"/>
<path opacity="0.8" d="M259.214 137.434L267.72 137.433L264.875 194.301L262.04 194.301L259.214 137.434Z" fill="#F7EFC7"/>
<path d="M262.251 194.299L259.929 102.438L257.094 102.438L255.872 194.275L262.251 194.299Z" fill="#F7EFC7"/>
<path d="M263.669 194.298L267.017 102.438L269.852 102.437L270.048 194.334L263.669 194.298Z" fill="#F7EFC7"/>
<path opacity="0.2" fill-rule="evenodd" clip-rule="evenodd" d="M270.545 103.936L256.369 103.859L256.377 105.355L270.536 105.392L270.545 103.936ZM256.597 125.771L269.139 125.768L269.096 127.224L256.381 127.227L256.597 125.771ZM259.356 138.893L267.578 138.891L267.549 140.348L259.214 140.35L259.356 138.893Z" fill="#333333"/>
</g>
</g>
<path fill-rule="evenodd" clip-rule="evenodd" d="M171.913 124.36C170.808 124.36 169.913 125.255 169.913 126.36L169.912 137.374L163.406 137.374C162.302 137.374 161.406 138.269 161.406 139.374L161.406 143.158L169.911 143.158L169.911 144.05C169.911 145.155 170.806 146.05 171.911 146.05L275.647 146.05C276.752 146.05 277.647 145.155 277.647 144.05L277.647 143.158L287.571 143.158L287.571 139.374C287.571 138.269 286.676 137.374 285.571 137.374L277.648 137.374L277.649 126.36C277.649 125.255 276.754 124.36 275.649 124.36L171.913 124.36Z" fill="#B0E298"/>
<path fill-rule="evenodd" clip-rule="evenodd" d="M273.395 137.374L174.164 137.374L171.912 137.374L169.912 137.374L169.912 135.374L169.912 131.59L169.913 126.36C169.913 125.255 170.808 124.36 171.913 124.36L174.165 124.36L174.165 131.59L273.396 131.59L273.396 124.36L275.649 124.36C276.754 124.36 277.649 125.255 277.649 126.36L277.648 131.59L277.648 135.374L277.648 137.374L275.648 137.374L273.395 137.374ZM161.406 139.374C161.406 138.269 162.302 137.374 163.406 137.374L165.659 137.374L165.658 143.158L161.406 143.158L161.406 139.374ZM285.571 137.374L283.318 137.374L283.318 143.158L287.571 143.158L287.571 139.374C287.571 138.269 286.676 137.374 285.571 137.374Z" fill="#8BB975"/>
<path d="M166.345 146.55L283.303 146.55C283.296 146.571 283.288 146.592 283.281 146.614C283.103 147.115 282.851 147.873 282.549 148.904C281.946 150.966 281.145 154.124 280.344 158.523C278.756 167.249 277.171 180.859 277.143 200.5L260.73 200.5L257.277 199.091L257.186 199.054L257.088 199.054L190.462 199.054L190.363 199.054L190.273 199.091L186.819 200.5L171.824 200.5C171.801 181.219 170.395 167.614 168.986 158.805C168.275 154.362 167.564 151.139 167.029 149.023C166.761 147.965 166.538 147.184 166.38 146.665C166.368 146.625 166.357 146.587 166.345 146.55Z" fill="#F5F7F9" fill-opacity="0.6" stroke="#E5ECF0"/>
<path d="M165.658 144.604C165.658 144.604 171.327 160.511 171.324 199.554L186.918 199.554L190.462 198.108L257.088 198.108L260.632 199.554L277.643 199.554C277.646 159.788 283.318 144.604 283.318 144.604" stroke="#E5ECF0" stroke-width="2"/>
<path d="M161.406 143.158L287.571 143.158V143.158C287.57 144.755 286.276 146.05 284.678 146.05L164.298 146.05C162.7 146.05 161.406 144.755 161.406 143.158V143.158Z" fill="#E5ECF0"/>
<path d="M257.797 198.108L257.799 173.665C257.8 166.295 248.262 154.727 224.097 154.727C199.931 154.727 189.756 166.295 189.755 173.665L189.753 198.108" stroke="#E5ECF0" stroke-width="2" stroke-linecap="round"/>
<rect opacity="0.6" width="28.3516" height="8.67627" rx="1" transform="matrix(1 -1.38621e-10 -8.20717e-05 1 209.603 150.388)" fill="#F5F7F9"/>
<path d="M190.282 79.9725L190.557 80.5323L191.18 80.5323L255.68 80.5323L256.186 80.5323L256.486 80.1247L258.313 77.6403L280.951 77.6403L283.688 136.374L163.872 136.374L166.618 77.6403L189.139 77.6403L190.282 79.9725Z" fill="#F5F7F9" fill-opacity="0.6" stroke="#E5ECF0" stroke-width="2"/>
<path d="M189.763 79.5323L192.597 91.1007" stroke="#E5ECF0" stroke-width="2" stroke-linecap="round"/>
<path d="M257.807 79.5323L254.971 91.1007" stroke="#E5ECF0" stroke-width="2" stroke-linecap="round"/>
<path d="M201.103 80.9784L246.466 80.9784L246.465 91.9928C246.465 93.0973 245.569 93.9928 244.465 93.9928L203.102 93.9928C201.998 93.9928 201.102 93.0973 201.102 91.9928L201.103 80.9784Z" stroke="#E5ECF0" stroke-width="2"/>
<rect x="0.999918" y="1" width="29.1868" height="26.9209" rx="2" transform="matrix(1 -1.38621e-10 -8.20717e-05 1 208.187 134.482)" fill="#F5F7F9" fill-opacity="0.6" stroke="#E5ECF0" stroke-width="2"/>
</g>
<defs>
<clipPath id="clip0">
<rect width="129" height="201" fill="white" transform="matrix(1 -1.38621e-10 -8.20717e-05 1 160 0)"/>
</clipPath>
<clipPath id="clip1">
<rect width="12.1824" height="78.9642" fill="white" transform="matrix(0.999984 0.00555688 -0.00549948 0.999985 189.965 108.119)"/>
</clipPath>
<clipPath id="clip2">
<rect width="12.1824" height="78.9642" fill="white" transform="matrix(0.999984 0.00555688 -0.00549948 0.999985 240.62 108.119)"/>
</clipPath>
<clipPath id="clip3">
<rect width="12.1824" height="78.9642" fill="white" transform="matrix(0.999984 0.00555688 -0.00549948 0.999985 216.521 108.119)"/>
</clipPath>
<clipPath id="clip4">
<rect width="13.2898" height="86.1428" fill="white" transform="matrix(0.999984 0.00555688 -0.00549948 0.999985 195.637 105.249)"/>
</clipPath>
<clipPath id="clip5">
<rect width="13.2898" height="86.1428" fill="white" transform="matrix(0.999984 0.00555688 -0.00549948 0.999985 222.193 105.249)"/>
</clipPath>
<clipPath id="clip6">
<rect width="13.2898" height="86.1428" fill="white" transform="matrix(0.999984 0.00555688 -0.00549949 0.999985 247.332 105.249)"/>
</clipPath>
<clipPath id="clip7">
<rect width="14.1758" height="93.3214" fill="white" transform="matrix(0.999984 0.00555688 -0.00549948 0.999985 177 100.941)"/>
</clipPath>
<clipPath id="clip8">
<rect width="14.1758" height="93.3214" fill="white" transform="matrix(0.999984 0.00555688 -0.00549948 0.999985 203.934 100.941)"/>
</clipPath>
<clipPath id="clip9">
<rect width="14.1758" height="93.3214" fill="white" transform="matrix(0.999984 0.00555688 -0.00549948 0.999985 229.451 100.941)"/>
</clipPath>
<clipPath id="clip10">
<rect width="14.1758" height="93.3214" fill="white" transform="matrix(0.999984 0.00555688 -0.00549948 0.999985 256.385 100.941)"/>
</clipPath>
</defs>
</svg>
