<svg width="448" height="242" viewBox="0 0 448 242" fill="none" xmlns="http://www.w3.org/2000/svg">
<rect y="32" width="448" height="210" fill="#0063C3"/>
<rect width="210" height="210" transform="translate(120 32)" fill="#0063C3"/>
<g clip-path="url(#clip0)">
<g opacity="0.5">
<g clip-path="url(#clip1)">
<rect opacity="0.8" width="12.1824" height="1.23382" transform="matrix(0.999939 0.0111136 -0.0108347 0.99994 189.974 108.051)" fill="white"/>
<mask id="mask0" mask-type="alpha" maskUnits="userSpaceOnUse" x="190" y="108" width="12" height="50">
<path opacity="0.8" fill-rule="evenodd" clip-rule="evenodd" d="M190.583 108.058L201.547 108.18L200.791 121.744L200.385 121.74L200.115 127.906L199.408 127.898L196.749 157.482L194.312 157.455L192.294 127.819L191.588 127.812L191.452 121.641L191.046 121.636L190.583 108.058Z" fill="white"/>
</mask>
<g mask="url(#mask0)">
<path opacity="0.8" d="M190.583 108.058L201.547 108.18L200.791 121.744L191.046 121.636L190.583 108.058Z" fill="white"/>
<path opacity="0.8" d="M191.424 120.406L200.439 120.507L200.115 127.906L191.588 127.812L191.424 120.406Z" fill="white"/>
<path opacity="0.8" d="M192.21 126.585L199.519 126.666L196.749 157.482L194.312 157.455L192.21 126.585Z" fill="white"/>
<rect opacity="0.8" width="2.43647" height="1.23382" transform="matrix(0.999939 0.0111136 -0.0108346 0.99994 194.312 157.455)" fill="white"/>
<path opacity="0.9" d="M193.428 126.598L194.678 157.459L194.312 157.455L192.319 127.82L191.588 127.812L191.411 121.64L191.045 121.636L190.57 109.292L192.404 108.695L193.428 126.598Z" fill="white"/>
<path opacity="0.9" d="M198.301 126.652L196.383 157.478L196.749 157.482L199.384 127.898L200.115 127.906L200.425 121.74L200.791 121.744L201.534 109.414L199.713 108.777L198.301 126.652Z" fill="white"/>
<path opacity="0.1" fill-rule="evenodd" clip-rule="evenodd" d="M202.143 109.421L190.168 109.287L189.948 110.519L202.088 110.654L202.143 109.421ZM191.231 121.638L202.009 121.758L201.958 122.991L191.032 122.87L191.231 121.638ZM192.319 127.82L199.384 127.898L199.346 129.132L192.184 129.052L192.319 127.82Z" fill="#333333"/>
</g>
</g>
<g clip-path="url(#clip2)">
<rect opacity="0.8" width="12.1824" height="1.23382" transform="matrix(0.999939 0.0111136 -0.0108347 0.99994 240.63 108.051)" fill="white"/>
<mask id="mask1" mask-type="alpha" maskUnits="userSpaceOnUse" x="241" y="108" width="12" height="50">
<path opacity="0.8" fill-rule="evenodd" clip-rule="evenodd" d="M241.239 108.058L252.202 108.18L251.446 121.744L251.04 121.74L250.77 127.906L250.064 127.898L247.404 157.482L244.968 157.455L242.95 127.819L242.243 127.812L242.107 121.641L241.701 121.636L241.239 108.058Z" fill="white"/>
</mask>
<g mask="url(#mask1)">
<path opacity="0.8" d="M241.239 108.058L252.202 108.18L251.446 121.744L241.701 121.636L241.239 108.058Z" fill="white"/>
<path opacity="0.8" d="M242.08 120.406L251.094 120.507L250.77 127.906L242.243 127.812L242.08 120.406Z" fill="white"/>
<path opacity="0.8" d="M242.865 126.585L250.174 126.666L247.404 157.482L244.968 157.455L242.865 126.585Z" fill="white"/>
<rect opacity="0.8" width="2.43647" height="1.23382" transform="matrix(0.999939 0.0111136 -0.0108347 0.99994 244.968 157.455)" fill="white"/>
<path opacity="0.9" d="M244.084 126.598L245.333 157.459L244.967 157.455L242.974 127.82L242.243 127.812L242.066 121.64L241.701 121.636L241.225 109.292L243.059 108.695L244.084 126.598Z" fill="white"/>
<path opacity="0.9" d="M248.956 126.652L247.039 157.478L247.404 157.482L250.039 127.898L250.77 127.906L251.081 121.74L251.446 121.744L252.189 109.414L250.368 108.777L248.956 126.652Z" fill="white"/>
<path opacity="0.1" fill-rule="evenodd" clip-rule="evenodd" d="M252.798 109.421L240.823 109.287L240.603 110.519L252.743 110.654L252.798 109.421ZM241.887 121.638L252.664 121.758L252.614 122.991L241.687 122.87L241.887 121.638ZM242.974 127.82L250.039 127.898L250.002 129.132L242.839 129.052L242.974 127.82Z" fill="#333333"/>
</g>
</g>
<g clip-path="url(#clip3)">
<rect opacity="0.8" width="12.1824" height="1.23382" transform="matrix(0.999939 0.0111136 -0.0108347 0.99994 216.531 108.051)" fill="white"/>
<mask id="mask2" mask-type="alpha" maskUnits="userSpaceOnUse" x="217" y="108" width="12" height="50">
<path opacity="0.8" fill-rule="evenodd" clip-rule="evenodd" d="M217.14 108.058L228.103 108.18L227.347 121.744L226.941 121.74L226.671 127.906L225.965 127.898L223.305 157.482L220.869 157.455L218.851 127.819L218.144 127.812L218.008 121.641L217.602 121.636L217.14 108.058Z" fill="white"/>
</mask>
<g mask="url(#mask2)">
<path opacity="0.8" d="M217.14 108.058L228.103 108.18L227.347 121.744L217.602 121.636L217.14 108.058Z" fill="white"/>
<path opacity="0.8" d="M217.981 120.406L226.995 120.507L226.671 127.906L218.144 127.812L217.981 120.406Z" fill="white"/>
<path opacity="0.8" d="M218.767 126.585L226.076 126.666L223.305 157.482L220.869 157.455L218.767 126.585Z" fill="white"/>
<rect opacity="0.8" width="2.43647" height="1.23382" transform="matrix(0.999939 0.0111136 -0.0108347 0.99994 220.869 157.455)" fill="white"/>
<path opacity="0.9" d="M219.985 126.598L221.234 157.459L220.869 157.455L218.875 127.82L218.144 127.812L217.967 121.64L217.602 121.636L217.126 109.292L218.96 108.695L219.985 126.598Z" fill="white"/>
<path opacity="0.9" d="M224.857 126.652L222.94 157.478L223.305 157.482L225.94 127.898L226.671 127.906L226.982 121.74L227.347 121.744L228.09 109.414L226.269 108.777L224.857 126.652Z" fill="white"/>
<path opacity="0.1" fill-rule="evenodd" clip-rule="evenodd" d="M228.699 109.421L216.724 109.287L216.504 110.519L228.644 110.654L228.699 109.421ZM217.788 121.638L228.565 121.758L228.515 122.991L217.589 122.87L217.788 121.638ZM218.875 127.82L225.94 127.898L225.903 129.132L218.74 129.052L218.875 127.82Z" fill="#333333"/>
</g>
</g>
</g>
<g opacity="0.7">
<g clip-path="url(#clip4)">
<rect opacity="0.8" width="13.2898" height="1.34598" transform="matrix(0.999939 0.0111136 -0.0108347 0.99994 195.646 105.175)" fill="white"/>
<mask id="mask3" mask-type="alpha" maskUnits="userSpaceOnUse" x="196" y="105" width="13" height="55">
<path opacity="0.8" fill-rule="evenodd" clip-rule="evenodd" d="M196.311 105.182L208.271 105.315L207.446 120.113L207.003 120.108L206.709 126.835L205.938 126.826L203.036 159.099L200.378 159.07L198.177 126.74L197.406 126.731L197.258 119.999L196.815 119.994L196.311 105.182Z" fill="white"/>
</mask>
<g mask="url(#mask3)">
<path opacity="0.8" d="M196.311 105.182L208.271 105.315L207.446 120.113L196.815 119.994L196.311 105.182Z" fill="white"/>
<path opacity="0.8" d="M197.228 118.653L207.062 118.762L206.708 126.835L197.406 126.731L197.228 118.653Z" fill="white"/>
<path opacity="0.8" d="M198.085 125.393L206.058 125.481L203.036 159.099L200.378 159.07L198.085 125.393Z" fill="white"/>
<rect opacity="0.8" width="2.65797" height="1.34598" transform="matrix(0.999939 0.0111136 -0.0108347 0.99994 200.378 159.07)" fill="white"/>
<path opacity="0.9" d="M199.414 125.408L200.777 159.074L200.378 159.07L198.203 126.74L197.406 126.731L197.213 119.999L196.815 119.994L196.296 106.528L198.297 105.877L199.414 125.408Z" fill="white"/>
<path opacity="0.9" d="M204.729 125.467L202.637 159.095L203.036 159.099L205.911 126.826L206.708 126.835L207.047 120.108L207.446 120.113L208.256 106.661L206.27 105.966L204.729 125.467Z" fill="white"/>
<path opacity="0.1" fill-rule="evenodd" clip-rule="evenodd" d="M208.921 106.668L195.857 106.523L195.617 107.867L208.861 108.014L208.921 106.668ZM197.017 119.997L208.775 120.127L208.72 121.473L196.8 121.34L197.017 119.997ZM198.203 126.74L205.911 126.826L205.87 128.172L198.056 128.085L198.203 126.74Z" fill="#333333"/>
</g>
</g>
<g clip-path="url(#clip5)">
<rect opacity="0.8" width="13.2898" height="1.34598" transform="matrix(0.999939 0.0111136 -0.0108347 0.99994 222.203 105.175)" fill="white"/>
<mask id="mask4" mask-type="alpha" maskUnits="userSpaceOnUse" x="222" y="105" width="13" height="55">
<path opacity="0.8" fill-rule="evenodd" clip-rule="evenodd" d="M222.867 105.182L234.827 105.315L234.002 120.113L233.559 120.108L233.265 126.835L232.494 126.826L229.593 159.099L226.935 159.07L224.734 126.74L223.963 126.731L223.814 119.999L223.371 119.994L222.867 105.182Z" fill="white"/>
</mask>
<g mask="url(#mask4)">
<path opacity="0.8" d="M222.867 105.182L234.827 105.315L234.002 120.113L223.371 119.994L222.867 105.182Z" fill="white"/>
<path opacity="0.8" d="M223.784 118.653L233.618 118.762L233.265 126.835L223.963 126.731L223.784 118.653Z" fill="white"/>
<path opacity="0.8" d="M224.642 125.393L232.615 125.481L229.593 159.099L226.935 159.07L224.642 125.393Z" fill="white"/>
<rect opacity="0.8" width="2.65797" height="1.34598" transform="matrix(0.999939 0.0111136 -0.0108347 0.99994 226.935 159.07)" fill="white"/>
<path opacity="0.9" d="M225.971 125.408L227.334 159.074L226.935 159.07L224.76 126.74L223.963 126.731L223.77 119.999L223.371 119.994L222.853 106.528L224.853 105.877L225.971 125.408Z" fill="white"/>
<path opacity="0.9" d="M231.286 125.467L229.194 159.095L229.593 159.099L232.468 126.826L233.265 126.835L233.604 120.108L234.002 120.113L234.813 106.661L232.826 105.966L231.286 125.467Z" fill="white"/>
<path opacity="0.1" fill-rule="evenodd" clip-rule="evenodd" d="M235.477 106.668L222.413 106.523L222.174 107.867L235.418 108.014L235.477 106.668ZM223.574 119.997L235.331 120.127L235.276 121.473L223.357 121.34L223.574 119.997ZM224.76 126.74L232.468 126.826L232.427 128.172L224.613 128.085L224.76 126.74Z" fill="#333333"/>
</g>
</g>
<g clip-path="url(#clip6)">
<rect opacity="0.8" width="13.2898" height="1.34598" transform="matrix(0.999939 0.0111136 -0.0108347 0.99994 247.341 105.175)" fill="white"/>
<mask id="mask5" mask-type="alpha" maskUnits="userSpaceOnUse" x="248" y="105" width="12" height="55">
<path opacity="0.8" fill-rule="evenodd" clip-rule="evenodd" d="M248.006 105.182L259.966 105.315L259.141 120.113L258.698 120.108L258.404 126.835L257.633 126.826L254.732 159.099L252.074 159.07L249.872 126.74L249.101 126.731L248.953 119.999L248.51 119.994L248.006 105.182Z" fill="white"/>
</mask>
<g mask="url(#mask5)">
<path opacity="0.8" d="M248.006 105.182L259.966 105.315L259.141 120.113L248.51 119.994L248.006 105.182Z" fill="white"/>
<path opacity="0.8" d="M248.923 118.653L258.757 118.762L258.404 126.835L249.101 126.731L248.923 118.653Z" fill="white"/>
<path opacity="0.8" d="M249.78 125.393L257.754 125.481L254.731 159.099L252.073 159.07L249.78 125.393Z" fill="white"/>
<rect opacity="0.8" width="2.65797" height="1.34598" transform="matrix(0.999939 0.0111136 -0.0108347 0.99994 252.073 159.07)" fill="white"/>
<path opacity="0.9" d="M251.109 125.408L252.472 159.074L252.074 159.07L249.899 126.74L249.101 126.731L248.909 119.999L248.51 119.994L247.991 106.528L249.992 105.877L251.109 125.408Z" fill="white"/>
<path opacity="0.9" d="M256.425 125.467L254.333 159.095L254.731 159.099L257.606 126.826L258.404 126.835L258.742 120.108L259.141 120.113L259.951 106.661L257.965 105.966L256.425 125.467Z" fill="white"/>
<path opacity="0.1" fill-rule="evenodd" clip-rule="evenodd" d="M260.616 106.668L247.552 106.523L247.312 107.867L260.556 108.014L260.616 106.668ZM248.713 119.997L260.47 120.127L260.415 121.473L248.495 121.34L248.713 119.997ZM249.899 126.74L257.606 126.826L257.565 128.172L249.751 128.085L249.899 126.74Z" fill="#333333"/>
</g>
</g>
</g>
<g clip-path="url(#clip7)">
<rect opacity="0.8" width="14.1758" height="1.45815" transform="matrix(0.999938 0.0112004 -0.0107513 0.999941 177.01 100.861)" fill="white"/>
<mask id="mask6" mask-type="alpha" maskUnits="userSpaceOnUse" x="177" y="100" width="14" height="60">
<path opacity="0.8" fill-rule="evenodd" clip-rule="evenodd" d="M177.718 100.869L190.476 101.012L189.595 117.043L189.122 117.037L188.807 124.325L187.985 124.316L184.887 159.279L182.052 159.247L179.707 124.223L178.885 124.214L178.727 116.921L178.255 116.916L177.718 100.869Z" fill="white"/>
</mask>
<g mask="url(#mask6)">
<path opacity="0.8" d="M177.718 100.869L190.476 101.012L189.595 117.043L178.255 116.916L177.718 100.869Z" fill="white"/>
<path opacity="0.8" d="M178.696 115.462L189.185 115.58L188.807 124.325L178.885 124.214L178.696 115.462Z" fill="white"/>
<path opacity="0.8" d="M179.609 122.764L188.114 122.859L184.887 159.279L182.052 159.247L179.609 122.764Z" fill="white"/>
<rect opacity="0.8" width="2.83517" height="1.45814" transform="matrix(0.999938 0.0112004 -0.0107513 0.999941 182.052 159.247)" fill="white"/>
<path opacity="0.9" d="M181.027 122.78L182.478 159.252L182.052 159.247L179.735 124.223L178.885 124.214L178.68 116.92L178.255 116.916L177.703 102.327L179.837 101.622L181.027 122.78Z" fill="white"/>
<path opacity="0.9" d="M186.697 122.843L184.462 159.274L184.888 159.279L187.957 124.315L188.808 124.325L189.169 117.038L189.595 117.043L190.46 102.47L188.342 101.717L186.697 122.843Z" fill="white"/>
<path opacity="0.1" fill-rule="evenodd" clip-rule="evenodd" d="M191.169 102.478L177.234 102.322L176.978 103.777L191.105 103.935L191.169 102.478ZM178.471 116.918L191.012 117.059L190.953 118.516L178.239 118.374L178.471 116.918ZM179.736 124.223L187.957 124.316L187.913 125.773L179.578 125.68L179.736 124.223Z" fill="#333333"/>
</g>
</g>
<g clip-path="url(#clip8)">
<rect opacity="0.8" width="14.1758" height="1.45815" transform="matrix(0.999938 0.0112004 -0.0107513 0.999941 203.944 100.861)" fill="white"/>
<mask id="mask7" mask-type="alpha" maskUnits="userSpaceOnUse" x="204" y="100" width="14" height="60">
<path opacity="0.8" fill-rule="evenodd" clip-rule="evenodd" d="M204.652 100.869L217.41 101.012L216.529 117.043L216.056 117.037L215.742 124.325L214.919 124.316L211.821 159.279L208.987 159.247L206.641 124.223L205.819 124.214L205.661 116.921L205.189 116.916L204.652 100.869Z" fill="white"/>
</mask>
<g mask="url(#mask7)">
<path opacity="0.8" d="M204.652 100.869L217.41 101.012L216.529 117.043L205.189 116.916L204.652 100.869Z" fill="white"/>
<path opacity="0.8" d="M205.63 115.462L216.119 115.58L215.742 124.325L205.819 124.214L205.63 115.462Z" fill="white"/>
<path opacity="0.8" d="M206.543 122.764L215.048 122.859L211.822 159.279L208.987 159.247L206.543 122.764Z" fill="white"/>
<rect opacity="0.8" width="2.83517" height="1.45814" transform="matrix(0.999938 0.0112004 -0.0107513 0.999941 208.987 159.247)" fill="white"/>
<path opacity="0.9" d="M207.961 122.78L209.412 159.252L208.987 159.247L206.67 124.223L205.819 124.214L205.614 116.92L205.189 116.916L204.637 102.327L206.771 101.622L207.961 122.78Z" fill="white"/>
<path opacity="0.9" d="M213.631 122.843L211.396 159.274L211.822 159.279L214.891 124.315L215.742 124.325L216.103 117.038L216.529 117.043L217.394 102.47L215.276 101.717L213.631 122.843Z" fill="white"/>
<path opacity="0.1" fill-rule="evenodd" clip-rule="evenodd" d="M218.103 102.478L204.168 102.322L203.912 103.777L218.039 103.935L218.103 102.478ZM205.405 116.918L217.946 117.059L217.887 118.516L205.173 118.374L205.405 116.918ZM206.67 124.223L214.891 124.316L214.847 125.773L206.512 125.68L206.67 124.223Z" fill="#333333"/>
</g>
</g>
<g clip-path="url(#clip9)">
<rect opacity="0.8" width="14.1758" height="1.45815" transform="matrix(0.999938 0.0112004 -0.0107513 0.999941 229.46 100.861)" fill="white"/>
<mask id="mask8" mask-type="alpha" maskUnits="userSpaceOnUse" x="230" y="100" width="13" height="60">
<path opacity="0.8" fill-rule="evenodd" clip-rule="evenodd" d="M230.169 100.869L242.926 101.012L242.045 117.043L241.573 117.037L241.258 124.325L240.436 124.316L237.338 159.279L234.503 159.247L232.158 124.223L231.336 124.214L231.178 116.921L230.705 116.916L230.169 100.869Z" fill="white"/>
</mask>
<g mask="url(#mask8)">
<path opacity="0.8" d="M230.169 100.869L242.926 101.012L242.045 117.043L230.705 116.916L230.169 100.869Z" fill="white"/>
<path opacity="0.8" d="M231.146 115.462L241.636 115.58L241.258 124.325L231.336 124.214L231.146 115.462Z" fill="white"/>
<path opacity="0.8" d="M232.06 122.764L240.565 122.859L237.338 159.279L234.503 159.247L232.06 122.764Z" fill="white"/>
<rect opacity="0.8" width="2.83517" height="1.45815" transform="matrix(0.999938 0.0112004 -0.0107513 0.999941 234.503 159.247)" fill="white"/>
<path opacity="0.9" d="M233.478 122.78L234.928 159.252L234.503 159.247L232.186 124.223L231.336 124.214L231.131 116.92L230.705 116.916L230.153 102.327L232.287 101.622L233.478 122.78Z" fill="white"/>
<path opacity="0.9" d="M239.148 122.843L236.913 159.274L237.338 159.279L240.408 124.315L241.258 124.325L241.62 117.038L242.045 117.043L242.911 102.47L240.792 101.717L239.148 122.843Z" fill="white"/>
<path opacity="0.1" fill-rule="evenodd" clip-rule="evenodd" d="M243.62 102.478L229.685 102.322L229.429 103.777L243.556 103.935L243.62 102.478ZM230.922 116.918L243.463 117.059L243.404 118.516L230.69 118.374L230.922 116.918ZM232.186 124.223L240.408 124.316L240.364 125.773L232.029 125.68L232.186 124.223Z" fill="#333333"/>
</g>
</g>
<g clip-path="url(#clip10)">
<rect opacity="0.8" width="14.1759" height="1.45815" transform="matrix(0.999938 0.0112004 -0.0107513 0.999941 256.394 100.861)" fill="white"/>
<mask id="mask9" mask-type="alpha" maskUnits="userSpaceOnUse" x="257" y="100" width="13" height="60">
<path opacity="0.8" fill-rule="evenodd" clip-rule="evenodd" d="M257.103 100.869L269.861 101.012L268.979 117.043L268.507 117.037L268.192 124.325L267.37 124.316L264.272 159.279L261.437 159.247L259.092 124.223L258.27 124.214L258.112 116.921L257.639 116.916L257.103 100.869Z" fill="white"/>
</mask>
<g mask="url(#mask9)">
<path opacity="0.8" d="M257.103 100.869L269.861 101.012L268.979 117.043L257.639 116.916L257.103 100.869Z" fill="white"/>
<path opacity="0.8" d="M258.08 115.462L268.57 115.58L268.192 124.325L258.27 124.214L258.08 115.462Z" fill="white"/>
<path opacity="0.8" d="M258.994 122.764L267.499 122.859L264.272 159.279L261.437 159.247L258.994 122.764Z" fill="white"/>
<rect opacity="0.8" width="2.83517" height="1.45814" transform="matrix(0.999938 0.0112004 -0.0107513 0.999941 261.437 159.247)" fill="white"/>
<path opacity="0.9" d="M260.412 122.78L261.862 159.252L261.437 159.247L259.12 124.223L258.27 124.214L258.065 116.92L257.639 116.916L257.087 102.327L259.221 101.622L260.412 122.78Z" fill="white"/>
<path opacity="0.9" d="M266.082 122.843L263.847 159.274L264.272 159.279L267.342 124.315L268.192 124.325L268.554 117.038L268.979 117.043L269.845 102.47L267.727 101.717L266.082 122.843Z" fill="white"/>
<path opacity="0.1" fill-rule="evenodd" clip-rule="evenodd" d="M270.554 102.478L256.619 102.322L256.363 103.777L270.49 103.935L270.554 102.478ZM257.856 116.918L270.397 117.059L270.338 118.516L257.624 118.374L257.856 116.918ZM259.12 124.223L267.342 124.316L267.298 125.773L258.963 125.68L259.12 124.223Z" fill="#333333"/>
</g>
</g>
<path fill-rule="evenodd" clip-rule="evenodd" d="M171.923 124.36C170.818 124.36 169.923 125.255 169.923 126.36L169.923 137.374L163.417 137.374C162.313 137.374 161.417 138.269 161.417 139.374L161.417 143.158L169.923 143.158L169.923 144.05C169.923 145.155 170.818 146.05 171.923 146.05L275.659 146.05C276.764 146.05 277.659 145.155 277.659 144.05L277.659 143.158L287.582 143.158L287.582 139.374C287.582 138.269 286.687 137.374 285.582 137.374L277.659 137.374L277.659 126.36C277.659 125.255 276.764 124.36 275.659 124.36L171.923 124.36Z" fill="#F79689"/>
<path fill-rule="evenodd" clip-rule="evenodd" d="M273.406 137.374L174.176 137.374L171.923 137.374L169.923 137.374L169.923 135.374L169.923 131.59L169.923 126.36C169.923 125.255 170.818 124.36 171.923 124.36L174.176 124.36L174.176 131.59L273.406 131.59L273.406 124.36L275.659 124.36C276.764 124.36 277.659 125.255 277.659 126.36L277.659 131.59L277.659 135.374L277.659 137.374L275.659 137.374L273.406 137.374ZM161.417 139.374C161.417 138.269 162.313 137.374 163.417 137.374L165.67 137.374L165.67 143.158L161.417 143.158L161.417 139.374ZM285.582 137.374L283.33 137.374L283.33 143.158L287.582 143.158L287.582 139.374C287.582 138.269 286.687 137.374 285.582 137.374Z" fill="#DE7062"/>
<path d="M166.357 146.55L283.315 146.55C283.308 146.571 283.3 146.592 283.293 146.614C283.115 147.115 282.863 147.873 282.562 148.904C281.959 150.966 281.157 154.124 280.357 158.523C278.77 167.249 277.186 180.859 277.16 200.5L260.746 200.5L257.293 199.091L257.202 199.054L257.104 199.054L190.478 199.054L190.38 199.054L190.289 199.091L186.836 200.5L171.84 200.5C171.816 181.219 170.409 167.614 168.999 158.805C168.288 154.362 167.576 151.139 167.041 149.023C166.773 147.965 166.55 147.184 166.392 146.665C166.38 146.625 166.369 146.587 166.357 146.55Z" fill="#F5F7F9" fill-opacity="0.6" stroke="#E5ECF0"/>
<path d="M165.67 144.604C165.67 144.604 171.34 160.511 171.34 199.554L186.934 199.554L190.478 198.108L257.104 198.108L260.648 199.554L277.659 199.554C277.659 159.788 283.329 144.604 283.329 144.604" stroke="#E5ECF0" stroke-width="2"/>
<path d="M161.417 143.158L287.582 143.158V143.158C287.582 144.755 286.287 146.05 284.69 146.05L164.31 146.05C162.712 146.05 161.417 144.755 161.417 143.158V143.158Z" fill="#E5ECF0"/>
<path d="M257.813 198.108L257.813 173.665C257.813 166.295 248.274 154.727 224.109 154.727C199.944 154.727 189.769 166.295 189.769 173.665L189.769 198.108" stroke="#E5ECF0" stroke-width="2" stroke-linecap="round"/>
<rect opacity="0.6" x="209.615" y="150.388" width="28.3516" height="8.67627" rx="1" fill="#F5F7F9"/>
<path d="M190.289 79.9725L190.563 80.5323L191.187 80.5323L255.687 80.5323L256.193 80.5323L256.493 80.1247L258.319 77.6403L280.958 77.6403L283.7 136.374L163.883 136.374L166.625 77.6403L189.146 77.6403L190.289 79.9725Z" fill="#F5F7F9" fill-opacity="0.6" stroke="#E5ECF0" stroke-width="2"/>
<path d="M189.769 79.5323L192.604 91.1007" stroke="#E5ECF0" stroke-width="2" stroke-linecap="round"/>
<path d="M257.813 79.5323L254.978 91.1007" stroke="#E5ECF0" stroke-width="2" stroke-linecap="round"/>
<path d="M201.11 80.9784L246.473 80.9784L246.473 91.9928C246.473 93.0973 245.577 93.9928 244.473 93.9928L203.11 93.9928C202.005 93.9928 201.11 93.0973 201.11 91.9928L201.11 80.9784Z" stroke="#E5ECF0" stroke-width="2"/>
<rect x="209.198" y="135.482" width="29.1868" height="26.9209" rx="2" fill="#F5F7F9" fill-opacity="0.6" stroke="#E5ECF0" stroke-width="2"/>
</g>
<defs>
<clipPath id="clip0">
<rect width="129" height="201" fill="white" transform="translate(160)"/>
</clipPath>
<clipPath id="clip1">
<rect width="12.1824" height="78.9643" fill="white" transform="matrix(0.999985 0.00555688 -0.00541741 0.999985 189.974 108.119)"/>
</clipPath>
<clipPath id="clip2">
<rect width="12.1824" height="78.9643" fill="white" transform="matrix(0.999985 0.00555688 -0.00541742 0.999985 240.629 108.119)"/>
</clipPath>
<clipPath id="clip3">
<rect width="12.1824" height="78.9643" fill="white" transform="matrix(0.999985 0.00555688 -0.00541741 0.999985 216.53 108.119)"/>
</clipPath>
<clipPath id="clip4">
<rect width="13.2898" height="86.1428" fill="white" transform="matrix(0.999985 0.00555688 -0.00541741 0.999985 195.645 105.249)"/>
</clipPath>
<clipPath id="clip5">
<rect width="13.2898" height="86.1428" fill="white" transform="matrix(0.999985 0.00555688 -0.00541741 0.999985 222.202 105.249)"/>
</clipPath>
<clipPath id="clip6">
<rect width="13.2898" height="86.1428" fill="white" transform="matrix(0.999985 0.00555688 -0.00541741 0.999985 247.341 105.249)"/>
</clipPath>
<clipPath id="clip7">
<rect width="14.1758" height="93.3214" fill="white" transform="matrix(0.999985 0.00555688 -0.00541741 0.999985 177.009 100.941)"/>
</clipPath>
<clipPath id="clip8">
<rect width="14.1758" height="93.3214" fill="white" transform="matrix(0.999985 0.00555688 -0.00541741 0.999985 203.943 100.941)"/>
</clipPath>
<clipPath id="clip9">
<rect width="14.1758" height="93.3214" fill="white" transform="matrix(0.999985 0.00555688 -0.00541741 0.999985 229.459 100.941)"/>
</clipPath>
<clipPath id="clip10">
<rect width="14.1758" height="93.3214" fill="white" transform="matrix(0.999985 0.00555688 -0.00541742 0.999985 256.393 100.941)"/>
</clipPath>
</defs>
</svg>
