<svg width="368" height="210" viewBox="0 0 368 210" fill="none" xmlns="http://www.w3.org/2000/svg">
<rect width="368" height="210" fill="#0063C3"/>
<rect width="210" height="210" transform="translate(84)" fill="#0063C3"/>
<path fill-rule="evenodd" clip-rule="evenodd" d="M159.484 181.911C121.367 166.982 102.414 124.3 116.82 86.1291L141.465 82.1987L150.837 94.3966C148.078 99.8253 146.524 105.968 146.524 112.471C146.524 134.303 164.037 152.045 185.782 152.413L179.71 167.059L195.482 186.441C183.654 187.9 171.351 186.543 159.484 181.911Z" fill="#84BE60"/>
<path fill-rule="evenodd" clip-rule="evenodd" d="M142.594 79.3525L117.965 83.3335C133.677 46.4305 175.89 28.4629 213.515 43.0886C225.902 47.9242 236.263 55.6866 244.131 65.2809L235.208 88.5972L219.905 90.6019C212.772 79.7173 200.462 72.5237 186.471 72.5237C171.943 72.5237 159.229 80.2789 152.238 91.8699L142.594 79.3525Z" fill="#FAAC48"/>
<path fill-rule="evenodd" clip-rule="evenodd" d="M236.992 91.0591L245.967 67.7469C260.921 87.6543 265.529 114.628 255.8 139.514L255.799 139.516C245.922 164.922 223.547 181.854 198.464 185.948L182.688 166.56L188.572 152.364C209.659 151.271 226.42 133.829 226.42 112.471C226.42 105.444 224.605 98.838 221.417 93.0995L236.992 91.0591Z" fill="#ED3431"/>
<path d="M173.427 99H174.687V95.318H177.011C179.237 95.318 180.189 94.45 180.189 92.406C180.189 90.362 179.237 89.48 177.011 89.48H173.427V99ZM174.687 94.17V90.628H176.927C178.397 90.628 178.929 91.132 178.929 92.406C178.929 93.68 178.397 94.17 176.927 94.17H174.687ZM185.176 99.168C187.416 99.168 188.564 98.076 188.648 95.878H187.416C187.346 97.334 186.632 98.02 185.176 98.02C183.58 98.02 182.88 97.208 182.88 95.374V93.106C182.88 91.272 183.58 90.46 185.176 90.46C186.632 90.46 187.346 91.146 187.416 92.616H188.648C188.564 90.404 187.416 89.312 185.176 89.312C182.782 89.312 181.62 90.572 181.62 93.078V95.402C181.62 97.908 182.782 99.168 185.176 99.168ZM190.626 99H191.886V95.136H193.972L196.24 99H197.696L195.372 95.052C196.758 94.786 197.346 93.932 197.346 92.308C197.346 90.306 196.45 89.48 194.28 89.48H190.626V99ZM191.886 93.988V90.628H194.168C195.596 90.628 196.086 91.09 196.086 92.308C196.086 93.526 195.596 93.988 194.168 93.988H191.886ZM160.438 116H161.698V112.136H163.784L166.052 116H167.508L165.184 112.052C166.57 111.786 167.158 110.932 167.158 109.308C167.158 107.306 166.262 106.48 164.092 106.48H160.438V116ZM161.698 110.988V107.628H163.98C165.408 107.628 165.898 108.09 165.898 109.308C165.898 110.526 165.408 110.988 163.98 110.988H161.698ZM172.012 116.168C173.748 116.168 174.826 115.384 174.924 113.844H173.734C173.65 114.628 173.076 115.104 171.984 115.104C170.696 115.104 170.108 114.46 170.108 113.046V112.724H174.98V111.674C174.98 109.686 173.902 108.608 171.928 108.608C169.954 108.608 168.876 109.686 168.876 111.674V113.102C168.876 115.09 169.982 116.168 172.012 116.168ZM170.108 111.702C170.108 110.316 170.682 109.672 171.956 109.672C173.216 109.672 173.79 110.316 173.79 111.702H170.108ZM178.827 116.168C179.877 116.168 180.689 115.762 181.277 115.02L181.319 116H182.369V111.282C182.369 109.49 181.445 108.608 179.541 108.608C177.735 108.608 176.755 109.406 176.629 110.974H177.833C177.875 110.092 178.477 109.672 179.499 109.672C180.619 109.672 181.137 110.19 181.137 111.31V111.702H179.401C177.371 111.702 176.419 112.514 176.419 113.956C176.419 115.37 177.343 116.168 178.827 116.168ZM179.009 115.104C178.099 115.104 177.651 114.684 177.651 113.928C177.651 113.116 178.183 112.724 179.443 112.724H181.137V113.746C180.703 114.628 179.975 115.104 179.009 115.104ZM187.185 116.168C189.005 116.168 190.013 115.244 190.069 113.494H188.879C188.795 114.656 188.207 115.09 187.199 115.09C185.981 115.09 185.407 114.46 185.407 113.074V111.702C185.407 110.316 185.981 109.686 187.199 109.686C188.207 109.686 188.795 110.12 188.879 111.282H190.069C190.013 109.532 189.005 108.608 187.185 108.608C185.225 108.608 184.175 109.672 184.175 111.674V113.102C184.175 115.104 185.225 116.168 187.185 116.168ZM194.107 116H195.227V114.936H194.401C193.575 114.936 193.365 114.698 193.365 113.76V109.784H195.143V108.776H193.365V106.872H192.259L192.161 108.776H190.887V109.784H192.133V113.746C192.133 115.328 192.721 116 194.107 116ZM196.583 107.474H197.927V106.102H196.583V107.474ZM196.639 116H197.871V108.776H196.639V116ZM202.951 116.168C204.995 116.168 206.073 115.076 206.073 112.976V111.8C206.073 109.7 204.995 108.608 202.951 108.608C200.907 108.608 199.829 109.7 199.829 111.8V112.976C199.829 115.076 200.907 116.168 202.951 116.168ZM202.951 115.09C201.677 115.09 201.061 114.39 201.061 112.934V111.828C201.061 110.372 201.677 109.686 202.951 109.686C204.225 109.686 204.841 110.372 204.841 111.828V112.934C204.841 114.39 204.225 115.09 202.951 115.09ZM208.027 116H209.259V111.31C209.777 110.246 210.435 109.742 211.289 109.742C212.143 109.742 212.563 110.232 212.563 111.366V116H213.795V111.254C213.795 109.518 213.039 108.608 211.527 108.608C210.519 108.608 209.749 109.014 209.119 109.91L209.077 108.776H208.027V116ZM176.488 133.168C178.728 133.168 179.876 132.076 179.96 129.878H178.728C178.658 131.334 177.944 132.02 176.488 132.02C174.892 132.02 174.192 131.208 174.192 129.374V127.106C174.192 125.272 174.892 124.46 176.488 124.46C177.944 124.46 178.658 125.146 178.728 126.616H179.96C179.876 124.404 178.728 123.312 176.488 123.312C174.094 123.312 172.932 124.572 172.932 127.078V129.402C172.932 131.908 174.094 133.168 176.488 133.168ZM181.516 135.548H182.244C183.35 135.548 183.854 135.142 184.302 133.868L187.13 125.776H185.87L184.092 131.11L182.174 125.776H180.858L183.462 132.72L183.126 133.728C182.93 134.316 182.692 134.484 182.132 134.484H181.516V135.548ZM190.993 133.168C192.813 133.168 193.821 132.244 193.877 130.494H192.687C192.603 131.656 192.015 132.09 191.007 132.09C189.789 132.09 189.215 131.46 189.215 130.074V128.702C189.215 127.316 189.789 126.686 191.007 126.686C192.015 126.686 192.603 127.12 192.687 128.282H193.877C193.821 126.532 192.813 125.608 190.993 125.608C189.033 125.608 187.983 126.672 187.983 128.674V130.102C187.983 132.104 189.033 133.168 190.993 133.168ZM195.579 133H196.811V122.78H195.579V133ZM201.906 133.168C203.642 133.168 204.72 132.384 204.818 130.844H203.628C203.544 131.628 202.97 132.104 201.878 132.104C200.59 132.104 200.002 131.46 200.002 130.046V129.724H204.874V128.674C204.874 126.686 203.796 125.608 201.822 125.608C199.848 125.608 198.77 126.686 198.77 128.674V130.102C198.77 132.09 199.876 133.168 201.906 133.168ZM200.002 128.702C200.002 127.316 200.576 126.672 201.85 126.672C203.11 126.672 203.684 127.316 203.684 128.702H200.002Z" fill="white"/>
<circle cx="187" cy="38" r="27" fill="#FAAC48"/>
<circle cx="187" cy="38" r="27" fill="#FCCD91"/>
<circle cx="187" cy="38" r="27" stroke="#003E6B" stroke-width="2"/>
<circle cx="249" cy="158" r="27" fill="#F48583" stroke="#003E6B" stroke-width="2"/>
<circle cx="124" cy="158" r="27" fill="#B5D8A0" stroke="#003E6B" stroke-width="2"/>
<path d="M188.166 26.3122C188.166 26.3122 188.166 26.5163 188.166 27.3329C188.166 30.3951 180 33.4572 180 36.5194" stroke="#003E6B" stroke-width="2" stroke-linecap="round"/>
<path d="M188.166 44.7872C188.166 44.7872 188.166 44.9914 188.166 45.808C188.166 48.8701 180 51.9323 180 54.9945" stroke="#003E6B" stroke-width="2" stroke-linecap="round"/>
<path d="M179.998 36.5193C179.998 39.2753 188.164 42.0313 188.164 44.7872" stroke="#003E6B" stroke-width="2" stroke-linecap="round"/>
<path d="M179.998 18.047C179.998 20.8029 188.164 23.5589 188.164 26.3149" stroke="#003E6B" stroke-width="2" stroke-linecap="round"/>
<path d="M249.166 147.265C249.166 147.265 249.166 147.469 249.166 148.286C249.166 151.348 241 154.41 241 157.472" stroke="#003E6B" stroke-width="2" stroke-linecap="round"/>
<path d="M249.166 165.74C249.166 165.74 249.166 165.944 249.166 166.761C249.166 169.823 241 172.885 241 175.947" stroke="#003E6B" stroke-width="2" stroke-linecap="round"/>
<path d="M244.166 165C244.166 165 244.166 165.204 244.166 166.021C244.166 169.083 236 172.145 236 175.207" stroke="#003E6B" stroke-width="2" stroke-linecap="round"/>
<path d="M240.998 157.472C240.998 160.228 249.164 162.984 249.164 165.74" stroke="#003E6B" stroke-width="2" stroke-linecap="round"/>
<path d="M240.998 139C240.998 141.756 249.164 144.512 249.164 147.268" stroke="#003E6B" stroke-width="2" stroke-linecap="round"/>
<path d="M196.002 26.2128C196.002 30.2957 187.836 33.3578 187.836 36.42" stroke="#003E6B" stroke-width="2" stroke-linecap="round"/>
<path d="M196.002 44.7872C196.002 48.8701 187.836 51.9323 187.836 54.9945" stroke="#003E6B" stroke-width="2" stroke-linecap="round"/>
<path d="M187.834 18.047C187.834 20.5524 196 22.6402 196 26.2128" stroke="#003E6B" stroke-width="2" stroke-linecap="round"/>
<path d="M187.834 36.5221C187.834 39.0275 196 41.1153 196 44.6878" stroke="#003E6B" stroke-width="2" stroke-linecap="round"/>
<path d="M135.166 156.265C135.166 156.265 135.166 156.469 135.166 157.286C135.166 160.348 127 163.41 127 166.472" stroke="#003E6B" stroke-width="2" stroke-linecap="round"/>
<path d="M126.998 166.472C126.998 169.228 135.164 171.984 135.164 174.74" stroke="#003E6B" stroke-width="2" stroke-linecap="round"/>
<path d="M132 148C132 150.667 135 153.333 135 156" stroke="#003E6B" stroke-width="2" stroke-linecap="round"/>
<path d="M129 147C129 151 126 154 126 157" stroke="#003E6B" stroke-width="2" stroke-linecap="round"/>
<path d="M135 139C135 143 132 146 132 149" stroke="#003E6B" stroke-width="2" stroke-linecap="round"/>
<path d="M134.002 165.74C134.002 169.823 125.836 172.885 125.836 175.947" stroke="#003E6B" stroke-width="2" stroke-linecap="round"/>
<path d="M125 138C125 140.761 129 143.062 129 147" stroke="#003E6B" stroke-width="2" stroke-linecap="round"/>
<path d="M125.834 157.475C125.834 159.98 134 162.068 134 165.641" stroke="#003E6B" stroke-width="2" stroke-linecap="round"/>
<path d="M110.998 157.682C110.998 157.682 110.998 157.478 110.998 156.662C110.998 153.599 119.164 150.537 119.164 147.475" stroke="#003E6B" stroke-width="2" stroke-linecap="round"/>
<path d="M119.166 147.475C119.166 144.719 111 141.963 111 139.207" stroke="#003E6B" stroke-width="2" stroke-linecap="round"/>
<path d="M114.164 165.947C114.164 163.281 111.164 160.614 111.164 157.947" stroke="#003E6B" stroke-width="2" stroke-linecap="round"/>
<path d="M117.164 166.947C117.164 162.947 120.164 159.947 120.164 156.947" stroke="#003E6B" stroke-width="2" stroke-linecap="round"/>
<path d="M111.164 174.947C111.164 170.947 114.164 167.947 114.164 164.947" stroke="#003E6B" stroke-width="2" stroke-linecap="round"/>
<path d="M112.162 148.207C112.162 144.124 120.328 141.062 120.328 138" stroke="#003E6B" stroke-width="2" stroke-linecap="round"/>
<path d="M121.164 175.947C121.164 173.186 117.164 170.885 117.164 166.947" stroke="#003E6B" stroke-width="2" stroke-linecap="round"/>
<path d="M120.33 156.472C120.33 153.967 112.164 151.879 112.164 148.307" stroke="#003E6B" stroke-width="2" stroke-linecap="round"/>
<path d="M259.002 147.166C259.002 151.249 250.836 154.311 250.836 157.373" stroke="#003E6B" stroke-width="2" stroke-linecap="round"/>
<path d="M259.002 165.74C259.002 169.823 250.836 172.885 250.836 175.947" stroke="#003E6B" stroke-width="2" stroke-linecap="round"/>
<path d="M250.834 139C250.834 141.505 259 143.593 259 147.166" stroke="#003E6B" stroke-width="2" stroke-linecap="round"/>
<path d="M255.002 137C255.002 139.505 263.168 141.593 263.168 145.166" stroke="#003E6B" stroke-width="2" stroke-linecap="round"/>
<path d="M250.834 157.475C250.834 159.98 259 162.068 259 165.641" stroke="#003E6B" stroke-width="2" stroke-linecap="round"/>
<circle cx="130.5" cy="148.5" r="2.5" fill="#003E6B" stroke="#003E6B" stroke-width="4"/>
<circle cx="115.5" cy="165.5" r="2.5" fill="#003E6B" stroke="#003E6B" stroke-width="4"/>
</svg>
