<svg width="368" height="210" viewBox="0 0 368 210" fill="none" xmlns="http://www.w3.org/2000/svg">
<rect width="368" height="210" fill="#0063C3"/>
<rect width="210" height="210" transform="translate(84)" fill="#0063C3"/>
<path d="M87.5156 145.758H88.2188C88.9154 145.758 89.4557 145.566 89.8398 145.182C90.224 144.811 90.416 144.329 90.416 143.736C90.403 143.137 90.2044 142.646 89.8203 142.262C89.4362 141.891 88.9414 141.699 88.3359 141.686C87.8997 141.686 87.5026 141.826 87.1445 142.105C86.7669 142.385 86.513 142.818 86.3828 143.404H84.3418C84.446 142.35 84.8724 141.461 85.6211 140.738C86.3568 140.022 87.2357 139.658 88.2578 139.645C89.5534 139.658 90.582 140.071 91.3438 140.885C92.0729 141.679 92.444 142.617 92.457 143.697C92.457 144.244 92.3594 144.771 92.1641 145.279C91.9362 145.787 91.5293 146.24 90.9434 146.637C91.5423 147.027 91.9753 147.496 92.2422 148.043C92.4961 148.59 92.623 149.163 92.623 149.762C92.61 151.096 92.1966 152.148 91.3828 152.916C90.582 153.704 89.5534 154.104 88.2969 154.117C87.3268 154.117 86.4674 153.805 85.7188 153.18C84.9701 152.555 84.485 151.65 84.2637 150.465H86.3047C86.487 150.94 86.7441 151.324 87.0762 151.617C87.4147 151.923 87.8639 152.076 88.4238 152.076C89.0228 152.076 89.5273 151.871 89.9375 151.461C90.3542 151.077 90.569 150.53 90.582 149.82C90.569 149.098 90.3542 148.538 89.9375 148.141C89.5273 147.757 89.0065 147.564 88.375 147.564H87.5156V145.758ZM94.9863 139.762H97.0273V141.803L94.9863 143.277V139.762Z" fill="white"/>
<path d="M84.9961 53.7617H92.584V55.8027H86.9199V59.0254C87.584 58.5046 88.3424 58.2441 89.1953 58.2441C89.7422 58.2572 90.2435 58.3548 90.6992 58.5371C91.1289 58.7389 91.4772 58.9863 91.7441 59.2793C92.1413 59.6699 92.4277 60.1224 92.6035 60.6367C92.6947 60.9167 92.7598 61.2585 92.7988 61.6621C92.8379 62.0723 92.8574 62.5768 92.8574 63.1758C92.8574 64.1003 92.7923 64.8099 92.6621 65.3047C92.5254 65.793 92.2975 66.2259 91.9785 66.6035C91.6986 66.9746 91.2917 67.3132 90.7578 67.6191C90.237 67.9382 89.6185 68.1042 88.9023 68.1172C87.9388 68.1172 87.0566 67.8307 86.2559 67.2578C85.4421 66.6719 84.9375 65.7246 84.7422 64.416H86.7832C87.0046 65.5098 87.6849 66.0632 88.8242 66.0762C89.3125 66.0762 89.7031 65.9785 89.9961 65.7832C90.276 65.5944 90.4714 65.347 90.582 65.041C90.6992 64.735 90.7708 64.403 90.7969 64.0449C90.8099 63.6934 90.8164 63.3516 90.8164 63.0195C90.8294 62.2057 90.7025 61.5449 90.4355 61.0371C90.2923 60.7962 90.0807 60.6042 89.8008 60.4609C89.5208 60.3438 89.1725 60.2852 88.7559 60.2852C88.3848 60.2852 88.0462 60.3698 87.7402 60.5391C87.4342 60.7148 87.1608 61.0208 86.9199 61.457H84.9961V53.7617ZM94.9863 53.7617H97.0273V55.8027L94.9863 57.2773V53.7617Z" fill="white"/>
<path d="M194.516 124.758H195.219C195.915 124.758 196.456 124.566 196.84 124.182C197.224 123.811 197.416 123.329 197.416 122.736C197.403 122.137 197.204 121.646 196.82 121.262C196.436 120.891 195.941 120.699 195.336 120.686C194.9 120.686 194.503 120.826 194.145 121.105C193.767 121.385 193.513 121.818 193.383 122.404H191.342C191.446 121.35 191.872 120.461 192.621 119.738C193.357 119.022 194.236 118.658 195.258 118.645C196.553 118.658 197.582 119.071 198.344 119.885C199.073 120.679 199.444 121.617 199.457 122.697C199.457 123.244 199.359 123.771 199.164 124.279C198.936 124.787 198.529 125.24 197.943 125.637C198.542 126.027 198.975 126.496 199.242 127.043C199.496 127.59 199.623 128.163 199.623 128.762C199.61 130.096 199.197 131.148 198.383 131.916C197.582 132.704 196.553 133.104 195.297 133.117C194.327 133.117 193.467 132.805 192.719 132.18C191.97 131.555 191.485 130.65 191.264 129.465H193.305C193.487 129.94 193.744 130.324 194.076 130.617C194.415 130.923 194.864 131.076 195.424 131.076C196.023 131.076 196.527 130.871 196.938 130.461C197.354 130.077 197.569 129.53 197.582 128.82C197.569 128.098 197.354 127.538 196.938 127.141C196.527 126.757 196.007 126.564 195.375 126.564H194.516V124.758ZM201.986 118.762H204.027V120.803L201.986 122.277V118.762Z" fill="white"/>
<path d="M238.996 72.7617H246.584V74.8027H240.92V78.0254C241.584 77.5046 242.342 77.2441 243.195 77.2441C243.742 77.2572 244.243 77.3548 244.699 77.5371C245.129 77.7389 245.477 77.9863 245.744 78.2793C246.141 78.6699 246.428 79.1224 246.604 79.6367C246.695 79.9167 246.76 80.2585 246.799 80.6621C246.838 81.0723 246.857 81.5768 246.857 82.1758C246.857 83.1003 246.792 83.8099 246.662 84.3047C246.525 84.793 246.298 85.2259 245.979 85.6035C245.699 85.9746 245.292 86.3132 244.758 86.6191C244.237 86.9382 243.618 87.1042 242.902 87.1172C241.939 87.1172 241.057 86.8307 240.256 86.2578C239.442 85.6719 238.938 84.7246 238.742 83.416H240.783C241.005 84.5098 241.685 85.0632 242.824 85.0762C243.312 85.0762 243.703 84.9785 243.996 84.7832C244.276 84.5944 244.471 84.347 244.582 84.041C244.699 83.735 244.771 83.403 244.797 83.0449C244.81 82.6934 244.816 82.3516 244.816 82.0195C244.829 81.2057 244.702 80.5449 244.436 80.0371C244.292 79.7962 244.081 79.6042 243.801 79.4609C243.521 79.3438 243.173 79.2852 242.756 79.2852C242.385 79.2852 242.046 79.3698 241.74 79.5391C241.434 79.7148 241.161 80.0208 240.92 80.457H238.996V72.7617ZM248.986 72.7617H251.027V74.8027L248.986 76.2773V72.7617Z" fill="white"/>
<path d="M269.996 139.762H277.584V141.803H271.92V145.025C272.584 144.505 273.342 144.244 274.195 144.244C274.742 144.257 275.243 144.355 275.699 144.537C276.129 144.739 276.477 144.986 276.744 145.279C277.141 145.67 277.428 146.122 277.604 146.637C277.695 146.917 277.76 147.258 277.799 147.662C277.838 148.072 277.857 148.577 277.857 149.176C277.857 150.1 277.792 150.81 277.662 151.305C277.525 151.793 277.298 152.226 276.979 152.604C276.699 152.975 276.292 153.313 275.758 153.619C275.237 153.938 274.618 154.104 273.902 154.117C272.939 154.117 272.057 153.831 271.256 153.258C270.442 152.672 269.938 151.725 269.742 150.416H271.783C272.005 151.51 272.685 152.063 273.824 152.076C274.312 152.076 274.703 151.979 274.996 151.783C275.276 151.594 275.471 151.347 275.582 151.041C275.699 150.735 275.771 150.403 275.797 150.045C275.81 149.693 275.816 149.352 275.816 149.02C275.829 148.206 275.702 147.545 275.436 147.037C275.292 146.796 275.081 146.604 274.801 146.461C274.521 146.344 274.173 146.285 273.756 146.285C273.385 146.285 273.046 146.37 272.74 146.539C272.434 146.715 272.161 147.021 271.92 147.457H269.996V139.762ZM279.986 139.762H282.027V141.803L279.986 143.277V139.762Z" fill="white"/>
<path d="M272.516 59.7578H273.219C273.915 59.7578 274.456 59.5658 274.84 59.1816C275.224 58.8105 275.416 58.3288 275.416 57.7363C275.403 57.1374 275.204 56.6458 274.82 56.2617C274.436 55.8906 273.941 55.6986 273.336 55.6855C272.9 55.6855 272.503 55.8255 272.145 56.1055C271.767 56.3854 271.513 56.8184 271.383 57.4043H269.342C269.446 56.3496 269.872 55.4609 270.621 54.7383C271.357 54.0221 272.236 53.6576 273.258 53.6445C274.553 53.6576 275.582 54.071 276.344 54.8848C277.073 55.679 277.444 56.6165 277.457 57.6973C277.457 58.2441 277.359 58.7715 277.164 59.2793C276.936 59.7871 276.529 60.2396 275.943 60.6367C276.542 61.0273 276.975 61.4961 277.242 62.043C277.496 62.5898 277.623 63.1628 277.623 63.7617C277.61 65.0964 277.197 66.1478 276.383 66.916C275.582 67.7038 274.553 68.1042 273.297 68.1172C272.327 68.1172 271.467 67.8047 270.719 67.1797C269.97 66.5547 269.485 65.6497 269.264 64.4648H271.305C271.487 64.9401 271.744 65.3242 272.076 65.6172C272.415 65.9232 272.864 66.0762 273.424 66.0762C274.023 66.0762 274.527 65.8711 274.938 65.4609C275.354 65.0768 275.569 64.5299 275.582 63.8203C275.569 63.0977 275.354 62.5378 274.938 62.1406C274.527 61.7565 274.007 61.5645 273.375 61.5645H272.516V59.7578ZM279.986 53.7617H282.027V55.8027L279.986 57.2773V53.7617Z" fill="white"/>
<path d="M123.996 118.762H131.584V120.803H125.92V124.025C126.584 123.505 127.342 123.244 128.195 123.244C128.742 123.257 129.243 123.355 129.699 123.537C130.129 123.739 130.477 123.986 130.744 124.279C131.141 124.67 131.428 125.122 131.604 125.637C131.695 125.917 131.76 126.258 131.799 126.662C131.838 127.072 131.857 127.577 131.857 128.176C131.857 129.1 131.792 129.81 131.662 130.305C131.525 130.793 131.298 131.226 130.979 131.604C130.699 131.975 130.292 132.313 129.758 132.619C129.237 132.938 128.618 133.104 127.902 133.117C126.939 133.117 126.057 132.831 125.256 132.258C124.442 131.672 123.938 130.725 123.742 129.416H125.783C126.005 130.51 126.685 131.063 127.824 131.076C128.312 131.076 128.703 130.979 128.996 130.783C129.276 130.594 129.471 130.347 129.582 130.041C129.699 129.735 129.771 129.403 129.797 129.045C129.81 128.693 129.816 128.352 129.816 128.02C129.829 127.206 129.702 126.545 129.436 126.037C129.292 125.796 129.081 125.604 128.801 125.461C128.521 125.344 128.173 125.285 127.756 125.285C127.385 125.285 127.046 125.37 126.74 125.539C126.434 125.715 126.161 126.021 125.92 126.457H123.996V118.762ZM133.986 118.762H136.027V120.803L133.986 122.277V118.762Z" fill="white"/>
<path d="M173.516 78.7578H174.219C174.915 78.7578 175.456 78.5658 175.84 78.1816C176.224 77.8105 176.416 77.3288 176.416 76.7363C176.403 76.1374 176.204 75.6458 175.82 75.2617C175.436 74.8906 174.941 74.6986 174.336 74.6855C173.9 74.6855 173.503 74.8255 173.145 75.1055C172.767 75.3854 172.513 75.8184 172.383 76.4043H170.342C170.446 75.3496 170.872 74.4609 171.621 73.7383C172.357 73.0221 173.236 72.6576 174.258 72.6445C175.553 72.6576 176.582 73.071 177.344 73.8848C178.073 74.679 178.444 75.6165 178.457 76.6973C178.457 77.2441 178.359 77.7715 178.164 78.2793C177.936 78.7871 177.529 79.2396 176.943 79.6367C177.542 80.0273 177.975 80.4961 178.242 81.043C178.496 81.5898 178.623 82.1628 178.623 82.7617C178.61 84.0964 178.197 85.1478 177.383 85.916C176.582 86.7038 175.553 87.1042 174.297 87.1172C173.327 87.1172 172.467 86.8047 171.719 86.1797C170.97 85.5547 170.485 84.6497 170.264 83.4648H172.305C172.487 83.9401 172.744 84.3242 173.076 84.6172C173.415 84.9232 173.864 85.0762 174.424 85.0762C175.023 85.0762 175.527 84.8711 175.938 84.4609C176.354 84.0768 176.569 83.5299 176.582 82.8203C176.569 82.0977 176.354 81.5378 175.938 81.1406C175.527 80.7565 175.007 80.5645 174.375 80.5645H173.516V78.7578ZM180.986 72.7617H183.027V74.8027L180.986 76.2773V72.7617Z" fill="white"/>
<rect x="102" y="141" width="164" height="10" rx="5" fill="#B6405D" stroke="#003E6B" stroke-width="2" stroke-linecap="round" stroke-linejoin="round"/>
<rect x="102" y="55" width="164" height="10" rx="5" fill="#33BEF2" stroke="#003E6B" stroke-width="2" stroke-linecap="round" stroke-linejoin="round"/>
<rect x="139" y="120" width="49" height="10" rx="5" fill="#66CEF5" stroke="#003E6B" stroke-width="2" stroke-linecap="round" stroke-linejoin="round"/>
<rect x="186" y="74" width="49" height="10" rx="5" fill="#B6405D" stroke="#003E6B" stroke-width="2" stroke-linecap="round" stroke-linejoin="round"/>
<rect x="137" y="142" width="94" height="8" rx="4" fill="#DB9FAE"/>
<rect x="137" y="56" width="94" height="8" rx="4" fill="#CCEFFC"/>
</svg>
