<svg width="448" height="210" viewBox="0 0 448 210" fill="none" xmlns="http://www.w3.org/2000/svg">
<rect width="448" height="210" fill="#0063C3"/>
<path d="M147.166 37.8502L151.81 29.4156H284.481L290.673 37.8502H147.166Z" fill="#668BA6" stroke="#E5ECF0" stroke-width="3"/>
<path d="M144.628 42.7806H293.635L305 160.557H132L144.628 42.7806Z" fill="#E5ECF0"/>
<path d="M144.628 39.3502H293.635L294.898 51.9283H143.365L144.628 39.3502Z" fill="#CCD8E1"/>
<path d="M132 160.557H305L300.703 183.905C300.266 186.278 298.198 188 295.785 188H141.215C138.802 188 136.734 186.278 136.297 183.905L132 160.557Z" fill="#99B2C4"/>
<rect x="164.832" y="66.7932" width="108.599" height="75.4684" fill="#333333"/>
<path d="M157.255 58.7891H281.007L273.431 66.7933H164.832L157.255 58.7891Z" fill="#99B2C4"/>
<path d="M281.007 145.692C281.007 145.692 262.697 150.266 219.131 150.266C175.565 150.266 157.255 145.692 157.255 145.692L164.832 142.262L273.43 142.262L281.007 145.692Z" fill="#F5F7F9"/>
<path d="M273.431 66.7933L281.007 58.7891V145.692L273.431 142.262V66.7933Z" fill="#CCD8E1"/>
<path d="M164.832 66.7933L157.255 58.7891V145.692L164.832 142.262V66.7933Z" fill="#CCD8E1"/>
<rect x="262.066" y="171.992" width="31.5694" height="6.86076" rx="2" fill="#555555"/>
<path fill-rule="evenodd" clip-rule="evenodd" d="M140.839 39.3461C140.839 34.9278 144.421 31.3461 148.839 31.3461H289.423C293.842 31.3461 297.423 34.9278 297.423 39.3461V46.211H294.898V49.6414H241.336C240.231 49.6414 239.336 48.746 239.336 47.6414V46.211V44.7807C239.336 43.6761 238.44 42.7807 237.336 42.7807L200.927 42.7807C199.822 42.7807 198.927 43.6761 198.927 44.7807V46.211V47.6414C198.927 48.746 198.032 49.6414 196.927 49.6414H143.365V46.211H140.839V39.3461Z" fill="#668BA6"/>
<path d="M140.839 43.9241H198.927V45.3545C198.927 46.459 198.032 47.3545 196.927 47.3545H142.839C141.735 47.3545 140.839 46.459 140.839 45.3545V43.9241Z" fill="#0063C3"/>
<path d="M239.336 43.9241H297.423V45.3545C297.423 46.459 296.528 47.3545 295.423 47.3545H241.336C240.231 47.3545 239.336 46.459 239.336 45.3545V43.9241Z" fill="#0063C3"/>
<path fill-rule="evenodd" clip-rule="evenodd" d="M148.839 23.3418C144.421 23.3418 140.839 26.9235 140.839 31.3418V43.9241H198.927H297.423V31.3418C297.423 26.9235 293.842 23.3418 289.423 23.3418H148.839ZM198.927 43.9241V42.4937C198.927 41.3891 199.822 40.4937 200.927 40.4937L237.336 40.4937C238.44 40.4937 239.336 41.3891 239.336 42.4937V43.9241L198.927 43.9241Z" fill="#E5ECF0"/>
<g clip-path="url(#clip0)">
<rect width="106.073" height="73.1814" transform="translate(166.095 67.9368)" fill="url(#paint0_linear)"/>
<rect width="106.073" height="73.1814" transform="translate(166.095 67.9368)" fill="url(#paint1_linear)"/>
<path d="M218.086 95.8758C218.531 90.9396 221.533 88.6336 227.126 88.5433C227.126 88.5433 222.647 92.6629 223.586 96.8135C226.78 110.933 232.267 124.399 232.028 132.093C231.753 140.924 220.513 142.139 217.305 140.547C221.824 138.866 225.562 135.691 226.437 132.185C228.084 120.109 217.641 100.812 218.086 95.8758Z" fill="#0056AA"/>
<path fill-rule="evenodd" clip-rule="evenodd" d="M227.611 88.3536C227.527 88.171 227.332 88.0536 227.117 88.0571C224.251 88.1034 221.963 88.7181 220.33 90.0251C218.69 91.3377 217.791 93.2842 217.561 95.8355C217.499 96.5272 217.627 97.4267 217.87 98.4606C218.114 99.504 218.484 100.725 218.931 102.075C219.386 103.45 219.932 104.993 220.513 106.634C221.063 108.186 221.645 109.827 222.209 111.498C224.559 118.45 226.715 126.184 225.917 132.099C225.085 135.382 221.531 138.451 217.108 140.096C216.918 140.166 216.79 140.331 216.779 140.52C216.767 140.708 216.875 140.885 217.055 140.975C217.971 141.429 219.378 141.654 220.931 141.625C222.498 141.596 224.277 141.308 225.964 140.679C229.353 139.417 232.41 136.761 232.555 132.107C232.677 128.177 231.341 122.818 229.604 116.739C229.189 115.285 228.75 113.787 228.3 112.255C226.861 107.349 225.316 102.081 224.102 96.7141C223.673 94.818 224.478 92.8831 225.456 91.3711C225.94 90.6234 226.454 89.9992 226.847 89.562C227.043 89.3438 227.208 89.1731 227.323 89.0579C227.381 89.0003 227.425 88.9566 227.455 88.9279C227.47 88.9135 227.482 88.9029 227.489 88.8961L227.497 88.8889L227.498 88.8876C227.498 88.8875 227.498 88.8874 227.498 88.8874C227.65 88.7474 227.695 88.5361 227.611 88.3536ZM226.631 89.044C226.931 88.7225 227.126 88.5432 227.126 88.5432C226.872 88.5473 226.624 88.556 226.381 88.5692C221.266 88.8482 218.511 91.1635 218.086 95.8758C217.918 97.7431 219.308 101.666 221.012 106.475C223.812 114.379 227.461 124.678 226.437 132.185C225.606 135.518 222.185 138.553 217.967 140.288C217.748 140.377 217.527 140.464 217.305 140.547C217.504 140.645 217.734 140.733 217.99 140.809C221.865 141.959 231.771 140.376 232.028 132.093C232.176 127.332 230.131 120.36 227.794 112.391C226.354 107.483 224.804 102.195 223.586 96.8134C222.843 93.5287 225.493 90.2634 226.631 89.044Z" fill="#003E6B"/>
<path d="M251.87 71.0876C252.315 66.1514 255.317 63.8454 260.91 63.7551C260.91 63.7551 256.431 67.8747 257.37 72.0253C260.564 86.1446 264.472 101.698 264.233 109.392C263.958 118.223 252.718 119.438 249.51 117.846C254.029 116.166 257.767 112.99 258.642 109.484C260.289 97.4088 251.425 76.0238 251.87 71.0876Z" fill="#0056AA"/>
<path fill-rule="evenodd" clip-rule="evenodd" d="M261.395 63.5655C261.311 63.3829 261.116 63.2656 260.901 63.269C258.035 63.3153 255.747 63.93 254.114 65.237C252.474 66.5497 251.575 68.4962 251.345 71.0474C251.283 71.7283 251.383 72.6526 251.581 73.74C251.78 74.8367 252.087 76.1365 252.459 77.5838C252.831 79.0293 253.277 80.6541 253.752 82.384C254.219 84.0855 254.715 85.8886 255.194 87.7228C257.149 95.1976 258.923 103.465 258.122 109.399C257.29 112.681 253.735 115.75 249.313 117.395C249.123 117.466 248.995 117.631 248.983 117.819C248.972 118.008 249.08 118.185 249.26 118.274C250.175 118.729 251.583 118.954 253.136 118.925C254.703 118.896 256.481 118.607 258.169 117.979C261.558 116.716 264.615 114.06 264.76 109.406C264.881 105.5 263.952 99.6396 262.607 93.0287C261.639 88.2721 260.448 83.0984 259.263 77.9474C258.799 75.928 258.335 73.912 257.886 71.926C257.457 70.0299 258.262 68.0951 259.24 66.583C259.724 65.8353 260.238 65.2112 260.63 64.774C260.827 64.5557 260.992 64.385 261.107 64.2698C261.164 64.2122 261.209 64.1686 261.239 64.1398C261.254 64.1255 261.266 64.1148 261.273 64.1081L261.281 64.1008L261.282 64.0995C261.282 64.0994 261.282 64.0994 261.282 64.0993C261.434 63.9593 261.479 63.7481 261.395 63.5655ZM260.415 64.2559C260.715 63.9345 260.91 63.7552 260.91 63.7552C260.656 63.7593 260.408 63.7679 260.165 63.7812C255.05 64.0601 252.295 66.3754 251.87 71.0877C251.703 72.9433 252.851 77.1231 254.262 82.2591C256.604 90.786 259.67 101.948 258.641 109.484C257.81 112.818 254.39 115.852 250.171 117.587C249.953 117.677 249.732 117.763 249.51 117.846C249.709 117.945 249.938 118.033 250.195 118.109C254.07 119.258 263.975 117.675 264.233 109.392C264.438 102.783 261.583 90.3725 258.749 78.0542C258.284 76.0335 257.82 74.0152 257.37 72.0254C256.627 68.7407 259.277 65.4754 260.415 64.2559Z" fill="#003E6B"/>
<path d="M193.039 113.531C193.484 108.595 196.486 106.289 202.079 106.199C202.079 106.199 197.599 110.319 198.538 114.469C201.733 128.588 207.22 142.055 206.981 149.748C206.706 158.579 195.466 159.795 192.257 158.202C196.776 156.522 200.515 153.347 201.389 149.84C203.037 137.765 192.594 118.468 193.039 113.531Z" fill="#0056AA"/>
<path fill-rule="evenodd" clip-rule="evenodd" d="M202.564 106.009C202.48 105.827 202.284 105.709 202.069 105.713C199.203 105.759 196.916 106.374 195.283 107.681C193.643 108.994 192.743 110.94 192.513 113.491C192.451 114.183 192.58 115.082 192.822 116.116C193.066 117.16 193.436 118.381 193.883 119.731C194.338 121.106 194.884 122.648 195.466 124.29C196.016 125.842 196.597 127.483 197.162 129.154C199.511 136.106 201.668 143.84 200.869 149.755C200.038 153.037 196.483 156.107 192.06 157.751C191.871 157.822 191.742 157.987 191.731 158.176C191.72 158.364 191.828 158.541 192.008 158.631C192.923 159.085 194.331 159.31 195.883 159.281C197.451 159.252 199.229 158.963 200.916 158.335C204.305 157.073 207.363 154.417 207.507 149.762C207.629 145.833 206.294 140.474 204.557 134.395C204.141 132.94 203.702 131.443 203.252 129.911C201.813 125.004 200.268 119.737 199.054 114.37C198.625 112.474 199.43 110.539 200.409 109.027C200.893 108.279 201.406 107.655 201.799 107.218C201.995 107 202.16 106.829 202.275 106.714C202.333 106.656 202.378 106.612 202.408 106.584C202.423 106.569 202.434 106.559 202.441 106.552L202.449 106.545L202.451 106.543C202.451 106.543 202.451 106.543 202.451 106.543C202.603 106.403 202.648 106.192 202.564 106.009ZM201.583 106.7C201.883 106.378 202.078 106.199 202.078 106.199C201.825 106.203 201.576 106.212 201.333 106.225C196.219 106.504 193.464 108.819 193.039 113.532C192.87 115.399 194.26 119.322 195.964 124.131C198.764 132.035 202.413 142.333 201.389 149.841C200.558 153.174 197.138 156.208 192.919 157.943C192.7 158.033 192.48 158.12 192.257 158.202C192.456 158.301 192.686 158.389 192.942 158.465C196.817 159.615 206.723 158.032 206.98 149.748C207.128 144.987 205.084 138.016 202.746 130.047C201.307 125.138 199.756 119.851 198.538 114.469C197.795 111.184 200.445 107.919 201.583 106.7Z" fill="#003E6B"/>
<path d="M223.296 92.5627C223.816 92.1958 224.56 92.2876 224.958 92.7677L240.641 111.701C241.039 112.181 240.94 112.868 240.419 113.235L239.493 113.888C238.972 114.254 238.228 114.163 237.83 113.683L222.147 94.7492C221.749 94.2691 221.849 93.5825 222.369 93.2157L223.296 92.5627Z" fill="#00AEEF"/>
<path fill-rule="evenodd" clip-rule="evenodd" d="M225.377 92.4725L241.06 111.406C241.635 112.099 241.491 113.091 240.739 113.621L239.813 114.274C239.061 114.804 237.986 114.671 237.411 113.978L221.728 95.0444C221.154 94.351 221.297 93.3593 222.049 92.8294L222.976 92.1763C223.727 91.6465 224.802 91.7791 225.377 92.4725ZM224.958 92.7677C224.56 92.2876 223.816 92.1958 223.296 92.5627L222.369 93.2157C221.849 93.5826 221.749 94.2691 222.147 94.7492L237.83 113.683C238.228 114.163 238.972 114.254 239.493 113.888L240.419 113.235C240.939 112.868 241.039 112.181 240.641 111.701L224.958 92.7677Z" fill="#003E6B"/>
<path d="M230.452 87.5181C230.973 87.1513 231.717 87.2431 232.115 87.7231L253.842 113.952C254.239 114.433 254.14 115.119 253.62 115.486L252.693 116.139C252.173 116.506 251.428 116.414 251.031 115.934L229.304 89.7046C228.906 89.2245 229.006 88.538 229.526 88.1712L230.452 87.5181Z" fill="#00AEEF"/>
<path fill-rule="evenodd" clip-rule="evenodd" d="M232.533 87.4279L254.26 113.657C254.835 114.351 254.691 115.342 253.939 115.872L253.013 116.525C252.261 117.055 251.186 116.923 250.612 116.229L228.885 89.9998C228.31 89.3064 228.454 88.3147 229.206 87.7848L230.132 87.1318C230.884 86.6019 231.959 86.7345 232.533 87.4279ZM232.115 87.7231C231.717 87.2431 230.973 87.1513 230.452 87.5181L229.526 88.1712C229.005 88.538 228.906 89.2246 229.304 89.7046L251.031 115.934C251.428 116.414 252.172 116.506 252.693 116.139L253.619 115.486C254.14 115.119 254.239 114.433 253.842 113.952L232.115 87.7231Z" fill="#003E6B"/>
<path d="M243.653 89.7697C244.174 89.4028 244.918 89.4946 245.315 89.9747L262.006 110.124C262.404 110.604 262.304 111.291 261.784 111.658L260.857 112.311C260.337 112.677 259.593 112.586 259.195 112.106L242.504 91.9562C242.107 91.4761 242.206 90.7896 242.727 90.4227L243.653 89.7697Z" fill="#00AEEF"/>
<path fill-rule="evenodd" clip-rule="evenodd" d="M245.734 89.6794L262.425 109.829C262.999 110.522 262.856 111.514 262.104 112.044L261.177 112.697C260.426 113.227 259.351 113.094 258.776 112.401L242.086 92.2513C241.511 91.5579 241.655 90.5662 242.407 90.0363L243.333 89.3832C244.085 88.8534 245.16 88.986 245.734 89.6794ZM245.316 89.9746C244.918 89.4945 244.174 89.4027 243.653 89.7696L242.727 90.4226C242.206 90.7895 242.107 91.476 242.505 91.9561L259.195 112.105C259.593 112.586 260.337 112.677 260.857 112.31L261.784 111.657C262.304 111.291 262.404 110.604 262.006 110.124L245.316 89.9746Z" fill="#003E6B"/>
<path d="M254.664 77.9766C255.185 77.6098 255.929 77.7016 256.326 78.1816L267.981 92.251C268.378 92.7311 268.279 93.4176 267.759 93.7845L266.832 94.4375C266.312 94.8044 265.567 94.7126 265.17 94.2325L253.515 80.1631C253.118 79.683 253.217 78.9965 253.738 78.6297L254.664 77.9766Z" fill="#00AEEF"/>
<path fill-rule="evenodd" clip-rule="evenodd" d="M256.745 77.8864L268.4 91.9558C268.974 92.6493 268.83 93.641 268.078 94.1708L267.152 94.8239C266.4 95.3538 265.325 95.2212 264.751 94.5277L253.096 80.4583C252.522 79.7649 252.666 78.7732 253.417 78.2433L254.344 77.5903C255.096 77.0604 256.171 77.193 256.745 77.8864ZM256.326 78.1816C255.929 77.7016 255.184 77.6098 254.664 77.9766L253.738 78.6297C253.217 78.9965 253.118 79.6831 253.515 80.1631L265.17 94.2325C265.567 94.7126 266.312 94.8044 266.832 94.4376L267.758 93.7845C268.279 93.4177 268.378 92.7311 267.981 92.251L256.326 78.1816Z" fill="#003E6B"/>
<path d="M257.393 67.1938C257.914 66.8269 258.658 66.9187 259.056 67.3988L279.455 92.0258C279.853 92.5059 279.754 93.1924 279.233 93.5593L278.307 94.2123C277.786 94.5792 277.042 94.4874 276.644 94.0073L256.245 69.3803C255.847 68.9002 255.946 68.2137 256.467 67.8468L257.393 67.1938Z" fill="#00AEEF"/>
<path fill-rule="evenodd" clip-rule="evenodd" d="M259.474 67.1036L279.874 91.7306C280.449 92.4241 280.305 93.4157 279.553 93.9456L278.627 94.5987C277.875 95.1286 276.8 94.996 276.225 94.3025L255.826 69.6755C255.251 68.9821 255.395 67.9904 256.147 67.4605L257.073 66.8074C257.825 66.2776 258.9 66.4102 259.474 67.1036ZM259.056 67.3988C258.658 66.9187 257.914 66.8269 257.393 67.1938L256.467 67.8468C255.946 68.2137 255.847 68.9002 256.244 69.3803L276.644 94.0073C277.042 94.4874 277.786 94.5792 278.307 94.2124L279.233 93.5593C279.753 93.1925 279.853 92.5059 279.455 92.0258L259.056 67.3988Z" fill="#003E6B"/>
<path d="M212.279 106.257C212.799 105.89 213.543 105.982 213.941 106.462L230.542 126.504C230.94 126.984 230.841 127.67 230.32 128.037L229.394 128.69C228.873 129.057 228.129 128.965 227.731 128.485L211.13 108.444C210.732 107.964 210.832 107.277 211.352 106.91L212.279 106.257Z" fill="#00AEEF"/>
<path fill-rule="evenodd" clip-rule="evenodd" d="M214.36 106.167L230.961 126.209C231.536 126.902 231.392 127.894 230.64 128.424L229.714 129.077C228.962 129.607 227.887 129.474 227.312 128.781L210.711 108.739C210.137 108.045 210.28 107.054 211.032 106.524L211.958 105.871C212.71 105.341 213.785 105.474 214.36 106.167ZM213.941 106.462C213.543 105.982 212.799 105.89 212.278 106.257L211.352 106.91C210.832 107.277 210.732 107.964 211.13 108.444L227.731 128.485C228.129 128.965 228.873 129.057 229.394 128.69L230.32 128.037C230.84 127.67 230.94 126.984 230.542 126.504L213.941 106.462Z" fill="#003E6B"/>
<path d="M200.819 106.48C201.339 106.113 202.083 106.205 202.481 106.685L226.222 135.346C226.62 135.826 226.521 136.513 226 136.88L225.074 137.533C224.553 137.9 223.809 137.808 223.411 137.328L199.67 108.666C199.272 108.186 199.372 107.5 199.892 107.133L200.819 106.48Z" fill="#00AEEF"/>
<path fill-rule="evenodd" clip-rule="evenodd" d="M202.9 106.39L226.641 135.051C227.216 135.744 227.072 136.736 226.32 137.266L225.394 137.919C224.642 138.449 223.567 138.316 222.993 137.623L199.251 108.962C198.677 108.268 198.821 107.277 199.572 106.747L200.499 106.094C201.25 105.564 202.326 105.696 202.9 106.39ZM202.481 106.685C202.083 106.205 201.339 106.113 200.819 106.48L199.892 107.133C199.372 107.5 199.272 108.186 199.67 108.666L223.412 137.328C223.809 137.808 224.553 137.9 225.074 137.533L226 136.88C226.521 136.513 226.62 135.826 226.223 135.346L202.481 106.685Z" fill="#003E6B"/>
<path d="M197.693 116.391C198.213 116.024 198.958 116.116 199.355 116.596L215.039 135.529C215.436 136.009 215.337 136.696 214.816 137.063L213.89 137.716C213.37 138.083 212.625 137.991 212.228 137.511L196.544 118.577C196.147 118.097 196.246 117.411 196.766 117.044L197.693 116.391Z" fill="#00AEEF"/>
<path fill-rule="evenodd" clip-rule="evenodd" d="M199.774 116.301L215.457 135.234C216.032 135.928 215.888 136.919 215.136 137.449L214.21 138.102C213.458 138.632 212.383 138.499 211.809 137.806L196.125 118.873C195.551 118.179 195.695 117.188 196.446 116.658L197.373 116.005C198.125 115.475 199.2 115.607 199.774 116.301ZM199.355 116.596C198.957 116.116 198.213 116.024 197.693 116.391L196.766 117.044C196.246 117.411 196.146 118.097 196.544 118.577L212.227 137.511C212.625 137.991 213.369 138.083 213.89 137.716L214.816 137.063C215.337 136.696 215.436 136.009 215.039 135.529L199.355 116.596Z" fill="#003E6B"/>
<path d="M192.999 131.251C193.519 130.884 194.263 130.976 194.661 131.456L205.308 144.31C205.706 144.79 205.606 145.476 205.086 145.843L204.159 146.496C203.639 146.863 202.895 146.771 202.497 146.291L191.85 133.438C191.452 132.958 191.552 132.271 192.072 131.904L192.999 131.251Z" fill="#00AEEF"/>
<path fill-rule="evenodd" clip-rule="evenodd" d="M195.08 131.161L205.727 144.014C206.301 144.708 206.157 145.699 205.406 146.229L204.479 146.882C203.727 147.412 202.652 147.28 202.078 146.586L191.431 133.733C190.857 133.039 191 132.048 191.752 131.518L192.678 130.865C193.43 130.335 194.505 130.468 195.08 131.161ZM194.661 131.456C194.263 130.976 193.519 130.884 192.998 131.251L192.072 131.904C191.552 132.271 191.452 132.958 191.85 133.438L202.497 146.291C202.894 146.771 203.639 146.863 204.159 146.496L205.086 145.843C205.606 145.476 205.706 144.79 205.308 144.31L194.661 131.456Z" fill="#003E6B"/>
<path d="M180.808 130.218C181.328 129.851 182.072 129.943 182.47 130.423L201.175 153.004C201.573 153.484 201.473 154.171 200.953 154.537L200.026 155.191C199.506 155.557 198.762 155.466 198.364 154.986L179.659 132.404C179.261 131.924 179.361 131.238 179.881 130.871L180.808 130.218Z" fill="#00AEEF"/>
<path fill-rule="evenodd" clip-rule="evenodd" d="M182.889 130.127L201.594 152.709C202.168 153.402 202.025 154.394 201.273 154.924L200.346 155.577C199.595 156.107 198.52 155.974 197.945 155.281L179.24 132.699C178.666 132.006 178.809 131.014 179.561 130.484L180.488 129.831C181.239 129.301 182.314 129.434 182.889 130.127ZM182.47 130.423C182.072 129.943 181.328 129.851 180.808 130.218L179.881 130.871C179.361 131.237 179.261 131.924 179.659 132.404L198.364 154.985C198.762 155.466 199.506 155.557 200.026 155.19L200.953 154.537C201.473 154.171 201.573 153.484 201.175 153.004L182.47 130.423Z" fill="#003E6B"/>
<path d="M168.614 129.18C169.135 128.813 169.879 128.905 170.277 129.385L189.989 153.183C190.387 153.663 190.287 154.349 189.767 154.716L188.84 155.369C188.32 155.736 187.576 155.644 187.178 155.164L167.466 131.367C167.068 130.887 167.167 130.2 167.688 129.833L168.614 129.18Z" fill="#00AEEF"/>
<path fill-rule="evenodd" clip-rule="evenodd" d="M170.696 129.09L190.408 152.887C190.982 153.581 190.839 154.572 190.087 155.102L189.16 155.755C188.409 156.285 187.334 156.153 186.759 155.459L167.047 131.662C166.472 130.969 166.616 129.977 167.368 129.447L168.294 128.794C169.046 128.264 170.121 128.397 170.696 129.09ZM170.277 129.385C169.879 128.905 169.135 128.813 168.614 129.18L167.688 129.833C167.168 130.2 167.068 130.887 167.466 131.367L187.178 155.164C187.576 155.644 188.32 155.736 188.84 155.369L189.767 154.716C190.287 154.349 190.387 153.663 189.989 153.183L170.277 129.385Z" fill="#003E6B"/>
<path d="M274.428 97.7523C279.708 98.6528 282.909 96.5869 284.472 91.6326C284.472 91.6326 281.141 93.0205 278.787 92.7513C262.18 90.8517 237.259 87.3663 230.202 86.5548C220.805 85.4743 216.668 94.1633 218.498 98.6537C221.443 95.0729 224.74 91.3642 228.637 91.5073C241.7 93.2132 269.148 96.8517 274.428 97.7523Z" fill="#0063C3"/>
<path fill-rule="evenodd" clip-rule="evenodd" d="M284.818 91.2654C284.973 91.3898 285.036 91.5863 284.979 91.7685C284.177 94.307 282.933 96.1819 281.137 97.2919C279.333 98.4067 277.061 98.6958 274.332 98.2304C269.07 97.3329 241.673 93.7007 228.59 91.9922C226.847 91.9367 225.186 92.7345 223.558 94.0498C221.924 95.3701 220.392 97.155 218.918 98.9475C218.802 99.0886 218.612 99.1603 218.422 99.1348C218.232 99.1092 218.072 98.9905 218.005 98.8248C217.015 96.3961 217.653 92.9337 219.709 90.2355C221.789 87.5054 225.356 85.5075 230.267 86.0723C233.028 86.3898 238.516 87.1154 245.162 87.9944C247.025 88.2406 248.978 88.4989 250.988 88.7636C260.176 89.9739 270.554 91.3196 278.852 92.2687C279.915 92.3903 281.248 92.1366 282.36 91.8274C282.907 91.6753 283.384 91.5148 283.723 91.3924C283.893 91.3313 284.027 91.2799 284.119 91.244C284.165 91.2261 284.2 91.2121 284.223 91.2028C284.234 91.1981 284.243 91.1946 284.249 91.1924L284.254 91.1899L284.256 91.1895C284.256 91.1894 284.256 91.1894 284.256 91.1894C284.443 91.1114 284.663 91.141 284.818 91.2654ZM283.843 91.871C284.235 91.7313 284.472 91.6326 284.472 91.6326C284.407 91.8399 284.339 92.0422 284.268 92.2394C282.637 96.7546 279.487 98.6151 274.428 97.7523C269.148 96.8517 241.7 93.2132 228.637 91.5073C224.909 91.3704 221.73 94.7587 218.883 98.1878C218.754 98.3431 218.626 98.4985 218.498 98.6536C218.424 98.4709 218.359 98.2812 218.304 98.0855C217.013 93.4723 221.188 85.5182 230.202 86.5548C232.958 86.8717 238.438 87.5963 245.083 88.475C255.454 89.8465 268.665 91.5934 278.787 92.7513C280.513 92.9487 282.765 92.2551 283.843 91.871Z" fill="#003E6B"/>
<path d="M218.688 141.076C223.968 141.976 229.965 139.865 231.529 134.911C231.529 134.911 225.401 136.344 223.047 136.075C206.44 134.175 180.006 127.723 172.949 126.911C163.553 125.831 159.415 134.52 161.245 139.01C164.19 135.429 167.487 131.721 171.384 131.864C184.447 133.57 213.408 140.175 218.688 141.076Z" fill="#0063C3"/>
<path fill-rule="evenodd" clip-rule="evenodd" d="M231.908 134.573C232.04 134.699 232.088 134.879 232.035 135.047C230.369 140.326 224.032 142.482 218.592 141.554C216.937 141.272 212.972 140.433 207.914 139.363C204.864 138.717 201.418 137.988 197.839 137.246C188.315 135.271 177.846 133.201 171.337 132.349C169.594 132.293 167.933 133.091 166.305 134.406C164.671 135.727 163.139 137.512 161.665 139.304C161.549 139.445 161.359 139.517 161.169 139.491C160.98 139.466 160.82 139.347 160.752 139.181C159.762 136.753 160.4 133.29 162.456 130.592C164.537 127.862 168.103 125.864 173.015 126.429C175.822 126.752 181.645 127.954 188.658 129.402C190.542 129.791 192.511 130.198 194.531 130.61C204.1 132.563 214.837 134.646 223.112 135.592C223.635 135.652 224.407 135.619 225.305 135.523C226.192 135.429 227.165 135.277 228.071 135.116C228.976 134.955 229.809 134.786 230.416 134.657C230.72 134.592 230.966 134.538 231.137 134.5C231.222 134.48 231.288 134.465 231.333 134.455C231.355 134.45 231.372 134.446 231.383 134.443L231.399 134.44L231.4 134.44C231.583 134.397 231.777 134.448 231.908 134.573ZM171.384 131.864C180.378 133.038 196.908 136.535 208.057 138.894C213.101 139.961 217.044 140.795 218.688 141.076C223.771 141.943 229.517 140.019 231.335 135.456C231.406 135.278 231.471 135.097 231.529 134.911C231.529 134.911 231.307 134.963 230.932 135.045C229.334 135.394 224.953 136.293 223.047 136.075C212.981 134.923 199.303 132.099 188.52 129.872C181.513 128.425 175.729 127.231 172.949 126.911C163.935 125.875 159.761 133.829 161.052 138.442C161.106 138.638 161.171 138.827 161.245 139.01C161.373 138.855 161.501 138.7 161.63 138.544C164.477 135.115 167.656 131.727 171.384 131.864Z" fill="#003E6B"/>
<path d="M250.893 118.375C256.173 119.276 262.171 117.164 263.734 112.21C263.734 112.21 257.606 113.643 255.252 113.374C238.645 111.474 212.211 105.022 205.154 104.211C195.758 103.13 191.62 111.819 193.451 116.309C196.395 112.729 199.692 109.02 203.589 109.163C216.652 110.869 245.613 117.474 250.893 118.375Z" fill="#0063C3"/>
<path fill-rule="evenodd" clip-rule="evenodd" d="M264.113 111.873C264.245 111.998 264.293 112.179 264.24 112.346C262.574 117.625 256.237 119.781 250.798 118.853C249.142 118.571 245.178 117.732 240.119 116.662C237.069 116.017 233.623 115.288 230.044 114.546C220.52 112.57 210.051 110.5 203.542 109.648C201.799 109.593 200.138 110.39 198.51 111.706C196.876 113.026 195.345 114.811 193.87 116.603C193.754 116.744 193.564 116.816 193.375 116.791C193.185 116.765 193.025 116.646 192.957 116.481C191.967 114.052 192.605 110.59 194.661 107.891C196.742 105.161 200.308 103.163 205.22 103.728C208.027 104.051 213.85 105.254 220.863 106.702C222.747 107.091 224.716 107.497 226.736 107.91C236.305 109.862 247.042 111.945 255.317 112.892C255.84 112.951 256.612 112.919 257.51 112.823C258.398 112.728 259.37 112.577 260.276 112.416C261.181 112.255 262.014 112.085 262.621 111.956C262.925 111.892 263.171 111.837 263.342 111.799C263.427 111.78 263.493 111.765 263.538 111.754C263.56 111.749 263.577 111.745 263.588 111.743L263.605 111.739L263.605 111.739C263.788 111.696 263.982 111.747 264.113 111.873ZM203.589 109.163C212.583 110.338 229.113 113.835 240.262 116.193C245.306 117.261 249.249 118.095 250.893 118.375C255.976 119.242 261.722 117.319 263.54 112.755C263.611 112.578 263.676 112.396 263.734 112.21C263.734 112.21 263.513 112.262 263.137 112.344C261.54 112.694 257.158 113.592 255.252 113.374C245.186 112.223 231.508 109.398 220.725 107.172C213.718 105.725 207.934 104.53 205.154 104.211C196.14 103.174 191.966 111.128 193.257 115.741C193.311 115.937 193.376 116.127 193.451 116.309C193.578 116.154 193.706 115.999 193.835 115.844C196.682 112.415 199.861 109.026 203.589 109.163Z" fill="#003E6B"/>
<path d="M193.639 158.731C198.919 159.631 204.916 157.52 206.48 152.566C206.48 152.566 200.352 153.999 197.998 153.73C181.391 151.83 181.364 150.272 174.486 148.152C170.68 146.979 164.865 144.521 158.583 146.06C162.891 147.839 169.714 151.515 169.714 151.515C179.933 155.869 188.359 157.83 193.639 158.731Z" fill="#0063C3"/>
<path fill-rule="evenodd" clip-rule="evenodd" d="M206.859 152.228C206.99 152.354 207.038 152.534 206.986 152.702C205.319 157.981 198.983 160.137 193.543 159.209C188.226 158.302 179.757 156.329 169.493 151.957C169.478 151.95 169.463 151.943 169.448 151.935L169.714 151.515C179.933 155.869 188.359 157.83 193.639 158.731C198.721 159.597 204.467 157.674 206.285 153.111C206.356 152.933 206.421 152.751 206.48 152.566C206.48 152.566 206.258 152.618 205.883 152.7C204.285 153.049 199.904 153.948 197.998 153.73C185.638 152.316 182.462 151.092 178.811 149.684C177.556 149.2 176.245 148.695 174.485 148.152C173.989 147.999 173.458 147.824 172.896 147.639C169.346 146.469 164.565 144.893 159.419 145.878C159.141 145.931 158.863 145.992 158.583 146.06C158.833 146.163 159.091 146.273 159.356 146.387C163.659 148.253 169.714 151.515 169.714 151.515C169.448 151.935 169.449 151.935 169.448 151.935L169.448 151.935L169.429 151.925C169.416 151.918 169.397 151.908 169.372 151.894C169.321 151.867 169.246 151.827 169.149 151.775C168.955 151.671 168.672 151.521 168.319 151.335C167.614 150.964 166.629 150.45 165.509 149.88C163.267 148.74 160.5 147.384 158.368 146.504C158.164 146.42 158.04 146.226 158.058 146.021C158.076 145.816 158.232 145.643 158.448 145.59C164.082 144.21 169.361 145.954 173.092 147.186C173.648 147.37 174.169 147.542 174.652 147.691C176.392 148.227 177.698 148.728 178.929 149.202L179.009 149.233C180.21 149.696 181.341 150.132 182.758 150.562C185.653 151.439 189.773 152.299 198.062 153.247C198.585 153.307 199.358 153.274 200.255 153.178C201.143 153.084 202.115 152.932 203.022 152.771C203.927 152.61 204.76 152.441 205.367 152.312C205.67 152.247 205.917 152.193 206.087 152.154C206.172 152.135 206.238 152.12 206.283 152.11C206.305 152.105 206.322 152.101 206.333 152.098L206.35 152.095L206.35 152.095C206.533 152.052 206.727 152.103 206.859 152.228Z" fill="#003E6B"/>
<rect x="165.173" y="87.0204" width="115.033" height="59.1958" fill="url(#paint2_linear)"/>
<g opacity="0.5">
<path d="M173.112 106.029C173.112 105.198 173.843 104.524 174.744 104.524H216.194C217.095 104.524 217.826 105.198 217.826 106.029V114.158C217.826 114.99 217.095 115.664 216.194 115.664H174.744C173.843 115.664 173.112 114.99 173.112 114.158V106.029Z" fill="#0063C3" fill-opacity="0.4"/>
<path fill-rule="evenodd" clip-rule="evenodd" d="M216.194 104.767H174.744C173.988 104.767 173.376 105.332 173.376 106.029V114.158C173.376 114.855 173.988 115.421 174.744 115.421H216.194C216.95 115.421 217.562 114.855 217.562 114.158V106.029C217.562 105.332 216.95 104.767 216.194 104.767ZM174.744 104.524C173.843 104.524 173.112 105.198 173.112 106.029V114.158C173.112 114.99 173.843 115.664 174.744 115.664H216.194C217.095 115.664 217.826 114.99 217.826 114.158V106.029C217.826 105.198 217.095 104.524 216.194 104.524H174.744Z" fill="white"/>
<path d="M184.681 110.482C184.583 110.679 184.434 110.778 184.234 110.778C184.151 110.778 184.079 110.761 184.019 110.729C183.958 110.701 183.908 110.665 183.871 110.62C183.825 110.574 183.794 110.513 183.779 110.438C183.762 110.363 183.753 110.219 183.753 110.006C183.753 109.793 183.762 109.648 183.779 109.571C183.794 109.498 183.825 109.438 183.871 109.392C183.908 109.347 183.958 109.31 184.019 109.28C184.079 109.252 184.151 109.236 184.234 109.234C184.348 109.236 184.444 109.267 184.524 109.325C184.6 109.386 184.652 109.46 184.681 109.547H185.058C185.02 109.366 184.93 109.215 184.788 109.092C184.645 108.97 184.461 108.908 184.234 108.906C184.05 108.908 183.896 108.949 183.773 109.028C183.647 109.106 183.556 109.195 183.499 109.295C183.464 109.348 183.438 109.416 183.42 109.501C183.404 109.587 183.396 109.755 183.396 110.006C183.396 110.253 183.404 110.42 183.42 110.508C183.429 110.554 183.44 110.593 183.453 110.623C183.466 110.653 183.482 110.684 183.499 110.717C183.556 110.817 183.647 110.905 183.773 110.981C183.896 111.06 184.05 111.102 184.234 111.105C184.438 111.105 184.614 111.052 184.763 110.945C184.908 110.837 185.006 110.683 185.058 110.482H184.681Z" fill="white"/>
<path d="M185.28 110.571C185.282 110.745 185.344 110.877 185.465 110.966C185.576 111.057 185.701 111.103 185.84 111.105C186.018 111.105 186.162 111.045 186.272 110.923H186.279V111.088H186.615V109.547H186.279V110.464C186.279 110.568 186.248 110.649 186.185 110.708C186.124 110.766 186.045 110.795 185.949 110.795C185.852 110.795 185.773 110.766 185.711 110.708C185.648 110.649 185.616 110.568 185.616 110.464V109.547H185.28V110.571Z" fill="white"/>
<path d="M187.049 111.088H187.385V110.16C187.387 110.048 187.423 109.966 187.491 109.915C187.553 109.864 187.626 109.838 187.712 109.838C187.788 109.838 187.861 109.864 187.932 109.915L188.177 109.647C188.077 109.57 187.96 109.53 187.826 109.528C187.647 109.528 187.502 109.589 187.392 109.711H187.385V109.547H187.049V111.088Z" fill="white"/>
<path d="M188.333 111.088H188.669V110.16C188.671 110.048 188.706 109.966 188.775 109.915C188.836 109.864 188.91 109.838 188.995 109.838C189.072 109.838 189.145 109.864 189.216 109.915L189.46 109.647C189.361 109.57 189.244 109.53 189.11 109.528C188.931 109.528 188.786 109.589 188.675 109.711H188.669V109.547H188.333V111.088Z" fill="white"/>
<path d="M190.85 110.435V110.18C190.848 109.977 190.78 109.818 190.646 109.702C190.514 109.588 190.352 109.53 190.162 109.528C190.082 109.528 190.002 109.542 189.92 109.568C189.838 109.595 189.763 109.638 189.697 109.699C189.631 109.758 189.578 109.839 189.536 109.942C189.494 110.043 189.473 110.17 189.473 110.322C189.473 110.48 189.497 110.609 189.546 110.708C189.589 110.811 189.647 110.891 189.718 110.948C189.754 110.976 189.793 110.999 189.835 111.018C189.875 111.04 189.915 111.057 189.957 111.07C190.041 111.094 190.127 111.105 190.215 111.105C190.445 111.107 190.646 111.024 190.816 110.856L190.573 110.665C190.466 110.765 190.344 110.815 190.208 110.815C190.091 110.815 189.997 110.782 189.925 110.717C189.848 110.652 189.809 110.558 189.809 110.435H190.85ZM189.809 110.18C189.816 110.06 189.851 109.969 189.914 109.908C189.978 109.85 190.061 109.821 190.162 109.821C190.262 109.821 190.345 109.85 190.409 109.908C190.475 109.969 190.51 110.06 190.514 110.18H189.809Z" fill="white"/>
<path d="M191.202 111.088H191.538V110.171C191.538 110.063 191.57 109.981 191.633 109.924C191.696 109.867 191.775 109.838 191.871 109.838C191.968 109.838 192.047 109.867 192.108 109.924C192.17 109.981 192.201 110.063 192.201 110.171V111.088H192.537V110.064C192.532 109.888 192.472 109.754 192.359 109.663C192.244 109.573 192.117 109.528 191.979 109.528C191.8 109.528 191.655 109.589 191.545 109.711H191.538V109.547H191.202V111.088Z" fill="white"/>
<path d="M192.991 109.547H192.824V109.783H192.991V110.708C192.991 110.829 193.03 110.922 193.107 110.987C193.182 111.054 193.278 111.088 193.396 111.088H193.572V110.795H193.446C193.365 110.797 193.325 110.759 193.327 110.681V109.783H193.572V109.547H193.327V109.079H192.991V109.547Z" fill="white"/>
<path d="M193.888 110.714C193.888 110.849 193.93 110.946 194.014 111.003C194.093 111.059 194.194 111.088 194.316 111.088H194.466V110.795H194.35C194.266 110.795 194.225 110.76 194.225 110.69V108.924H193.888V110.714Z" fill="white"/>
<path d="M195.096 111.027L195.005 111.285C194.99 111.33 194.963 111.363 194.926 111.386C194.888 111.408 194.848 111.419 194.804 111.419H194.706V111.711H194.817C194.921 111.711 195.014 111.69 195.096 111.647C195.178 111.603 195.242 111.522 195.288 111.407L196.007 109.547H195.65L195.256 110.626H195.249L194.854 109.547H194.498L195.096 111.027Z" fill="white"/>
<path d="M196.993 111.088H197.329V110.16C197.331 110.048 197.367 109.966 197.435 109.915C197.496 109.864 197.57 109.838 197.656 109.838C197.732 109.838 197.805 109.864 197.876 109.915L198.12 109.647C198.021 109.57 197.904 109.53 197.77 109.528C197.591 109.528 197.446 109.589 197.335 109.711H197.329V109.547H196.993V111.088Z" fill="white"/>
<path d="M198.235 110.571C198.237 110.745 198.298 110.877 198.42 110.966C198.531 111.057 198.656 111.103 198.794 111.105C198.972 111.105 199.117 111.045 199.227 110.923H199.233V111.088H199.57V109.547H199.233V110.464C199.233 110.568 199.202 110.649 199.14 110.708C199.079 110.766 199 110.795 198.904 110.795C198.807 110.795 198.728 110.766 198.666 110.708C198.602 110.649 198.571 110.568 198.571 110.464V109.547H198.235V110.571Z" fill="white"/>
<path d="M200.004 111.088H200.34V110.171C200.34 110.063 200.372 109.981 200.435 109.924C200.497 109.867 200.577 109.838 200.673 109.838C200.77 109.838 200.848 109.867 200.91 109.924C200.972 109.981 201.003 110.063 201.003 110.171V111.088H201.339V110.064C201.334 109.888 201.274 109.754 201.16 109.663C201.046 109.573 200.919 109.528 200.781 109.528C200.602 109.528 200.457 109.589 200.347 109.711H200.34V109.547H200.004V111.088Z" fill="white"/>
<path d="M201.773 111.088H202.109V110.171C202.109 110.063 202.141 109.981 202.204 109.924C202.267 109.867 202.346 109.838 202.442 109.838C202.539 109.838 202.618 109.867 202.679 109.924C202.741 109.981 202.772 110.063 202.772 110.171V111.088H203.108V110.064C203.103 109.888 203.043 109.754 202.93 109.663C202.815 109.573 202.689 109.528 202.55 109.528C202.371 109.528 202.226 109.589 202.116 109.711H202.109V109.547H201.773V111.088Z" fill="white"/>
<path d="M203.552 111.088H203.888V109.547H203.552V111.088ZM203.552 109.234H203.888V108.924H203.552V109.234Z" fill="white"/>
<path d="M204.334 111.088H204.67V110.171C204.67 110.063 204.702 109.981 204.765 109.924C204.827 109.867 204.907 109.838 205.003 109.838C205.1 109.838 205.178 109.867 205.24 109.924C205.302 109.981 205.333 110.063 205.333 110.171V111.088H205.669V110.064C205.664 109.888 205.604 109.754 205.49 109.663C205.376 109.573 205.249 109.528 205.111 109.528C204.932 109.528 204.787 109.589 204.677 109.711H204.67V109.547H204.334V111.088Z" fill="white"/>
<path d="M207.043 110.926V111.085C207.041 111.19 207.005 111.272 206.937 111.331C206.867 111.389 206.775 111.419 206.66 111.419C206.599 111.417 206.54 111.401 206.483 111.373C206.427 111.347 206.378 111.316 206.335 111.279L206.074 111.47C206.234 111.639 206.427 111.725 206.653 111.729C206.851 111.729 207.02 111.673 207.162 111.561C207.302 111.452 207.375 111.282 207.379 111.051V109.547H207.043V109.711C206.922 109.589 206.778 109.528 206.612 109.528C206.503 109.53 206.413 109.549 206.341 109.586C206.266 109.625 206.209 109.668 206.169 109.717C206.125 109.766 206.094 109.827 206.074 109.899C206.054 109.972 206.044 110.112 206.044 110.319C206.044 110.522 206.054 110.659 206.074 110.732C206.094 110.805 206.125 110.867 206.169 110.917C206.209 110.962 206.266 111.003 206.341 111.042C206.413 111.082 206.503 111.103 206.612 111.105C206.789 111.102 206.932 111.042 207.043 110.926ZM206.38 110.319C206.38 110.199 206.384 110.116 206.393 110.07C206.4 110.023 206.418 109.986 206.446 109.957C206.468 109.929 206.503 109.902 206.549 109.875C206.593 109.853 206.648 109.84 206.713 109.838C206.778 109.84 206.833 109.853 206.877 109.875C206.921 109.902 206.954 109.929 206.977 109.957C207.005 109.986 207.023 110.023 207.033 110.07C207.039 110.116 207.043 110.199 207.043 110.319C207.043 110.437 207.039 110.518 207.033 110.562C207.023 110.609 207.005 110.647 206.977 110.678C206.954 110.706 206.921 110.731 206.877 110.754C206.833 110.782 206.778 110.795 206.713 110.795C206.648 110.795 206.593 110.782 206.549 110.754C206.503 110.731 206.468 110.706 206.446 110.678C206.418 110.647 206.4 110.609 206.393 110.562C206.384 110.518 206.38 110.437 206.38 110.319Z" fill="white"/>
</g>
<path d="M201.409 91.3761H202.58L203.122 96.8257H203.144L203.719 91.3761H205.045L205.62 96.8257H205.642L206.184 91.3761H207.234L206.449 98.4666H204.935L204.382 93.6856H204.36L203.807 98.4666H202.194L201.409 91.3761Z" fill="white"/>
<path d="M208.375 91.3761H211.692V92.389H209.591V94.2629H211.26V95.2759H209.591V97.4537H211.692V98.4666H208.375V91.3761Z" fill="white"/>
<path d="M212.917 91.3761H214.133V97.4537H216.134V98.4666H212.917V91.3761Z" fill="white"/>
<path d="M218.914 98.5679C218.332 98.5679 217.886 98.416 217.576 98.1121C217.274 97.8082 217.123 97.3794 217.123 96.8257V93.017C217.123 92.4633 217.274 92.0345 217.576 91.7306C217.886 91.4267 218.332 91.2748 218.914 91.2748C219.496 91.2748 219.938 91.4267 220.24 91.7306C220.55 92.0345 220.704 92.4633 220.704 93.017V93.7666H219.555V92.9461C219.555 92.5072 219.352 92.2877 218.947 92.2877C218.542 92.2877 218.339 92.5072 218.339 92.9461V96.9067C218.339 97.3389 218.542 97.555 218.947 97.555C219.352 97.555 219.555 97.3389 219.555 96.9067V95.8228H220.704V96.8257C220.704 97.3794 220.55 97.8082 220.24 98.1121C219.938 98.416 219.496 98.5679 218.914 98.5679Z" fill="white"/>
<path d="M223.737 98.5679C223.14 98.5679 222.684 98.4126 222.367 98.1019C222.05 97.7913 221.891 97.3524 221.891 96.7851V93.0575C221.891 92.4903 222.05 92.0514 222.367 91.7407C222.684 91.4301 223.14 91.2748 223.737 91.2748C224.334 91.2748 224.791 91.4301 225.108 91.7407C225.425 92.0514 225.583 92.4903 225.583 93.0575V96.7851C225.583 97.3524 225.425 97.7913 225.108 98.1019C224.791 98.4126 224.334 98.5679 223.737 98.5679ZM223.737 97.555C224.157 97.555 224.367 97.322 224.367 96.856V92.9866C224.367 92.5207 224.157 92.2877 223.737 92.2877C223.317 92.2877 223.107 92.5207 223.107 92.9866V96.856C223.107 97.322 223.317 97.555 223.737 97.555Z" fill="white"/>
<path d="M226.932 91.3761H228.667L229.441 96.4509H229.463L230.237 91.3761H231.973V98.4666H230.823V93.0981H230.801L229.917 98.4666H228.9L228.015 93.0981H227.993V98.4666H226.932V91.3761Z" fill="white"/>
<path d="M233.406 91.3761H236.722V92.389H234.622V94.2629H236.291V95.2759H234.622V97.4537H236.722V98.4666H233.406V91.3761Z" fill="white"/>
<path d="M220.437 105.739C220.437 105.068 221.027 104.524 221.755 104.524H263.833C264.561 104.524 265.151 105.068 265.151 105.739V114.448C265.151 115.119 264.561 115.664 263.833 115.664H221.755C221.027 115.664 220.437 115.119 220.437 114.448V105.739Z" fill="#FAAC48"/>
<path d="M226.668 108.967H227.181C227.278 108.965 227.363 108.985 227.435 109.028C227.484 109.053 227.521 109.089 227.548 109.133C227.574 109.182 227.587 109.243 227.587 109.316C227.587 109.403 227.555 109.482 227.492 109.553C227.425 109.626 227.326 109.664 227.194 109.666H226.668V108.967ZM226.313 110.82H226.668V109.976H227.209C227.45 109.972 227.633 109.901 227.759 109.762C227.881 109.631 227.942 109.485 227.942 109.324C227.942 109.206 227.918 109.103 227.87 109.016C227.824 108.926 227.764 108.857 227.69 108.808C227.602 108.744 227.515 108.701 227.429 108.68C227.343 108.665 227.254 108.657 227.162 108.657H226.313V110.82Z" fill="#333333"/>
<path d="M228.235 110.82H228.571V109.893C228.573 109.78 228.609 109.698 228.677 109.648C228.738 109.596 228.812 109.571 228.898 109.571C228.974 109.571 229.047 109.596 229.118 109.648L229.362 109.379C229.263 109.302 229.146 109.263 229.012 109.261C228.833 109.261 228.688 109.321 228.578 109.443H228.571V109.28H228.235V110.82Z" fill="#333333"/>
<path d="M229.375 110.049C229.375 110.211 229.39 110.334 229.419 110.419C229.449 110.505 229.495 110.578 229.557 110.641C229.603 110.689 229.668 110.733 229.75 110.771C229.832 110.814 229.936 110.836 230.064 110.838C230.196 110.836 230.302 110.814 230.384 110.771C230.428 110.753 230.464 110.732 230.492 110.707C230.523 110.686 230.549 110.663 230.57 110.641C230.637 110.578 230.684 110.505 230.712 110.419C230.739 110.334 230.752 110.211 230.752 110.049C230.752 109.886 230.739 109.762 230.712 109.675C230.684 109.59 230.637 109.518 230.57 109.459C230.526 109.408 230.464 109.362 230.384 109.321C230.302 109.283 230.196 109.263 230.064 109.261C229.936 109.263 229.832 109.283 229.75 109.321C229.668 109.362 229.603 109.408 229.557 109.459C229.495 109.518 229.449 109.59 229.419 109.675C229.39 109.762 229.375 109.886 229.375 110.049ZM230.416 110.052C230.416 110.156 230.411 110.234 230.4 110.283C230.389 110.333 230.367 110.378 230.334 110.417C230.309 110.446 230.273 110.472 230.225 110.495C230.178 110.517 230.125 110.528 230.064 110.528C230.007 110.528 229.954 110.517 229.906 110.495C229.86 110.472 229.822 110.446 229.794 110.417C229.765 110.378 229.744 110.333 229.731 110.283C229.718 110.234 229.711 110.155 229.711 110.049C229.711 109.941 229.718 109.862 229.731 109.811C229.744 109.763 229.765 109.72 229.794 109.684C229.822 109.649 229.86 109.622 229.906 109.602C229.954 109.581 230.007 109.571 230.064 109.571C230.125 109.571 230.178 109.581 230.225 109.602C230.273 109.622 230.309 109.649 230.334 109.684C230.367 109.72 230.389 109.763 230.4 109.811C230.411 109.862 230.416 109.942 230.416 110.052Z" fill="#333333"/>
<path d="M232.044 110.658V110.817C232.042 110.922 232.006 111.004 231.938 111.063C231.868 111.122 231.776 111.151 231.661 111.151C231.6 111.149 231.541 111.134 231.484 111.105C231.428 111.079 231.379 111.048 231.336 111.012L231.075 111.203C231.235 111.371 231.428 111.457 231.655 111.461C231.852 111.461 232.021 111.405 232.163 111.293C232.303 111.185 232.376 111.014 232.38 110.783V109.28H232.044V109.443C231.923 109.321 231.779 109.261 231.613 109.261C231.504 109.263 231.414 109.282 231.342 109.319C231.267 109.357 231.21 109.401 231.17 109.449C231.126 109.499 231.095 109.559 231.075 109.632C231.055 109.705 231.045 109.845 231.045 110.052C231.045 110.254 231.055 110.392 231.075 110.464C231.095 110.537 231.126 110.599 231.17 110.649C231.21 110.694 231.267 110.736 231.342 110.774C231.414 110.815 231.504 110.836 231.613 110.838C231.79 110.834 231.933 110.774 232.044 110.658ZM231.381 110.052C231.381 109.932 231.385 109.849 231.394 109.802C231.401 109.756 231.419 109.718 231.447 109.689C231.47 109.662 231.504 109.635 231.55 109.608C231.594 109.585 231.649 109.573 231.714 109.571C231.779 109.573 231.834 109.585 231.878 109.608C231.922 109.635 231.955 109.662 231.978 109.689C232.006 109.718 232.025 109.756 232.034 109.802C232.041 109.849 232.044 109.932 232.044 110.052C232.044 110.169 232.041 110.25 232.034 110.295C232.025 110.341 232.006 110.38 231.978 110.411C231.955 110.438 231.922 110.463 231.878 110.486C231.834 110.514 231.779 110.528 231.714 110.528C231.649 110.528 231.594 110.514 231.55 110.486C231.504 110.463 231.47 110.438 231.447 110.411C231.419 110.38 231.401 110.341 231.394 110.295C231.385 110.25 231.381 110.169 231.381 110.052Z" fill="#333333"/>
<path d="M232.816 110.82H233.152V109.893C233.154 109.78 233.19 109.698 233.258 109.648C233.319 109.596 233.393 109.571 233.479 109.571C233.555 109.571 233.628 109.596 233.699 109.648L233.943 109.379C233.844 109.302 233.727 109.263 233.593 109.261C233.414 109.261 233.269 109.321 233.158 109.443H233.152V109.28H232.816V110.82Z" fill="#333333"/>
<path d="M234.915 110.82H235.251V109.768C235.249 109.58 235.185 109.448 235.06 109.37C234.934 109.295 234.766 109.259 234.556 109.261C234.307 109.257 234.119 109.332 233.992 109.486L234.255 109.672C234.284 109.627 234.324 109.595 234.375 109.577C234.423 109.561 234.489 109.553 234.572 109.553C234.803 109.549 234.917 109.615 234.915 109.75V109.912H234.45C234.272 109.914 234.137 109.959 234.045 110.046C233.953 110.131 233.906 110.238 233.906 110.368C233.906 110.503 233.96 110.614 234.066 110.701C234.166 110.79 234.31 110.836 234.497 110.838C234.61 110.838 234.699 110.825 234.764 110.799C234.829 110.775 234.877 110.736 234.909 110.684H234.915V110.82ZM234.915 110.279C234.915 110.394 234.889 110.468 234.836 110.501C234.778 110.534 234.679 110.549 234.539 110.547C234.427 110.547 234.347 110.527 234.299 110.486C234.249 110.45 234.223 110.405 234.223 110.353C234.221 110.233 234.318 110.171 234.513 110.167H234.915V110.279Z" fill="#333333"/>
<path d="M235.705 110.82H236.041V109.903C236.041 109.795 236.073 109.713 236.137 109.657C236.199 109.599 236.277 109.571 236.374 109.571C236.47 109.571 236.55 109.599 236.612 109.657C236.673 109.713 236.704 109.795 236.704 109.903V110.82H237.04V109.903C237.04 109.795 237.071 109.713 237.135 109.657C237.197 109.599 237.276 109.571 237.373 109.571C237.469 109.571 237.548 109.599 237.609 109.657C237.67 109.713 237.701 109.795 237.701 109.903V110.82H238.037V109.796C238.033 109.62 237.974 109.487 237.86 109.396C237.745 109.306 237.619 109.261 237.481 109.261C237.261 109.259 237.085 109.326 236.955 109.462C236.897 109.403 236.833 109.354 236.763 109.316C236.692 109.281 236.599 109.263 236.483 109.261C236.303 109.261 236.158 109.321 236.047 109.443H236.041V109.28H235.705V110.82Z" fill="#333333"/>
<path d="M240.162 110.82H240.498V109.768C240.496 109.58 240.432 109.448 240.307 109.37C240.181 109.295 240.013 109.259 239.803 109.261C239.554 109.257 239.366 109.332 239.239 109.486L239.502 109.672C239.531 109.627 239.571 109.595 239.621 109.577C239.67 109.561 239.736 109.553 239.819 109.553C240.05 109.549 240.164 109.615 240.162 109.75V109.912H239.697C239.519 109.914 239.384 109.959 239.292 110.046C239.199 110.131 239.153 110.238 239.153 110.368C239.153 110.503 239.206 110.614 239.313 110.701C239.413 110.79 239.557 110.836 239.744 110.838C239.857 110.838 239.946 110.825 240.011 110.799C240.076 110.775 240.124 110.736 240.155 110.684H240.162V110.82ZM240.162 110.279C240.162 110.394 240.136 110.468 240.083 110.501C240.025 110.534 239.926 110.549 239.785 110.547C239.674 110.547 239.594 110.527 239.546 110.486C239.495 110.45 239.47 110.405 239.47 110.353C239.468 110.233 239.565 110.171 239.76 110.167H240.162V110.279Z" fill="#333333"/>
<path d="M241.724 110.82H242.06V109.903C242.06 109.795 242.092 109.713 242.155 109.657C242.217 109.599 242.296 109.571 242.393 109.571C242.489 109.571 242.568 109.599 242.629 109.657C242.691 109.713 242.723 109.795 242.723 109.903V110.82H243.059V109.796C243.053 109.62 242.994 109.487 242.88 109.396C242.765 109.306 242.639 109.261 242.501 109.261C242.322 109.261 242.177 109.321 242.066 109.443H242.06V109.28H241.724V110.82Z" fill="#333333"/>
<path d="M244.788 110.167V109.912C244.786 109.709 244.718 109.55 244.584 109.434C244.452 109.32 244.29 109.263 244.099 109.261C244.02 109.261 243.94 109.274 243.858 109.301C243.776 109.327 243.701 109.371 243.635 109.431C243.569 109.491 243.516 109.572 243.474 109.675C243.432 109.776 243.411 109.902 243.411 110.054C243.411 110.213 243.435 110.341 243.483 110.44C243.527 110.543 243.585 110.623 243.656 110.681C243.692 110.708 243.731 110.732 243.773 110.75C243.813 110.772 243.853 110.789 243.895 110.802C243.979 110.826 244.065 110.838 244.153 110.838C244.383 110.84 244.584 110.757 244.754 110.589L244.511 110.397C244.404 110.497 244.282 110.547 244.146 110.547C244.029 110.547 243.935 110.514 243.863 110.449C243.786 110.385 243.747 110.291 243.747 110.167H244.788ZM243.747 109.912C243.754 109.792 243.788 109.702 243.852 109.64C243.916 109.582 243.999 109.553 244.099 109.553C244.2 109.553 244.283 109.582 244.347 109.64C244.413 109.702 244.447 109.792 244.452 109.912H243.747Z" fill="#333333"/>
<path d="M246.464 110.82H246.762L247.294 109.28H246.938L246.62 110.359H246.614L246.234 109.28H245.991L245.611 110.359H245.605L245.285 109.28H244.929L245.463 110.82H245.759L246.108 109.741H246.115L246.464 110.82Z" fill="#333333"/>
<path d="M248.312 111.443H248.648V110.655C248.709 110.711 248.776 110.754 248.849 110.786C248.917 110.821 248.994 110.838 249.079 110.838C249.183 110.836 249.272 110.817 249.346 110.78C249.421 110.744 249.482 110.697 249.528 110.638C249.574 110.587 249.606 110.522 249.623 110.443C249.639 110.364 249.647 110.234 249.647 110.052C249.647 109.865 249.639 109.732 249.623 109.654C249.606 109.575 249.574 109.511 249.528 109.462C249.434 109.333 249.284 109.266 249.079 109.261C248.903 109.266 248.76 109.325 248.648 109.44V109.28H248.312V111.443ZM248.978 110.528C248.903 110.528 248.843 110.513 248.799 110.483C248.753 110.455 248.72 110.417 248.698 110.371C248.678 110.324 248.664 110.272 248.658 110.215C248.651 110.16 248.648 110.106 248.648 110.052C248.648 109.993 248.651 109.935 248.658 109.878C248.664 109.823 248.678 109.773 248.698 109.727C248.72 109.68 248.753 109.642 248.799 109.614C248.843 109.585 248.903 109.571 248.978 109.571C249.057 109.571 249.12 109.583 249.166 109.608C249.212 109.635 249.245 109.671 249.264 109.718C249.286 109.762 249.3 109.814 249.308 109.872C249.31 109.93 249.311 109.99 249.311 110.052C249.311 110.11 249.31 110.167 249.308 110.222C249.3 110.279 249.286 110.33 249.264 110.376C249.245 110.421 249.212 110.458 249.166 110.486C249.12 110.514 249.057 110.528 248.978 110.528Z" fill="#333333"/>
<path d="M250.024 110.82H250.36V109.893C250.362 109.78 250.397 109.698 250.466 109.648C250.527 109.596 250.6 109.571 250.686 109.571C250.762 109.571 250.836 109.596 250.907 109.648L251.151 109.379C251.051 109.302 250.934 109.263 250.8 109.261C250.621 109.261 250.477 109.321 250.366 109.443H250.36V109.28H250.024V110.82Z" fill="#333333"/>
<path d="M251.164 110.049C251.164 110.211 251.178 110.334 251.207 110.419C251.237 110.505 251.284 110.578 251.346 110.641C251.392 110.689 251.456 110.733 251.539 110.771C251.62 110.814 251.725 110.836 251.852 110.838C251.984 110.836 252.091 110.814 252.172 110.771C252.216 110.753 252.252 110.732 252.28 110.707C252.311 110.686 252.338 110.663 252.359 110.641C252.426 110.578 252.473 110.505 252.501 110.419C252.527 110.334 252.541 110.211 252.541 110.049C252.541 109.886 252.527 109.762 252.501 109.675C252.473 109.59 252.426 109.518 252.359 109.459C252.315 109.408 252.253 109.362 252.172 109.321C252.091 109.283 251.984 109.263 251.852 109.261C251.725 109.263 251.62 109.283 251.539 109.321C251.456 109.362 251.392 109.408 251.346 109.459C251.284 109.518 251.237 109.59 251.207 109.675C251.178 109.762 251.164 109.886 251.164 110.049ZM252.205 110.052C252.205 110.156 252.199 110.234 252.189 110.283C252.178 110.333 252.156 110.378 252.123 110.417C252.098 110.446 252.061 110.472 252.013 110.495C251.967 110.517 251.914 110.528 251.852 110.528C251.796 110.528 251.743 110.517 251.695 110.495C251.649 110.472 251.611 110.446 251.582 110.417C251.553 110.378 251.532 110.333 251.519 110.283C251.507 110.234 251.5 110.155 251.5 110.049C251.5 109.941 251.507 109.862 251.519 109.811C251.532 109.763 251.553 109.72 251.582 109.684C251.611 109.649 251.649 109.622 251.695 109.602C251.743 109.581 251.796 109.571 251.852 109.571C251.914 109.571 251.967 109.581 252.013 109.602C252.061 109.622 252.098 109.649 252.123 109.684C252.156 109.72 252.178 109.763 252.189 109.811C252.199 109.862 252.205 109.942 252.205 110.052Z" fill="#333333"/>
<path d="M252.912 109.28H252.745V109.516H252.912V110.44C252.912 110.562 252.951 110.655 253.028 110.719C253.103 110.786 253.2 110.82 253.318 110.82H253.493V110.528H253.368C253.286 110.53 253.246 110.492 253.249 110.414V109.516H253.493V109.28H253.249V108.811H252.912V109.28Z" fill="#333333"/>
<path d="M253.728 110.049C253.728 110.211 253.742 110.334 253.771 110.419C253.801 110.505 253.847 110.578 253.91 110.641C253.956 110.689 254.02 110.733 254.103 110.771C254.184 110.814 254.289 110.836 254.416 110.838C254.548 110.836 254.655 110.814 254.736 110.771C254.78 110.753 254.816 110.732 254.844 110.707C254.875 110.686 254.902 110.663 254.923 110.641C254.989 110.578 255.037 110.505 255.065 110.419C255.091 110.334 255.105 110.211 255.105 110.049C255.105 109.886 255.091 109.762 255.065 109.675C255.037 109.59 254.989 109.518 254.923 109.459C254.879 109.408 254.817 109.362 254.736 109.321C254.655 109.283 254.548 109.263 254.416 109.261C254.289 109.263 254.184 109.283 254.103 109.321C254.02 109.362 253.956 109.408 253.91 109.459C253.847 109.518 253.801 109.59 253.771 109.675C253.742 109.762 253.728 109.886 253.728 110.049ZM254.769 110.052C254.769 110.156 254.763 110.234 254.752 110.283C254.742 110.333 254.72 110.378 254.687 110.417C254.662 110.446 254.625 110.472 254.577 110.495C254.531 110.517 254.477 110.528 254.416 110.528C254.359 110.528 254.307 110.517 254.259 110.495C254.213 110.472 254.175 110.446 254.146 110.417C254.117 110.378 254.096 110.333 254.083 110.283C254.07 110.234 254.064 110.155 254.064 110.049C254.064 109.941 254.07 109.862 254.083 109.811C254.096 109.763 254.117 109.72 254.146 109.684C254.175 109.649 254.213 109.622 254.259 109.602C254.307 109.581 254.359 109.571 254.416 109.571C254.477 109.571 254.531 109.581 254.577 109.602C254.625 109.622 254.662 109.649 254.687 109.684C254.72 109.72 254.742 109.763 254.752 109.811C254.763 109.862 254.769 109.942 254.769 110.052Z" fill="#333333"/>
<path d="M256.438 110.368C256.353 110.472 256.24 110.526 256.099 110.528C255.814 110.533 255.669 110.374 255.665 110.052C255.669 109.727 255.814 109.567 256.099 109.571C256.24 109.575 256.353 109.629 256.438 109.732L256.686 109.529C256.613 109.448 256.527 109.383 256.429 109.335C256.33 109.287 256.216 109.263 256.086 109.261C255.889 109.259 255.715 109.319 255.566 109.443C255.412 109.569 255.333 109.772 255.328 110.052C255.333 110.328 255.412 110.529 255.566 110.652C255.715 110.776 255.889 110.838 256.086 110.838C256.216 110.836 256.33 110.81 256.429 110.759C256.527 110.711 256.613 110.648 256.686 110.571L256.438 110.368Z" fill="#333333"/>
<path d="M256.839 110.049C256.839 110.211 256.853 110.334 256.882 110.419C256.912 110.505 256.958 110.578 257.02 110.641C257.067 110.689 257.131 110.733 257.213 110.771C257.295 110.814 257.4 110.836 257.527 110.838C257.659 110.836 257.766 110.814 257.847 110.771C257.891 110.753 257.927 110.732 257.955 110.707C257.986 110.686 258.012 110.663 258.034 110.641C258.1 110.578 258.147 110.505 258.175 110.419C258.202 110.334 258.216 110.211 258.216 110.049C258.216 109.886 258.202 109.762 258.175 109.675C258.147 109.59 258.1 109.518 258.034 109.459C257.99 109.408 257.928 109.362 257.847 109.321C257.766 109.283 257.659 109.263 257.527 109.261C257.4 109.263 257.295 109.283 257.213 109.321C257.131 109.362 257.067 109.408 257.02 109.459C256.958 109.518 256.912 109.59 256.882 109.675C256.853 109.762 256.839 109.886 256.839 110.049ZM257.879 110.052C257.879 110.156 257.874 110.234 257.863 110.283C257.853 110.333 257.831 110.378 257.797 110.417C257.773 110.446 257.736 110.472 257.688 110.495C257.642 110.517 257.588 110.528 257.527 110.528C257.47 110.528 257.418 110.517 257.37 110.495C257.323 110.472 257.286 110.446 257.257 110.417C257.228 110.378 257.207 110.333 257.194 110.283C257.181 110.234 257.175 110.155 257.175 110.049C257.175 109.941 257.181 109.862 257.194 109.811C257.207 109.763 257.228 109.72 257.257 109.684C257.286 109.649 257.323 109.622 257.37 109.602C257.418 109.581 257.47 109.571 257.527 109.571C257.588 109.571 257.642 109.581 257.688 109.602C257.736 109.622 257.773 109.649 257.797 109.684C257.831 109.72 257.853 109.763 257.863 109.811C257.874 109.862 257.879 109.942 257.879 110.052Z" fill="#333333"/>
<path d="M258.568 110.446C258.568 110.582 258.61 110.678 258.693 110.736C258.773 110.792 258.873 110.82 258.996 110.82H259.145V110.528H259.029C258.946 110.528 258.904 110.493 258.904 110.422V108.657H258.568V110.446Z" fill="#333333"/>
</g>
<defs>
<linearGradient id="paint0_linear" x1="53.0365" y1="0" x2="53.0365" y2="73.1814" gradientUnits="userSpaceOnUse">
<stop stop-color="#0063C3"/>
<stop offset="1" stop-color="#003E6B"/>
</linearGradient>
<linearGradient id="paint1_linear" x1="53.0365" y1="0" x2="53.0365" y2="73.1814" gradientUnits="userSpaceOnUse">
<stop stop-color="#014070" stop-opacity="0"/>
<stop offset="1" stop-color="#014070"/>
</linearGradient>
<linearGradient id="paint2_linear" x1="222.689" y1="87.0204" x2="222.689" y2="146.216" gradientUnits="userSpaceOnUse">
<stop stop-color="#014070" stop-opacity="0"/>
<stop offset="1" stop-color="#014070"/>
</linearGradient>
<clipPath id="clip0">
<rect width="106.073" height="73.1814" fill="white" transform="translate(166.095 67.9368)"/>
</clipPath>
</defs>
</svg>
